<?xml version="1.0" encoding="UTF-8" standalone="no"?><svg xmlns="http://www.w3.org/2000/svg" xmlns:xlink="http://www.w3.org/1999/xlink" clip-rule="evenodd" stroke-miterlimit="10" viewBox="0 0 1920 1080"><desc>SVG generated by Keynote</desc><defs></defs><g transform="matrix(1.00, 0.00, -0.00, -1.00, 0.0, 1080.0)"><path d="M 0.0 1080.0 L 1920.0 1080.0 L 1920.0 0.0 L 0.0 0.0 Z M 0.0 1080.0 " fill="#FEFFFE"></path><image xlink:href="../../46F02FC2-67EC-4D9F-A726-2859EF20AF72/assets/D852046C21386C489959772BE2F1EA2B.png" width="681.00" height="357.00" transform="matrix(0.22, 0.00, -0.00, -0.22, 10.0, 90.0)"></image><text xml:space="preserve" font-family="BebasNeueBold,Bebas Neue" font-weight="bold" font-size="114.0" fill="#000000" transform="matrix(1.00, 0.00, -0.00, -1.00, 31.8, 967.2)">D</text><text xml:space="preserve" font-family="BebasNeueBold,Bebas Neue" font-weight="bold" font-size="114.0" fill="#000000" transform="matrix(1.00, 0.00, -0.00, -1.00, 78.2, 967.2)">A</text><text xml:space="preserve" font-family="BebasNeueBold,Bebas Neue" font-weight="bold" font-size="114.0" fill="#000000" transform="matrix(1.00, 0.00, -0.00, -1.00, 124.6, 967.2)">D</text><text xml:space="preserve" font-family="BebasNeueBold,Bebas Neue" font-weight="bold" font-size="114.0" fill="#000000" transform="matrix(1.00, 0.00, -0.00, -1.00, 171.1, 967.2)">O</text><text xml:space="preserve" font-family="BebasNeueBold,Bebas Neue" font-weight="bold" font-size="114.0" fill="#000000" transform="matrix(1.00, 0.00, -0.00, -1.00, 216.3, 967.2)">S</text><text xml:space="preserve" font-family="BebasNeueBold,Bebas Neue" font-weight="bold" font-size="114.0" fill="#000000" transform="matrix(1.00, 0.00, -0.00, -1.00, 258.9, 967.2)"> </text><text xml:space="preserve" font-family="BebasNeueBold,Bebas Neue" font-weight="bold" font-size="114.0" fill="#000000" transform="matrix(1.00, 0.00, -0.00, -1.00, 276.6, 967.2)">B</text><text xml:space="preserve" font-family="BebasNeueBold,Bebas Neue" font-weight="bold" font-size="114.0" fill="#000000" transform="matrix(1.00, 0.00, -0.00, -1.00, 322.9, 967.2)">Á</text><text xml:space="preserve" font-family="BebasNeueBold,Bebas Neue" font-weight="bold" font-size="114.0" fill="#000000" transform="matrix(1.00, 0.00, -0.00, -1.00, 369.3, 967.2)">S</text><text xml:space="preserve" font-family="BebasNeueBold,Bebas Neue" font-weight="bold" font-size="114.0" fill="#000000" transform="matrix(1.00, 0.00, -0.00, -1.00, 411.9, 967.2)">I</text><text xml:space="preserve" font-family="BebasNeueBold,Bebas Neue" font-weight="bold" font-size="114.0" fill="#000000" transform="matrix(1.00, 0.00, -0.00, -1.00, 433.6, 967.2)">C</text><text xml:space="preserve" font-family="BebasNeueBold,Bebas Neue" font-weight="bold" font-size="114.0" fill="#000000" transform="matrix(1.00, 0.00, -0.00, -1.00, 477.6, 967.2)">O</text><text xml:space="preserve" font-family="BebasNeueBold,Bebas Neue" font-weight="bold" font-size="114.0" fill="#000000" transform="matrix(1.00, 0.00, -0.00, -1.00, 522.7, 967.2)">S</text><text xml:space="preserve" font-family="Helvetica-Light,Helvetica" font-size="50.0" fill="#FEFFFF" transform="matrix(1.00, 0.00, -0.00, -1.00, 1815.4, 15.5)">V</text><text xml:space="preserve" font-family="Helvetica-Light,Helvetica" font-size="50.0" fill="#FEFFFF" transform="matrix(1.00, 0.00, -0.00, -1.00, 1845.9, 15.5)">O</text><text xml:space="preserve" font-family="Helvetica-Light,Helvetica" font-size="50.0" fill="#FEFFFF" transform="matrix(1.00, 0.00, -0.00, -1.00, 1884.8, 15.5)">L</text><image xlink:href="../../77EC243D-0C10-4669-A938-6F48CDBF5E28/assets/B7DCAFF8C216E8D1B6AEB270EB033B1A.png" width="3004.00" height="2254.00" transform="matrix(0.22, 0.00, -0.00, -0.22, 1262.0, 491.0)"></image><image xlink:href="../../38750632-507D-4002-8190-1B8B9BDA1E66/assets/21FB01D577A03E0CCECE975AA2A3AE99.png" width="1118.00" height="914.00" transform="matrix(0.77, 0.00, -0.00, -0.77, 43.0, 890.0)"></image><path d="M 0.3 0.2 L 845.3 0.2 L 845.3 35.2 L 0.3 35.2 Z M 0.0 0.0 " fill="none" stroke="#F32D2D" stroke-width="5.00" transform="matrix(1.00, 0.00, 0.00, -1.00, 49.2, 649.7)"></path><image xlink:href="../../38750632-507D-4002-8190-1B8B9BDA1E66/assets/4DD6FD446DE6C041E0FA769333055FFA.png" width="1194.00" height="864.00" transform="matrix(0.82, 0.00, -0.00, -0.82, 915.0, 899.0)"></image><path d="M 0.3 0.1 L 974.3 0.1 L 974.3 340.1 L 0.3 340.1 Z M 0.0 0.0 " fill="none" stroke="#F32D2D" stroke-width="5.00" transform="matrix(1.00, 0.00, 0.00, -1.00, 917.2, 536.6)"></path><text xml:space="preserve" font-family="Helvetica-LightOblique,Helvetica" font-style="italic" font-size="25.0" fill="#000000" transform="matrix(1.00, 0.00, -0.00, -1.00, 46.1, 109.7)">F</text><text xml:space="preserve" font-family="Helvetica-LightOblique,Helvetica" font-style="italic" font-size="25.0" fill="#000000" transform="matrix(1.00, 0.00, -0.00, -1.00, 60.0, 109.7)">o</text><text xml:space="preserve" font-family="Helvetica-LightOblique,Helvetica" font-style="italic" font-size="25.0" fill="#000000" transform="matrix(1.00, 0.00, -0.00, -1.00, 73.9, 109.7)">n</text><text xml:space="preserve" font-family="Helvetica-LightOblique,Helvetica" font-style="italic" font-size="25.0" fill="#000000" transform="matrix(1.00, 0.00, -0.00, -1.00, 87.8, 109.7)">t</text><text xml:space="preserve" font-family="Helvetica-LightOblique,Helvetica" font-style="italic" font-size="25.0" fill="#000000" transform="matrix(1.00, 0.00, -0.00, -1.00, 94.7, 109.7)">e</text><text xml:space="preserve" font-family="Helvetica-LightOblique,Helvetica" font-style="italic" font-size="25.0" fill="#000000" transform="matrix(1.00, 0.00, -0.00, -1.00, 108.6, 109.7)">:</text><text xml:space="preserve" font-family="Helvetica-LightOblique,Helvetica" font-style="italic" font-size="25.0" fill="#000000" transform="matrix(1.00, 0.00, -0.00, -1.00, 115.6, 109.7)"> </text><text xml:space="preserve" font-family="Helvetica-LightOblique,Helvetica" font-style="italic" font-size="25.0" fill="#000000" transform="matrix(1.00, 0.00, -0.00, -1.00, 122.5, 109.7)">D</text><text xml:space="preserve" font-family="Helvetica-LightOblique,Helvetica" font-style="italic" font-size="25.0" fill="#000000" transform="matrix(1.00, 0.00, -0.00, -1.00, 140.6, 109.7)">i</text><text xml:space="preserve" font-family="Helvetica-LightOblique,Helvetica" font-style="italic" font-size="25.0" fill="#000000" transform="matrix(1.00, 0.00, -0.00, -1.00, 146.1, 109.7)">a</text><text xml:space="preserve" font-family="Helvetica-LightOblique,Helvetica" font-style="italic" font-size="25.0" fill="#000000" transform="matrix(1.00, 0.00, -0.00, -1.00, 160.0, 109.7)">g</text><text xml:space="preserve" font-family="Helvetica-LightOblique,Helvetica" font-style="italic" font-size="25.0" fill="#000000" transform="matrix(1.00, 0.00, -0.00, -1.00, 175.3, 109.7)">n</text><text xml:space="preserve" font-family="Helvetica-LightOblique,Helvetica" font-style="italic" font-size="25.0" fill="#000000" transform="matrix(1.00, 0.00, -0.00, -1.00, 189.2, 109.7)">ó</text><text xml:space="preserve" font-family="Helvetica-LightOblique,Helvetica" font-style="italic" font-size="25.0" fill="#000000" transform="matrix(1.00, 0.00, -0.00, -1.00, 203.1, 109.7)">s</text><text xml:space="preserve" font-family="Helvetica-LightOblique,Helvetica" font-style="italic" font-size="25.0" fill="#000000" transform="matrix(1.00, 0.00, -0.00, -1.00, 215.6, 109.7)">t</text><text xml:space="preserve" font-family="Helvetica-LightOblique,Helvetica" font-style="italic" font-size="25.0" fill="#000000" transform="matrix(1.00, 0.00, -0.00, -1.00, 222.5, 109.7)">i</text><text xml:space="preserve" font-family="Helvetica-LightOblique,Helvetica" font-style="italic" font-size="25.0" fill="#000000" transform="matrix(1.00, 0.00, -0.00, -1.00, 228.1, 109.7)">c</text><text xml:space="preserve" font-family="Helvetica-LightOblique,Helvetica" font-style="italic" font-size="25.0" fill="#000000" transform="matrix(1.00, 0.00, -0.00, -1.00, 242.0, 109.7)">o</text><text xml:space="preserve" font-family="Helvetica-LightOblique,Helvetica" font-style="italic" font-size="25.0" fill="#000000" transform="matrix(1.00, 0.00, -0.00, -1.00, 255.9, 109.7)"> </text><text xml:space="preserve" font-family="Helvetica-LightOblique,Helvetica" font-style="italic" font-size="25.0" fill="#000000" transform="matrix(1.00, 0.00, -0.00, -1.00, 262.8, 109.7)">d</text><text xml:space="preserve" font-family="Helvetica-LightOblique,Helvetica" font-style="italic" font-size="25.0" fill="#000000" transform="matrix(1.00, 0.00, -0.00, -1.00, 278.1, 109.7)">o</text><text xml:space="preserve" font-family="Helvetica-LightOblique,Helvetica" font-style="italic" font-size="25.0" fill="#000000" transform="matrix(1.00, 0.00, -0.00, -1.00, 292.0, 109.7)">s</text><text xml:space="preserve" font-family="Helvetica-LightOblique,Helvetica" font-style="italic" font-size="25.0" fill="#000000" transform="matrix(1.00, 0.00, -0.00, -1.00, 304.5, 109.7)"> </text><text xml:space="preserve" font-family="Helvetica-LightOblique,Helvetica" font-style="italic" font-size="25.0" fill="#000000" transform="matrix(1.00, 0.00, -0.00, -1.00, 311.5, 109.7)">S</text><text xml:space="preserve" font-family="Helvetica-LightOblique,Helvetica" font-style="italic" font-size="25.0" fill="#000000" transform="matrix(1.00, 0.00, -0.00, -1.00, 326.7, 109.7)">e</text><text xml:space="preserve" font-family="Helvetica-LightOblique,Helvetica" font-style="italic" font-size="25.0" fill="#000000" transform="matrix(1.00, 0.00, -0.00, -1.00, 340.6, 109.7)">r</text><text xml:space="preserve" font-family="Helvetica-LightOblique,Helvetica" font-style="italic" font-size="25.0" fill="#000000" transform="matrix(1.00, 0.00, -0.00, -1.00, 349.0, 109.7)">v</text><text xml:space="preserve" font-family="Helvetica-LightOblique,Helvetica" font-style="italic" font-size="25.0" fill="#000000" transform="matrix(1.00, 0.00, -0.00, -1.00, 361.5, 109.7)">i</text><text xml:space="preserve" font-family="Helvetica-LightOblique,Helvetica" font-style="italic" font-size="25.0" fill="#000000" transform="matrix(1.00, 0.00, -0.00, -1.00, 367.0, 109.7)">ç</text><text xml:space="preserve" font-family="Helvetica-LightOblique,Helvetica" font-style="italic" font-size="25.0" fill="#000000" transform="matrix(1.00, 0.00, -0.00, -1.00, 380.9, 109.7)">o</text><text xml:space="preserve" font-family="Helvetica-LightOblique,Helvetica" font-style="italic" font-size="25.0" fill="#000000" transform="matrix(1.00, 0.00, -0.00, -1.00, 394.8, 109.7)">s</text><text xml:space="preserve" font-family="Helvetica-LightOblique,Helvetica" font-style="italic" font-size="25.0" fill="#000000" transform="matrix(1.00, 0.00, -0.00, -1.00, 407.3, 109.7)"> </text><text xml:space="preserve" font-family="Helvetica-LightOblique,Helvetica" font-style="italic" font-size="25.0" fill="#000000" transform="matrix(1.00, 0.00, -0.00, -1.00, 414.3, 109.7)">d</text><text xml:space="preserve" font-family="Helvetica-LightOblique,Helvetica" font-style="italic" font-size="25.0" fill="#000000" transform="matrix(1.00, 0.00, -0.00, -1.00, 429.5, 109.7)">e</text><text xml:space="preserve" font-family="Helvetica-LightOblique,Helvetica" font-style="italic" font-size="25.0" fill="#000000" transform="matrix(1.00, 0.00, -0.00, -1.00, 443.4, 109.7)"> </text><text xml:space="preserve" font-family="Helvetica-LightOblique,Helvetica" font-style="italic" font-size="25.0" fill="#000000" transform="matrix(1.00, 0.00, -0.00, -1.00, 450.4, 109.7)">Á</text><text xml:space="preserve" font-family="Helvetica-LightOblique,Helvetica" font-style="italic" font-size="25.0" fill="#000000" transform="matrix(1.00, 0.00, -0.00, -1.00, 467.1, 109.7)">g</text><text xml:space="preserve" font-family="Helvetica-LightOblique,Helvetica" font-style="italic" font-size="25.0" fill="#000000" transform="matrix(1.00, 0.00, -0.00, -1.00, 482.3, 109.7)">u</text><text xml:space="preserve" font-family="Helvetica-LightOblique,Helvetica" font-style="italic" font-size="25.0" fill="#000000" transform="matrix(1.00, 0.00, -0.00, -1.00, 496.2, 109.7)">a</text><text xml:space="preserve" font-family="Helvetica-LightOblique,Helvetica" font-style="italic" font-size="25.0" fill="#000000" transform="matrix(1.00, 0.00, -0.00, -1.00, 510.1, 109.7)"> </text><text xml:space="preserve" font-family="Helvetica-LightOblique,Helvetica" font-style="italic" font-size="25.0" fill="#000000" transform="matrix(1.00, 0.00, -0.00, -1.00, 517.1, 109.7)">e</text><text xml:space="preserve" font-family="Helvetica-LightOblique,Helvetica" font-style="italic" font-size="25.0" fill="#000000" transform="matrix(1.00, 0.00, -0.00, -1.00, 531.0, 109.7)"> </text><text xml:space="preserve" font-family="Helvetica-LightOblique,Helvetica" font-style="italic" font-size="25.0" fill="#000000" transform="matrix(1.00, 0.00, -0.00, -1.00, 537.9, 109.7)">E</text><text xml:space="preserve" font-family="Helvetica-LightOblique,Helvetica" font-style="italic" font-size="25.0" fill="#000000" transform="matrix(1.00, 0.00, -0.00, -1.00, 553.2, 109.7)">s</text><text xml:space="preserve" font-family="Helvetica-LightOblique,Helvetica" font-style="italic" font-size="25.0" fill="#000000" transform="matrix(1.00, 0.00, -0.00, -1.00, 565.7, 109.7)">g</text><text xml:space="preserve" font-family="Helvetica-LightOblique,Helvetica" font-style="italic" font-size="25.0" fill="#000000" transform="matrix(1.00, 0.00, -0.00, -1.00, 581.0, 109.7)">o</text><text xml:space="preserve" font-family="Helvetica-LightOblique,Helvetica" font-style="italic" font-size="25.0" fill="#000000" transform="matrix(1.00, 0.00, -0.00, -1.00, 594.9, 109.7)">t</text><text xml:space="preserve" font-family="Helvetica-LightOblique,Helvetica" font-style="italic" font-size="25.0" fill="#000000" transform="matrix(1.00, 0.00, -0.00, -1.00, 601.8, 109.7)">o</text><text xml:space="preserve" font-family="Helvetica-LightOblique,Helvetica" font-style="italic" font-size="25.0" fill="#000000" transform="matrix(1.00, 0.00, -0.00, -1.00, 615.7, 109.7)"> </text><text xml:space="preserve" font-family="Helvetica-LightOblique,Helvetica" font-style="italic" font-size="25.0" fill="#000000" transform="matrix(1.00, 0.00, -0.00, -1.00, 622.7, 109.7)">-</text><text xml:space="preserve" font-family="Helvetica-LightOblique,Helvetica" font-style="italic" font-size="25.0" fill="#000000" transform="matrix(1.00, 0.00, -0.00, -1.00, 631.0, 109.7)"> </text><text xml:space="preserve" font-family="Helvetica-LightOblique,Helvetica" font-style="italic" font-size="25.0" fill="#000000" transform="matrix(1.00, 0.00, -0.00, -1.00, 638.0, 109.7)">2</text><text xml:space="preserve" font-family="Helvetica-LightOblique,Helvetica" font-style="italic" font-size="25.0" fill="#000000" transform="matrix(1.00, 0.00, -0.00, -1.00, 651.9, 109.7)">0</text><text xml:space="preserve" font-family="Helvetica-LightOblique,Helvetica" font-style="italic" font-size="25.0" fill="#000000" transform="matrix(1.00, 0.00, -0.00, -1.00, 665.8, 109.7)">1</text><text xml:space="preserve" font-family="Helvetica-LightOblique,Helvetica" font-style="italic" font-size="25.0" fill="#000000" transform="matrix(1.00, 0.00, -0.00, -1.00, 679.7, 109.7)">3</text><text xml:space="preserve" font-family="Helvetica-LightOblique,Helvetica" font-style="italic" font-size="25.0" fill="#000000" transform="matrix(1.00, 0.00, -0.00, -1.00, 693.6, 109.7)">.</text><text xml:space="preserve" font-family="Helvetica-LightOblique,Helvetica" font-style="italic" font-size="25.0" fill="#000000" transform="matrix(1.00, 0.00, -0.00, -1.00, 700.5, 109.7)"> </text><text xml:space="preserve" font-family="Helvetica-LightOblique,Helvetica" font-style="italic" font-size="25.0" fill="#000000" transform="matrix(1.00, 0.00, -0.00, -1.00, 707.5, 109.7)">M</text><text xml:space="preserve" font-family="Helvetica-LightOblique,Helvetica" font-style="italic" font-size="25.0" fill="#000000" transform="matrix(1.00, 0.00, -0.00, -1.00, 728.3, 109.7)">i</text><text xml:space="preserve" font-family="Helvetica-LightOblique,Helvetica" font-style="italic" font-size="25.0" fill="#000000" transform="matrix(1.00, 0.00, -0.00, -1.00, 733.8, 109.7)">n</text><text xml:space="preserve" font-family="Helvetica-LightOblique,Helvetica" font-style="italic" font-size="25.0" fill="#000000" transform="matrix(1.00, 0.00, -0.00, -1.00, 747.7, 109.7)">i</text><text xml:space="preserve" font-family="Helvetica-LightOblique,Helvetica" font-style="italic" font-size="25.0" fill="#000000" transform="matrix(1.00, 0.00, -0.00, -1.00, 753.3, 109.7)">s</text><text xml:space="preserve" font-family="Helvetica-LightOblique,Helvetica" font-style="italic" font-size="25.0" fill="#000000" transform="matrix(1.00, 0.00, -0.00, -1.00, 765.8, 109.7)">t</text><text xml:space="preserve" font-family="Helvetica-LightOblique,Helvetica" font-style="italic" font-size="25.0" fill="#000000" transform="matrix(1.00, 0.00, -0.00, -1.00, 772.7, 109.7)">é</text><text xml:space="preserve" font-family="Helvetica-LightOblique,Helvetica" font-style="italic" font-size="25.0" fill="#000000" transform="matrix(1.00, 0.00, -0.00, -1.00, 786.6, 109.7)">r</text><text xml:space="preserve" font-family="Helvetica-LightOblique,Helvetica" font-style="italic" font-size="25.0" fill="#000000" transform="matrix(1.00, 0.00, -0.00, -1.00, 795.0, 109.7)">i</text><text xml:space="preserve" font-family="Helvetica-LightOblique,Helvetica" font-style="italic" font-size="25.0" fill="#000000" transform="matrix(1.00, 0.00, -0.00, -1.00, 800.5, 109.7)">o</text><text xml:space="preserve" font-family="Helvetica-LightOblique,Helvetica" font-style="italic" font-size="25.0" fill="#000000" transform="matrix(1.00, 0.00, -0.00, -1.00, 814.4, 109.7)"> </text><text xml:space="preserve" font-family="Helvetica-LightOblique,Helvetica" font-style="italic" font-size="25.0" fill="#000000" transform="matrix(1.00, 0.00, -0.00, -1.00, 821.4, 109.7)">d</text><text xml:space="preserve" font-family="Helvetica-LightOblique,Helvetica" font-style="italic" font-size="25.0" fill="#000000" transform="matrix(1.00, 0.00, -0.00, -1.00, 836.6, 109.7)">a</text><text xml:space="preserve" font-family="Helvetica-LightOblique,Helvetica" font-style="italic" font-size="25.0" fill="#000000" transform="matrix(1.00, 0.00, -0.00, -1.00, 850.5, 109.7)">s</text><text xml:space="preserve" font-family="Helvetica-LightOblique,Helvetica" font-style="italic" font-size="25.0" fill="#000000" transform="matrix(1.00, 0.00, -0.00, -1.00, 863.0, 109.7)"> </text><text xml:space="preserve" font-family="Helvetica-LightOblique,Helvetica" font-style="italic" font-size="25.0" fill="#000000" transform="matrix(1.00, 0.00, -0.00, -1.00, 870.0, 109.7)">C</text><text xml:space="preserve" font-family="Helvetica-LightOblique,Helvetica" font-style="italic" font-size="25.0" fill="#000000" transform="matrix(1.00, 0.00, -0.00, -1.00, 888.0, 109.7)">i</text><text xml:space="preserve" font-family="Helvetica-LightOblique,Helvetica" font-style="italic" font-size="25.0" fill="#000000" transform="matrix(1.00, 0.00, -0.00, -1.00, 893.6, 109.7)">d</text><text xml:space="preserve" font-family="Helvetica-LightOblique,Helvetica" font-style="italic" font-size="25.0" fill="#000000" transform="matrix(1.00, 0.00, -0.00, -1.00, 908.9, 109.7)">a</text><text xml:space="preserve" font-family="Helvetica-LightOblique,Helvetica" font-style="italic" font-size="25.0" fill="#000000" transform="matrix(1.00, 0.00, -0.00, -1.00, 922.8, 109.7)">d</text><text xml:space="preserve" font-family="Helvetica-LightOblique,Helvetica" font-style="italic" font-size="25.0" fill="#000000" transform="matrix(1.00, 0.00, -0.00, -1.00, 938.0, 109.7)">e</text><text xml:space="preserve" font-family="Helvetica-LightOblique,Helvetica" font-style="italic" font-size="25.0" fill="#000000" transform="matrix(1.00, 0.00, -0.00, -1.00, 951.9, 109.7)">s</text></g></svg>