<?xml version="1.0" encoding="UTF-8" standalone="no"?><svg xmlns="http://www.w3.org/2000/svg" xmlns:xlink="http://www.w3.org/1999/xlink" clip-rule="evenodd" stroke-miterlimit="10" viewBox="0 0 1920 1080"><desc>SVG generated by Keynote</desc><defs></defs><g transform="matrix(1.00, 0.00, -0.00, -1.00, 0.0, 1080.0)"><path d="M 0.0 1080.0 L 1920.0 1080.0 L 1920.0 0.0 L 0.0 0.0 Z M 0.0 1080.0 " fill="#FEFFFE"></path><g><clipPath id="clip0x600002ea3a80"><path d="M -6.0 -116.0 L 1926.0 -116.0 L 1926.0 1195.0 L -6.0 1195.0 Z M -6.0 -116.0 "></path></clipPath><g clip-path="url(#clip0x600002ea3a80)"><path d="M -6.0 1195.0 L 1926.0 1195.0 L 1926.0 -116.0 L -6.0 -116.0 Z M -6.0 1195.0 " fill="#FEFFFF" fill-opacity="0.00"></path></g></g><g><clipPath id="clip0x600002ea3c60"><path d="M -5.6 1195.0 L 1926.0 1195.0 L 1926.0 -116.0 L -5.6 -116.0 Z M -5.6 1195.0 "></path></clipPath><g clip-path="url(#clip0x600002ea3c60)"><g><clipPath id="clip0x600002ea3de0"><path d="M -5.6 -116.0 L 1926.0 -116.0 L 1926.0 1195.0 L -5.6 1195.0 Z M -5.6 -116.0 "></path></clipPath><g clip-path="url(#clip0x600002ea3de0)"><image xlink:href="A398BAA00B29CDADE4AD6DBE858A182B.png" width="597.00" height="405.00" transform="matrix(3.24, 0.00, -0.00, -3.24, -5.6, 1195.0)"></image></g></g></g></g><text xml:space="preserve" font-family="Helvetica-Light,Helvetica" font-size="50.0" fill="#FEFFFF" transform="matrix(1.00, 0.00, -0.00, -1.00, 1815.4, 15.5)">V</text><text xml:space="preserve" font-family="Helvetica-Light,Helvetica" font-size="50.0" fill="#FEFFFF" transform="matrix(1.00, 0.00, -0.00, -1.00, 1845.9, 15.5)">O</text><text xml:space="preserve" font-family="Helvetica-Light,Helvetica" font-size="50.0" fill="#FEFFFF" transform="matrix(1.00, 0.00, -0.00, -1.00, 1884.8, 15.5)">L</text><image xlink:href="../../77EC243D-0C10-4669-A938-6F48CDBF5E28/assets/B7DCAFF8C216E8D1B6AEB270EB033B1A.png" width="3004.00" height="2254.00" transform="matrix(0.22, 0.00, -0.00, -0.22, 1262.0, 491.0)"></image><image xlink:href="../../77EC243D-0C10-4669-A938-6F48CDBF5E28/assets/EF4F1921F8A7E0EA75114FE84B8B8051.png" width="681.00" height="357.00" transform="matrix(0.22, 0.00, -0.00, -0.22, 10.0, 90.0)"></image><text xml:space="preserve" font-family="Helvetica-Light,Helvetica" font-size="36.0" fill="#FEFFFF" transform="matrix(1.00, 0.00, -0.00, -1.00, 1115.1, 208.5)">E</text><text xml:space="preserve" font-family="Helvetica-Light,Helvetica" font-size="36.0" fill="#FEFFFF" transform="matrix(1.00, 0.00, -0.00, -1.00, 1137.1, 208.5)">s</text><text xml:space="preserve" font-family="Helvetica-Light,Helvetica" font-size="36.0" fill="#FEFFFF" transform="matrix(1.00, 0.00, -0.00, -1.00, 1155.1, 208.5)">c</text><text xml:space="preserve" font-family="Helvetica-Light,Helvetica" font-size="36.0" fill="#FEFFFF" transform="matrix(1.00, 0.00, -0.00, -1.00, 1175.1, 208.5)">o</text><text xml:space="preserve" font-family="Helvetica-Light,Helvetica" font-size="36.0" fill="#FEFFFF" transform="matrix(1.00, 0.00, -0.00, -1.00, 1195.2, 208.5)">l</text><text xml:space="preserve" font-family="Helvetica-Light,Helvetica" font-size="36.0" fill="#FEFFFF" transform="matrix(1.00, 0.00, -0.00, -1.00, 1203.1, 208.5)">a</text><text xml:space="preserve" font-family="Helvetica-Light,Helvetica" font-size="36.0" fill="#FEFFFF" transform="matrix(1.00, 0.00, -0.00, -1.00, 1223.2, 208.5)">s</text><text xml:space="preserve" font-family="Helvetica-Light,Helvetica" font-size="36.0" fill="#FEFFFF" transform="matrix(1.00, 0.00, -0.00, -1.00, 1241.2, 208.5)"> </text><text xml:space="preserve" font-family="Helvetica-Light,Helvetica" font-size="36.0" fill="#FEFFFF" transform="matrix(1.00, 0.00, -0.00, -1.00, 1115.1, 156.9)">B</text><text xml:space="preserve" font-family="Helvetica-Light,Helvetica" font-size="36.0" fill="#FEFFFF" transform="matrix(1.00, 0.00, -0.00, -1.00, 1139.1, 156.9)">a</text><text xml:space="preserve" font-family="Helvetica-Light,Helvetica" font-size="36.0" fill="#FEFFFF" transform="matrix(1.00, 0.00, -0.00, -1.00, 1159.2, 156.9)">t</text><text xml:space="preserve" font-family="Helvetica-Light,Helvetica" font-size="36.0" fill="#FEFFFF" transform="matrix(1.00, 0.00, -0.00, -1.00, 1169.2, 156.9)">a</text><text xml:space="preserve" font-family="Helvetica-Light,Helvetica" font-size="36.0" fill="#FEFFFF" transform="matrix(1.00, 0.00, -0.00, -1.00, 1189.2, 156.9)">l</text><text xml:space="preserve" font-family="Helvetica-Light,Helvetica" font-size="36.0" fill="#FEFFFF" transform="matrix(1.00, 0.00, -0.00, -1.00, 1197.2, 156.9)">h</text><text xml:space="preserve" font-family="Helvetica-Light,Helvetica" font-size="36.0" fill="#FEFFFF" transform="matrix(1.00, 0.00, -0.00, -1.00, 1217.2, 156.9)">õ</text><text xml:space="preserve" font-family="Helvetica-Light,Helvetica" font-size="36.0" fill="#FEFFFF" transform="matrix(1.00, 0.00, -0.00, -1.00, 1237.2, 156.9)">e</text><text xml:space="preserve" font-family="Helvetica-Light,Helvetica" font-size="36.0" fill="#FEFFFF" transform="matrix(1.00, 0.00, -0.00, -1.00, 1257.2, 156.9)">s</text><text xml:space="preserve" font-family="Helvetica-Light,Helvetica" font-size="36.0" fill="#FEFFFF" transform="matrix(1.00, 0.00, -0.00, -1.00, 1275.2, 156.9)"> </text><text xml:space="preserve" font-family="Helvetica-Light,Helvetica" font-size="36.0" fill="#FEFFFF" transform="matrix(1.00, 0.00, -0.00, -1.00, 1285.2, 156.9)">d</text><text xml:space="preserve" font-family="Helvetica-Light,Helvetica" font-size="36.0" fill="#FEFFFF" transform="matrix(1.00, 0.00, -0.00, -1.00, 1307.2, 156.9)">e</text><text xml:space="preserve" font-family="Helvetica-Light,Helvetica" font-size="36.0" fill="#FEFFFF" transform="matrix(1.00, 0.00, -0.00, -1.00, 1327.2, 156.9)"> </text><text xml:space="preserve" font-family="Helvetica-Light,Helvetica" font-size="36.0" fill="#FEFFFF" transform="matrix(1.00, 0.00, -0.00, -1.00, 1337.2, 156.9)">P</text><text xml:space="preserve" font-family="Helvetica-Light,Helvetica" font-size="36.0" fill="#FEFFFF" transform="matrix(1.00, 0.00, -0.00, -1.00, 1359.2, 156.9)">o</text><text xml:space="preserve" font-family="Helvetica-Light,Helvetica" font-size="36.0" fill="#FEFFFF" transform="matrix(1.00, 0.00, -0.00, -1.00, 1379.3, 156.9)">l</text><text xml:space="preserve" font-family="Helvetica-Light,Helvetica" font-size="36.0" fill="#FEFFFF" transform="matrix(1.00, 0.00, -0.00, -1.00, 1387.2, 156.9)">í</text><text xml:space="preserve" font-family="Helvetica-Light,Helvetica" font-size="36.0" fill="#FEFFFF" transform="matrix(1.00, 0.00, -0.00, -1.00, 1395.2, 156.9)">c</text><text xml:space="preserve" font-family="Helvetica-Light,Helvetica" font-size="36.0" fill="#FEFFFF" transform="matrix(1.00, 0.00, -0.00, -1.00, 1415.3, 156.9)">i</text><text xml:space="preserve" font-family="Helvetica-Light,Helvetica" font-size="36.0" fill="#FEFFFF" transform="matrix(1.00, 0.00, -0.00, -1.00, 1423.2, 156.9)">a</text><text xml:space="preserve" font-family="Helvetica-Light,Helvetica" font-size="36.0" fill="#FEFFFF" transform="matrix(1.00, 0.00, -0.00, -1.00, 1443.3, 156.9)"> </text><text xml:space="preserve" font-family="Helvetica-Light,Helvetica" font-size="36.0" fill="#FEFFFF" transform="matrix(1.00, 0.00, -0.00, -1.00, 1115.1, 105.3)">B</text><text xml:space="preserve" font-family="Helvetica-Light,Helvetica" font-size="36.0" fill="#FEFFFF" transform="matrix(1.00, 0.00, -0.00, -1.00, 1139.1, 105.3)">o</text><text xml:space="preserve" font-family="Helvetica-Light,Helvetica" font-size="36.0" fill="#FEFFFF" transform="matrix(1.00, 0.00, -0.00, -1.00, 1159.2, 105.3)">m</text><text xml:space="preserve" font-family="Helvetica-Light,Helvetica" font-size="36.0" fill="#FEFFFF" transform="matrix(1.00, 0.00, -0.00, -1.00, 1189.1, 105.3)">b</text><text xml:space="preserve" font-family="Helvetica-Light,Helvetica" font-size="36.0" fill="#FEFFFF" transform="matrix(1.00, 0.00, -0.00, -1.00, 1211.1, 105.3)">e</text><text xml:space="preserve" font-family="Helvetica-Light,Helvetica" font-size="36.0" fill="#FEFFFF" transform="matrix(1.00, 0.00, -0.00, -1.00, 1231.2, 105.3)">i</text><text xml:space="preserve" font-family="Helvetica-Light,Helvetica" font-size="36.0" fill="#FEFFFF" transform="matrix(1.00, 0.00, -0.00, -1.00, 1239.1, 105.3)">r</text><text xml:space="preserve" font-family="Helvetica-Light,Helvetica" font-size="36.0" fill="#FEFFFF" transform="matrix(1.00, 0.00, -0.00, -1.00, 1250.5, 105.3)">o</text><text xml:space="preserve" font-family="Helvetica-Light,Helvetica" font-size="36.0" fill="#FEFFFF" transform="matrix(1.00, 0.00, -0.00, -1.00, 1270.5, 105.3)">s</text><text xml:space="preserve" font-family="Helvetica-Light,Helvetica" font-size="36.0" fill="#FEFFFF" transform="matrix(1.00, 0.00, -0.00, -1.00, 1288.5, 105.3)"> </text><text xml:space="preserve" font-family="Helvetica-Light,Helvetica" font-size="36.0" fill="#FEFFFF" transform="matrix(1.00, 0.00, -0.00, -1.00, 1115.1, 53.7)">H</text><text xml:space="preserve" font-family="Helvetica-Light,Helvetica" font-size="36.0" fill="#FEFFFF" transform="matrix(1.00, 0.00, -0.00, -1.00, 1141.1, 53.7)">o</text><text xml:space="preserve" font-family="Helvetica-Light,Helvetica" font-size="36.0" fill="#FEFFFF" transform="matrix(1.00, 0.00, -0.00, -1.00, 1161.1, 53.7)">s</text><text xml:space="preserve" font-family="Helvetica-Light,Helvetica" font-size="36.0" fill="#FEFFFF" transform="matrix(1.00, 0.00, -0.00, -1.00, 1179.1, 53.7)">p</text><text xml:space="preserve" font-family="Helvetica-Light,Helvetica" font-size="36.0" fill="#FEFFFF" transform="matrix(1.00, 0.00, -0.00, -1.00, 1201.1, 53.7)">i</text><text xml:space="preserve" font-family="Helvetica-Light,Helvetica" font-size="36.0" fill="#FEFFFF" transform="matrix(1.00, 0.00, -0.00, -1.00, 1209.1, 53.7)">t</text><text xml:space="preserve" font-family="Helvetica-Light,Helvetica" font-size="36.0" fill="#FEFFFF" transform="matrix(1.00, 0.00, -0.00, -1.00, 1219.1, 53.7)">a</text><text xml:space="preserve" font-family="Helvetica-Light,Helvetica" font-size="36.0" fill="#FEFFFF" transform="matrix(1.00, 0.00, -0.00, -1.00, 1239.1, 53.7)">i</text><text xml:space="preserve" font-family="Helvetica-Light,Helvetica" font-size="36.0" fill="#FEFFFF" transform="matrix(1.00, 0.00, -0.00, -1.00, 1247.1, 53.7)">s</text><text xml:space="preserve" font-family="BebasNeueBold,Bebas Neue" font-weight="bold" font-size="114.0" fill="#FEFFFE" transform="matrix(1.00, 0.00, -0.00, -1.00, 31.8, 967.2)">A</text><text xml:space="preserve" font-family="BebasNeueBold,Bebas Neue" font-weight="bold" font-size="114.0" fill="#FEFFFE" transform="matrix(1.00, 0.00, -0.00, -1.00, 78.2, 967.2)">T</text><text xml:space="preserve" font-family="BebasNeueBold,Bebas Neue" font-weight="bold" font-size="114.0" fill="#FEFFFE" transform="matrix(1.00, 0.00, -0.00, -1.00, 118.8, 967.2)">I</text><text xml:space="preserve" font-family="BebasNeueBold,Bebas Neue" font-weight="bold" font-size="114.0" fill="#FEFFFE" transform="matrix(1.00, 0.00, -0.00, -1.00, 140.5, 967.2)">V</text><text xml:space="preserve" font-family="BebasNeueBold,Bebas Neue" font-weight="bold" font-size="114.0" fill="#FEFFFE" transform="matrix(1.00, 0.00, -0.00, -1.00, 186.2, 967.2)">O</text><text xml:space="preserve" font-family="BebasNeueBold,Bebas Neue" font-weight="bold" font-size="114.0" fill="#FEFFFE" transform="matrix(1.00, 0.00, -0.00, -1.00, 231.3, 967.2)">S</text><text xml:space="preserve" font-family="BebasNeueBold,Bebas Neue" font-weight="bold" font-size="114.0" fill="#FEFFFE" transform="matrix(1.00, 0.00, -0.00, -1.00, 274.0, 967.2)"> </text><text xml:space="preserve" font-family="BebasNeueBold,Bebas Neue" font-weight="bold" font-size="114.0" fill="#FEFFFE" transform="matrix(1.00, 0.00, -0.00, -1.00, 291.6, 967.2)">A</text><text xml:space="preserve" font-family="BebasNeueBold,Bebas Neue" font-weight="bold" font-size="114.0" fill="#FEFFFE" transform="matrix(1.00, 0.00, -0.00, -1.00, 338.0, 967.2)">T</text><text xml:space="preserve" font-family="BebasNeueBold,Bebas Neue" font-weight="bold" font-size="114.0" fill="#FEFFFE" transform="matrix(1.00, 0.00, -0.00, -1.00, 378.6, 967.2)">É</text><text xml:space="preserve" font-family="BebasNeueBold,Bebas Neue" font-weight="bold" font-size="114.0" fill="#FEFFFE" transform="matrix(1.00, 0.00, -0.00, -1.00, 420.6, 967.2)"> </text><text xml:space="preserve" font-family="BebasNeueBold,Bebas Neue" font-weight="bold" font-size="114.0" fill="#FEFFFE" transform="matrix(1.00, 0.00, -0.00, -1.00, 438.3, 967.2)">5</text><text xml:space="preserve" font-family="BebasNeueBold,Bebas Neue" font-weight="bold" font-size="114.0" fill="#FEFFFE" transform="matrix(1.00, 0.00, -0.00, -1.00, 483.4, 967.2)">0</text><text xml:space="preserve" font-family="BebasNeueBold,Bebas Neue" font-weight="bold" font-size="114.0" fill="#FEFFFE" transform="matrix(1.00, 0.00, -0.00, -1.00, 528.5, 967.2)">M</text><g><clipPath id="clip0x608002cb7d00"><path d="M 1071.0 52.0 L 1101.0 52.0 L 1101.0 237.0 L 1071.0 237.0 Z M 1071.0 52.0 "></path></clipPath><g clip-path="url(#clip0x608002cb7d00)"><path d="M 1071.0 237.0 L 1101.0 237.0 L 1101.0 52.0 L 1071.0 52.0 Z M 1071.0 237.0 " fill="#FEFFFF" fill-opacity="0.00"></path><path d="M 1072.3 220.1 C 1072.3 227.9 1078.3 234.3 1085.8 234.3 C 1093.2 234.3 1099.2 227.9 1099.2 220.1 C 1099.2 212.3 1093.2 206.0 1085.8 206.0 C 1078.3 206.0 1072.3 212.3 1072.3 220.1 Z M 1072.3 220.1 " fill="#C2DDB6"></path><path d="M 1072.3 169.7 C 1072.3 177.5 1078.3 183.8 1085.8 183.8 C 1093.2 183.8 1099.2 177.5 1099.2 169.7 C 1099.2 161.8 1093.2 155.5 1085.8 155.5 C 1078.3 155.5 1072.3 161.8 1072.3 169.7 Z M 1072.3 169.7 " fill="#4A8DDF"></path><path d="M 1072.3 119.2 C 1072.3 127.0 1078.3 133.4 1085.8 133.4 C 1093.2 133.4 1099.2 127.0 1099.2 119.2 C 1099.2 111.4 1093.2 105.0 1085.8 105.0 C 1078.3 105.0 1072.3 111.4 1072.3 119.2 Z M 1072.3 119.2 " fill="#D71E00"></path><path d="M 1072.3 67.5 C 1072.3 75.4 1078.3 81.7 1085.8 81.7 C 1093.2 81.7 1099.2 75.4 1099.2 67.5 C 1099.2 59.7 1093.2 53.4 1085.8 53.4 C 1078.3 53.4 1072.3 59.7 1072.3 67.5 Z M 1072.3 67.5 " fill="#F7B258"></path></g></g><g><clipPath id="clip0x608002cb8240"><path d="M 78.0 202.0 L 121.0 202.0 L 121.0 907.0 L 78.0 907.0 Z M 78.0 202.0 "></path></clipPath><g clip-path="url(#clip0x608002cb8240)"><path d="M 78.0 907.0 L 121.0 907.0 L 121.0 202.0 L 78.0 202.0 Z M 78.0 907.0 " fill="#FEFFFF" fill-opacity="0.00"></path><path d="M 80.5 905.4 L 119.2 905.4 L 119.2 841.5 L 80.5 841.5 Z M 80.5 905.4 " fill="#D5D5D5"></path><path d="M 80.5 834.5 L 119.2 834.5 L 119.2 770.7 L 80.5 770.7 Z M 80.5 834.5 " fill="#D5D5D5"></path><path d="M 80.5 763.6 L 119.2 763.6 L 119.2 699.8 L 80.5 699.8 Z M 80.5 763.6 " fill="#D5D5D5"></path><path d="M 80.9 693.6 L 119.6 693.6 L 119.6 629.7 L 80.9 629.7 Z M 80.9 693.6 " fill="#D5D5D5"></path><path d="M 80.9 623.1 L 119.6 623.1 L 119.6 559.3 L 80.9 559.3 Z M 80.9 623.1 " fill="#D5D5D5"></path><path d="M 80.9 552.3 L 119.6 552.3 L 119.6 488.4 L 80.9 488.4 Z M 80.9 552.3 " fill="#D5D5D5"></path><path d="M 80.5 479.7 L 119.2 479.7 L 119.2 415.9 L 80.5 415.9 Z M 80.5 479.7 " fill="#D5D5D5"></path><path d="M 80.9 409.7 L 119.6 409.7 L 119.6 345.8 L 80.9 345.8 Z M 80.9 409.7 " fill="#D5D5D5"></path><path d="M 80.9 339.2 L 119.6 339.2 L 119.6 275.4 L 80.9 275.4 Z M 80.9 339.2 " fill="#D5D5D5"></path><path d="M 80.4 237.2 L 119.1 237.2 L 119.1 202.8 L 80.4 202.8 Z M 80.4 237.2 " fill="#B2CEF6"></path><path d="M 80.4 268.5 L 119.1 268.5 L 119.1 237.2 L 80.4 237.2 Z M 80.4 268.5 " fill="#D5D5D5"></path></g></g></g></svg>