<?xml version="1.0" encoding="UTF-8" standalone="no"?><svg xmlns="http://www.w3.org/2000/svg" xmlns:xlink="http://www.w3.org/1999/xlink" clip-rule="evenodd" stroke-miterlimit="10" viewBox="0 0 1920 1080"><desc>SVG generated by Keynote</desc><defs></defs><g transform="matrix(1.00, 0.00, -0.00, -1.00, 0.0, 1080.0)"><path d="M 0.0 1080.0 L 1920.0 1080.0 L 1920.0 0.0 L 0.0 0.0 Z M 0.0 1080.0 " fill="#000000"></path><text xml:space="preserve" font-family="Helvetica-Light,Helvetica" font-size="50.0" fill="#FEFFFF" transform="matrix(1.00, 0.00, -0.00, -1.00, 1815.4, 15.5)">V</text><text xml:space="preserve" font-family="Helvetica-Light,Helvetica" font-size="50.0" fill="#FEFFFF" transform="matrix(1.00, 0.00, -0.00, -1.00, 1845.9, 15.5)">O</text><text xml:space="preserve" font-family="Helvetica-Light,Helvetica" font-size="50.0" fill="#FEFFFF" transform="matrix(1.00, 0.00, -0.00, -1.00, 1884.8, 15.5)">L</text><image xlink:href="../../77EC243D-0C10-4669-A938-6F48CDBF5E28/assets/B7DCAFF8C216E8D1B6AEB270EB033B1A.png" width="3004.00" height="2254.00" transform="matrix(0.22, 0.00, -0.00, -0.22, 1262.0, 491.0)"></image><image xlink:href="../../77EC243D-0C10-4669-A938-6F48CDBF5E28/assets/EF4F1921F8A7E0EA75114FE84B8B8051.png" width="681.00" height="357.00" transform="matrix(0.22, 0.00, -0.00, -0.22, 10.0, 90.0)"></image><text xml:space="preserve" font-family="BebasNeueBold,Bebas Neue" font-weight="bold" font-size="93.0" fill="#FEFFFE" transform="matrix(1.00, 0.00, -0.00, -1.00, 700.6, 674.5)">É</text><text xml:space="preserve" font-family="BebasNeueBold,Bebas Neue" font-weight="bold" font-size="93.0" fill="#FEFFFE" transform="matrix(1.00, 0.00, -0.00, -1.00, 734.8, 674.5)"> </text><text xml:space="preserve" font-family="BebasNeueBold,Bebas Neue" font-weight="bold" font-size="93.0" fill="#FEFFFE" transform="matrix(1.00, 0.00, -0.00, -1.00, 749.3, 674.5)">P</text><text xml:space="preserve" font-family="BebasNeueBold,Bebas Neue" font-weight="bold" font-size="93.0" fill="#FEFFFE" transform="matrix(1.00, 0.00, -0.00, -1.00, 784.8, 674.5)">R</text><text xml:space="preserve" font-family="BebasNeueBold,Bebas Neue" font-weight="bold" font-size="93.0" fill="#FEFFFE" transform="matrix(1.00, 0.00, -0.00, -1.00, 822.2, 674.5)">E</text><text xml:space="preserve" font-family="BebasNeueBold,Bebas Neue" font-weight="bold" font-size="93.0" fill="#FEFFFE" transform="matrix(1.00, 0.00, -0.00, -1.00, 856.4, 674.5)">C</text><text xml:space="preserve" font-family="BebasNeueBold,Bebas Neue" font-weight="bold" font-size="93.0" fill="#FEFFFE" transform="matrix(1.00, 0.00, -0.00, -1.00, 892.3, 674.5)">I</text><text xml:space="preserve" font-family="BebasNeueBold,Bebas Neue" font-weight="bold" font-size="93.0" fill="#FEFFFE" transform="matrix(1.00, 0.00, -0.00, -1.00, 910.0, 674.5)">S</text><text xml:space="preserve" font-family="BebasNeueBold,Bebas Neue" font-weight="bold" font-size="93.0" fill="#FEFFFE" transform="matrix(1.00, 0.00, -0.00, -1.00, 944.7, 674.5)">O</text><text xml:space="preserve" font-family="BebasNeueBold,Bebas Neue" font-weight="bold" font-size="93.0" fill="#FEFFFE" transform="matrix(1.00, 0.00, -0.00, -1.00, 981.6, 674.5)"> </text><text xml:space="preserve" font-family="BebasNeueBold,Bebas Neue" font-weight="bold" font-size="93.0" fill="#FEFFFE" transform="matrix(1.00, 0.00, -0.00, -1.00, 996.0, 674.5)">I</text><text xml:space="preserve" font-family="BebasNeueBold,Bebas Neue" font-weight="bold" font-size="93.0" fill="#FEFFFE" transform="matrix(1.00, 0.00, -0.00, -1.00, 1013.7, 674.5)">R</text><text xml:space="preserve" font-family="BebasNeueBold,Bebas Neue" font-weight="bold" font-size="93.0" fill="#FEFFFE" transform="matrix(1.00, 0.00, -0.00, -1.00, 1051.0, 674.5)"> </text><text xml:space="preserve" font-family="BebasNeueBold,Bebas Neue" font-weight="bold" font-size="93.0" fill="#FEFFFE" transform="matrix(1.00, 0.00, -0.00, -1.00, 1065.5, 674.5)">A</text><text xml:space="preserve" font-family="BebasNeueBold,Bebas Neue" font-weight="bold" font-size="93.0" fill="#FEFFFE" transform="matrix(1.00, 0.00, -0.00, -1.00, 1103.3, 674.5)">L</text><text xml:space="preserve" font-family="BebasNeueBold,Bebas Neue" font-weight="bold" font-size="93.0" fill="#FEFFFE" transform="matrix(1.00, 0.00, -0.00, -1.00, 1134.8, 674.5)">É</text><text xml:space="preserve" font-family="BebasNeueBold,Bebas Neue" font-weight="bold" font-size="93.0" fill="#FEFFFE" transform="matrix(1.00, 0.00, -0.00, -1.00, 1169.1, 674.5)">M</text><text xml:space="preserve" font-family="BebasNeueBold,Bebas Neue" font-weight="bold" font-size="93.0" fill="#FEFFFE" transform="matrix(1.00, 0.00, -0.00, -1.00, 360.6, 334.9)">Á</text><text xml:space="preserve" font-family="BebasNeueBold,Bebas Neue" font-weight="bold" font-size="93.0" fill="#FEFFFE" transform="matrix(1.00, 0.00, -0.00, -1.00, 398.4, 334.9)">G</text><text xml:space="preserve" font-family="BebasNeueBold,Bebas Neue" font-weight="bold" font-size="93.0" fill="#FEFFFE" transform="matrix(1.00, 0.00, -0.00, -1.00, 434.7, 334.9)">U</text><text xml:space="preserve" font-family="BebasNeueBold,Bebas Neue" font-weight="bold" font-size="93.0" fill="#FEFFFE" transform="matrix(1.00, 0.00, -0.00, -1.00, 471.7, 334.9)">A</text><text xml:space="preserve" font-family="BebasNeueBold,Bebas Neue" font-weight="bold" font-size="93.0" fill="#FEFFFE" transform="matrix(1.00, 0.00, -0.00, -1.00, 509.6, 334.9)"> </text><text xml:space="preserve" font-family="BebasNeueBold,Bebas Neue" font-weight="bold" font-size="93.0" fill="#FEFFFE" transform="matrix(1.00, 0.00, -0.00, -1.00, 524.0, 334.9)">P</text><text xml:space="preserve" font-family="BebasNeueBold,Bebas Neue" font-weight="bold" font-size="93.0" fill="#FEFFFE" transform="matrix(1.00, 0.00, -0.00, -1.00, 559.5, 334.9)">R</text><text xml:space="preserve" font-family="BebasNeueBold,Bebas Neue" font-weight="bold" font-size="93.0" fill="#FEFFFE" transform="matrix(1.00, 0.00, -0.00, -1.00, 596.9, 334.9)">E</text><text xml:space="preserve" font-family="BebasNeueBold,Bebas Neue" font-weight="bold" font-size="93.0" fill="#FEFFFE" transform="matrix(1.00, 0.00, -0.00, -1.00, 631.1, 334.9)">C</text><text xml:space="preserve" font-family="BebasNeueBold,Bebas Neue" font-weight="bold" font-size="93.0" fill="#FEFFFE" transform="matrix(1.00, 0.00, -0.00, -1.00, 667.0, 334.9)">I</text><text xml:space="preserve" font-family="BebasNeueBold,Bebas Neue" font-weight="bold" font-size="93.0" fill="#FEFFFE" transform="matrix(1.00, 0.00, -0.00, -1.00, 684.7, 334.9)">S</text><text xml:space="preserve" font-family="BebasNeueBold,Bebas Neue" font-weight="bold" font-size="93.0" fill="#FEFFFE" transform="matrix(1.00, 0.00, -0.00, -1.00, 719.5, 334.9)">A</text><text xml:space="preserve" font-family="BebasNeueBold,Bebas Neue" font-weight="bold" font-size="93.0" fill="#FEFFFE" transform="matrix(1.00, 0.00, -0.00, -1.00, 757.3, 334.9)"> </text><text xml:space="preserve" font-family="BebasNeueBold,Bebas Neue" font-weight="bold" font-size="93.0" fill="#FEFFFE" transform="matrix(1.00, 0.00, -0.00, -1.00, 771.7, 334.9)">S</text><text xml:space="preserve" font-family="BebasNeueBold,Bebas Neue" font-weight="bold" font-size="93.0" fill="#FEFFFE" transform="matrix(1.00, 0.00, -0.00, -1.00, 806.5, 334.9)">E</text><text xml:space="preserve" font-family="BebasNeueBold,Bebas Neue" font-weight="bold" font-size="93.0" fill="#FEFFFE" transform="matrix(1.00, 0.00, -0.00, -1.00, 840.7, 334.9)">R</text><text xml:space="preserve" font-family="BebasNeueBold,Bebas Neue" font-weight="bold" font-size="93.0" fill="#FEFFFE" transform="matrix(1.00, 0.00, -0.00, -1.00, 878.1, 334.9)"> </text><text xml:space="preserve" font-family="BebasNeueBold,Bebas Neue" font-weight="bold" font-size="93.0" fill="#FEFFFE" transform="matrix(1.00, 0.00, -0.00, -1.00, 892.5, 334.9)">C</text><text xml:space="preserve" font-family="BebasNeueBold,Bebas Neue" font-weight="bold" font-size="93.0" fill="#FEFFFE" transform="matrix(1.00, 0.00, -0.00, -1.00, 928.4, 334.9)">O</text><text xml:space="preserve" font-family="BebasNeueBold,Bebas Neue" font-weight="bold" font-size="93.0" fill="#FEFFFE" transform="matrix(1.00, 0.00, -0.00, -1.00, 965.3, 334.9)">N</text><text xml:space="preserve" font-family="BebasNeueBold,Bebas Neue" font-weight="bold" font-size="93.0" fill="#FEFFFE" transform="matrix(1.00, 0.00, -0.00, -1.00, 1005.0, 334.9)">S</text><text xml:space="preserve" font-family="BebasNeueBold,Bebas Neue" font-weight="bold" font-size="93.0" fill="#FEFFFE" transform="matrix(1.00, 0.00, -0.00, -1.00, 1039.7, 334.9)">I</text><text xml:space="preserve" font-family="BebasNeueBold,Bebas Neue" font-weight="bold" font-size="93.0" fill="#FEFFFE" transform="matrix(1.00, 0.00, -0.00, -1.00, 1057.4, 334.9)">D</text><text xml:space="preserve" font-family="BebasNeueBold,Bebas Neue" font-weight="bold" font-size="93.0" fill="#FEFFFE" transform="matrix(1.00, 0.00, -0.00, -1.00, 1095.4, 334.9)">E</text><text xml:space="preserve" font-family="BebasNeueBold,Bebas Neue" font-weight="bold" font-size="93.0" fill="#FEFFFE" transform="matrix(1.00, 0.00, -0.00, -1.00, 1129.6, 334.9)">R</text><text xml:space="preserve" font-family="BebasNeueBold,Bebas Neue" font-weight="bold" font-size="93.0" fill="#FEFFFE" transform="matrix(1.00, 0.00, -0.00, -1.00, 1167.0, 334.9)">A</text><text xml:space="preserve" font-family="BebasNeueBold,Bebas Neue" font-weight="bold" font-size="93.0" fill="#FEFFFE" transform="matrix(1.00, 0.00, -0.00, -1.00, 1204.8, 334.9)">D</text><text xml:space="preserve" font-family="BebasNeueBold,Bebas Neue" font-weight="bold" font-size="93.0" fill="#FEFFFE" transform="matrix(1.00, 0.00, -0.00, -1.00, 1242.7, 334.9)">A</text><text xml:space="preserve" font-family="BebasNeueBold,Bebas Neue" font-weight="bold" font-size="93.0" fill="#FEFFFE" transform="matrix(1.00, 0.00, -0.00, -1.00, 1280.5, 334.9)"> </text><text xml:space="preserve" font-family="BebasNeueBold,Bebas Neue" font-weight="bold" font-size="93.0" fill="#FEFFFE" transform="matrix(1.00, 0.00, -0.00, -1.00, 1294.9, 334.9)">U</text><text xml:space="preserve" font-family="BebasNeueBold,Bebas Neue" font-weight="bold" font-size="93.0" fill="#FEFFFE" transform="matrix(1.00, 0.00, -0.00, -1.00, 1332.0, 334.9)">M</text><text xml:space="preserve" font-family="BebasNeueBold,Bebas Neue" font-weight="bold" font-size="93.0" fill="#FEFFFE" transform="matrix(1.00, 0.00, -0.00, -1.00, 1382.3, 334.9)"> </text><text xml:space="preserve" font-family="BebasNeueBold,Bebas Neue" font-weight="bold" font-size="93.0" fill="#FEFFFE" transform="matrix(1.00, 0.00, -0.00, -1.00, 1396.7, 334.9)">A</text><text xml:space="preserve" font-family="BebasNeueBold,Bebas Neue" font-weight="bold" font-size="93.0" fill="#FEFFFE" transform="matrix(1.00, 0.00, -0.00, -1.00, 1434.5, 334.9)">T</text><text xml:space="preserve" font-family="BebasNeueBold,Bebas Neue" font-weight="bold" font-size="93.0" fill="#FEFFFE" transform="matrix(1.00, 0.00, -0.00, -1.00, 1467.6, 334.9)">I</text><text xml:space="preserve" font-family="BebasNeueBold,Bebas Neue" font-weight="bold" font-size="93.0" fill="#FEFFFE" transform="matrix(1.00, 0.00, -0.00, -1.00, 1485.3, 334.9)">V</text><text xml:space="preserve" font-family="BebasNeueBold,Bebas Neue" font-weight="bold" font-size="93.0" fill="#FEFFFE" transform="matrix(1.00, 0.00, -0.00, -1.00, 1522.6, 334.9)">O</text><g><clipPath id="clip0x608001abb120"><path d="M 1395.7 323.7 L 1559.4 323.7 L 1559.4 330.4 L 1395.7 330.4 Z M 1395.7 323.7 "></path></clipPath><g clip-path="url(#clip0x608001abb120)"><path d="M 1344.2 102.3 L 1506.9 102.3 " fill="none" stroke="#FEFFFE" stroke-width="4.65" transform="matrix(1.00, 0.00, 0.00, -1.00, 52.5, 429.3)"></path></g></g></g></svg>