<?xml version="1.0" encoding="UTF-8" standalone="no"?><svg xmlns="http://www.w3.org/2000/svg" xmlns:xlink="http://www.w3.org/1999/xlink" clip-rule="evenodd" stroke-miterlimit="10" viewBox="0 0 1920 1080"><desc>SVG generated by Keynote</desc><defs></defs><g transform="matrix(1.00, 0.00, -0.00, -1.00, 0.0, 1080.0)"><path d="M 0.0 1080.0 L 1920.0 1080.0 L 1920.0 0.0 L 0.0 0.0 Z M 0.0 1080.0 " fill="#FEFFFE"></path><image xlink:href="FD8D8B15303A00758CA5B6EA74F4ACE6.png" width="1536.00" height="462.00" transform="matrix(0.82, 0.00, -0.00, -0.82, 470.0, 415.0)"></image><image xlink:href="../../46F02FC2-67EC-4D9F-A726-2859EF20AF72/assets/D852046C21386C489959772BE2F1EA2B.png" width="681.00" height="357.00" transform="matrix(0.22, 0.00, -0.00, -0.22, 10.0, 90.0)"></image><text xml:space="preserve" font-family="Helvetica-Bold,Helvetica" font-weight="bold" font-size="70.0" fill="#000000" transform="matrix(1.00, 0.00, -0.00, -1.00, 1283.5, 1006.8)">R</text><text xml:space="preserve" font-family="Helvetica-Bold,Helvetica" font-weight="bold" font-size="70.0" fill="#000000" transform="matrix(1.00, 0.00, -0.00, -1.00, 1334.1, 1006.8)">E</text><text xml:space="preserve" font-family="Helvetica-Bold,Helvetica" font-weight="bold" font-size="70.0" fill="#000000" transform="matrix(1.00, 0.00, -0.00, -1.00, 1380.8, 1006.8)">S</text><text xml:space="preserve" font-family="Helvetica-Bold,Helvetica" font-weight="bold" font-size="70.0" fill="#000000" transform="matrix(1.00, 0.00, -0.00, -1.00, 1427.4, 1006.8)">U</text><text xml:space="preserve" font-family="Helvetica-Bold,Helvetica" font-weight="bold" font-size="70.0" fill="#000000" transform="matrix(1.00, 0.00, -0.00, -1.00, 1478.0, 1006.8)">M</text><text xml:space="preserve" font-family="Helvetica-Bold,Helvetica" font-weight="bold" font-size="70.0" fill="#000000" transform="matrix(1.00, 0.00, -0.00, -1.00, 1536.3, 1006.8)">O</text><text xml:space="preserve" font-family="Helvetica-Bold,Helvetica" font-weight="bold" font-size="70.0" fill="#000000" transform="matrix(1.00, 0.00, -0.00, -1.00, 1590.8, 1006.8)"> </text><text xml:space="preserve" font-family="Helvetica-Bold,Helvetica" font-weight="bold" font-size="70.0" fill="#000000" transform="matrix(1.00, 0.00, -0.00, -1.00, 1610.2, 1006.8)">-</text><text xml:space="preserve" font-family="Helvetica-Bold,Helvetica" font-weight="bold" font-size="70.0" fill="#000000" transform="matrix(1.00, 0.00, -0.00, -1.00, 1633.5, 1006.8)"> </text><text xml:space="preserve" font-family="Helvetica-Bold,Helvetica" font-weight="bold" font-size="70.0" fill="#000000" transform="matrix(1.00, 0.00, -0.00, -1.00, 1652.9, 1006.8)">L</text><text xml:space="preserve" font-family="Helvetica-Bold,Helvetica" font-weight="bold" font-size="70.0" fill="#000000" transform="matrix(1.00, 0.00, -0.00, -1.00, 1695.7, 1006.8)">I</text><text xml:space="preserve" font-family="Helvetica-Bold,Helvetica" font-weight="bold" font-size="70.0" fill="#000000" transform="matrix(1.00, 0.00, -0.00, -1.00, 1715.1, 1006.8)">N</text><text xml:space="preserve" font-family="Helvetica-Bold,Helvetica" font-weight="bold" font-size="70.0" fill="#000000" transform="matrix(1.00, 0.00, -0.00, -1.00, 1765.7, 1006.8)">H</text><text xml:space="preserve" font-family="Helvetica-Bold,Helvetica" font-weight="bold" font-size="70.0" fill="#000000" transform="matrix(1.00, 0.00, -0.00, -1.00, 1816.2, 1006.8)">A</text><text xml:space="preserve" font-family="Helvetica-Bold,Helvetica" font-weight="bold" font-size="70.0" fill="#000000" transform="matrix(1.00, 0.00, -0.00, -1.00, 1866.8, 1006.8)">S</text><image xlink:href="../../46F02FC2-67EC-4D9F-A726-2859EF20AF72/assets/B7DCAFF8C216E8D1B6AEB270EB033B1A.png" width="3004.00" height="2254.00" transform="matrix(0.22, 0.00, -0.00, -0.22, 1262.0, 491.0)"></image><path d="M 0.0 0.4 L 1538.0 0.4 " fill="none" stroke="#000000" stroke-width="2.00" transform="matrix(1.00, 0.00, 0.00, -1.00, 370.0, 990.4)"></path><path d="M 6.0 1074.0 L 335.0 1074.0 L 335.0 1002.0 L 6.0 1002.0 Z M 6.0 1074.0 " fill="#000000"></path><g><clipPath id="clip0x6000012b6740"><path d="M 4.5 1002.5 L 336.6 1002.5 L 336.6 1074.0 L 4.5 1074.0 Z M 4.5 1002.5 "></path></clipPath><g clip-path="url(#clip0x6000012b6740)"><text xml:space="preserve" font-family="Helvetica-Bold,Helvetica" font-weight="bold" font-size="22.0" fill="#FEFFFF" transform="matrix(1.00, 0.00, -0.00, -1.00, 28.0, 1030.1)">C</text><text xml:space="preserve" font-family="Helvetica-Bold,Helvetica" font-weight="bold" font-size="22.0" fill="#FEFFFF" transform="matrix(1.00, 0.00, -0.00, -1.00, 43.9, 1030.1)">A</text><text xml:space="preserve" font-family="Helvetica-Bold,Helvetica" font-weight="bold" font-size="22.0" fill="#FEFFFF" transform="matrix(1.00, 0.00, -0.00, -1.00, 59.8, 1030.1)">P</text><text xml:space="preserve" font-family="Helvetica-Bold,Helvetica" font-weight="bold" font-size="22.0" fill="#FEFFFF" transform="matrix(1.00, 0.00, -0.00, -1.00, 72.8, 1030.1)">A</text></g></g><path d="M 6.0 917.0 L 335.0 917.0 L 335.0 846.0 L 6.0 846.0 Z M 6.0 917.5 " fill="#FEFFFE"></path><g><clipPath id="clip0x6000012b6b60"><path d="M 4.5 846.0 L 336.6 846.0 L 336.6 917.5 L 4.5 917.5 Z M 4.5 846.0 "></path></clipPath><g clip-path="url(#clip0x6000012b6b60)"><text xml:space="preserve" font-family="Helvetica-Light,Helvetica" font-size="22.0" fill="#000000" transform="matrix(1.00, 0.00, -0.00, -1.00, 28.0, 873.6)">-</text><text xml:space="preserve" font-family="Helvetica-Light,Helvetica" font-size="22.0" fill="#000000" transform="matrix(1.00, 0.00, -0.00, -1.00, 35.3, 873.6)"> </text><text xml:space="preserve" font-family="Helvetica-Light,Helvetica" font-size="22.0" fill="#000000" transform="matrix(1.00, 0.00, -0.00, -1.00, 41.4, 873.6)">L</text><text xml:space="preserve" font-family="Helvetica-Light,Helvetica" font-size="22.0" fill="#000000" transform="matrix(1.00, 0.00, -0.00, -1.00, 53.7, 873.6)">i</text><text xml:space="preserve" font-family="Helvetica-Light,Helvetica" font-size="22.0" fill="#000000" transform="matrix(1.00, 0.00, -0.00, -1.00, 58.6, 873.6)">n</text><text xml:space="preserve" font-family="Helvetica-Light,Helvetica" font-size="22.0" fill="#000000" transform="matrix(1.00, 0.00, -0.00, -1.00, 70.8, 873.6)">h</text><text xml:space="preserve" font-family="Helvetica-Light,Helvetica" font-size="22.0" fill="#000000" transform="matrix(1.00, 0.00, -0.00, -1.00, 83.0, 873.6)">a</text><text xml:space="preserve" font-family="Helvetica-Light,Helvetica" font-size="22.0" fill="#000000" transform="matrix(1.00, 0.00, -0.00, -1.00, 95.3, 873.6)">s</text></g></g><path d="M 6.0 841.0 L 335.0 841.0 L 335.0 770.0 L 6.0 770.0 Z M 6.0 841.5 " fill="#000000"></path><g><clipPath id="clip0x6000012b7100"><path d="M 4.5 770.0 L 336.6 770.0 L 336.6 841.5 L 4.5 841.5 Z M 4.5 770.0 "></path></clipPath><g clip-path="url(#clip0x6000012b7100)"><text xml:space="preserve" font-family="Helvetica-Light,Helvetica" font-size="22.0" fill="#FEFFFF" transform="matrix(1.00, 0.00, -0.00, -1.00, 28.0, 797.6)">-</text><text xml:space="preserve" font-family="Helvetica-Light,Helvetica" font-size="22.0" fill="#FEFFFF" transform="matrix(1.00, 0.00, -0.00, -1.00, 35.3, 797.6)"> </text><text xml:space="preserve" font-family="Helvetica-Light,Helvetica" font-size="22.0" fill="#FEFFFF" transform="matrix(1.00, 0.00, -0.00, -1.00, 41.4, 797.6)">E</text><text xml:space="preserve" font-family="Helvetica-Light,Helvetica" font-size="22.0" fill="#FEFFFF" transform="matrix(1.00, 0.00, -0.00, -1.00, 54.9, 797.6)">m</text><text xml:space="preserve" font-family="Helvetica-Light,Helvetica" font-size="22.0" fill="#FEFFFF" transform="matrix(1.00, 0.00, -0.00, -1.00, 73.2, 797.6)">p</text><text xml:space="preserve" font-family="Helvetica-Light,Helvetica" font-size="22.0" fill="#FEFFFF" transform="matrix(1.00, 0.00, -0.00, -1.00, 86.7, 797.6)">r</text><text xml:space="preserve" font-family="Helvetica-Light,Helvetica" font-size="22.0" fill="#FEFFFF" transform="matrix(1.00, 0.00, -0.00, -1.00, 93.6, 797.6)">e</text><text xml:space="preserve" font-family="Helvetica-Light,Helvetica" font-size="22.0" fill="#FEFFFF" transform="matrix(1.00, 0.00, -0.00, -1.00, 105.8, 797.6)">s</text><text xml:space="preserve" font-family="Helvetica-Light,Helvetica" font-size="22.0" fill="#FEFFFF" transform="matrix(1.00, 0.00, -0.00, -1.00, 116.8, 797.6)">a</text><text xml:space="preserve" font-family="Helvetica-Light,Helvetica" font-size="22.0" fill="#FEFFFF" transform="matrix(1.00, 0.00, -0.00, -1.00, 129.0, 797.6)">s</text></g></g><path d="M 6.0 765.0 L 335.0 765.0 L 335.0 694.0 L 6.0 694.0 Z M 6.0 765.5 " fill="#000000"></path><g><clipPath id="clip0x6000012b7760"><path d="M 4.5 694.0 L 336.6 694.0 L 336.6 765.5 L 4.5 765.5 Z M 4.5 694.0 "></path></clipPath><g clip-path="url(#clip0x6000012b7760)"><text xml:space="preserve" font-family="Helvetica-Bold,Helvetica" font-weight="bold" font-size="22.0" fill="#FEFFFF" transform="matrix(1.00, 0.00, -0.00, -1.00, 28.0, 721.6)">R</text><text xml:space="preserve" font-family="Helvetica-Bold,Helvetica" font-weight="bold" font-size="22.0" fill="#FEFFFF" transform="matrix(1.00, 0.00, -0.00, -1.00, 43.9, 721.6)">e</text><text xml:space="preserve" font-family="Helvetica-Bold,Helvetica" font-weight="bold" font-size="22.0" fill="#FEFFFF" transform="matrix(1.00, 0.00, -0.00, -1.00, 56.1, 721.6)">l</text><text xml:space="preserve" font-family="Helvetica-Bold,Helvetica" font-weight="bold" font-size="22.0" fill="#FEFFFF" transform="matrix(1.00, 0.00, -0.00, -1.00, 62.2, 721.6)">a</text><text xml:space="preserve" font-family="Helvetica-Bold,Helvetica" font-weight="bold" font-size="22.0" fill="#FEFFFF" transform="matrix(1.00, 0.00, -0.00, -1.00, 74.5, 721.6)">t</text><text xml:space="preserve" font-family="Helvetica-Bold,Helvetica" font-weight="bold" font-size="22.0" fill="#FEFFFF" transform="matrix(1.00, 0.00, -0.00, -1.00, 81.8, 721.6)">ó</text><text xml:space="preserve" font-family="Helvetica-Bold,Helvetica" font-weight="bold" font-size="22.0" fill="#FEFFFF" transform="matrix(1.00, 0.00, -0.00, -1.00, 95.2, 721.6)">r</text><text xml:space="preserve" font-family="Helvetica-Bold,Helvetica" font-weight="bold" font-size="22.0" fill="#FEFFFF" transform="matrix(1.00, 0.00, -0.00, -1.00, 103.8, 721.6)">i</text><text xml:space="preserve" font-family="Helvetica-Bold,Helvetica" font-weight="bold" font-size="22.0" fill="#FEFFFF" transform="matrix(1.00, 0.00, -0.00, -1.00, 109.9, 721.6)">o</text><text xml:space="preserve" font-family="Helvetica-Bold,Helvetica" font-weight="bold" font-size="22.0" fill="#FEFFFF" transform="matrix(1.00, 0.00, -0.00, -1.00, 123.3, 721.6)">s</text><text xml:space="preserve" font-family="Helvetica-Bold,Helvetica" font-weight="bold" font-size="22.0" fill="#FEFFFF" transform="matrix(1.00, 0.00, -0.00, -1.00, 135.6, 721.6)"> </text><text xml:space="preserve" font-family="Helvetica-Bold,Helvetica" font-weight="bold" font-size="22.0" fill="#FEFFFF" transform="matrix(1.00, 0.00, -0.00, -1.00, 140.9, 721.6)">A</text><text xml:space="preserve" font-family="Helvetica-Bold,Helvetica" font-weight="bold" font-size="22.0" fill="#FEFFFF" transform="matrix(1.00, 0.00, -0.00, -1.00, 156.8, 721.6)">n</text><text xml:space="preserve" font-family="Helvetica-Bold,Helvetica" font-weight="bold" font-size="22.0" fill="#FEFFFF" transform="matrix(1.00, 0.00, -0.00, -1.00, 170.2, 721.6)">t</text><text xml:space="preserve" font-family="Helvetica-Bold,Helvetica" font-weight="bold" font-size="22.0" fill="#FEFFFF" transform="matrix(1.00, 0.00, -0.00, -1.00, 177.5, 721.6)">e</text><text xml:space="preserve" font-family="Helvetica-Bold,Helvetica" font-weight="bold" font-size="22.0" fill="#FEFFFF" transform="matrix(1.00, 0.00, -0.00, -1.00, 189.8, 721.6)">r</text><text xml:space="preserve" font-family="Helvetica-Bold,Helvetica" font-weight="bold" font-size="22.0" fill="#FEFFFF" transform="matrix(1.00, 0.00, -0.00, -1.00, 198.3, 721.6)">i</text><text xml:space="preserve" font-family="Helvetica-Bold,Helvetica" font-weight="bold" font-size="22.0" fill="#FEFFFF" transform="matrix(1.00, 0.00, -0.00, -1.00, 204.5, 721.6)">o</text><text xml:space="preserve" font-family="Helvetica-Bold,Helvetica" font-weight="bold" font-size="22.0" fill="#FEFFFF" transform="matrix(1.00, 0.00, -0.00, -1.00, 217.9, 721.6)">r</text><text xml:space="preserve" font-family="Helvetica-Bold,Helvetica" font-weight="bold" font-size="22.0" fill="#FEFFFF" transform="matrix(1.00, 0.00, -0.00, -1.00, 226.5, 721.6)">e</text><text xml:space="preserve" font-family="Helvetica-Bold,Helvetica" font-weight="bold" font-size="22.0" fill="#FEFFFF" transform="matrix(1.00, 0.00, -0.00, -1.00, 238.7, 721.6)">s</text></g></g><path d="M 6.0 996.0 L 335.0 996.0 L 335.0 924.0 L 6.0 924.0 Z M 6.0 995.8 " fill="#000000"></path><g><clipPath id="clip0x6080012a32a0"><path d="M 4.5 924.2 L 336.6 924.2 L 336.6 995.8 L 4.5 995.8 Z M 4.5 924.2 "></path></clipPath><g clip-path="url(#clip0x6080012a32a0)"><text xml:space="preserve" font-family="Helvetica-Bold,Helvetica" font-weight="bold" font-size="22.0" fill="#FEFFFF" transform="matrix(1.00, 0.00, -0.00, -1.00, 28.0, 951.8)">R</text><text xml:space="preserve" font-family="Helvetica-Bold,Helvetica" font-weight="bold" font-size="22.0" fill="#FEFFFF" transform="matrix(1.00, 0.00, -0.00, -1.00, 43.9, 951.8)">E</text><text xml:space="preserve" font-family="Helvetica-Bold,Helvetica" font-weight="bold" font-size="22.0" fill="#FEFFFF" transform="matrix(1.00, 0.00, -0.00, -1.00, 58.6, 951.8)">S</text><text xml:space="preserve" font-family="Helvetica-Bold,Helvetica" font-weight="bold" font-size="22.0" fill="#FEFFFF" transform="matrix(1.00, 0.00, -0.00, -1.00, 73.2, 951.8)">U</text><text xml:space="preserve" font-family="Helvetica-Bold,Helvetica" font-weight="bold" font-size="22.0" fill="#FEFFFF" transform="matrix(1.00, 0.00, -0.00, -1.00, 89.1, 951.8)">M</text><text xml:space="preserve" font-family="Helvetica-Bold,Helvetica" font-weight="bold" font-size="22.0" fill="#FEFFFF" transform="matrix(1.00, 0.00, -0.00, -1.00, 107.5, 951.8)">O</text></g></g><text xml:space="preserve" font-family="Helvetica-Light,Helvetica" font-size="31.0" fill="#000000" transform="matrix(1.00, 0.00, -0.00, -1.00, 486.4, 948.6)">L</text><text xml:space="preserve" font-family="Helvetica-Light,Helvetica" font-size="31.0" fill="#000000" transform="matrix(1.00, 0.00, -0.00, -1.00, 503.7, 948.6)">i</text><text xml:space="preserve" font-family="Helvetica-Light,Helvetica" font-size="31.0" fill="#000000" transform="matrix(1.00, 0.00, -0.00, -1.00, 510.6, 948.6)">n</text><text xml:space="preserve" font-family="Helvetica-Light,Helvetica" font-size="31.0" fill="#000000" transform="matrix(1.00, 0.00, -0.00, -1.00, 527.8, 948.6)">h</text><text xml:space="preserve" font-family="Helvetica-Light,Helvetica" font-size="31.0" fill="#000000" transform="matrix(1.00, 0.00, -0.00, -1.00, 545.0, 948.6)">a</text><text xml:space="preserve" font-family="Helvetica-Light,Helvetica" font-size="31.0" fill="#000000" transform="matrix(1.00, 0.00, -0.00, -1.00, 562.3, 948.6)">s</text><text xml:space="preserve" font-family="Helvetica-Light,Helvetica" font-size="31.0" fill="#000000" transform="matrix(1.00, 0.00, -0.00, -1.00, 577.8, 948.6)"> </text><text xml:space="preserve" font-family="Helvetica-Light,Helvetica" font-size="31.0" fill="#000000" transform="matrix(1.00, 0.00, -0.00, -1.00, 586.4, 948.6)">c</text><text xml:space="preserve" font-family="Helvetica-Light,Helvetica" font-size="31.0" fill="#000000" transform="matrix(1.00, 0.00, -0.00, -1.00, 603.6, 948.6)">o</text><text xml:space="preserve" font-family="Helvetica-Light,Helvetica" font-size="31.0" fill="#000000" transform="matrix(1.00, 0.00, -0.00, -1.00, 620.9, 948.6)">m</text><text xml:space="preserve" font-family="Helvetica-Light,Helvetica" font-size="31.0" fill="#000000" transform="matrix(1.00, 0.00, -0.00, -1.00, 646.7, 948.6)"> </text><text xml:space="preserve" font-family="Helvetica-Bold,Helvetica" font-weight="bold" font-size="31.0" fill="#000000" transform="matrix(1.00, 0.00, -0.00, -1.00, 655.3, 948.6)">m</text><text xml:space="preserve" font-family="Helvetica-Bold,Helvetica" font-weight="bold" font-size="31.0" fill="#000000" transform="matrix(1.00, 0.00, -0.00, -1.00, 682.9, 948.6)">e</text><text xml:space="preserve" font-family="Helvetica-Bold,Helvetica" font-weight="bold" font-size="31.0" fill="#000000" transform="matrix(1.00, 0.00, -0.00, -1.00, 700.1, 948.6)">n</text><text xml:space="preserve" font-family="Helvetica-Bold,Helvetica" font-weight="bold" font-size="31.0" fill="#000000" transform="matrix(1.00, 0.00, -0.00, -1.00, 719.1, 948.6)">o</text><text xml:space="preserve" font-family="Helvetica-Bold,Helvetica" font-weight="bold" font-size="31.0" fill="#000000" transform="matrix(1.00, 0.00, -0.00, -1.00, 738.0, 948.6)">r</text><text xml:space="preserve" font-family="Helvetica-Light,Helvetica" font-size="31.0" fill="#000000" transform="matrix(1.00, 0.00, -0.00, -1.00, 750.0, 948.6)"> </text><text xml:space="preserve" font-family="Helvetica-Light,Helvetica" font-size="31.0" fill="#000000" transform="matrix(1.00, 0.00, -0.00, -1.00, 758.7, 948.6)">c</text><text xml:space="preserve" font-family="Helvetica-Light,Helvetica" font-size="31.0" fill="#000000" transform="matrix(1.00, 0.00, -0.00, -1.00, 775.9, 948.6)">o</text><text xml:space="preserve" font-family="Helvetica-Light,Helvetica" font-size="31.0" fill="#000000" transform="matrix(1.00, 0.00, -0.00, -1.00, 793.1, 948.6)">n</text><text xml:space="preserve" font-family="Helvetica-Light,Helvetica" font-size="31.0" fill="#000000" transform="matrix(1.00, 0.00, -0.00, -1.00, 810.4, 948.6)">f</text><text xml:space="preserve" font-family="Helvetica-Light,Helvetica" font-size="31.0" fill="#000000" transform="matrix(1.00, 0.00, -0.00, -1.00, 819.0, 948.6)">o</text><text xml:space="preserve" font-family="Helvetica-Light,Helvetica" font-size="31.0" fill="#000000" transform="matrix(1.00, 0.00, -0.00, -1.00, 836.2, 948.6)">r</text><text xml:space="preserve" font-family="Helvetica-Light,Helvetica" font-size="31.0" fill="#000000" transform="matrix(1.00, 0.00, -0.00, -1.00, 847.1, 948.6)">m</text><text xml:space="preserve" font-family="Helvetica-Light,Helvetica" font-size="31.0" fill="#000000" transform="matrix(1.00, 0.00, -0.00, -1.00, 872.9, 948.6)">i</text><text xml:space="preserve" font-family="Helvetica-Light,Helvetica" font-size="31.0" fill="#000000" transform="matrix(1.00, 0.00, -0.00, -1.00, 879.8, 948.6)">d</text><text xml:space="preserve" font-family="Helvetica-Light,Helvetica" font-size="31.0" fill="#000000" transform="matrix(1.00, 0.00, -0.00, -1.00, 898.8, 948.6)">a</text><text xml:space="preserve" font-family="Helvetica-Light,Helvetica" font-size="31.0" fill="#000000" transform="matrix(1.00, 0.00, -0.00, -1.00, 916.0, 948.6)">d</text><text xml:space="preserve" font-family="Helvetica-Light,Helvetica" font-size="31.0" fill="#000000" transform="matrix(1.00, 0.00, -0.00, -1.00, 934.9, 948.6)">e</text><text xml:space="preserve" font-family="Helvetica-Light,Helvetica" font-size="31.0" fill="#000000" transform="matrix(1.00, 0.00, -0.00, -1.00, 952.2, 948.6)"> </text><text xml:space="preserve" font-family="Helvetica-Light,Helvetica" font-size="31.0" fill="#000000" transform="matrix(1.00, 0.00, -0.00, -1.00, 960.8, 948.6)">m</text><text xml:space="preserve" font-family="Helvetica-Light,Helvetica" font-size="31.0" fill="#000000" transform="matrix(1.00, 0.00, -0.00, -1.00, 986.6, 948.6)">é</text><text xml:space="preserve" font-family="Helvetica-Light,Helvetica" font-size="31.0" fill="#000000" transform="matrix(1.00, 0.00, -0.00, -1.00, 1003.8, 948.6)">d</text><text xml:space="preserve" font-family="Helvetica-Light,Helvetica" font-size="31.0" fill="#000000" transform="matrix(1.00, 0.00, -0.00, -1.00, 1022.8, 948.6)">i</text><text xml:space="preserve" font-family="Helvetica-Light,Helvetica" font-size="31.0" fill="#000000" transform="matrix(1.00, 0.00, -0.00, -1.00, 1029.7, 948.6)">a</text><text xml:space="preserve" font-family="Helvetica-Light,Helvetica" font-size="31.0" fill="#000000" transform="matrix(1.00, 0.00, -0.00, -1.00, 1046.9, 948.6)"> </text><text xml:space="preserve" font-family="Helvetica-Light,Helvetica" font-size="31.0" fill="#000000" transform="matrix(1.00, 0.00, -0.00, -1.00, 1055.5, 948.6)">e</text><text xml:space="preserve" font-family="Helvetica-Light,Helvetica" font-size="31.0" fill="#000000" transform="matrix(1.00, 0.00, -0.00, -1.00, 1072.8, 948.6)">n</text><text xml:space="preserve" font-family="Helvetica-Light,Helvetica" font-size="31.0" fill="#000000" transform="matrix(1.00, 0.00, -0.00, -1.00, 1090.0, 948.6)">t</text><text xml:space="preserve" font-family="Helvetica-Light,Helvetica" font-size="31.0" fill="#000000" transform="matrix(1.00, 0.00, -0.00, -1.00, 1098.6, 948.6)">r</text><text xml:space="preserve" font-family="Helvetica-Light,Helvetica" font-size="31.0" fill="#000000" transform="matrix(1.00, 0.00, -0.00, -1.00, 1108.4, 948.6)">e</text><text xml:space="preserve" font-family="Helvetica-Light,Helvetica" font-size="31.0" fill="#000000" transform="matrix(1.00, 0.00, -0.00, -1.00, 1125.6, 948.6)"> </text><text xml:space="preserve" font-family="Helvetica-Light,Helvetica" font-size="31.0" fill="#000000" transform="matrix(1.00, 0.00, -0.00, -1.00, 1134.2, 948.6)">j</text><text xml:space="preserve" font-family="Helvetica-Light,Helvetica" font-size="31.0" fill="#000000" transform="matrix(1.00, 0.00, -0.00, -1.00, 1141.1, 948.6)">a</text><text xml:space="preserve" font-family="Helvetica-Light,Helvetica" font-size="31.0" fill="#000000" transform="matrix(1.00, 0.00, -0.00, -1.00, 1158.3, 948.6)">n</text><text xml:space="preserve" font-family="Helvetica-Light,Helvetica" font-size="31.0" fill="#000000" transform="matrix(1.00, 0.00, -0.00, -1.00, 1175.6, 948.6)">e</text><text xml:space="preserve" font-family="Helvetica-Light,Helvetica" font-size="31.0" fill="#000000" transform="matrix(1.00, 0.00, -0.00, -1.00, 1192.8, 948.6)">i</text><text xml:space="preserve" font-family="Helvetica-Light,Helvetica" font-size="31.0" fill="#000000" transform="matrix(1.00, 0.00, -0.00, -1.00, 1199.7, 948.6)">r</text><text xml:space="preserve" font-family="Helvetica-Light,Helvetica" font-size="31.0" fill="#000000" transform="matrix(1.00, 0.00, -0.00, -1.00, 1209.5, 948.6)">o</text><text xml:space="preserve" font-family="Helvetica-Light,Helvetica" font-size="31.0" fill="#000000" transform="matrix(1.00, 0.00, -0.00, -1.00, 1226.7, 948.6)"> </text><text xml:space="preserve" font-family="Helvetica-Light,Helvetica" font-size="31.0" fill="#000000" transform="matrix(1.00, 0.00, -0.00, -1.00, 1235.3, 948.6)">e</text><text xml:space="preserve" font-family="Helvetica-Light,Helvetica" font-size="31.0" fill="#000000" transform="matrix(1.00, 0.00, -0.00, -1.00, 1252.6, 948.6)"> </text><text xml:space="preserve" font-family="Helvetica-Light,Helvetica" font-size="31.0" fill="#000000" transform="matrix(1.00, 0.00, -0.00, -1.00, 1261.2, 948.6)">f</text><text xml:space="preserve" font-family="Helvetica-Light,Helvetica" font-size="31.0" fill="#000000" transform="matrix(1.00, 0.00, -0.00, -1.00, 1269.8, 948.6)">e</text><text xml:space="preserve" font-family="Helvetica-Light,Helvetica" font-size="31.0" fill="#000000" transform="matrix(1.00, 0.00, -0.00, -1.00, 1287.0, 948.6)">v</text><text xml:space="preserve" font-family="Helvetica-Light,Helvetica" font-size="31.0" fill="#000000" transform="matrix(1.00, 0.00, -0.00, -1.00, 1302.5, 948.6)">e</text><text xml:space="preserve" font-family="Helvetica-Light,Helvetica" font-size="31.0" fill="#000000" transform="matrix(1.00, 0.00, -0.00, -1.00, 1319.8, 948.6)">r</text><text xml:space="preserve" font-family="Helvetica-Light,Helvetica" font-size="31.0" fill="#000000" transform="matrix(1.00, 0.00, -0.00, -1.00, 1329.5, 948.6)">e</text><text xml:space="preserve" font-family="Helvetica-Light,Helvetica" font-size="31.0" fill="#000000" transform="matrix(1.00, 0.00, -0.00, -1.00, 1346.8, 948.6)">i</text><text xml:space="preserve" font-family="Helvetica-Light,Helvetica" font-size="31.0" fill="#000000" transform="matrix(1.00, 0.00, -0.00, -1.00, 1353.6, 948.6)">r</text><text xml:space="preserve" font-family="Helvetica-Light,Helvetica" font-size="31.0" fill="#000000" transform="matrix(1.00, 0.00, -0.00, -1.00, 1363.4, 948.6)">o</text><text xml:space="preserve" font-family="Helvetica-Light,Helvetica" font-size="31.0" fill="#000000" transform="matrix(1.00, 0.00, -0.00, -1.00, 1380.6, 948.6)"> </text><text xml:space="preserve" font-family="Helvetica-Light,Helvetica" font-size="31.0" fill="#000000" transform="matrix(1.00, 0.00, -0.00, -1.00, 1389.3, 948.6)">d</text><text xml:space="preserve" font-family="Helvetica-Light,Helvetica" font-size="31.0" fill="#000000" transform="matrix(1.00, 0.00, -0.00, -1.00, 1408.2, 948.6)">e</text><text xml:space="preserve" font-family="Helvetica-Light,Helvetica" font-size="31.0" fill="#000000" transform="matrix(1.00, 0.00, -0.00, -1.00, 1425.4, 948.6)"> </text><text xml:space="preserve" font-family="Helvetica-Light,Helvetica" font-size="31.0" fill="#000000" transform="matrix(1.00, 0.00, -0.00, -1.00, 1434.1, 948.6)">2</text><text xml:space="preserve" font-family="Helvetica-Light,Helvetica" font-size="31.0" fill="#000000" transform="matrix(1.00, 0.00, -0.00, -1.00, 1451.3, 948.6)">0</text><text xml:space="preserve" font-family="Helvetica-Light,Helvetica" font-size="31.0" fill="#000000" transform="matrix(1.00, 0.00, -0.00, -1.00, 1468.5, 948.6)">1</text><text xml:space="preserve" font-family="Helvetica-Light,Helvetica" font-size="31.0" fill="#000000" transform="matrix(1.00, 0.00, -0.00, -1.00, 1485.8, 948.6)">5</text><text xml:space="preserve" font-family="Helvetica-Light,Helvetica" font-size="31.0" fill="#000000" transform="matrix(1.00, 0.00, -0.00, -1.00, 1503.0, 948.6)">,</text><text xml:space="preserve" font-family="Helvetica-Light,Helvetica" font-size="31.0" fill="#000000" transform="matrix(1.00, 0.00, -0.00, -1.00, 1511.6, 948.6)"> </text><text xml:space="preserve" font-family="Helvetica-Light,Helvetica" font-size="31.0" fill="#000000" transform="matrix(1.00, 0.00, -0.00, -1.00, 1520.2, 948.6)">d</text><text xml:space="preserve" font-family="Helvetica-Light,Helvetica" font-size="31.0" fill="#000000" transform="matrix(1.00, 0.00, -0.00, -1.00, 1539.2, 948.6)">u</text><text xml:space="preserve" font-family="Helvetica-Light,Helvetica" font-size="31.0" fill="#000000" transform="matrix(1.00, 0.00, -0.00, -1.00, 1556.4, 948.6)">r</text><text xml:space="preserve" font-family="Helvetica-Light,Helvetica" font-size="31.0" fill="#000000" transform="matrix(1.00, 0.00, -0.00, -1.00, 1566.7, 948.6)">a</text><text xml:space="preserve" font-family="Helvetica-Light,Helvetica" font-size="31.0" fill="#000000" transform="matrix(1.00, 0.00, -0.00, -1.00, 1584.0, 948.6)">n</text><text xml:space="preserve" font-family="Helvetica-Light,Helvetica" font-size="31.0" fill="#000000" transform="matrix(1.00, 0.00, -0.00, -1.00, 1601.2, 948.6)">t</text><text xml:space="preserve" font-family="Helvetica-Light,Helvetica" font-size="31.0" fill="#000000" transform="matrix(1.00, 0.00, -0.00, -1.00, 1609.8, 948.6)">e</text><text xml:space="preserve" font-family="Helvetica-Light,Helvetica" font-size="31.0" fill="#000000" transform="matrix(1.00, 0.00, -0.00, -1.00, 1627.1, 948.6)"> </text><text xml:space="preserve" font-family="Helvetica-Light,Helvetica" font-size="31.0" fill="#000000" transform="matrix(1.00, 0.00, -0.00, -1.00, 1635.7, 948.6)">o</text><text xml:space="preserve" font-family="Helvetica-Light,Helvetica" font-size="31.0" fill="#000000" transform="matrix(1.00, 0.00, -0.00, -1.00, 1652.9, 948.6)"> </text><text xml:space="preserve" font-family="Helvetica-Light,Helvetica" font-size="31.0" fill="#000000" transform="matrix(1.00, 0.00, -0.00, -1.00, 1661.5, 948.6)">d</text><text xml:space="preserve" font-family="Helvetica-Light,Helvetica" font-size="31.0" fill="#000000" transform="matrix(1.00, 0.00, -0.00, -1.00, 1680.5, 948.6)">i</text><text xml:space="preserve" font-family="Helvetica-Light,Helvetica" font-size="31.0" fill="#000000" transform="matrix(1.00, 0.00, -0.00, -1.00, 1687.4, 948.6)">a</text><text xml:space="preserve" font-family="Helvetica-Light,Helvetica" font-size="31.0" fill="#000000" transform="matrix(1.00, 0.00, -0.00, -1.00, 1704.6, 948.6)">.</text><image xlink:href="0728062D50DCA717F5AB52BD73329B91.png" width="1536.00" height="472.00" transform="matrix(0.83, 0.00, -0.00, -0.83, 465.0, 935.0)"></image><text xml:space="preserve" font-family="Helvetica-Light,Helvetica" font-size="31.0" fill="#000000" transform="matrix(1.00, 0.00, -0.00, -1.00, 491.6, 428.6)">L</text><text xml:space="preserve" font-family="Helvetica-Light,Helvetica" font-size="31.0" fill="#000000" transform="matrix(1.00, 0.00, -0.00, -1.00, 508.8, 428.6)">i</text><text xml:space="preserve" font-family="Helvetica-Light,Helvetica" font-size="31.0" fill="#000000" transform="matrix(1.00, 0.00, -0.00, -1.00, 515.7, 428.6)">n</text><text xml:space="preserve" font-family="Helvetica-Light,Helvetica" font-size="31.0" fill="#000000" transform="matrix(1.00, 0.00, -0.00, -1.00, 533.0, 428.6)">h</text><text xml:space="preserve" font-family="Helvetica-Light,Helvetica" font-size="31.0" fill="#000000" transform="matrix(1.00, 0.00, -0.00, -1.00, 550.2, 428.6)">a</text><text xml:space="preserve" font-family="Helvetica-Light,Helvetica" font-size="31.0" fill="#000000" transform="matrix(1.00, 0.00, -0.00, -1.00, 567.4, 428.6)">s</text><text xml:space="preserve" font-family="Helvetica-Light,Helvetica" font-size="31.0" fill="#000000" transform="matrix(1.00, 0.00, -0.00, -1.00, 582.9, 428.6)"> </text><text xml:space="preserve" font-family="Helvetica-Light,Helvetica" font-size="31.0" fill="#000000" transform="matrix(1.00, 0.00, -0.00, -1.00, 591.6, 428.6)">c</text><text xml:space="preserve" font-family="Helvetica-Light,Helvetica" font-size="31.0" fill="#000000" transform="matrix(1.00, 0.00, -0.00, -1.00, 608.8, 428.6)">o</text><text xml:space="preserve" font-family="Helvetica-Light,Helvetica" font-size="31.0" fill="#000000" transform="matrix(1.00, 0.00, -0.00, -1.00, 626.0, 428.6)">m</text><text xml:space="preserve" font-family="Helvetica-Light,Helvetica" font-size="31.0" fill="#000000" transform="matrix(1.00, 0.00, -0.00, -1.00, 651.8, 428.6)"> </text><text xml:space="preserve" font-family="Helvetica-Bold,Helvetica" font-weight="bold" font-size="31.0" fill="#000000" transform="matrix(1.00, 0.00, -0.00, -1.00, 660.5, 428.6)">m</text><text xml:space="preserve" font-family="Helvetica-Bold,Helvetica" font-weight="bold" font-size="31.0" fill="#000000" transform="matrix(1.00, 0.00, -0.00, -1.00, 688.0, 428.6)">a</text><text xml:space="preserve" font-family="Helvetica-Bold,Helvetica" font-weight="bold" font-size="31.0" fill="#000000" transform="matrix(1.00, 0.00, -0.00, -1.00, 705.3, 428.6)">i</text><text xml:space="preserve" font-family="Helvetica-Bold,Helvetica" font-weight="bold" font-size="31.0" fill="#000000" transform="matrix(1.00, 0.00, -0.00, -1.00, 713.9, 428.6)">o</text><text xml:space="preserve" font-family="Helvetica-Bold,Helvetica" font-weight="bold" font-size="31.0" fill="#000000" transform="matrix(1.00, 0.00, -0.00, -1.00, 732.8, 428.6)">r</text><text xml:space="preserve" font-family="Helvetica-Light,Helvetica" font-size="31.0" fill="#000000" transform="matrix(1.00, 0.00, -0.00, -1.00, 744.9, 428.6)"> </text><text xml:space="preserve" font-family="Helvetica-Light,Helvetica" font-size="31.0" fill="#000000" transform="matrix(1.00, 0.00, -0.00, -1.00, 753.5, 428.6)">c</text><text xml:space="preserve" font-family="Helvetica-Light,Helvetica" font-size="31.0" fill="#000000" transform="matrix(1.00, 0.00, -0.00, -1.00, 770.7, 428.6)">o</text><text xml:space="preserve" font-family="Helvetica-Light,Helvetica" font-size="31.0" fill="#000000" transform="matrix(1.00, 0.00, -0.00, -1.00, 788.0, 428.6)">n</text><text xml:space="preserve" font-family="Helvetica-Light,Helvetica" font-size="31.0" fill="#000000" transform="matrix(1.00, 0.00, -0.00, -1.00, 805.2, 428.6)">f</text><text xml:space="preserve" font-family="Helvetica-Light,Helvetica" font-size="31.0" fill="#000000" transform="matrix(1.00, 0.00, -0.00, -1.00, 813.8, 428.6)">o</text><text xml:space="preserve" font-family="Helvetica-Light,Helvetica" font-size="31.0" fill="#000000" transform="matrix(1.00, 0.00, -0.00, -1.00, 831.1, 428.6)">r</text><text xml:space="preserve" font-family="Helvetica-Light,Helvetica" font-size="31.0" fill="#000000" transform="matrix(1.00, 0.00, -0.00, -1.00, 841.9, 428.6)">m</text><text xml:space="preserve" font-family="Helvetica-Light,Helvetica" font-size="31.0" fill="#000000" transform="matrix(1.00, 0.00, -0.00, -1.00, 867.8, 428.6)">i</text><text xml:space="preserve" font-family="Helvetica-Light,Helvetica" font-size="31.0" fill="#000000" transform="matrix(1.00, 0.00, -0.00, -1.00, 874.7, 428.6)">d</text><text xml:space="preserve" font-family="Helvetica-Light,Helvetica" font-size="31.0" fill="#000000" transform="matrix(1.00, 0.00, -0.00, -1.00, 893.6, 428.6)">a</text><text xml:space="preserve" font-family="Helvetica-Light,Helvetica" font-size="31.0" fill="#000000" transform="matrix(1.00, 0.00, -0.00, -1.00, 910.8, 428.6)">d</text><text xml:space="preserve" font-family="Helvetica-Light,Helvetica" font-size="31.0" fill="#000000" transform="matrix(1.00, 0.00, -0.00, -1.00, 929.8, 428.6)">e</text><text xml:space="preserve" font-family="Helvetica-Light,Helvetica" font-size="31.0" fill="#000000" transform="matrix(1.00, 0.00, -0.00, -1.00, 947.0, 428.6)"> </text><text xml:space="preserve" font-family="Helvetica-Light,Helvetica" font-size="31.0" fill="#000000" transform="matrix(1.00, 0.00, -0.00, -1.00, 955.6, 428.6)">m</text><text xml:space="preserve" font-family="Helvetica-Light,Helvetica" font-size="31.0" fill="#000000" transform="matrix(1.00, 0.00, -0.00, -1.00, 981.4, 428.6)">é</text><text xml:space="preserve" font-family="Helvetica-Light,Helvetica" font-size="31.0" fill="#000000" transform="matrix(1.00, 0.00, -0.00, -1.00, 998.7, 428.6)">d</text><text xml:space="preserve" font-family="Helvetica-Light,Helvetica" font-size="31.0" fill="#000000" transform="matrix(1.00, 0.00, -0.00, -1.00, 1017.6, 428.6)">i</text><text xml:space="preserve" font-family="Helvetica-Light,Helvetica" font-size="31.0" fill="#000000" transform="matrix(1.00, 0.00, -0.00, -1.00, 1024.5, 428.6)">a</text><text xml:space="preserve" font-family="Helvetica-Light,Helvetica" font-size="31.0" fill="#000000" transform="matrix(1.00, 0.00, -0.00, -1.00, 1041.7, 428.6)"> </text><text xml:space="preserve" font-family="Helvetica-Light,Helvetica" font-size="31.0" fill="#000000" transform="matrix(1.00, 0.00, -0.00, -1.00, 1050.4, 428.6)">e</text><text xml:space="preserve" font-family="Helvetica-Light,Helvetica" font-size="31.0" fill="#000000" transform="matrix(1.00, 0.00, -0.00, -1.00, 1067.6, 428.6)">n</text><text xml:space="preserve" font-family="Helvetica-Light,Helvetica" font-size="31.0" fill="#000000" transform="matrix(1.00, 0.00, -0.00, -1.00, 1084.8, 428.6)">t</text><text xml:space="preserve" font-family="Helvetica-Light,Helvetica" font-size="31.0" fill="#000000" transform="matrix(1.00, 0.00, -0.00, -1.00, 1093.4, 428.6)">r</text><text xml:space="preserve" font-family="Helvetica-Light,Helvetica" font-size="31.0" fill="#000000" transform="matrix(1.00, 0.00, -0.00, -1.00, 1103.2, 428.6)">e</text><text xml:space="preserve" font-family="Helvetica-Light,Helvetica" font-size="31.0" fill="#000000" transform="matrix(1.00, 0.00, -0.00, -1.00, 1120.4, 428.6)"> </text><text xml:space="preserve" font-family="Helvetica-Light,Helvetica" font-size="31.0" fill="#000000" transform="matrix(1.00, 0.00, -0.00, -1.00, 1129.1, 428.6)">j</text><text xml:space="preserve" font-family="Helvetica-Light,Helvetica" font-size="31.0" fill="#000000" transform="matrix(1.00, 0.00, -0.00, -1.00, 1135.9, 428.6)">a</text><text xml:space="preserve" font-family="Helvetica-Light,Helvetica" font-size="31.0" fill="#000000" transform="matrix(1.00, 0.00, -0.00, -1.00, 1153.2, 428.6)">n</text><text xml:space="preserve" font-family="Helvetica-Light,Helvetica" font-size="31.0" fill="#000000" transform="matrix(1.00, 0.00, -0.00, -1.00, 1170.4, 428.6)">e</text><text xml:space="preserve" font-family="Helvetica-Light,Helvetica" font-size="31.0" fill="#000000" transform="matrix(1.00, 0.00, -0.00, -1.00, 1187.7, 428.6)">i</text><text xml:space="preserve" font-family="Helvetica-Light,Helvetica" font-size="31.0" fill="#000000" transform="matrix(1.00, 0.00, -0.00, -1.00, 1194.5, 428.6)">r</text><text xml:space="preserve" font-family="Helvetica-Light,Helvetica" font-size="31.0" fill="#000000" transform="matrix(1.00, 0.00, -0.00, -1.00, 1204.3, 428.6)">o</text><text xml:space="preserve" font-family="Helvetica-Light,Helvetica" font-size="31.0" fill="#000000" transform="matrix(1.00, 0.00, -0.00, -1.00, 1221.5, 428.6)"> </text><text xml:space="preserve" font-family="Helvetica-Light,Helvetica" font-size="31.0" fill="#000000" transform="matrix(1.00, 0.00, -0.00, -1.00, 1230.2, 428.6)">e</text><text xml:space="preserve" font-family="Helvetica-Light,Helvetica" font-size="31.0" fill="#000000" transform="matrix(1.00, 0.00, -0.00, -1.00, 1247.4, 428.6)"> </text><text xml:space="preserve" font-family="Helvetica-Light,Helvetica" font-size="31.0" fill="#000000" transform="matrix(1.00, 0.00, -0.00, -1.00, 1256.0, 428.6)">f</text><text xml:space="preserve" font-family="Helvetica-Light,Helvetica" font-size="31.0" fill="#000000" transform="matrix(1.00, 0.00, -0.00, -1.00, 1264.6, 428.6)">e</text><text xml:space="preserve" font-family="Helvetica-Light,Helvetica" font-size="31.0" fill="#000000" transform="matrix(1.00, 0.00, -0.00, -1.00, 1281.9, 428.6)">v</text><text xml:space="preserve" font-family="Helvetica-Light,Helvetica" font-size="31.0" fill="#000000" transform="matrix(1.00, 0.00, -0.00, -1.00, 1297.4, 428.6)">e</text><text xml:space="preserve" font-family="Helvetica-Light,Helvetica" font-size="31.0" fill="#000000" transform="matrix(1.00, 0.00, -0.00, -1.00, 1314.6, 428.6)">r</text><text xml:space="preserve" font-family="Helvetica-Light,Helvetica" font-size="31.0" fill="#000000" transform="matrix(1.00, 0.00, -0.00, -1.00, 1324.4, 428.6)">e</text><text xml:space="preserve" font-family="Helvetica-Light,Helvetica" font-size="31.0" fill="#000000" transform="matrix(1.00, 0.00, -0.00, -1.00, 1341.6, 428.6)">i</text><text xml:space="preserve" font-family="Helvetica-Light,Helvetica" font-size="31.0" fill="#000000" transform="matrix(1.00, 0.00, -0.00, -1.00, 1348.5, 428.6)">r</text><text xml:space="preserve" font-family="Helvetica-Light,Helvetica" font-size="31.0" fill="#000000" transform="matrix(1.00, 0.00, -0.00, -1.00, 1358.3, 428.6)">o</text><text xml:space="preserve" font-family="Helvetica-Light,Helvetica" font-size="31.0" fill="#000000" transform="matrix(1.00, 0.00, -0.00, -1.00, 1375.5, 428.6)"> </text><text xml:space="preserve" font-family="Helvetica-Light,Helvetica" font-size="31.0" fill="#000000" transform="matrix(1.00, 0.00, -0.00, -1.00, 1384.1, 428.6)">d</text><text xml:space="preserve" font-family="Helvetica-Light,Helvetica" font-size="31.0" fill="#000000" transform="matrix(1.00, 0.00, -0.00, -1.00, 1403.0, 428.6)">e</text><text xml:space="preserve" font-family="Helvetica-Light,Helvetica" font-size="31.0" fill="#000000" transform="matrix(1.00, 0.00, -0.00, -1.00, 1420.3, 428.6)"> </text><text xml:space="preserve" font-family="Helvetica-Light,Helvetica" font-size="31.0" fill="#000000" transform="matrix(1.00, 0.00, -0.00, -1.00, 1428.9, 428.6)">2</text><text xml:space="preserve" font-family="Helvetica-Light,Helvetica" font-size="31.0" fill="#000000" transform="matrix(1.00, 0.00, -0.00, -1.00, 1446.1, 428.6)">0</text><text xml:space="preserve" font-family="Helvetica-Light,Helvetica" font-size="31.0" fill="#000000" transform="matrix(1.00, 0.00, -0.00, -1.00, 1463.4, 428.6)">1</text><text xml:space="preserve" font-family="Helvetica-Light,Helvetica" font-size="31.0" fill="#000000" transform="matrix(1.00, 0.00, -0.00, -1.00, 1480.6, 428.6)">5</text><text xml:space="preserve" font-family="Helvetica-Light,Helvetica" font-size="31.0" fill="#000000" transform="matrix(1.00, 0.00, -0.00, -1.00, 1497.8, 428.6)">,</text><text xml:space="preserve" font-family="Helvetica-Light,Helvetica" font-size="31.0" fill="#000000" transform="matrix(1.00, 0.00, -0.00, -1.00, 1506.5, 428.6)"> </text><text xml:space="preserve" font-family="Helvetica-Light,Helvetica" font-size="31.0" fill="#000000" transform="matrix(1.00, 0.00, -0.00, -1.00, 1515.1, 428.6)">d</text><text xml:space="preserve" font-family="Helvetica-Light,Helvetica" font-size="31.0" fill="#000000" transform="matrix(1.00, 0.00, -0.00, -1.00, 1534.0, 428.6)">u</text><text xml:space="preserve" font-family="Helvetica-Light,Helvetica" font-size="31.0" fill="#000000" transform="matrix(1.00, 0.00, -0.00, -1.00, 1551.3, 428.6)">r</text><text xml:space="preserve" font-family="Helvetica-Light,Helvetica" font-size="31.0" fill="#000000" transform="matrix(1.00, 0.00, -0.00, -1.00, 1561.6, 428.6)">a</text><text xml:space="preserve" font-family="Helvetica-Light,Helvetica" font-size="31.0" fill="#000000" transform="matrix(1.00, 0.00, -0.00, -1.00, 1578.8, 428.6)">n</text><text xml:space="preserve" font-family="Helvetica-Light,Helvetica" font-size="31.0" fill="#000000" transform="matrix(1.00, 0.00, -0.00, -1.00, 1596.1, 428.6)">t</text><text xml:space="preserve" font-family="Helvetica-Light,Helvetica" font-size="31.0" fill="#000000" transform="matrix(1.00, 0.00, -0.00, -1.00, 1604.7, 428.6)">e</text><text xml:space="preserve" font-family="Helvetica-Light,Helvetica" font-size="31.0" fill="#000000" transform="matrix(1.00, 0.00, -0.00, -1.00, 1621.9, 428.6)"> </text><text xml:space="preserve" font-family="Helvetica-Light,Helvetica" font-size="31.0" fill="#000000" transform="matrix(1.00, 0.00, -0.00, -1.00, 1630.5, 428.6)">o</text><text xml:space="preserve" font-family="Helvetica-Light,Helvetica" font-size="31.0" fill="#000000" transform="matrix(1.00, 0.00, -0.00, -1.00, 1647.8, 428.6)"> </text><text xml:space="preserve" font-family="Helvetica-Light,Helvetica" font-size="31.0" fill="#000000" transform="matrix(1.00, 0.00, -0.00, -1.00, 1656.4, 428.6)">d</text><text xml:space="preserve" font-family="Helvetica-Light,Helvetica" font-size="31.0" fill="#000000" transform="matrix(1.00, 0.00, -0.00, -1.00, 1675.3, 428.6)">i</text><text xml:space="preserve" font-family="Helvetica-Light,Helvetica" font-size="31.0" fill="#000000" transform="matrix(1.00, 0.00, -0.00, -1.00, 1682.2, 428.6)">a</text><text xml:space="preserve" font-family="Helvetica-Light,Helvetica" font-size="31.0" fill="#000000" transform="matrix(1.00, 0.00, -0.00, -1.00, 1699.4, 428.6)">.</text></g></svg>