<?xml version="1.0" encoding="UTF-8" standalone="no"?><svg xmlns="http://www.w3.org/2000/svg" xmlns:xlink="http://www.w3.org/1999/xlink" clip-rule="evenodd" stroke-miterlimit="10" viewBox="0 0 1920 1080"><desc>SVG generated by Keynote</desc><defs></defs><g transform="matrix(1.00, 0.00, -0.00, -1.00, 0.0, 1080.0)"><path d="M 0.0 1080.0 L 1920.0 1080.0 L 1920.0 0.0 L 0.0 0.0 Z M 0.0 1080.0 " fill="#FEFFFF"></path><image xlink:href="EFD7F936CCC0089A7E83F40651CBDEB1.png" width="1930.00" height="561.00" transform="matrix(1.00, 0.00, -0.00, -1.00, -5.0, 554.2)" opacity="0.50"></image><path d="M -2.0 553.0 L 1922.0 553.0 L 1922.0 -2.0 L -2.0 -2.0 Z M -2.0 553.2 " fill="#000000"></path><g><clipPath id="clip0x6000014a7500"><path d="M -13.6 -2.0 L 1933.6 -2.0 L 1933.6 553.2 L -13.6 553.2 Z M -13.6 -2.0 "></path></clipPath><g clip-path="url(#clip0x6000014a7500)"><text xml:space="preserve" font-family="Geneva,Geneva" font-size="50.0" fill="#FEFFFE" transform="matrix(1.00, 0.00, -0.00, -1.00, 689.8, 390.9)">D</text><text xml:space="preserve" font-family="Geneva,Geneva" font-size="50.0" fill="#FEFFFE" transform="matrix(1.00, 0.00, -0.00, -1.00, 724.8, 390.9)">E</text><text xml:space="preserve" font-family="Geneva,Geneva" font-size="50.0" fill="#FEFFFE" transform="matrix(1.00, 0.00, -0.00, -1.00, 753.6, 390.9)">S</text><text xml:space="preserve" font-family="Geneva,Geneva" font-size="50.0" fill="#FEFFFE" transform="matrix(1.00, 0.00, -0.00, -1.00, 783.9, 390.9)">B</text><text xml:space="preserve" font-family="Geneva,Geneva" font-size="50.0" fill="#FEFFFE" transform="matrix(1.00, 0.00, -0.00, -1.00, 815.7, 390.9)">U</text><text xml:space="preserve" font-family="Geneva,Geneva" font-size="50.0" fill="#FEFFFE" transform="matrix(1.00, 0.00, -0.00, -1.00, 849.0, 390.9)">R</text><text xml:space="preserve" font-family="Geneva,Geneva" font-size="50.0" fill="#FEFFFE" transform="matrix(1.00, 0.00, -0.00, -1.00, 879.3, 390.9)">O</text><text xml:space="preserve" font-family="Geneva,Geneva" font-size="50.0" fill="#FEFFFE" transform="matrix(1.00, 0.00, -0.00, -1.00, 916.0, 390.9)">C</text><text xml:space="preserve" font-family="Geneva,Geneva" font-size="50.0" fill="#FEFFFE" transform="matrix(1.00, 0.00, -0.00, -1.00, 948.6, 390.9)">R</text><text xml:space="preserve" font-family="Geneva,Geneva" font-size="50.0" fill="#FEFFFE" transform="matrix(1.00, 0.00, -0.00, -1.00, 978.9, 390.9)">A</text><text xml:space="preserve" font-family="Geneva,Geneva" font-size="50.0" fill="#FEFFFE" transform="matrix(1.00, 0.00, -0.00, -1.00, 1015.3, 390.9)">T</text><text xml:space="preserve" font-family="Geneva,Geneva" font-size="50.0" fill="#FEFFFE" transform="matrix(1.00, 0.00, -0.00, -1.00, 1047.3, 390.9)">I</text><text xml:space="preserve" font-family="Geneva,Geneva" font-size="50.0" fill="#FEFFFE" transform="matrix(1.00, 0.00, -0.00, -1.00, 1059.4, 390.9)">Z</text><text xml:space="preserve" font-family="Geneva,Geneva" font-size="50.0" fill="#FEFFFE" transform="matrix(1.00, 0.00, -0.00, -1.00, 1088.2, 390.9)">A</text><text xml:space="preserve" font-family="Geneva,Geneva" font-size="50.0" fill="#FEFFFE" transform="matrix(1.00, 0.00, -0.00, -1.00, 1124.5, 390.9)">Ç</text><text xml:space="preserve" font-family="Geneva,Geneva" font-size="50.0" fill="#FEFFFE" transform="matrix(1.00, 0.00, -0.00, -1.00, 1157.1, 390.9)">Ã</text><text xml:space="preserve" font-family="Geneva,Geneva" font-size="50.0" fill="#FEFFFE" transform="matrix(1.00, 0.00, -0.00, -1.00, 1193.5, 390.9)">O</text><text xml:space="preserve" font-family="Geneva,Geneva" font-size="50.0" fill="#FEFFFE" transform="matrix(1.00, 0.00, -0.00, -1.00, 945.6, 256.9)">E</text><text xml:space="preserve" font-family="Geneva,Geneva" font-size="50.0" fill="#FEFFFE" transform="matrix(1.00, 0.00, -0.00, -1.00, 828.7, 122.9)">I</text><text xml:space="preserve" font-family="Geneva,Geneva" font-size="50.0" fill="#FEFFFE" transform="matrix(1.00, 0.00, -0.00, -1.00, 840.8, 122.9)">N</text><text xml:space="preserve" font-family="Geneva,Geneva" font-size="50.0" fill="#FEFFFE" transform="matrix(1.00, 0.00, -0.00, -1.00, 876.2, 122.9)">O</text><text xml:space="preserve" font-family="Geneva,Geneva" font-size="50.0" fill="#FEFFFE" transform="matrix(1.00, 0.00, -0.00, -1.00, 913.0, 122.9)">V</text><text xml:space="preserve" font-family="Geneva,Geneva" font-size="50.0" fill="#FEFFFE" transform="matrix(1.00, 0.00, -0.00, -1.00, 949.3, 122.9)">A</text><text xml:space="preserve" font-family="Geneva,Geneva" font-size="50.0" fill="#FEFFFE" transform="matrix(1.00, 0.00, -0.00, -1.00, 985.7, 122.9)">Ç</text><text xml:space="preserve" font-family="Geneva,Geneva" font-size="50.0" fill="#FEFFFE" transform="matrix(1.00, 0.00, -0.00, -1.00, 1018.3, 122.9)">Ã</text><text xml:space="preserve" font-family="Geneva,Geneva" font-size="50.0" fill="#FEFFFE" transform="matrix(1.00, 0.00, -0.00, -1.00, 1054.7, 122.9)">O</text></g></g></g></svg>