<?xml version="1.0" encoding="UTF-8" standalone="no"?><svg xmlns="http://www.w3.org/2000/svg" xmlns:xlink="http://www.w3.org/1999/xlink" clip-rule="evenodd" stroke-miterlimit="10" viewBox="0 0 1920 1080"><desc>SVG generated by Keynote</desc><defs></defs><g transform="matrix(1.00, 0.00, -0.00, -1.00, 0.0, 1080.0)"><path d="M 0.0 1080.0 L 1920.0 1080.0 L 1920.0 0.0 L 0.0 0.0 Z M 0.0 1080.0 " fill="#FEFFFE"></path><g><clipPath id="clip0x6000010bafa0"><path d="M -6.0 -93.0 L 1926.0 -93.0 L 1926.0 1173.0 L -6.0 1173.0 Z M -6.0 -93.0 "></path></clipPath><g clip-path="url(#clip0x6000010bafa0)"><path d="M -6.0 1173.0 L 1926.0 1173.0 L 1926.0 -93.0 L -6.0 -93.0 Z M -6.0 1173.0 " fill="#FEFFFF" fill-opacity="0.00"></path></g></g><g><clipPath id="clip0x6000010bb300"><path d="M -5.3 1173.0 L 1925.3 1173.0 L 1925.3 -93.0 L -5.3 -93.0 Z M -5.3 1173.0 "></path></clipPath><g clip-path="url(#clip0x6000010bb300)"><g><clipPath id="clip0x6000010bb480"><path d="M -5.3 -93.0 L 1925.3 -93.0 L 1925.3 1173.0 L -5.3 1173.0 Z M -5.3 -93.0 "></path></clipPath><g clip-path="url(#clip0x6000010bb480)"><image xlink:href="../../EA0219BE-63B0-44A9-9C7A-3712742D0D34/assets/0E99AF0B5B9BA2DECCD38D2706E8BBD9.png" width="618.00" height="405.00" transform="matrix(3.12, 0.00, -0.00, -3.13, -5.3, 1173.0)"></image></g></g></g></g><text xml:space="preserve" font-family="Helvetica-Light,Helvetica" font-size="50.0" fill="#FEFFFF" transform="matrix(1.00, 0.00, -0.00, -1.00, 1815.4, 15.5)">V</text><text xml:space="preserve" font-family="Helvetica-Light,Helvetica" font-size="50.0" fill="#FEFFFF" transform="matrix(1.00, 0.00, -0.00, -1.00, 1845.9, 15.5)">O</text><text xml:space="preserve" font-family="Helvetica-Light,Helvetica" font-size="50.0" fill="#FEFFFF" transform="matrix(1.00, 0.00, -0.00, -1.00, 1884.8, 15.5)">L</text><image xlink:href="../../2D96A863-BA2A-43DD-A7AB-4FBD4760B74F/assets/B7DCAFF8C216E8D1B6AEB270EB033B1A.png" width="3004.00" height="2254.00" transform="matrix(0.22, 0.00, -0.00, -0.22, 1262.0, 491.0)"></image><image xlink:href="../../2D96A863-BA2A-43DD-A7AB-4FBD4760B74F/assets/EF4F1921F8A7E0EA75114FE84B8B8051.png" width="681.00" height="357.00" transform="matrix(0.22, 0.00, -0.00, -0.22, 10.0, 90.0)"></image><text xml:space="preserve" font-family="Helvetica-Bold,Helvetica" font-weight="bold" font-size="74.1" fill="#FEFFFE" transform="matrix(1.00, 0.00, -0.00, -1.00, 31.8, 1004.7)">D</text><text xml:space="preserve" font-family="Helvetica-Bold,Helvetica" font-weight="bold" font-size="74.1" fill="#FEFFFE" transform="matrix(1.00, 0.00, -0.00, -1.00, 85.4, 1004.7)">E</text><text xml:space="preserve" font-family="Helvetica-Bold,Helvetica" font-weight="bold" font-size="74.1" fill="#FEFFFE" transform="matrix(1.00, 0.00, -0.00, -1.00, 134.8, 1004.7)">T</text><text xml:space="preserve" font-family="Helvetica-Bold,Helvetica" font-weight="bold" font-size="74.1" fill="#FEFFFE" transform="matrix(1.00, 0.00, -0.00, -1.00, 174.6, 1004.7)">A</text><text xml:space="preserve" font-family="Helvetica-Bold,Helvetica" font-weight="bold" font-size="74.1" fill="#FEFFFE" transform="matrix(1.00, 0.00, -0.00, -1.00, 228.1, 1004.7)">L</text><text xml:space="preserve" font-family="Helvetica-Bold,Helvetica" font-weight="bold" font-size="74.1" fill="#FEFFFE" transform="matrix(1.00, 0.00, -0.00, -1.00, 273.4, 1004.7)">H</text><text xml:space="preserve" font-family="Helvetica-Bold,Helvetica" font-weight="bold" font-size="74.1" fill="#FEFFFE" transform="matrix(1.00, 0.00, -0.00, -1.00, 326.9, 1004.7)">A</text><text xml:space="preserve" font-family="Helvetica-Bold,Helvetica" font-weight="bold" font-size="74.1" fill="#FEFFFE" transform="matrix(1.00, 0.00, -0.00, -1.00, 380.4, 1004.7)">M</text><text xml:space="preserve" font-family="Helvetica-Bold,Helvetica" font-weight="bold" font-size="74.1" fill="#FEFFFE" transform="matrix(1.00, 0.00, -0.00, -1.00, 442.1, 1004.7)">E</text><text xml:space="preserve" font-family="Helvetica-Bold,Helvetica" font-weight="bold" font-size="74.1" fill="#FEFFFE" transform="matrix(1.00, 0.00, -0.00, -1.00, 491.6, 1004.7)">N</text><text xml:space="preserve" font-family="Helvetica-Bold,Helvetica" font-weight="bold" font-size="74.1" fill="#FEFFFE" transform="matrix(1.00, 0.00, -0.00, -1.00, 545.1, 1004.7)">T</text><text xml:space="preserve" font-family="Helvetica-Bold,Helvetica" font-weight="bold" font-size="74.1" fill="#FEFFFE" transform="matrix(1.00, 0.00, -0.00, -1.00, 589.0, 1004.7)">O</text><text xml:space="preserve" font-family="Helvetica-Bold,Helvetica" font-weight="bold" font-size="74.1" fill="#FEFFFE" transform="matrix(1.00, 0.00, -0.00, -1.00, 646.7, 1004.7)"> </text><text xml:space="preserve" font-family="Helvetica-Bold,Helvetica" font-weight="bold" font-size="74.1" fill="#FEFFFE" transform="matrix(1.00, 0.00, -0.00, -1.00, 667.2, 1004.7)">-</text><text xml:space="preserve" font-family="Helvetica-Bold,Helvetica" font-weight="bold" font-size="74.1" fill="#FEFFFE" transform="matrix(1.00, 0.00, -0.00, -1.00, 691.9, 1004.7)"> </text><text xml:space="preserve" font-family="Helvetica-Bold,Helvetica" font-weight="bold" font-size="74.1" fill="#FEFFFE" transform="matrix(1.00, 0.00, -0.00, -1.00, 712.5, 1004.7)">Ã</text><text xml:space="preserve" font-family="Helvetica-Bold,Helvetica" font-weight="bold" font-size="74.1" fill="#FEFFFE" transform="matrix(1.00, 0.00, -0.00, -1.00, 766.0, 1004.7)">R</text><text xml:space="preserve" font-family="Helvetica-Bold,Helvetica" font-weight="bold" font-size="74.1" fill="#FEFFFE" transform="matrix(1.00, 0.00, -0.00, -1.00, 819.5, 1004.7)">E</text><text xml:space="preserve" font-family="Helvetica-Bold,Helvetica" font-weight="bold" font-size="74.1" fill="#FEFFFE" transform="matrix(1.00, 0.00, -0.00, -1.00, 869.0, 1004.7)">A</text><text xml:space="preserve" font-family="Helvetica-Bold,Helvetica" font-weight="bold" font-size="74.1" fill="#FEFFFE" transform="matrix(1.00, 0.00, -0.00, -1.00, 922.5, 1004.7)">S</text><text xml:space="preserve" font-family="Helvetica-Bold,Helvetica" font-weight="bold" font-size="74.1" fill="#FEFFFE" transform="matrix(1.00, 0.00, -0.00, -1.00, 971.9, 1004.7)"> </text><text xml:space="preserve" font-family="Helvetica-Bold,Helvetica" font-weight="bold" font-size="74.1" fill="#FEFFFE" transform="matrix(1.00, 0.00, -0.00, -1.00, 992.5, 1004.7)">C</text><text xml:space="preserve" font-family="Helvetica-Bold,Helvetica" font-weight="bold" font-size="74.1" fill="#FEFFFE" transform="matrix(1.00, 0.00, -0.00, -1.00, 1046.0, 1004.7)">O</text><text xml:space="preserve" font-family="Helvetica-Bold,Helvetica" font-weight="bold" font-size="74.1" fill="#FEFFFE" transform="matrix(1.00, 0.00, -0.00, -1.00, 1103.6, 1004.7)">M</text><text xml:space="preserve" font-family="Helvetica-Bold,Helvetica" font-weight="bold" font-size="74.1" fill="#FEFFFE" transform="matrix(1.00, 0.00, -0.00, -1.00, 1165.4, 1004.7)"> </text><text xml:space="preserve" font-family="Helvetica-Bold,Helvetica" font-weight="bold" font-size="74.1" fill="#FEFFFE" transform="matrix(1.00, 0.00, -0.00, -1.00, 1183.2, 1004.7)">A</text><text xml:space="preserve" font-family="Helvetica-Bold,Helvetica" font-weight="bold" font-size="74.1" fill="#FEFFFE" transform="matrix(1.00, 0.00, -0.00, -1.00, 1236.7, 1004.7)">L</text><text xml:space="preserve" font-family="Helvetica-Bold,Helvetica" font-weight="bold" font-size="74.1" fill="#FEFFFE" transform="matrix(1.00, 0.00, -0.00, -1.00, 1276.5, 1004.7)">T</text><text xml:space="preserve" font-family="Helvetica-Bold,Helvetica" font-weight="bold" font-size="74.1" fill="#FEFFFE" transform="matrix(1.00, 0.00, -0.00, -1.00, 1321.8, 1004.7)">I</text><text xml:space="preserve" font-family="Helvetica-Bold,Helvetica" font-weight="bold" font-size="74.1" fill="#FEFFFE" transform="matrix(1.00, 0.00, -0.00, -1.00, 1342.4, 1004.7)">T</text><text xml:space="preserve" font-family="Helvetica-Bold,Helvetica" font-weight="bold" font-size="74.1" fill="#FEFFFE" transform="matrix(1.00, 0.00, -0.00, -1.00, 1387.6, 1004.7)">U</text><text xml:space="preserve" font-family="Helvetica-Bold,Helvetica" font-weight="bold" font-size="74.1" fill="#FEFFFE" transform="matrix(1.00, 0.00, -0.00, -1.00, 1441.1, 1004.7)">D</text><text xml:space="preserve" font-family="Helvetica-Bold,Helvetica" font-weight="bold" font-size="74.1" fill="#FEFFFE" transform="matrix(1.00, 0.00, -0.00, -1.00, 1494.7, 1004.7)">E</text><text xml:space="preserve" font-family="Helvetica-Bold,Helvetica" font-weight="bold" font-size="74.1" fill="#FEFFFE" transform="matrix(1.00, 0.00, -0.00, -1.00, 1544.1, 1004.7)"> </text><text xml:space="preserve" font-family="Helvetica-Bold,Helvetica" font-weight="bold" font-size="74.1" fill="#FEFFFE" transform="matrix(1.00, 0.00, -0.00, -1.00, 1564.7, 1004.7)">&gt;</text><text xml:space="preserve" font-family="Helvetica-Bold,Helvetica" font-weight="bold" font-size="74.1" fill="#FEFFFE" transform="matrix(1.00, 0.00, -0.00, -1.00, 1607.9, 1004.7)"> </text><text xml:space="preserve" font-family="Helvetica-Bold,Helvetica" font-weight="bold" font-size="74.1" fill="#FEFFFE" transform="matrix(1.00, 0.00, -0.00, -1.00, 1628.5, 1004.7)">1</text><text xml:space="preserve" font-family="Helvetica-Bold,Helvetica" font-weight="bold" font-size="74.1" fill="#FEFFFE" transform="matrix(1.00, 0.00, -0.00, -1.00, 1669.7, 1004.7)">0</text><text xml:space="preserve" font-family="Helvetica-Bold,Helvetica" font-weight="bold" font-size="74.1" fill="#FEFFFE" transform="matrix(1.00, 0.00, -0.00, -1.00, 1711.0, 1004.7)">0</text><text xml:space="preserve" font-family="Helvetica-Bold,Helvetica" font-weight="bold" font-size="74.1" fill="#FEFFFE" transform="matrix(1.00, 0.00, -0.00, -1.00, 1752.2, 1004.7)">M</text></g></svg>