<?xml version="1.0" encoding="UTF-8" standalone="no"?><svg xmlns="http://www.w3.org/2000/svg" xmlns:xlink="http://www.w3.org/1999/xlink" clip-rule="evenodd" stroke-miterlimit="10" viewBox="0 0 1920 1080"><desc>SVG generated by Keynote</desc><defs></defs><g transform="matrix(1.00, 0.00, -0.00, -1.00, 0.0, 1080.0)"><path d="M 0.0 1080.0 L 1920.0 1080.0 L 1920.0 0.0 L 0.0 0.0 Z M 0.0 1080.0 " fill="#FEFFFE"></path><image xlink:href="../../46F02FC2-67EC-4D9F-A726-2859EF20AF72/assets/D852046C21386C489959772BE2F1EA2B.png" width="681.00" height="357.00" transform="matrix(0.22, 0.00, -0.00, -0.22, 10.0, 90.0)"></image><text xml:space="preserve" font-family="BebasNeueBold,Bebas Neue" font-weight="bold" font-size="114.0" fill="#000000" transform="matrix(1.00, 0.00, -0.00, -1.00, 31.8, 967.2)">N</text><text xml:space="preserve" font-family="BebasNeueBold,Bebas Neue" font-weight="bold" font-size="114.0" fill="#000000" transform="matrix(1.00, 0.00, -0.00, -1.00, 80.5, 967.2)">U</text><text xml:space="preserve" font-family="BebasNeueBold,Bebas Neue" font-weight="bold" font-size="114.0" fill="#000000" transform="matrix(1.00, 0.00, -0.00, -1.00, 125.9, 967.2)">D</text><text xml:space="preserve" font-family="BebasNeueBold,Bebas Neue" font-weight="bold" font-size="114.0" fill="#000000" transform="matrix(1.00, 0.00, -0.00, -1.00, 172.4, 967.2)">G</text><text xml:space="preserve" font-family="BebasNeueBold,Bebas Neue" font-weight="bold" font-size="114.0" fill="#000000" transform="matrix(1.00, 0.00, -0.00, -1.00, 216.9, 967.2)">E</text><text xml:space="preserve" font-family="BebasNeueBold,Bebas Neue" font-weight="bold" font-size="114.0" fill="#000000" transform="matrix(1.00, 0.00, -0.00, -1.00, 258.8, 967.2)"> </text><text xml:space="preserve" font-family="BebasNeueBold,Bebas Neue" font-weight="bold" font-size="114.0" fill="#000000" transform="matrix(1.00, 0.00, -0.00, -1.00, 276.5, 967.2)">e</text><text xml:space="preserve" font-family="BebasNeueBold,Bebas Neue" font-weight="bold" font-size="114.0" fill="#000000" transform="matrix(1.00, 0.00, -0.00, -1.00, 318.4, 967.2)"> </text><text xml:space="preserve" font-family="BebasNeueBold,Bebas Neue" font-weight="bold" font-size="114.0" fill="#000000" transform="matrix(1.00, 0.00, -0.00, -1.00, 336.1, 967.2)">E</text><text xml:space="preserve" font-family="BebasNeueBold,Bebas Neue" font-weight="bold" font-size="114.0" fill="#000000" transform="matrix(1.00, 0.00, -0.00, -1.00, 378.1, 967.2)">F</text><text xml:space="preserve" font-family="BebasNeueBold,Bebas Neue" font-weight="bold" font-size="114.0" fill="#000000" transform="matrix(1.00, 0.00, -0.00, -1.00, 417.3, 967.2)">E</text><text xml:space="preserve" font-family="BebasNeueBold,Bebas Neue" font-weight="bold" font-size="114.0" fill="#000000" transform="matrix(1.00, 0.00, -0.00, -1.00, 459.2, 967.2)">I</text><text xml:space="preserve" font-family="BebasNeueBold,Bebas Neue" font-weight="bold" font-size="114.0" fill="#000000" transform="matrix(1.00, 0.00, -0.00, -1.00, 480.9, 967.2)">T</text><text xml:space="preserve" font-family="BebasNeueBold,Bebas Neue" font-weight="bold" font-size="114.0" fill="#000000" transform="matrix(1.00, 0.00, -0.00, -1.00, 521.5, 967.2)">O</text><text xml:space="preserve" font-family="BebasNeueBold,Bebas Neue" font-weight="bold" font-size="114.0" fill="#000000" transform="matrix(1.00, 0.00, -0.00, -1.00, 566.6, 967.2)"> </text><text xml:space="preserve" font-family="BebasNeueBold,Bebas Neue" font-weight="bold" font-size="114.0" fill="#000000" transform="matrix(1.00, 0.00, -0.00, -1.00, 584.3, 967.2)">R</text><text xml:space="preserve" font-family="BebasNeueBold,Bebas Neue" font-weight="bold" font-size="114.0" fill="#000000" transform="matrix(1.00, 0.00, -0.00, -1.00, 630.1, 967.2)">E</text><text xml:space="preserve" font-family="BebasNeueBold,Bebas Neue" font-weight="bold" font-size="114.0" fill="#000000" transform="matrix(1.00, 0.00, -0.00, -1.00, 672.1, 967.2)">B</text><text xml:space="preserve" font-family="BebasNeueBold,Bebas Neue" font-weight="bold" font-size="114.0" fill="#000000" transform="matrix(1.00, 0.00, -0.00, -1.00, 718.3, 967.2)">O</text><text xml:space="preserve" font-family="BebasNeueBold,Bebas Neue" font-weight="bold" font-size="114.0" fill="#000000" transform="matrix(1.00, 0.00, -0.00, -1.00, 763.5, 967.2)">T</text><text xml:space="preserve" font-family="BebasNeueBold,Bebas Neue" font-weight="bold" font-size="114.0" fill="#000000" transform="matrix(1.00, 0.00, -0.00, -1.00, 804.1, 967.2)">E</text><text xml:space="preserve" font-family="BebasNeueBold,Bebas Neue" font-weight="bold" font-size="114.0" fill="#000000" transform="matrix(1.00, 0.00, -0.00, -1.00, 846.0, 967.2)"> </text><text xml:space="preserve" font-family="BebasNeueBold,Bebas Neue" font-weight="bold" font-size="114.0" fill="#000000" transform="matrix(1.00, 0.00, -0.00, -1.00, 863.7, 967.2)">-</text><text xml:space="preserve" font-family="BebasNeueBold,Bebas Neue" font-weight="bold" font-size="114.0" fill="#000000" transform="matrix(1.00, 0.00, -0.00, -1.00, 894.5, 967.2)"> </text><text xml:space="preserve" font-family="BebasNeueBold,Bebas Neue" font-weight="bold" font-size="114.0" fill="#000000" transform="matrix(1.00, 0.00, -0.00, -1.00, 912.1, 967.2)">D</text><text xml:space="preserve" font-family="BebasNeueBold,Bebas Neue" font-weight="bold" font-size="114.0" fill="#000000" transform="matrix(1.00, 0.00, -0.00, -1.00, 958.5, 967.2)">a</text><text xml:space="preserve" font-family="BebasNeueBold,Bebas Neue" font-weight="bold" font-size="114.0" fill="#000000" transform="matrix(1.00, 0.00, -0.00, -1.00, 1004.9, 967.2)">n</text><text xml:space="preserve" font-family="BebasNeueBold,Bebas Neue" font-weight="bold" font-size="114.0" fill="#000000" transform="matrix(1.00, 0.00, -0.00, -1.00, 1053.6, 967.2)">i</text><text xml:space="preserve" font-family="BebasNeueBold,Bebas Neue" font-weight="bold" font-size="114.0" fill="#000000" transform="matrix(1.00, 0.00, -0.00, -1.00, 1075.3, 967.2)">e</text><text xml:space="preserve" font-family="BebasNeueBold,Bebas Neue" font-weight="bold" font-size="114.0" fill="#000000" transform="matrix(1.00, 0.00, -0.00, -1.00, 1117.2, 967.2)">l</text><text xml:space="preserve" font-family="BebasNeueBold,Bebas Neue" font-weight="bold" font-size="114.0" fill="#000000" transform="matrix(1.00, 0.00, -0.00, -1.00, 1155.9, 967.2)"> </text><text xml:space="preserve" font-family="BebasNeueBold,Bebas Neue" font-weight="bold" font-size="114.0" fill="#000000" transform="matrix(1.00, 0.00, -0.00, -1.00, 1173.6, 967.2)">K</text><text xml:space="preserve" font-family="BebasNeueBold,Bebas Neue" font-weight="bold" font-size="114.0" fill="#000000" transform="matrix(1.00, 0.00, -0.00, -1.00, 1220.7, 967.2)">a</text><text xml:space="preserve" font-family="BebasNeueBold,Bebas Neue" font-weight="bold" font-size="114.0" fill="#000000" transform="matrix(1.00, 0.00, -0.00, -1.00, 1267.1, 967.2)">h</text><text xml:space="preserve" font-family="BebasNeueBold,Bebas Neue" font-weight="bold" font-size="114.0" fill="#000000" transform="matrix(1.00, 0.00, -0.00, -1.00, 1315.8, 967.2)">n</text><text xml:space="preserve" font-family="BebasNeueBold,Bebas Neue" font-weight="bold" font-size="114.0" fill="#000000" transform="matrix(1.00, 0.00, -0.00, -1.00, 1364.5, 967.2)">e</text><text xml:space="preserve" font-family="BebasNeueBold,Bebas Neue" font-weight="bold" font-size="114.0" fill="#000000" transform="matrix(1.00, 0.00, -0.00, -1.00, 1406.5, 967.2)">m</text><text xml:space="preserve" font-family="BebasNeueBold,Bebas Neue" font-weight="bold" font-size="114.0" fill="#000000" transform="matrix(1.00, 0.00, -0.00, -1.00, 1468.1, 967.2)">a</text><text xml:space="preserve" font-family="BebasNeueBold,Bebas Neue" font-weight="bold" font-size="114.0" fill="#000000" transform="matrix(1.00, 0.00, -0.00, -1.00, 1514.5, 967.2)">n</text><text xml:space="preserve" font-family="Helvetica-Light,Helvetica" font-size="50.0" fill="#FEFFFF" transform="matrix(1.00, 0.00, -0.00, -1.00, 1815.4, 15.5)">V</text><text xml:space="preserve" font-family="Helvetica-Light,Helvetica" font-size="50.0" fill="#FEFFFF" transform="matrix(1.00, 0.00, -0.00, -1.00, 1845.9, 15.5)">O</text><text xml:space="preserve" font-family="Helvetica-Light,Helvetica" font-size="50.0" fill="#FEFFFF" transform="matrix(1.00, 0.00, -0.00, -1.00, 1884.8, 15.5)">L</text><image xlink:href="../../77EC243D-0C10-4669-A938-6F48CDBF5E28/assets/B7DCAFF8C216E8D1B6AEB270EB033B1A.png" width="3004.00" height="2254.00" transform="matrix(0.22, 0.00, -0.00, -0.22, 1262.0, 491.0)"></image><image xlink:href="../../319553FA-B4B5-43F9-8851-D05A12EFB0FD/assets/97C7CC549888A1804003F54980A40677.png" width="1554.00" height="1586.00" transform="matrix(0.58, 0.00, -0.00, -0.58, 510.0, 940.0)"></image></g></svg>