<?xml version="1.0" encoding="UTF-8" standalone="no"?><svg xmlns="http://www.w3.org/2000/svg" xmlns:xlink="http://www.w3.org/1999/xlink" clip-rule="evenodd" stroke-miterlimit="10" viewBox="0 0 1920 1080"><desc>SVG generated by Keynote</desc><defs></defs><g transform="matrix(1.00, 0.00, -0.00, -1.00, 0.0, 1080.0)"><path d="M 0.0 1080.0 L 1920.0 1080.0 L 1920.0 0.0 L 0.0 0.0 Z M 0.0 1080.0 " fill="#FEFFFE"></path><g><clipPath id="clip0x6080010bfe60"><path d="M -6.0 -116.0 L 1926.0 -116.0 L 1926.0 1195.0 L -6.0 1195.0 Z M -6.0 -116.0 "></path></clipPath><g clip-path="url(#clip0x6080010bfe60)"><path d="M -6.0 1195.0 L 1926.0 1195.0 L 1926.0 -116.0 L -6.0 -116.0 Z M -6.0 1195.0 " fill="#FEFFFF" fill-opacity="0.00"></path></g></g><g><clipPath id="clip0x6080010bfaa0"><path d="M -5.6 1195.0 L 1926.0 1195.0 L 1926.0 -116.0 L -5.6 -116.0 Z M -5.6 1195.0 "></path></clipPath><g clip-path="url(#clip0x6080010bfaa0)"><g><clipPath id="clip0x6080010bf920"><path d="M -5.6 -116.0 L 1926.0 -116.0 L 1926.0 1195.0 L -5.6 1195.0 Z M -5.6 -116.0 "></path></clipPath><g clip-path="url(#clip0x6080010bf920)"><image xlink:href="../../C23163AC-C6DE-43AA-BFA2-F3E080D7F02A/assets/97D0083665FD3AE33D53B9976E565754.png" width="597.00" height="405.00" transform="matrix(3.24, 0.00, -0.00, -3.24, -5.6, 1195.0)"></image></g></g></g></g><text xml:space="preserve" font-family="Helvetica-Light,Helvetica" font-size="50.0" fill="#FEFFFF" transform="matrix(1.00, 0.00, -0.00, -1.00, 1815.4, 15.5)">V</text><text xml:space="preserve" font-family="Helvetica-Light,Helvetica" font-size="50.0" fill="#FEFFFF" transform="matrix(1.00, 0.00, -0.00, -1.00, 1845.9, 15.5)">O</text><text xml:space="preserve" font-family="Helvetica-Light,Helvetica" font-size="50.0" fill="#FEFFFF" transform="matrix(1.00, 0.00, -0.00, -1.00, 1884.8, 15.5)">L</text><image xlink:href="../../2D96A863-BA2A-43DD-A7AB-4FBD4760B74F/assets/B7DCAFF8C216E8D1B6AEB270EB033B1A.png" width="3004.00" height="2254.00" transform="matrix(0.22, 0.00, -0.00, -0.22, 1262.0, 491.0)"></image><image xlink:href="../../2D96A863-BA2A-43DD-A7AB-4FBD4760B74F/assets/EF4F1921F8A7E0EA75114FE84B8B8051.png" width="681.00" height="357.00" transform="matrix(0.22, 0.00, -0.00, -0.22, 10.0, 90.0)"></image><text xml:space="preserve" font-family="Helvetica-Bold,Helvetica" font-weight="bold" font-size="114.0" fill="#FEFFFE" transform="matrix(1.00, 0.00, -0.00, -1.00, 31.8, 965.9)">1</text><text xml:space="preserve" font-family="Helvetica-Bold,Helvetica" font-weight="bold" font-size="114.0" fill="#FEFFFE" transform="matrix(1.00, 0.00, -0.00, -1.00, 95.3, 965.9)">0</text><text xml:space="preserve" font-family="Helvetica-Bold,Helvetica" font-weight="bold" font-size="114.0" fill="#FEFFFE" transform="matrix(1.00, 0.00, -0.00, -1.00, 158.7, 965.9)">0</text><text xml:space="preserve" font-family="Helvetica-Bold,Helvetica" font-weight="bold" font-size="114.0" fill="#FEFFFE" transform="matrix(1.00, 0.00, -0.00, -1.00, 222.1, 965.9)">M</text><text xml:space="preserve" font-family="Helvetica-Bold,Helvetica" font-weight="bold" font-size="114.0" fill="#FEFFFE" transform="matrix(1.00, 0.00, -0.00, -1.00, 317.1, 965.9)"> </text><text xml:space="preserve" font-family="Helvetica-Bold,Helvetica" font-weight="bold" font-size="114.0" fill="#FEFFFE" transform="matrix(1.00, 0.00, -0.00, -1.00, 348.7, 965.9)">E</text><text xml:space="preserve" font-family="Helvetica-Bold,Helvetica" font-weight="bold" font-size="114.0" fill="#FEFFFE" transform="matrix(1.00, 0.00, -0.00, -1.00, 424.8, 965.9)"> </text><text xml:space="preserve" font-family="Helvetica-Bold,Helvetica" font-weight="bold" font-size="114.0" fill="#FEFFFE" transform="matrix(1.00, 0.00, -0.00, -1.00, 456.4, 965.9)">2</text><text xml:space="preserve" font-family="Helvetica-Bold,Helvetica" font-weight="bold" font-size="114.0" fill="#FEFFFE" transform="matrix(1.00, 0.00, -0.00, -1.00, 519.8, 965.9)">0</text><text xml:space="preserve" font-family="Helvetica-Bold,Helvetica" font-weight="bold" font-size="114.0" fill="#FEFFFE" transform="matrix(1.00, 0.00, -0.00, -1.00, 583.3, 965.9)">0</text><text xml:space="preserve" font-family="Helvetica-Bold,Helvetica" font-weight="bold" font-size="114.0" fill="#FEFFFE" transform="matrix(1.00, 0.00, -0.00, -1.00, 646.7, 965.9)">M</text><text xml:space="preserve" font-family="Helvetica-Bold,Helvetica" font-weight="bold" font-size="114.0" fill="#FEFFFE" transform="matrix(1.00, 0.00, -0.00, -1.00, 741.6, 965.9)"> </text><text xml:space="preserve" font-family="Helvetica-Bold,Helvetica" font-weight="bold" font-size="114.0" fill="#FEFFFE" transform="matrix(1.00, 0.00, -0.00, -1.00, 773.3, 965.9)">-</text><text xml:space="preserve" font-family="Helvetica-Bold,Helvetica" font-weight="bold" font-size="114.0" fill="#FEFFFE" transform="matrix(1.00, 0.00, -0.00, -1.00, 811.3, 965.9)"> </text><text xml:space="preserve" font-family="Helvetica-Bold,Helvetica" font-weight="bold" font-size="114.0" fill="#FEFFFE" transform="matrix(1.00, 0.00, -0.00, -1.00, 842.9, 965.9)">R</text><text xml:space="preserve" font-family="Helvetica-Bold,Helvetica" font-weight="bold" font-size="114.0" fill="#FEFFFE" transform="matrix(1.00, 0.00, -0.00, -1.00, 925.3, 965.9)">I</text><text xml:space="preserve" font-family="Helvetica-Bold,Helvetica" font-weight="bold" font-size="114.0" fill="#FEFFFE" transform="matrix(1.00, 0.00, -0.00, -1.00, 956.9, 965.9)">S</text><text xml:space="preserve" font-family="Helvetica-Bold,Helvetica" font-weight="bold" font-size="114.0" fill="#FEFFFE" transform="matrix(1.00, 0.00, -0.00, -1.00, 1032.9, 965.9)">C</text><text xml:space="preserve" font-family="Helvetica-Bold,Helvetica" font-weight="bold" font-size="114.0" fill="#FEFFFE" transform="matrix(1.00, 0.00, -0.00, -1.00, 1115.3, 965.9)">O</text><text xml:space="preserve" font-family="Helvetica-Bold,Helvetica" font-weight="bold" font-size="114.0" fill="#FEFFFE" transform="matrix(1.00, 0.00, -0.00, -1.00, 1203.9, 965.9)"> </text><text xml:space="preserve" font-family="Helvetica-Bold,Helvetica" font-weight="bold" font-size="114.0" fill="#FEFFFE" transform="matrix(1.00, 0.00, -0.00, -1.00, 1235.6, 965.9)">M</text><text xml:space="preserve" font-family="Helvetica-Bold,Helvetica" font-weight="bold" font-size="114.0" fill="#FEFFFE" transform="matrix(1.00, 0.00, -0.00, -1.00, 1330.6, 965.9)">É</text><text xml:space="preserve" font-family="Helvetica-Bold,Helvetica" font-weight="bold" font-size="114.0" fill="#FEFFFE" transform="matrix(1.00, 0.00, -0.00, -1.00, 1406.6, 965.9)">D</text><text xml:space="preserve" font-family="Helvetica-Bold,Helvetica" font-weight="bold" font-size="114.0" fill="#FEFFFE" transform="matrix(1.00, 0.00, -0.00, -1.00, 1488.9, 965.9)">I</text><text xml:space="preserve" font-family="Helvetica-Bold,Helvetica" font-weight="bold" font-size="114.0" fill="#FEFFFE" transform="matrix(1.00, 0.00, -0.00, -1.00, 1520.6, 965.9)">O</text><g><clipPath id="clip0x6080010beb40"><path d="M 1071.0 52.0 L 1101.0 52.0 L 1101.0 237.0 L 1071.0 237.0 Z M 1071.0 52.0 "></path></clipPath><g clip-path="url(#clip0x6080010beb40)"><path d="M 1071.0 237.0 L 1101.0 237.0 L 1101.0 52.0 L 1071.0 52.0 Z M 1071.0 237.0 " fill="#FEFFFF" fill-opacity="0.00"></path><path d="M 1072.3 220.1 C 1072.3 227.9 1078.3 234.3 1085.8 234.3 C 1093.2 234.3 1099.2 227.9 1099.2 220.1 C 1099.2 212.3 1093.2 206.0 1085.8 206.0 C 1078.3 206.0 1072.3 212.3 1072.3 220.1 Z M 1072.3 220.1 " fill="#C2DDB6"></path><path d="M 1072.3 169.7 C 1072.3 177.5 1078.3 183.8 1085.8 183.8 C 1093.2 183.8 1099.2 177.5 1099.2 169.7 C 1099.2 161.8 1093.2 155.5 1085.8 155.5 C 1078.3 155.5 1072.3 161.8 1072.3 169.7 Z M 1072.3 169.7 " fill="#4A8DDF"></path><path d="M 1072.3 119.2 C 1072.3 127.0 1078.3 133.4 1085.8 133.4 C 1093.2 133.4 1099.2 127.0 1099.2 119.2 C 1099.2 111.4 1093.2 105.0 1085.8 105.0 C 1078.3 105.0 1072.3 111.4 1072.3 119.2 Z M 1072.3 119.2 " fill="#D71E00"></path><path d="M 1072.3 67.5 C 1072.3 75.4 1078.3 81.7 1085.8 81.7 C 1093.2 81.7 1099.2 75.4 1099.2 67.5 C 1099.2 59.7 1093.2 53.4 1085.8 53.4 C 1078.3 53.4 1072.3 59.7 1072.3 67.5 Z M 1072.3 67.5 " fill="#F7B258"></path></g></g><g><clipPath id="clip0x6000012b2420"><path d="M 78.0 204.0 L 120.0 204.0 L 120.0 907.0 L 78.0 907.0 Z M 78.0 204.0 "></path></clipPath><g clip-path="url(#clip0x6000012b2420)"><path d="M 78.0 907.0 L 120.0 907.0 L 120.0 204.0 L 78.0 204.0 Z M 78.0 907.0 " fill="#FEFFFF" fill-opacity="0.00"></path><path d="M 80.4 905.4 L 118.2 905.4 L 118.2 841.7 L 80.4 841.7 Z M 80.4 905.4 " fill="#D5D5D5"></path><path d="M 80.4 834.7 L 118.2 834.7 L 118.2 771.1 L 80.4 771.1 Z M 80.4 834.7 " fill="#D5D5D5"></path><path d="M 80.4 764.1 L 118.2 764.1 L 118.2 700.4 L 80.4 700.4 Z M 80.4 764.1 " fill="#D5D5D5"></path><path d="M 80.8 694.2 L 118.6 694.2 L 118.6 630.5 L 80.8 630.5 Z M 80.8 694.2 " fill="#D5D5D5"></path><path d="M 80.8 623.9 L 118.6 623.9 L 118.6 560.3 L 80.8 560.3 Z M 80.8 623.9 " fill="#D5D5D5"></path><path d="M 80.8 553.3 L 118.6 553.3 L 118.6 489.6 L 80.8 489.6 Z M 80.8 553.3 " fill="#D5D5D5"></path><path d="M 80.4 480.9 L 118.2 480.9 L 118.2 417.3 L 80.4 417.3 Z M 80.4 480.9 " fill="#D5D5D5"></path><path d="M 80.8 411.1 L 118.6 411.1 L 118.6 347.4 L 80.8 347.4 Z M 80.8 411.1 " fill="#D5D5D5"></path><path d="M 80.8 340.8 L 118.6 340.8 L 118.6 277.2 L 80.8 277.2 Z M 80.8 340.8 " fill="#B2CEF6"></path><path d="M 80.8 270.2 L 118.6 270.2 L 118.6 206.5 L 80.8 206.5 Z M 80.8 270.2 " fill="#D5D5D5"></path></g></g><text xml:space="preserve" font-family="Helvetica,Helvetica" font-size="36.0" fill="#FEFFFF" transform="matrix(1.00, 0.00, -0.00, -1.00, 1115.1, 208.5)">E</text><text xml:space="preserve" font-family="Helvetica,Helvetica" font-size="36.0" fill="#FEFFFF" transform="matrix(1.00, 0.00, -0.00, -1.00, 1139.1, 208.5)">s</text><text xml:space="preserve" font-family="Helvetica,Helvetica" font-size="36.0" fill="#FEFFFF" transform="matrix(1.00, 0.00, -0.00, -1.00, 1157.1, 208.5)">c</text><text xml:space="preserve" font-family="Helvetica,Helvetica" font-size="36.0" fill="#FEFFFF" transform="matrix(1.00, 0.00, -0.00, -1.00, 1175.1, 208.5)">o</text><text xml:space="preserve" font-family="Helvetica,Helvetica" font-size="36.0" fill="#FEFFFF" transform="matrix(1.00, 0.00, -0.00, -1.00, 1195.2, 208.5)">l</text><text xml:space="preserve" font-family="Helvetica,Helvetica" font-size="36.0" fill="#FEFFFF" transform="matrix(1.00, 0.00, -0.00, -1.00, 1203.2, 208.5)">a</text><text xml:space="preserve" font-family="Helvetica,Helvetica" font-size="36.0" fill="#FEFFFF" transform="matrix(1.00, 0.00, -0.00, -1.00, 1223.2, 208.5)">.</text><text xml:space="preserve" font-family="Helvetica,Helvetica" font-size="36.0" fill="#FEFFFF" transform="matrix(1.00, 0.00, -0.00, -1.00, 1233.2, 208.5)">…</text><text xml:space="preserve" font-family="Helvetica,Helvetica" font-size="36.0" fill="#FEFFFF" transform="matrix(1.00, 0.00, -0.00, -1.00, 1269.2, 208.5)">…</text><text xml:space="preserve" font-family="Helvetica,Helvetica" font-size="36.0" fill="#FEFFFF" transform="matrix(1.00, 0.00, -0.00, -1.00, 1305.2, 208.5)">…</text><text xml:space="preserve" font-family="Helvetica,Helvetica" font-size="36.0" fill="#FEFFFF" transform="matrix(1.00, 0.00, -0.00, -1.00, 1341.2, 208.5)">…</text><text xml:space="preserve" font-family="Helvetica,Helvetica" font-size="36.0" fill="#FEFFFF" transform="matrix(1.00, 0.00, -0.00, -1.00, 1377.2, 208.5)">.</text><text xml:space="preserve" font-family="Helvetica,Helvetica" font-size="36.0" fill="#FEFFFF" transform="matrix(1.00, 0.00, -0.00, -1.00, 1387.2, 208.5)">…</text><text xml:space="preserve" font-family="Helvetica,Helvetica" font-size="36.0" fill="#FEFFFF" transform="matrix(1.00, 0.00, -0.00, -1.00, 1423.2, 208.5)">…</text><text xml:space="preserve" font-family="Helvetica,Helvetica" font-size="36.0" fill="#FEFFFF" transform="matrix(1.00, 0.00, -0.00, -1.00, 1459.2, 208.5)">…</text><text xml:space="preserve" font-family="Helvetica,Helvetica" font-size="36.0" fill="#FEFFFF" transform="matrix(1.00, 0.00, -0.00, -1.00, 1495.2, 208.5)">.</text><text xml:space="preserve" font-family="Helvetica,Helvetica" font-size="36.0" fill="#FEFFFF" transform="matrix(1.00, 0.00, -0.00, -1.00, 1505.2, 208.5)">.</text><text xml:space="preserve" font-family="Helvetica,Helvetica" font-size="36.0" fill="#FEFFFF" transform="matrix(1.00, 0.00, -0.00, -1.00, 1515.2, 208.5)"> </text><text xml:space="preserve" font-family="Helvetica,Helvetica" font-size="36.0" fill="#FEFFFF" transform="matrix(1.00, 0.00, -0.00, -1.00, 1525.2, 208.5)">1</text><text xml:space="preserve" font-family="Helvetica,Helvetica" font-size="36.0" fill="#FEFFFF" transform="matrix(1.00, 0.00, -0.00, -1.00, 1542.5, 208.5)">1</text><text xml:space="preserve" font-family="Helvetica,Helvetica" font-size="36.0" fill="#FEFFFF" transform="matrix(1.00, 0.00, -0.00, -1.00, 1115.1, 156.9)">B</text><text xml:space="preserve" font-family="Helvetica,Helvetica" font-size="36.0" fill="#FEFFFF" transform="matrix(1.00, 0.00, -0.00, -1.00, 1139.1, 156.9)">a</text><text xml:space="preserve" font-family="Helvetica,Helvetica" font-size="36.0" fill="#FEFFFF" transform="matrix(1.00, 0.00, -0.00, -1.00, 1159.2, 156.9)">t</text><text xml:space="preserve" font-family="Helvetica,Helvetica" font-size="36.0" fill="#FEFFFF" transform="matrix(1.00, 0.00, -0.00, -1.00, 1169.2, 156.9)">a</text><text xml:space="preserve" font-family="Helvetica,Helvetica" font-size="36.0" fill="#FEFFFF" transform="matrix(1.00, 0.00, -0.00, -1.00, 1189.2, 156.9)">l</text><text xml:space="preserve" font-family="Helvetica,Helvetica" font-size="36.0" fill="#FEFFFF" transform="matrix(1.00, 0.00, -0.00, -1.00, 1197.2, 156.9)">h</text><text xml:space="preserve" font-family="Helvetica,Helvetica" font-size="36.0" fill="#FEFFFF" transform="matrix(1.00, 0.00, -0.00, -1.00, 1217.2, 156.9)">õ</text><text xml:space="preserve" font-family="Helvetica,Helvetica" font-size="36.0" fill="#FEFFFF" transform="matrix(1.00, 0.00, -0.00, -1.00, 1237.3, 156.9)">e</text><text xml:space="preserve" font-family="Helvetica,Helvetica" font-size="36.0" fill="#FEFFFF" transform="matrix(1.00, 0.00, -0.00, -1.00, 1257.3, 156.9)">s</text><text xml:space="preserve" font-family="Helvetica,Helvetica" font-size="36.0" fill="#FEFFFF" transform="matrix(1.00, 0.00, -0.00, -1.00, 1275.3, 156.9)"> </text><text xml:space="preserve" font-family="Helvetica,Helvetica" font-size="36.0" fill="#FEFFFF" transform="matrix(1.00, 0.00, -0.00, -1.00, 1285.3, 156.9)">d</text><text xml:space="preserve" font-family="Helvetica,Helvetica" font-size="36.0" fill="#FEFFFF" transform="matrix(1.00, 0.00, -0.00, -1.00, 1305.3, 156.9)">e</text><text xml:space="preserve" font-family="Helvetica,Helvetica" font-size="36.0" fill="#FEFFFF" transform="matrix(1.00, 0.00, -0.00, -1.00, 1325.3, 156.9)"> </text><text xml:space="preserve" font-family="Helvetica,Helvetica" font-size="36.0" fill="#FEFFFF" transform="matrix(1.00, 0.00, -0.00, -1.00, 1335.3, 156.9)">P</text><text xml:space="preserve" font-family="Helvetica,Helvetica" font-size="36.0" fill="#FEFFFF" transform="matrix(1.00, 0.00, -0.00, -1.00, 1359.3, 156.9)">o</text><text xml:space="preserve" font-family="Helvetica,Helvetica" font-size="36.0" fill="#FEFFFF" transform="matrix(1.00, 0.00, -0.00, -1.00, 1379.4, 156.9)">l</text><text xml:space="preserve" font-family="Helvetica,Helvetica" font-size="36.0" fill="#FEFFFF" transform="matrix(1.00, 0.00, -0.00, -1.00, 1387.4, 156.9)">í</text><text xml:space="preserve" font-family="Helvetica,Helvetica" font-size="36.0" fill="#FEFFFF" transform="matrix(1.00, 0.00, -0.00, -1.00, 1397.4, 156.9)">c</text><text xml:space="preserve" font-family="Helvetica,Helvetica" font-size="36.0" fill="#FEFFFF" transform="matrix(1.00, 0.00, -0.00, -1.00, 1415.4, 156.9)">i</text><text xml:space="preserve" font-family="Helvetica,Helvetica" font-size="36.0" fill="#FEFFFF" transform="matrix(1.00, 0.00, -0.00, -1.00, 1423.4, 156.9)">a</text><text xml:space="preserve" font-family="Helvetica,Helvetica" font-size="36.0" fill="#FEFFFF" transform="matrix(1.00, 0.00, -0.00, -1.00, 1443.4, 156.9)">…</text><text xml:space="preserve" font-family="Helvetica,Helvetica" font-size="36.0" fill="#FEFFFF" transform="matrix(1.00, 0.00, -0.00, -1.00, 1479.4, 156.9)">…</text><text xml:space="preserve" font-family="Helvetica,Helvetica" font-size="36.0" fill="#FEFFFF" transform="matrix(1.00, 0.00, -0.00, -1.00, 1515.4, 156.9)"> </text><text xml:space="preserve" font-family="Helvetica,Helvetica" font-size="36.0" fill="#FEFFFF" transform="matrix(1.00, 0.00, -0.00, -1.00, 1525.4, 156.9)">1</text><text xml:space="preserve" font-family="Helvetica,Helvetica" font-size="36.0" fill="#FEFFFF" transform="matrix(1.00, 0.00, -0.00, -1.00, 1115.1, 105.3)">B</text><text xml:space="preserve" font-family="Helvetica,Helvetica" font-size="36.0" fill="#FEFFFF" transform="matrix(1.00, 0.00, -0.00, -1.00, 1139.1, 105.3)">o</text><text xml:space="preserve" font-family="Helvetica,Helvetica" font-size="36.0" fill="#FEFFFF" transform="matrix(1.00, 0.00, -0.00, -1.00, 1159.2, 105.3)">m</text><text xml:space="preserve" font-family="Helvetica,Helvetica" font-size="36.0" fill="#FEFFFF" transform="matrix(1.00, 0.00, -0.00, -1.00, 1189.2, 105.3)">b</text><text xml:space="preserve" font-family="Helvetica,Helvetica" font-size="36.0" fill="#FEFFFF" transform="matrix(1.00, 0.00, -0.00, -1.00, 1209.2, 105.3)">e</text><text xml:space="preserve" font-family="Helvetica,Helvetica" font-size="36.0" fill="#FEFFFF" transform="matrix(1.00, 0.00, -0.00, -1.00, 1229.2, 105.3)">i</text><text xml:space="preserve" font-family="Helvetica,Helvetica" font-size="36.0" fill="#FEFFFF" transform="matrix(1.00, 0.00, -0.00, -1.00, 1237.2, 105.3)">r</text><text xml:space="preserve" font-family="Helvetica,Helvetica" font-size="36.0" fill="#FEFFFF" transform="matrix(1.00, 0.00, -0.00, -1.00, 1249.2, 105.3)">o</text><text xml:space="preserve" font-family="Helvetica,Helvetica" font-size="36.0" fill="#FEFFFF" transform="matrix(1.00, 0.00, -0.00, -1.00, 1269.2, 105.3)">s</text><text xml:space="preserve" font-family="Helvetica,Helvetica" font-size="36.0" fill="#FEFFFF" transform="matrix(1.00, 0.00, -0.00, -1.00, 1287.2, 105.3)">…</text><text xml:space="preserve" font-family="Helvetica,Helvetica" font-size="36.0" fill="#FEFFFF" transform="matrix(1.00, 0.00, -0.00, -1.00, 1323.2, 105.3)">…</text><text xml:space="preserve" font-family="Helvetica,Helvetica" font-size="36.0" fill="#FEFFFF" transform="matrix(1.00, 0.00, -0.00, -1.00, 1359.2, 105.3)">…</text><text xml:space="preserve" font-family="Helvetica,Helvetica" font-size="36.0" fill="#FEFFFF" transform="matrix(1.00, 0.00, -0.00, -1.00, 1395.2, 105.3)">…</text><text xml:space="preserve" font-family="Helvetica,Helvetica" font-size="36.0" fill="#FEFFFF" transform="matrix(1.00, 0.00, -0.00, -1.00, 1431.2, 105.3)">…</text><text xml:space="preserve" font-family="Helvetica,Helvetica" font-size="36.0" fill="#FEFFFF" transform="matrix(1.00, 0.00, -0.00, -1.00, 1467.2, 105.3)">…</text><text xml:space="preserve" font-family="Helvetica,Helvetica" font-size="36.0" fill="#FEFFFF" transform="matrix(1.00, 0.00, -0.00, -1.00, 1503.2, 105.3)">.</text><text xml:space="preserve" font-family="Helvetica,Helvetica" font-size="36.0" fill="#FEFFFF" transform="matrix(1.00, 0.00, -0.00, -1.00, 1513.2, 105.3)">.</text><text xml:space="preserve" font-family="Helvetica,Helvetica" font-size="36.0" fill="#FEFFFF" transform="matrix(1.00, 0.00, -0.00, -1.00, 1523.2, 105.3)">1</text><text xml:space="preserve" font-family="Helvetica,Helvetica" font-size="36.0" fill="#FEFFFF" transform="matrix(1.00, 0.00, -0.00, -1.00, 1115.1, 53.7)">H</text><text xml:space="preserve" font-family="Helvetica,Helvetica" font-size="36.0" fill="#FEFFFF" transform="matrix(1.00, 0.00, -0.00, -1.00, 1141.1, 53.7)">o</text><text xml:space="preserve" font-family="Helvetica,Helvetica" font-size="36.0" fill="#FEFFFF" transform="matrix(1.00, 0.00, -0.00, -1.00, 1161.2, 53.7)">s</text><text xml:space="preserve" font-family="Helvetica,Helvetica" font-size="36.0" fill="#FEFFFF" transform="matrix(1.00, 0.00, -0.00, -1.00, 1179.2, 53.7)">p</text><text xml:space="preserve" font-family="Helvetica,Helvetica" font-size="36.0" fill="#FEFFFF" transform="matrix(1.00, 0.00, -0.00, -1.00, 1199.2, 53.7)">i</text><text xml:space="preserve" font-family="Helvetica,Helvetica" font-size="36.0" fill="#FEFFFF" transform="matrix(1.00, 0.00, -0.00, -1.00, 1207.2, 53.7)">t</text><text xml:space="preserve" font-family="Helvetica,Helvetica" font-size="36.0" fill="#FEFFFF" transform="matrix(1.00, 0.00, -0.00, -1.00, 1217.2, 53.7)">a</text><text xml:space="preserve" font-family="Helvetica,Helvetica" font-size="36.0" fill="#FEFFFF" transform="matrix(1.00, 0.00, -0.00, -1.00, 1237.2, 53.7)">i</text><text xml:space="preserve" font-family="Helvetica,Helvetica" font-size="36.0" fill="#FEFFFF" transform="matrix(1.00, 0.00, -0.00, -1.00, 1245.2, 53.7)">s</text><text xml:space="preserve" font-family="Helvetica,Helvetica" font-size="36.0" fill="#FEFFFF" transform="matrix(1.00, 0.00, -0.00, -1.00, 1263.2, 53.7)">…</text><text xml:space="preserve" font-family="Helvetica,Helvetica" font-size="36.0" fill="#FEFFFF" transform="matrix(1.00, 0.00, -0.00, -1.00, 1299.2, 53.7)">…</text><text xml:space="preserve" font-family="Helvetica,Helvetica" font-size="36.0" fill="#FEFFFF" transform="matrix(1.00, 0.00, -0.00, -1.00, 1335.2, 53.7)">…</text><text xml:space="preserve" font-family="Helvetica,Helvetica" font-size="36.0" fill="#FEFFFF" transform="matrix(1.00, 0.00, -0.00, -1.00, 1371.2, 53.7)">…</text><text xml:space="preserve" font-family="Helvetica,Helvetica" font-size="36.0" fill="#FEFFFF" transform="matrix(1.00, 0.00, -0.00, -1.00, 1407.2, 53.7)">…</text><text xml:space="preserve" font-family="Helvetica,Helvetica" font-size="36.0" fill="#FEFFFF" transform="matrix(1.00, 0.00, -0.00, -1.00, 1443.2, 53.7)">…</text><text xml:space="preserve" font-family="Helvetica,Helvetica" font-size="36.0" fill="#FEFFFF" transform="matrix(1.00, 0.00, -0.00, -1.00, 1479.2, 53.7)">…</text><text xml:space="preserve" font-family="Helvetica,Helvetica" font-size="36.0" fill="#FEFFFF" transform="matrix(1.00, 0.00, -0.00, -1.00, 1515.2, 53.7)"> </text><text xml:space="preserve" font-family="Helvetica,Helvetica" font-size="36.0" fill="#FEFFFF" transform="matrix(1.00, 0.00, -0.00, -1.00, 1525.2, 53.7)">6</text><text xml:space="preserve" font-family="Helvetica-Light,Helvetica" font-size="30.0" fill="#FEFFFF" transform="matrix(0.00, 1.00, 1.00, -0.00, 59.1, 401.0)">a</text><text xml:space="preserve" font-family="Helvetica-Light,Helvetica" font-size="30.0" fill="#FEFFFF" transform="matrix(0.00, 1.00, 1.00, -0.00, 59.1, 417.7)">l</text><text xml:space="preserve" font-family="Helvetica-Light,Helvetica" font-size="30.0" fill="#FEFFFF" transform="matrix(0.00, 1.00, 1.00, -0.00, 59.1, 424.3)">t</text><text xml:space="preserve" font-family="Helvetica-Light,Helvetica" font-size="30.0" fill="#FEFFFF" transform="matrix(0.00, 1.00, 1.00, -0.00, 59.1, 432.7)">i</text><text xml:space="preserve" font-family="Helvetica-Light,Helvetica" font-size="30.0" fill="#FEFFFF" transform="matrix(0.00, 1.00, 1.00, -0.00, 59.1, 439.3)">m</text><text xml:space="preserve" font-family="Helvetica-Light,Helvetica" font-size="30.0" fill="#FEFFFF" transform="matrix(0.00, 1.00, 1.00, -0.00, 59.1, 464.3)">e</text><text xml:space="preserve" font-family="Helvetica-Light,Helvetica" font-size="30.0" fill="#FEFFFF" transform="matrix(0.00, 1.00, 1.00, -0.00, 59.1, 481.0)">t</text><text xml:space="preserve" font-family="Helvetica-Light,Helvetica" font-size="30.0" fill="#FEFFFF" transform="matrix(0.00, 1.00, 1.00, -0.00, 59.1, 489.3)">r</text><text xml:space="preserve" font-family="Helvetica-Light,Helvetica" font-size="30.0" fill="#FEFFFF" transform="matrix(0.00, 1.00, 1.00, -0.00, 59.1, 499.3)">i</text><text xml:space="preserve" font-family="Helvetica-Light,Helvetica" font-size="30.0" fill="#FEFFFF" transform="matrix(0.00, 1.00, 1.00, -0.00, 59.1, 506.0)">a</text><text xml:space="preserve" font-family="Helvetica-Light,Helvetica" font-size="30.0" fill="#FEFFFF" transform="matrix(0.00, 1.00, 1.00, -0.00, 59.1, 522.7)"> </text><text xml:space="preserve" font-family="Helvetica-Light,Helvetica" font-size="30.0" fill="#FEFFFF" transform="matrix(0.00, 1.00, 1.00, -0.00, 59.1, 531.0)">(</text><text xml:space="preserve" font-family="Helvetica-Light,Helvetica" font-size="30.0" fill="#FEFFFF" transform="matrix(0.00, 1.00, 1.00, -0.00, 59.1, 541.0)">0</text><text xml:space="preserve" font-family="Helvetica-Light,Helvetica" font-size="30.0" fill="#FEFFFF" transform="matrix(0.00, 1.00, 1.00, -0.00, 59.1, 557.7)">m</text><text xml:space="preserve" font-family="Helvetica-Light,Helvetica" font-size="30.0" fill="#FEFFFF" transform="matrix(0.00, 1.00, 1.00, -0.00, 59.1, 582.7)"> </text><text xml:space="preserve" font-family="Helvetica-Light,Helvetica" font-size="30.0" fill="#FEFFFF" transform="matrix(0.00, 1.00, 1.00, -0.00, 59.1, 591.0)">-</text><text xml:space="preserve" font-family="Helvetica-Light,Helvetica" font-size="30.0" fill="#FEFFFF" transform="matrix(0.00, 1.00, 1.00, -0.00, 59.1, 601.0)"> </text><text xml:space="preserve" font-family="Helvetica-Light,Helvetica" font-size="30.0" fill="#FEFFFF" transform="matrix(0.00, 1.00, 1.00, -0.00, 59.1, 609.3)">1</text><text xml:space="preserve" font-family="Helvetica-Light,Helvetica" font-size="30.0" fill="#FEFFFF" transform="matrix(0.00, 1.00, 1.00, -0.00, 59.1, 626.0)">0</text><text xml:space="preserve" font-family="Helvetica-Light,Helvetica" font-size="30.0" fill="#FEFFFF" transform="matrix(0.00, 1.00, 1.00, -0.00, 59.1, 642.7)">0</text><text xml:space="preserve" font-family="Helvetica-Light,Helvetica" font-size="30.0" fill="#FEFFFF" transform="matrix(0.00, 1.00, 1.00, -0.00, 59.1, 659.4)">0</text><text xml:space="preserve" font-family="Helvetica-Light,Helvetica" font-size="30.0" fill="#FEFFFF" transform="matrix(0.00, 1.00, 1.00, -0.00, 59.1, 676.1)">m</text><text xml:space="preserve" font-family="Helvetica-Light,Helvetica" font-size="30.0" fill="#FEFFFF" transform="matrix(0.00, 1.00, 1.00, -0.00, 59.1, 701.0)">)</text></g></svg>