<?xml version="1.0" encoding="UTF-8" standalone="no"?><svg xmlns="http://www.w3.org/2000/svg" xmlns:xlink="http://www.w3.org/1999/xlink" clip-rule="evenodd" stroke-miterlimit="10" viewBox="0 0 1920 1080"><desc>SVG generated by Keynote</desc><defs></defs><g transform="matrix(1.00, 0.00, -0.00, -1.00, 0.0, 1080.0)"><path d="M 0.0 1080.0 L 1920.0 1080.0 L 1920.0 0.0 L 0.0 0.0 Z M 0.0 1080.0 " fill="#FEFFFF"></path><image xlink:href="../../350047F8-41B4-4ED4-B2F2-AF340A294AAA/assets/019BC8EBC369B2FA93684C1499400A7B.png" width="351.00" height="1090.00" transform="matrix(1.00, 0.00, -0.00, -1.00, -5.0, 1083.0)" opacity="0.50"></image><path d="M -2.0 1082.0 L 343.0 1082.0 L 343.0 -2.0 L -2.0 -2.0 Z M -2.0 1082.0 " fill="#000000"></path><g><clipPath id="clip0x6000020b1ee0"><path d="M -8.0 -2.0 L 349.1 -2.0 L 349.1 1082.0 L -8.0 1082.0 Z M -8.0 -2.0 "></path></clipPath><g clip-path="url(#clip0x6000020b1ee0)"><text xml:space="preserve" font-family="Helvetica,Helvetica" font-size="40.0" fill="#FEFFFE" transform="matrix(1.00, 0.00, -0.00, -1.00, 54.9, 597.2)">E</text><text xml:space="preserve" font-family="Helvetica,Helvetica" font-size="40.0" fill="#FEFFFE" transform="matrix(1.00, 0.00, -0.00, -1.00, 81.6, 597.2)">x</text><text xml:space="preserve" font-family="Helvetica,Helvetica" font-size="40.0" fill="#FEFFFE" transform="matrix(1.00, 0.00, -0.00, -1.00, 101.6, 597.2)">e</text><text xml:space="preserve" font-family="Helvetica,Helvetica" font-size="40.0" fill="#FEFFFE" transform="matrix(1.00, 0.00, -0.00, -1.00, 123.9, 597.2)">m</text><text xml:space="preserve" font-family="Helvetica,Helvetica" font-size="40.0" fill="#FEFFFE" transform="matrix(1.00, 0.00, -0.00, -1.00, 157.2, 597.2)">p</text><text xml:space="preserve" font-family="Helvetica,Helvetica" font-size="40.0" fill="#FEFFFE" transform="matrix(1.00, 0.00, -0.00, -1.00, 179.4, 597.2)">l</text><text xml:space="preserve" font-family="Helvetica,Helvetica" font-size="40.0" fill="#FEFFFE" transform="matrix(1.00, 0.00, -0.00, -1.00, 188.3, 597.2)">o</text><text xml:space="preserve" font-family="Helvetica,Helvetica" font-size="40.0" fill="#FEFFFE" transform="matrix(1.00, 0.00, -0.00, -1.00, 210.6, 597.2)">s</text><text xml:space="preserve" font-family="Helvetica,Helvetica" font-size="40.0" fill="#FEFFFE" transform="matrix(1.00, 0.00, -0.00, -1.00, 230.6, 597.2)"> </text><text xml:space="preserve" font-family="Helvetica,Helvetica" font-size="40.0" fill="#FEFFFE" transform="matrix(1.00, 0.00, -0.00, -1.00, 241.7, 597.2)">d</text><text xml:space="preserve" font-family="Helvetica,Helvetica" font-size="40.0" fill="#FEFFFE" transform="matrix(1.00, 0.00, -0.00, -1.00, 263.9, 597.2)">e</text><text xml:space="preserve" font-family="Helvetica,Helvetica" font-size="40.0" fill="#FEFFFE" transform="matrix(1.00, 0.00, -0.00, -1.00, 286.2, 597.2)"> </text><text xml:space="preserve" font-family="Helvetica,Helvetica" font-size="40.0" fill="#FEFFFE" transform="matrix(1.00, 0.00, -0.00, -1.00, 78.3, 549.2)">p</text><text xml:space="preserve" font-family="Helvetica,Helvetica" font-size="40.0" fill="#FEFFFE" transform="matrix(1.00, 0.00, -0.00, -1.00, 100.5, 549.2)">r</text><text xml:space="preserve" font-family="Helvetica,Helvetica" font-size="40.0" fill="#FEFFFE" transform="matrix(1.00, 0.00, -0.00, -1.00, 113.8, 549.2)">o</text><text xml:space="preserve" font-family="Helvetica,Helvetica" font-size="40.0" fill="#FEFFFE" transform="matrix(1.00, 0.00, -0.00, -1.00, 136.1, 549.2)">j</text><text xml:space="preserve" font-family="Helvetica,Helvetica" font-size="40.0" fill="#FEFFFE" transform="matrix(1.00, 0.00, -0.00, -1.00, 145.0, 549.2)">e</text><text xml:space="preserve" font-family="Helvetica,Helvetica" font-size="40.0" fill="#FEFFFE" transform="matrix(1.00, 0.00, -0.00, -1.00, 167.2, 549.2)">t</text><text xml:space="preserve" font-family="Helvetica,Helvetica" font-size="40.0" fill="#FEFFFE" transform="matrix(1.00, 0.00, -0.00, -1.00, 178.3, 549.2)">o</text><text xml:space="preserve" font-family="Helvetica,Helvetica" font-size="40.0" fill="#FEFFFE" transform="matrix(1.00, 0.00, -0.00, -1.00, 200.6, 549.2)">s</text><text xml:space="preserve" font-family="Helvetica,Helvetica" font-size="40.0" fill="#FEFFFE" transform="matrix(1.00, 0.00, -0.00, -1.00, 220.6, 549.2)"> </text><text xml:space="preserve" font-family="Helvetica,Helvetica" font-size="40.0" fill="#FEFFFE" transform="matrix(1.00, 0.00, -0.00, -1.00, 231.7, 549.2)">j</text><text xml:space="preserve" font-family="Helvetica,Helvetica" font-size="40.0" fill="#FEFFFE" transform="matrix(1.00, 0.00, -0.00, -1.00, 240.6, 549.2)">รก</text><text xml:space="preserve" font-family="Helvetica,Helvetica" font-size="40.0" fill="#FEFFFE" transform="matrix(1.00, 0.00, -0.00, -1.00, 262.9, 549.2)"> </text><text xml:space="preserve" font-family="Helvetica,Helvetica" font-size="40.0" fill="#FEFFFE" transform="matrix(1.00, 0.00, -0.00, -1.00, 43.8, 501.2)">d</text><text xml:space="preserve" font-family="Helvetica,Helvetica" font-size="40.0" fill="#FEFFFE" transform="matrix(1.00, 0.00, -0.00, -1.00, 66.0, 501.2)">e</text><text xml:space="preserve" font-family="Helvetica,Helvetica" font-size="40.0" fill="#FEFFFE" transform="matrix(1.00, 0.00, -0.00, -1.00, 88.3, 501.2)">s</text><text xml:space="preserve" font-family="Helvetica,Helvetica" font-size="40.0" fill="#FEFFFE" transform="matrix(1.00, 0.00, -0.00, -1.00, 108.3, 501.2)">e</text><text xml:space="preserve" font-family="Helvetica,Helvetica" font-size="40.0" fill="#FEFFFE" transform="matrix(1.00, 0.00, -0.00, -1.00, 130.5, 501.2)">n</text><text xml:space="preserve" font-family="Helvetica,Helvetica" font-size="40.0" fill="#FEFFFE" transform="matrix(1.00, 0.00, -0.00, -1.00, 152.8, 501.2)">v</text><text xml:space="preserve" font-family="Helvetica,Helvetica" font-size="40.0" fill="#FEFFFE" transform="matrix(1.00, 0.00, -0.00, -1.00, 172.8, 501.2)">o</text><text xml:space="preserve" font-family="Helvetica,Helvetica" font-size="40.0" fill="#FEFFFE" transform="matrix(1.00, 0.00, -0.00, -1.00, 195.1, 501.2)">l</text><text xml:space="preserve" font-family="Helvetica,Helvetica" font-size="40.0" fill="#FEFFFE" transform="matrix(1.00, 0.00, -0.00, -1.00, 204.0, 501.2)">v</text><text xml:space="preserve" font-family="Helvetica,Helvetica" font-size="40.0" fill="#FEFFFE" transform="matrix(1.00, 0.00, -0.00, -1.00, 224.0, 501.2)">i</text><text xml:space="preserve" font-family="Helvetica,Helvetica" font-size="40.0" fill="#FEFFFE" transform="matrix(1.00, 0.00, -0.00, -1.00, 232.8, 501.2)">d</text><text xml:space="preserve" font-family="Helvetica,Helvetica" font-size="40.0" fill="#FEFFFE" transform="matrix(1.00, 0.00, -0.00, -1.00, 255.1, 501.2)">o</text><text xml:space="preserve" font-family="Helvetica,Helvetica" font-size="40.0" fill="#FEFFFE" transform="matrix(1.00, 0.00, -0.00, -1.00, 277.4, 501.2)">s</text><text xml:space="preserve" font-family="Helvetica,Helvetica" font-size="40.0" fill="#FEFFFE" transform="matrix(1.00, 0.00, -0.00, -1.00, 48.3, 453.2)">(</text><text xml:space="preserve" font-family="Helvetica,Helvetica" font-size="40.0" fill="#FEFFFE" transform="matrix(1.00, 0.00, -0.00, -1.00, 61.6, 453.2)">G</text><text xml:space="preserve" font-family="Helvetica,Helvetica" font-size="40.0" fill="#FEFFFE" transform="matrix(1.00, 0.00, -0.00, -1.00, 92.7, 453.2)">A</text><text xml:space="preserve" font-family="Helvetica,Helvetica" font-size="40.0" fill="#FEFFFE" transform="matrix(1.00, 0.00, -0.00, -1.00, 119.4, 453.2)">E</text><text xml:space="preserve" font-family="Helvetica,Helvetica" font-size="40.0" fill="#FEFFFE" transform="matrix(1.00, 0.00, -0.00, -1.00, 146.1, 453.2)">S</text><text xml:space="preserve" font-family="Helvetica,Helvetica" font-size="40.0" fill="#FEFFFE" transform="matrix(1.00, 0.00, -0.00, -1.00, 172.8, 453.2)">I</text><text xml:space="preserve" font-family="Helvetica,Helvetica" font-size="40.0" fill="#FEFFFE" transform="matrix(1.00, 0.00, -0.00, -1.00, 183.9, 453.2)">-</text><text xml:space="preserve" font-family="Helvetica,Helvetica" font-size="40.0" fill="#FEFFFE" transform="matrix(1.00, 0.00, -0.00, -1.00, 197.2, 453.2)">U</text><text xml:space="preserve" font-family="Helvetica,Helvetica" font-size="40.0" fill="#FEFFFE" transform="matrix(1.00, 0.00, -0.00, -1.00, 226.1, 453.2)">S</text><text xml:space="preserve" font-family="Helvetica,Helvetica" font-size="40.0" fill="#FEFFFE" transform="matrix(1.00, 0.00, -0.00, -1.00, 252.8, 453.2)">P</text><text xml:space="preserve" font-family="Helvetica,Helvetica" font-size="40.0" fill="#FEFFFE" transform="matrix(1.00, 0.00, -0.00, -1.00, 279.4, 453.2)">)</text></g></g><image xlink:href="BC279FB8CADAF34AFCAED73F62F7E107.png" width="2270.00" height="1252.00" transform="matrix(0.68, 0.00, -0.00, -0.68, 354.0, 1059.0)"></image></g></svg>