<?xml version="1.0" encoding="UTF-8" standalone="no"?><svg xmlns="http://www.w3.org/2000/svg" xmlns:xlink="http://www.w3.org/1999/xlink" clip-rule="evenodd" stroke-miterlimit="10" viewBox="0 0 1920 1080"><desc>SVG generated by Keynote</desc><defs></defs><g transform="matrix(1.00, 0.00, -0.00, -1.00, 0.0, 1080.0)"><path d="M 0.0 1080.0 L 1920.0 1080.0 L 1920.0 0.0 L 0.0 0.0 Z M 0.0 1080.0 " fill="#FEFFFE"></path><text xml:space="preserve" font-family="Helvetica-Light,Helvetica" font-size="50.0" fill="#FEFFFF" transform="matrix(1.00, 0.00, -0.00, -1.00, 1815.4, 15.5)">V</text><text xml:space="preserve" font-family="Helvetica-Light,Helvetica" font-size="50.0" fill="#FEFFFF" transform="matrix(1.00, 0.00, -0.00, -1.00, 1845.9, 15.5)">O</text><text xml:space="preserve" font-family="Helvetica-Light,Helvetica" font-size="50.0" fill="#FEFFFF" transform="matrix(1.00, 0.00, -0.00, -1.00, 1884.8, 15.5)">L</text><image xlink:href="../../2D96A863-BA2A-43DD-A7AB-4FBD4760B74F/assets/B7DCAFF8C216E8D1B6AEB270EB033B1A.png" width="3004.00" height="2254.00" transform="matrix(0.22, 0.00, -0.00, -0.22, 1262.0, 491.0)"></image><text xml:space="preserve" font-family="BebasNeueBold,Bebas Neue" font-weight="bold" font-size="114.0" fill="#000000" transform="matrix(1.00, 0.00, -0.00, -1.00, 31.8, 967.2)">T</text><text xml:space="preserve" font-family="BebasNeueBold,Bebas Neue" font-weight="bold" font-size="114.0" fill="#000000" transform="matrix(1.00, 0.00, -0.00, -1.00, 68.1, 967.2)">A</text><text xml:space="preserve" font-family="BebasNeueBold,Bebas Neue" font-weight="bold" font-size="114.0" fill="#000000" transform="matrix(1.00, 0.00, -0.00, -1.00, 114.5, 967.2)">B</text><text xml:space="preserve" font-family="BebasNeueBold,Bebas Neue" font-weight="bold" font-size="114.0" fill="#000000" transform="matrix(1.00, 0.00, -0.00, -1.00, 160.8, 967.2)">E</text><text xml:space="preserve" font-family="BebasNeueBold,Bebas Neue" font-weight="bold" font-size="114.0" fill="#000000" transform="matrix(1.00, 0.00, -0.00, -1.00, 202.7, 967.2)">L</text><text xml:space="preserve" font-family="BebasNeueBold,Bebas Neue" font-weight="bold" font-size="114.0" fill="#000000" transform="matrix(1.00, 0.00, -0.00, -1.00, 241.4, 967.2)">A</text><text xml:space="preserve" font-family="BebasNeueBold,Bebas Neue" font-weight="bold" font-size="114.0" fill="#000000" transform="matrix(1.00, 0.00, -0.00, -1.00, 287.8, 967.2)"> </text><text xml:space="preserve" font-family="BebasNeueBold,Bebas Neue" font-weight="bold" font-size="114.0" fill="#000000" transform="matrix(1.00, 0.00, -0.00, -1.00, 305.4, 967.2)">D</text><text xml:space="preserve" font-family="BebasNeueBold,Bebas Neue" font-weight="bold" font-size="114.0" fill="#000000" transform="matrix(1.00, 0.00, -0.00, -1.00, 352.0, 967.2)">E</text><text xml:space="preserve" font-family="BebasNeueBold,Bebas Neue" font-weight="bold" font-size="114.0" fill="#000000" transform="matrix(1.00, 0.00, -0.00, -1.00, 393.9, 967.2)"> </text><text xml:space="preserve" font-family="BebasNeueBold,Bebas Neue" font-weight="bold" font-size="114.0" fill="#000000" transform="matrix(1.00, 0.00, -0.00, -1.00, 411.6, 967.2)">A</text><text xml:space="preserve" font-family="BebasNeueBold,Bebas Neue" font-weight="bold" font-size="114.0" fill="#000000" transform="matrix(1.00, 0.00, -0.00, -1.00, 458.0, 967.2)">L</text><text xml:space="preserve" font-family="BebasNeueBold,Bebas Neue" font-weight="bold" font-size="114.0" fill="#000000" transform="matrix(1.00, 0.00, -0.00, -1.00, 490.9, 967.2)">T</text><text xml:space="preserve" font-family="BebasNeueBold,Bebas Neue" font-weight="bold" font-size="114.0" fill="#000000" transform="matrix(1.00, 0.00, -0.00, -1.00, 531.5, 967.2)">I</text><text xml:space="preserve" font-family="BebasNeueBold,Bebas Neue" font-weight="bold" font-size="114.0" fill="#000000" transform="matrix(1.00, 0.00, -0.00, -1.00, 553.2, 967.2)">M</text><text xml:space="preserve" font-family="BebasNeueBold,Bebas Neue" font-weight="bold" font-size="114.0" fill="#000000" transform="matrix(1.00, 0.00, -0.00, -1.00, 614.8, 967.2)">E</text><text xml:space="preserve" font-family="BebasNeueBold,Bebas Neue" font-weight="bold" font-size="114.0" fill="#000000" transform="matrix(1.00, 0.00, -0.00, -1.00, 656.8, 967.2)">T</text><text xml:space="preserve" font-family="BebasNeueBold,Bebas Neue" font-weight="bold" font-size="114.0" fill="#000000" transform="matrix(1.00, 0.00, -0.00, -1.00, 697.4, 967.2)">R</text><text xml:space="preserve" font-family="BebasNeueBold,Bebas Neue" font-weight="bold" font-size="114.0" fill="#000000" transform="matrix(1.00, 0.00, -0.00, -1.00, 743.2, 967.2)">I</text><text xml:space="preserve" font-family="BebasNeueBold,Bebas Neue" font-weight="bold" font-size="114.0" fill="#000000" transform="matrix(1.00, 0.00, -0.00, -1.00, 764.9, 967.2)">A</text><text xml:space="preserve" font-family="BebasNeueBold,Bebas Neue" font-weight="bold" font-size="114.0" fill="#000000" transform="matrix(1.00, 0.00, -0.00, -1.00, 811.3, 967.2)"> </text><text xml:space="preserve" font-family="BebasNeueBold,Bebas Neue" font-weight="bold" font-size="114.0" fill="#000000" transform="matrix(1.00, 0.00, -0.00, -1.00, 828.9, 967.2)">E</text><text xml:space="preserve" font-family="BebasNeueBold,Bebas Neue" font-weight="bold" font-size="114.0" fill="#000000" transform="matrix(1.00, 0.00, -0.00, -1.00, 870.9, 967.2)"> </text><text xml:space="preserve" font-family="BebasNeueBold,Bebas Neue" font-weight="bold" font-size="114.0" fill="#000000" transform="matrix(1.00, 0.00, -0.00, -1.00, 888.6, 967.2)">R</text><text xml:space="preserve" font-family="BebasNeueBold,Bebas Neue" font-weight="bold" font-size="114.0" fill="#000000" transform="matrix(1.00, 0.00, -0.00, -1.00, 934.4, 967.2)">I</text><text xml:space="preserve" font-family="BebasNeueBold,Bebas Neue" font-weight="bold" font-size="114.0" fill="#000000" transform="matrix(1.00, 0.00, -0.00, -1.00, 956.0, 967.2)">S</text><text xml:space="preserve" font-family="BebasNeueBold,Bebas Neue" font-weight="bold" font-size="114.0" fill="#000000" transform="matrix(1.00, 0.00, -0.00, -1.00, 998.7, 967.2)">C</text><text xml:space="preserve" font-family="BebasNeueBold,Bebas Neue" font-weight="bold" font-size="114.0" fill="#000000" transform="matrix(1.00, 0.00, -0.00, -1.00, 1042.7, 967.2)">O</text><text xml:space="preserve" font-family="BebasNeueBold,Bebas Neue" font-weight="bold" font-size="114.0" fill="#000000" transform="matrix(1.00, 0.00, -0.00, -1.00, 1087.8, 967.2)"> </text><text xml:space="preserve" font-family="BebasNeueBold,Bebas Neue" font-weight="bold" font-size="114.0" fill="#000000" transform="matrix(1.00, 0.00, -0.00, -1.00, 1105.5, 967.2)">(</text><text xml:space="preserve" font-family="BebasNeueBold,Bebas Neue" font-weight="bold" font-size="114.0" fill="#000000" transform="matrix(1.00, 0.00, -0.00, -1.00, 1134.1, 967.2)">M</text><text xml:space="preserve" font-family="BebasNeueBold,Bebas Neue" font-weight="bold" font-size="114.0" fill="#000000" transform="matrix(1.00, 0.00, -0.00, -1.00, 1195.8, 967.2)">U</text><text xml:space="preserve" font-family="BebasNeueBold,Bebas Neue" font-weight="bold" font-size="114.0" fill="#000000" transform="matrix(1.00, 0.00, -0.00, -1.00, 1241.2, 967.2)">I</text><text xml:space="preserve" font-family="BebasNeueBold,Bebas Neue" font-weight="bold" font-size="114.0" fill="#000000" transform="matrix(1.00, 0.00, -0.00, -1.00, 1262.8, 967.2)">T</text><text xml:space="preserve" font-family="BebasNeueBold,Bebas Neue" font-weight="bold" font-size="114.0" fill="#000000" transform="matrix(1.00, 0.00, -0.00, -1.00, 1303.4, 967.2)">O</text><text xml:space="preserve" font-family="BebasNeueBold,Bebas Neue" font-weight="bold" font-size="114.0" fill="#000000" transform="matrix(1.00, 0.00, -0.00, -1.00, 1348.5, 967.2)"> </text><text xml:space="preserve" font-family="BebasNeueBold,Bebas Neue" font-weight="bold" font-size="114.0" fill="#000000" transform="matrix(1.00, 0.00, -0.00, -1.00, 1366.2, 967.2)">A</text><text xml:space="preserve" font-family="BebasNeueBold,Bebas Neue" font-weight="bold" font-size="114.0" fill="#000000" transform="matrix(1.00, 0.00, -0.00, -1.00, 1412.6, 967.2)">L</text><text xml:space="preserve" font-family="BebasNeueBold,Bebas Neue" font-weight="bold" font-size="114.0" fill="#000000" transform="matrix(1.00, 0.00, -0.00, -1.00, 1445.6, 967.2)">T</text><text xml:space="preserve" font-family="BebasNeueBold,Bebas Neue" font-weight="bold" font-size="114.0" fill="#000000" transform="matrix(1.00, 0.00, -0.00, -1.00, 1486.1, 967.2)">O</text><text xml:space="preserve" font-family="BebasNeueBold,Bebas Neue" font-weight="bold" font-size="114.0" fill="#000000" transform="matrix(1.00, 0.00, -0.00, -1.00, 1531.3, 967.2)"> </text><text xml:space="preserve" font-family="BebasNeueBold,Bebas Neue" font-weight="bold" font-size="114.0" fill="#000000" transform="matrix(1.00, 0.00, -0.00, -1.00, 1549.0, 967.2)">E</text><text xml:space="preserve" font-family="BebasNeueBold,Bebas Neue" font-weight="bold" font-size="114.0" fill="#000000" transform="matrix(1.00, 0.00, -0.00, -1.00, 1590.9, 967.2)"> </text><text xml:space="preserve" font-family="BebasNeueBold,Bebas Neue" font-weight="bold" font-size="114.0" fill="#000000" transform="matrix(1.00, 0.00, -0.00, -1.00, 1608.6, 967.2)">A</text><text xml:space="preserve" font-family="BebasNeueBold,Bebas Neue" font-weight="bold" font-size="114.0" fill="#000000" transform="matrix(1.00, 0.00, -0.00, -1.00, 1655.0, 967.2)">L</text><text xml:space="preserve" font-family="BebasNeueBold,Bebas Neue" font-weight="bold" font-size="114.0" fill="#000000" transform="matrix(1.00, 0.00, -0.00, -1.00, 1687.9, 967.2)">T</text><text xml:space="preserve" font-family="BebasNeueBold,Bebas Neue" font-weight="bold" font-size="114.0" fill="#000000" transform="matrix(1.00, 0.00, -0.00, -1.00, 1728.5, 967.2)">O</text><text xml:space="preserve" font-family="BebasNeueBold,Bebas Neue" font-weight="bold" font-size="114.0" fill="#000000" transform="matrix(1.00, 0.00, -0.00, -1.00, 1773.6, 967.2)">)</text><image xlink:href="../../2D96A863-BA2A-43DD-A7AB-4FBD4760B74F/assets/D852046C21386C489959772BE2F1EA2B.png" width="681.00" height="357.00" transform="matrix(0.22, 0.00, -0.00, -0.22, 10.0, 90.0)"></image><image xlink:href="F2869E9CAB7AE75E01E3235BC7926709.png" width="1452.00" height="496.00" transform="matrix(1.25, 0.00, -0.00, -1.25, 53.0, 906.0)"></image></g></svg>