<?xml version="1.0" encoding="UTF-8" standalone="no"?><svg xmlns="http://www.w3.org/2000/svg" xmlns:xlink="http://www.w3.org/1999/xlink" clip-rule="evenodd" stroke-miterlimit="10" viewBox="0 0 1920 1080"><desc>SVG generated by Keynote</desc><defs></defs><g transform="matrix(1.00, 0.00, -0.00, -1.00, 0.0, 1080.0)"><path d="M 0.0 1080.0 L 1920.0 1080.0 L 1920.0 0.0 L 0.0 0.0 Z M 0.0 1080.0 " fill="#FEFFFE"></path><text xml:space="preserve" font-family="Helvetica-Light,Helvetica" font-size="50.0" fill="#FEFFFF" transform="matrix(1.00, 0.00, -0.00, -1.00, 1815.4, 15.5)">V</text><text xml:space="preserve" font-family="Helvetica-Light,Helvetica" font-size="50.0" fill="#FEFFFF" transform="matrix(1.00, 0.00, -0.00, -1.00, 1845.9, 15.5)">O</text><text xml:space="preserve" font-family="Helvetica-Light,Helvetica" font-size="50.0" fill="#FEFFFF" transform="matrix(1.00, 0.00, -0.00, -1.00, 1884.8, 15.5)">L</text><image xlink:href="../../77EC243D-0C10-4669-A938-6F48CDBF5E28/assets/B7DCAFF8C216E8D1B6AEB270EB033B1A.png" width="3004.00" height="2254.00" transform="matrix(0.22, 0.00, -0.00, -0.22, 1262.0, 491.0)"></image><text xml:space="preserve" font-family="BebasNeueBold,Bebas Neue" font-weight="bold" font-size="114.0" fill="#000000" transform="matrix(1.00, 0.00, -0.00, -1.00, 31.8, 967.2)">T</text><text xml:space="preserve" font-family="BebasNeueBold,Bebas Neue" font-weight="bold" font-size="114.0" fill="#000000" transform="matrix(1.00, 0.00, -0.00, -1.00, 72.4, 967.2)">E</text><text xml:space="preserve" font-family="BebasNeueBold,Bebas Neue" font-weight="bold" font-size="114.0" fill="#000000" transform="matrix(1.00, 0.00, -0.00, -1.00, 114.4, 967.2)">R</text><text xml:space="preserve" font-family="BebasNeueBold,Bebas Neue" font-weight="bold" font-size="114.0" fill="#000000" transform="matrix(1.00, 0.00, -0.00, -1.00, 160.2, 967.2)">R</text><text xml:space="preserve" font-family="BebasNeueBold,Bebas Neue" font-weight="bold" font-size="114.0" fill="#000000" transform="matrix(1.00, 0.00, -0.00, -1.00, 206.0, 967.2)">A</text><text xml:space="preserve" font-family="BebasNeueBold,Bebas Neue" font-weight="bold" font-size="114.0" fill="#000000" transform="matrix(1.00, 0.00, -0.00, -1.00, 252.4, 967.2)">S</text><text xml:space="preserve" font-family="BebasNeueBold,Bebas Neue" font-weight="bold" font-size="114.0" fill="#000000" transform="matrix(1.00, 0.00, -0.00, -1.00, 295.1, 967.2)"> </text><text xml:space="preserve" font-family="BebasNeueBold,Bebas Neue" font-weight="bold" font-size="114.0" fill="#000000" transform="matrix(1.00, 0.00, -0.00, -1.00, 312.7, 967.2)">N</text><text xml:space="preserve" font-family="BebasNeueBold,Bebas Neue" font-weight="bold" font-size="114.0" fill="#000000" transform="matrix(1.00, 0.00, -0.00, -1.00, 361.4, 967.2)">U</text><text xml:space="preserve" font-family="BebasNeueBold,Bebas Neue" font-weight="bold" font-size="114.0" fill="#000000" transform="matrix(1.00, 0.00, -0.00, -1.00, 406.8, 967.2)">A</text><text xml:space="preserve" font-family="BebasNeueBold,Bebas Neue" font-weight="bold" font-size="114.0" fill="#000000" transform="matrix(1.00, 0.00, -0.00, -1.00, 453.2, 967.2)">S</text><text xml:space="preserve" font-family="BebasNeueBold,Bebas Neue" font-weight="bold" font-size="114.0" fill="#000000" transform="matrix(1.00, 0.00, -0.00, -1.00, 495.8, 967.2)"> </text><text xml:space="preserve" font-family="BebasNeueBold,Bebas Neue" font-weight="bold" font-size="114.0" fill="#000000" transform="matrix(1.00, 0.00, -0.00, -1.00, 513.5, 967.2)">E</text><text xml:space="preserve" font-family="BebasNeueBold,Bebas Neue" font-weight="bold" font-size="114.0" fill="#000000" transform="matrix(1.00, 0.00, -0.00, -1.00, 555.4, 967.2)"> </text><text xml:space="preserve" font-family="BebasNeueBold,Bebas Neue" font-weight="bold" font-size="114.0" fill="#000000" transform="matrix(1.00, 0.00, -0.00, -1.00, 573.1, 967.2)">C</text><text xml:space="preserve" font-family="BebasNeueBold,Bebas Neue" font-weight="bold" font-size="114.0" fill="#000000" transform="matrix(1.00, 0.00, -0.00, -1.00, 617.1, 967.2)">A</text><text xml:space="preserve" font-family="BebasNeueBold,Bebas Neue" font-weight="bold" font-size="114.0" fill="#000000" transform="matrix(1.00, 0.00, -0.00, -1.00, 663.5, 967.2)">N</text><text xml:space="preserve" font-family="BebasNeueBold,Bebas Neue" font-weight="bold" font-size="114.0" fill="#000000" transform="matrix(1.00, 0.00, -0.00, -1.00, 712.2, 967.2)">T</text><text xml:space="preserve" font-family="BebasNeueBold,Bebas Neue" font-weight="bold" font-size="114.0" fill="#000000" transform="matrix(1.00, 0.00, -0.00, -1.00, 748.4, 967.2)">A</text><text xml:space="preserve" font-family="BebasNeueBold,Bebas Neue" font-weight="bold" font-size="114.0" fill="#000000" transform="matrix(1.00, 0.00, -0.00, -1.00, 794.8, 967.2)">R</text><text xml:space="preserve" font-family="BebasNeueBold,Bebas Neue" font-weight="bold" font-size="114.0" fill="#000000" transform="matrix(1.00, 0.00, -0.00, -1.00, 840.7, 967.2)">E</text><text xml:space="preserve" font-family="BebasNeueBold,Bebas Neue" font-weight="bold" font-size="114.0" fill="#000000" transform="matrix(1.00, 0.00, -0.00, -1.00, 882.6, 967.2)">I</text><text xml:space="preserve" font-family="BebasNeueBold,Bebas Neue" font-weight="bold" font-size="114.0" fill="#000000" transform="matrix(1.00, 0.00, -0.00, -1.00, 904.3, 967.2)">R</text><text xml:space="preserve" font-family="BebasNeueBold,Bebas Neue" font-weight="bold" font-size="114.0" fill="#000000" transform="matrix(1.00, 0.00, -0.00, -1.00, 950.1, 967.2)">A</text><image xlink:href="../../46F02FC2-67EC-4D9F-A726-2859EF20AF72/assets/D852046C21386C489959772BE2F1EA2B.png" width="681.00" height="357.00" transform="matrix(0.22, 0.00, -0.00, -0.22, 10.0, 90.0)"></image><image xlink:href="../../97F88AEB-3719-47E4-ADEB-AF7A027E9284/assets/02C4E3C9455B64612FD2048711F16842.png" width="2136.00" height="1300.00" transform="matrix(0.68, 0.00, -0.00, -0.68, 211.0, 942.0)"></image><path d="M 159.4 28.4 C 195.9 66.3 195.9 127.8 159.4 165.7 C 122.9 203.6 63.8 203.6 27.4 165.7 C -9.1 127.8 -9.1 66.3 27.4 28.4 C 63.8 -9.5 122.9 -9.5 159.4 28.4 Z M 159.4 28.4 " fill="none" stroke="#E82A2A" stroke-width="7.00" transform="matrix(1.00, 0.00, 0.00, -1.00, 1482.0, 340.0)"></path><text xml:space="preserve" font-family="Helvetica-Light,Helvetica" font-size="40.0" fill="#000000" transform="matrix(1.00, 0.00, -0.00, -1.00, 1647.1, 1011.2)">V</text><text xml:space="preserve" font-family="Helvetica-Light,Helvetica" font-size="40.0" fill="#000000" transform="matrix(1.00, 0.00, -0.00, -1.00, 1669.4, 1011.2)">o</text><text xml:space="preserve" font-family="Helvetica-Light,Helvetica" font-size="40.0" fill="#000000" transform="matrix(1.00, 0.00, -0.00, -1.00, 1691.6, 1011.2)">l</text><text xml:space="preserve" font-family="Helvetica-Light,Helvetica" font-size="40.0" fill="#000000" transform="matrix(1.00, 0.00, -0.00, -1.00, 1700.5, 1011.2)">u</text><text xml:space="preserve" font-family="Helvetica-Light,Helvetica" font-size="40.0" fill="#000000" transform="matrix(1.00, 0.00, -0.00, -1.00, 1722.7, 1011.2)">m</text><text xml:space="preserve" font-family="Helvetica-Light,Helvetica" font-size="40.0" fill="#000000" transform="matrix(1.00, 0.00, -0.00, -1.00, 1756.0, 1011.2)">e</text><text xml:space="preserve" font-family="Helvetica-Light,Helvetica" font-size="40.0" fill="#000000" transform="matrix(1.00, 0.00, -0.00, -1.00, 1778.3, 1011.2)"> </text><text xml:space="preserve" font-family="Helvetica-Light,Helvetica" font-size="40.0" fill="#000000" transform="matrix(1.00, 0.00, -0.00, -1.00, 1647.1, 953.6)">a</text><text xml:space="preserve" font-family="Helvetica-Light,Helvetica" font-size="40.0" fill="#000000" transform="matrix(1.00, 0.00, -0.00, -1.00, 1669.4, 953.6)">r</text><text xml:space="preserve" font-family="Helvetica-Light,Helvetica" font-size="40.0" fill="#000000" transform="matrix(1.00, 0.00, -0.00, -1.00, 1683.4, 953.6)">t</text><text xml:space="preserve" font-family="Helvetica-Light,Helvetica" font-size="40.0" fill="#000000" transform="matrix(1.00, 0.00, -0.00, -1.00, 1694.5, 953.6)">i</text><text xml:space="preserve" font-family="Helvetica-Light,Helvetica" font-size="40.0" fill="#000000" transform="matrix(1.00, 0.00, -0.00, -1.00, 1703.4, 953.6)">ï¬</text><text xml:space="preserve" font-family="Helvetica-Light,Helvetica" font-size="40.0" fill="#000000" transform="matrix(1.00, 0.00, -0.00, -1.00, 1723.4, 953.6)">c</text><text xml:space="preserve" font-family="Helvetica-Light,Helvetica" font-size="40.0" fill="#000000" transform="matrix(1.00, 0.00, -0.00, -1.00, 1745.6, 953.6)">i</text><text xml:space="preserve" font-family="Helvetica-Light,Helvetica" font-size="40.0" fill="#000000" transform="matrix(1.00, 0.00, -0.00, -1.00, 1754.5, 953.6)">a</text><text xml:space="preserve" font-family="Helvetica-Light,Helvetica" font-size="40.0" fill="#000000" transform="matrix(1.00, 0.00, -0.00, -1.00, 1776.8, 953.6)">l</text><text xml:space="preserve" font-family="Helvetica-Light,Helvetica" font-size="40.0" fill="#000000" transform="matrix(1.00, 0.00, -0.00, -1.00, 1785.6, 953.6)"> </text><text xml:space="preserve" font-family="Helvetica-Light,Helvetica" font-size="40.0" fill="#000000" transform="matrix(1.00, 0.00, -0.00, -1.00, 1647.1, 896.0)">c</text><text xml:space="preserve" font-family="Helvetica-Light,Helvetica" font-size="40.0" fill="#000000" transform="matrix(1.00, 0.00, -0.00, -1.00, 1669.4, 896.0)">o</text><text xml:space="preserve" font-family="Helvetica-Light,Helvetica" font-size="40.0" fill="#000000" transform="matrix(1.00, 0.00, -0.00, -1.00, 1691.6, 896.0)">n</text><text xml:space="preserve" font-family="Helvetica-Light,Helvetica" font-size="40.0" fill="#000000" transform="matrix(1.00, 0.00, -0.00, -1.00, 1713.8, 896.0)">s</text><text xml:space="preserve" font-family="Helvetica-Light,Helvetica" font-size="40.0" fill="#000000" transform="matrix(1.00, 0.00, -0.00, -1.00, 1733.8, 896.0)">i</text><text xml:space="preserve" font-family="Helvetica-Light,Helvetica" font-size="40.0" fill="#000000" transform="matrix(1.00, 0.00, -0.00, -1.00, 1742.7, 896.0)">d</text><text xml:space="preserve" font-family="Helvetica-Light,Helvetica" font-size="40.0" fill="#000000" transform="matrix(1.00, 0.00, -0.00, -1.00, 1767.2, 896.0)">e</text><text xml:space="preserve" font-family="Helvetica-Light,Helvetica" font-size="40.0" fill="#000000" transform="matrix(1.00, 0.00, -0.00, -1.00, 1789.4, 896.0)">r</text><text xml:space="preserve" font-family="Helvetica-Light,Helvetica" font-size="40.0" fill="#000000" transform="matrix(1.00, 0.00, -0.00, -1.00, 1802.7, 896.0)">a</text><text xml:space="preserve" font-family="Helvetica-Light,Helvetica" font-size="40.0" fill="#000000" transform="matrix(1.00, 0.00, -0.00, -1.00, 1825.0, 896.0)">n</text><text xml:space="preserve" font-family="Helvetica-Light,Helvetica" font-size="40.0" fill="#000000" transform="matrix(1.00, 0.00, -0.00, -1.00, 1847.2, 896.0)">d</text><text xml:space="preserve" font-family="Helvetica-Light,Helvetica" font-size="40.0" fill="#000000" transform="matrix(1.00, 0.00, -0.00, -1.00, 1871.6, 896.0)">o</text><text xml:space="preserve" font-family="Helvetica-Light,Helvetica" font-size="40.0" fill="#000000" transform="matrix(1.00, 0.00, -0.00, -1.00, 1893.9, 896.0)"> </text><text xml:space="preserve" font-family="Helvetica-Light,Helvetica" font-size="40.0" fill="#000000" transform="matrix(1.00, 0.00, -0.00, -1.00, 1647.1, 838.4)">o</text><text xml:space="preserve" font-family="Helvetica-Light,Helvetica" font-size="40.0" fill="#000000" transform="matrix(1.00, 0.00, -0.00, -1.00, 1669.4, 838.4)">s</text><text xml:space="preserve" font-family="Helvetica-Light,Helvetica" font-size="40.0" fill="#000000" transform="matrix(1.00, 0.00, -0.00, -1.00, 1689.4, 838.4)"> </text><text xml:space="preserve" font-family="Helvetica-Light,Helvetica" font-size="40.0" fill="#000000" transform="matrix(1.00, 0.00, -0.00, -1.00, 1700.5, 838.4)">v</text><text xml:space="preserve" font-family="Helvetica-Light,Helvetica" font-size="40.0" fill="#000000" transform="matrix(1.00, 0.00, -0.00, -1.00, 1720.5, 838.4)">o</text><text xml:space="preserve" font-family="Helvetica-Light,Helvetica" font-size="40.0" fill="#000000" transform="matrix(1.00, 0.00, -0.00, -1.00, 1742.7, 838.4)">l</text><text xml:space="preserve" font-family="Helvetica-Light,Helvetica" font-size="40.0" fill="#000000" transform="matrix(1.00, 0.00, -0.00, -1.00, 1751.6, 838.4)">u</text><text xml:space="preserve" font-family="Helvetica-Light,Helvetica" font-size="40.0" fill="#000000" transform="matrix(1.00, 0.00, -0.00, -1.00, 1773.8, 838.4)">m</text><text xml:space="preserve" font-family="Helvetica-Light,Helvetica" font-size="40.0" fill="#000000" transform="matrix(1.00, 0.00, -0.00, -1.00, 1807.2, 838.4)">e</text><text xml:space="preserve" font-family="Helvetica-Light,Helvetica" font-size="40.0" fill="#000000" transform="matrix(1.00, 0.00, -0.00, -1.00, 1829.4, 838.4)">s</text><text xml:space="preserve" font-family="Helvetica-Light,Helvetica" font-size="40.0" fill="#000000" transform="matrix(1.00, 0.00, -0.00, -1.00, 1849.4, 838.4)"> </text><text xml:space="preserve" font-family="Helvetica-Light,Helvetica" font-size="40.0" fill="#000000" transform="matrix(1.00, 0.00, -0.00, -1.00, 1647.1, 780.8)">m</text><text xml:space="preserve" font-family="Helvetica-Light,Helvetica" font-size="40.0" fill="#000000" transform="matrix(1.00, 0.00, -0.00, -1.00, 1680.4, 780.8)">o</text><text xml:space="preserve" font-family="Helvetica-Light,Helvetica" font-size="40.0" fill="#000000" transform="matrix(1.00, 0.00, -0.00, -1.00, 1702.7, 780.8)">r</text><text xml:space="preserve" font-family="Helvetica-Light,Helvetica" font-size="40.0" fill="#000000" transform="matrix(1.00, 0.00, -0.00, -1.00, 1716.7, 780.8)">t</text><text xml:space="preserve" font-family="Helvetica-Light,Helvetica" font-size="40.0" fill="#000000" transform="matrix(1.00, 0.00, -0.00, -1.00, 1727.8, 780.8)">o</text><text xml:space="preserve" font-family="Helvetica-Light,Helvetica" font-size="40.0" fill="#000000" transform="matrix(1.00, 0.00, -0.00, -1.00, 1750.1, 780.8)">s</text></g></svg>