<?xml version="1.0" encoding="UTF-8" standalone="no"?><svg xmlns="http://www.w3.org/2000/svg" xmlns:xlink="http://www.w3.org/1999/xlink" clip-rule="evenodd" stroke-miterlimit="10" viewBox="0 0 1920 1080"><desc>SVG generated by Keynote</desc><defs></defs><g transform="matrix(1.00, 0.00, -0.00, -1.00, 0.0, 1080.0)"><path d="M 0.0 1080.0 L 1920.0 1080.0 L 1920.0 0.0 L 0.0 0.0 Z M 0.0 1080.0 " fill="#000000"></path><text xml:space="preserve" font-family="Helvetica-Bold,Helvetica" font-weight="bold" font-size="97.2" fill="#FEFFFF" transform="matrix(1.00, 0.00, -0.00, -1.00, 1133.7, 707.7)">R</text><text xml:space="preserve" font-family="Helvetica-Bold,Helvetica" font-weight="bold" font-size="97.2" fill="#FEFFFF" transform="matrix(1.00, 0.00, -0.00, -1.00, 1203.9, 707.7)">E</text><text xml:space="preserve" font-family="Helvetica-Bold,Helvetica" font-weight="bold" font-size="97.2" fill="#FEFFFF" transform="matrix(1.00, 0.00, -0.00, -1.00, 1268.7, 707.7)">L</text><text xml:space="preserve" font-family="Helvetica-Bold,Helvetica" font-weight="bold" font-size="97.2" fill="#FEFFFF" transform="matrix(1.00, 0.00, -0.00, -1.00, 1328.1, 707.7)">A</text><text xml:space="preserve" font-family="Helvetica-Bold,Helvetica" font-weight="bold" font-size="97.2" fill="#FEFFFF" transform="matrix(1.00, 0.00, -0.00, -1.00, 1391.1, 707.7)">T</text><text xml:space="preserve" font-family="Helvetica-Bold,Helvetica" font-weight="bold" font-size="97.2" fill="#FEFFFF" transform="matrix(1.00, 0.00, -0.00, -1.00, 1450.5, 707.7)">Ó</text><text xml:space="preserve" font-family="Helvetica-Bold,Helvetica" font-weight="bold" font-size="97.2" fill="#FEFFFF" transform="matrix(1.00, 0.00, -0.00, -1.00, 1526.0, 707.7)">R</text><text xml:space="preserve" font-family="Helvetica-Bold,Helvetica" font-weight="bold" font-size="97.2" fill="#FEFFFF" transform="matrix(1.00, 0.00, -0.00, -1.00, 1596.3, 707.7)">I</text><text xml:space="preserve" font-family="Helvetica-Bold,Helvetica" font-weight="bold" font-size="97.2" fill="#FEFFFF" transform="matrix(1.00, 0.00, -0.00, -1.00, 1623.2, 707.7)">O</text><text xml:space="preserve" font-family="Helvetica-Bold,Helvetica" font-weight="bold" font-size="97.2" fill="#FEFFFF" transform="matrix(1.00, 0.00, -0.00, -1.00, 1698.8, 707.7)"> </text><text xml:space="preserve" font-family="Helvetica-Bold,Helvetica" font-weight="bold" font-size="97.2" fill="#FEFFFF" transform="matrix(1.00, 0.00, -0.00, -1.00, 1725.8, 707.7)">D</text><text xml:space="preserve" font-family="Helvetica-Bold,Helvetica" font-weight="bold" font-size="97.2" fill="#FEFFFF" transform="matrix(1.00, 0.00, -0.00, -1.00, 1796.0, 707.7)">E</text><text xml:space="preserve" font-family="Helvetica-Bold,Helvetica" font-weight="bold" font-size="97.2" fill="#FEFFFF" transform="matrix(1.00, 0.00, -0.00, -1.00, 1860.9, 707.7)"> </text><text xml:space="preserve" font-family="Helvetica-Bold,Helvetica" font-weight="bold" font-size="97.2" fill="#FEFFFF" transform="matrix(1.00, 0.00, -0.00, -1.00, 984.2, 591.7)">M</text><text xml:space="preserve" font-family="Helvetica-Bold,Helvetica" font-weight="bold" font-size="97.2" fill="#FEFFFF" transform="matrix(1.00, 0.00, -0.00, -1.00, 1065.2, 591.7)">O</text><text xml:space="preserve" font-family="Helvetica-Bold,Helvetica" font-weight="bold" font-size="97.2" fill="#FEFFFF" transform="matrix(1.00, 0.00, -0.00, -1.00, 1140.8, 591.7)">N</text><text xml:space="preserve" font-family="Helvetica-Bold,Helvetica" font-weight="bold" font-size="97.2" fill="#FEFFFF" transform="matrix(1.00, 0.00, -0.00, -1.00, 1211.0, 591.7)">I</text><text xml:space="preserve" font-family="Helvetica-Bold,Helvetica" font-weight="bold" font-size="97.2" fill="#FEFFFF" transform="matrix(1.00, 0.00, -0.00, -1.00, 1238.0, 591.7)">T</text><text xml:space="preserve" font-family="Helvetica-Bold,Helvetica" font-weight="bold" font-size="97.2" fill="#FEFFFF" transform="matrix(1.00, 0.00, -0.00, -1.00, 1295.6, 591.7)">O</text><text xml:space="preserve" font-family="Helvetica-Bold,Helvetica" font-weight="bold" font-size="97.2" fill="#FEFFFF" transform="matrix(1.00, 0.00, -0.00, -1.00, 1371.2, 591.7)">R</text><text xml:space="preserve" font-family="Helvetica-Bold,Helvetica" font-weight="bold" font-size="97.2" fill="#FEFFFF" transform="matrix(1.00, 0.00, -0.00, -1.00, 1441.4, 591.7)">A</text><text xml:space="preserve" font-family="Helvetica-Bold,Helvetica" font-weight="bold" font-size="97.2" fill="#FEFFFF" transform="matrix(1.00, 0.00, -0.00, -1.00, 1511.6, 591.7)">M</text><text xml:space="preserve" font-family="Helvetica-Bold,Helvetica" font-weight="bold" font-size="97.2" fill="#FEFFFF" transform="matrix(1.00, 0.00, -0.00, -1.00, 1592.6, 591.7)">E</text><text xml:space="preserve" font-family="Helvetica-Bold,Helvetica" font-weight="bold" font-size="97.2" fill="#FEFFFF" transform="matrix(1.00, 0.00, -0.00, -1.00, 1657.4, 591.7)">N</text><text xml:space="preserve" font-family="Helvetica-Bold,Helvetica" font-weight="bold" font-size="97.2" fill="#FEFFFF" transform="matrix(1.00, 0.00, -0.00, -1.00, 1727.6, 591.7)">T</text><text xml:space="preserve" font-family="Helvetica-Bold,Helvetica" font-weight="bold" font-size="97.2" fill="#FEFFFF" transform="matrix(1.00, 0.00, -0.00, -1.00, 1785.3, 591.7)">O</text><text xml:space="preserve" font-family="Helvetica-Bold,Helvetica" font-weight="bold" font-size="97.2" fill="#FEFFFF" transform="matrix(1.00, 0.00, -0.00, -1.00, 1860.9, 591.7)"> </text><text xml:space="preserve" font-family="Helvetica-Bold,Helvetica" font-weight="bold" font-size="97.2" fill="#FEFFFF" transform="matrix(1.00, 0.00, -0.00, -1.00, 656.6, 475.7)">E</text><text xml:space="preserve" font-family="Helvetica-Bold,Helvetica" font-weight="bold" font-size="97.2" fill="#FEFFFF" transform="matrix(1.00, 0.00, -0.00, -1.00, 721.5, 475.7)">L</text><text xml:space="preserve" font-family="Helvetica-Bold,Helvetica" font-weight="bold" font-size="97.2" fill="#FEFFFF" transform="matrix(1.00, 0.00, -0.00, -1.00, 780.8, 475.7)">E</text><text xml:space="preserve" font-family="Helvetica-Bold,Helvetica" font-weight="bold" font-size="97.2" fill="#FEFFFF" transform="matrix(1.00, 0.00, -0.00, -1.00, 845.6, 475.7)">T</text><text xml:space="preserve" font-family="Helvetica-Bold,Helvetica" font-weight="bold" font-size="97.2" fill="#FEFFFF" transform="matrix(1.00, 0.00, -0.00, -1.00, 905.0, 475.7)">R</text><text xml:space="preserve" font-family="Helvetica-Bold,Helvetica" font-weight="bold" font-size="97.2" fill="#FEFFFF" transform="matrix(1.00, 0.00, -0.00, -1.00, 975.2, 475.7)">Ô</text><text xml:space="preserve" font-family="Helvetica-Bold,Helvetica" font-weight="bold" font-size="97.2" fill="#FEFFFF" transform="matrix(1.00, 0.00, -0.00, -1.00, 1050.8, 475.7)">N</text><text xml:space="preserve" font-family="Helvetica-Bold,Helvetica" font-weight="bold" font-size="97.2" fill="#FEFFFF" transform="matrix(1.00, 0.00, -0.00, -1.00, 1121.0, 475.7)">I</text><text xml:space="preserve" font-family="Helvetica-Bold,Helvetica" font-weight="bold" font-size="97.2" fill="#FEFFFF" transform="matrix(1.00, 0.00, -0.00, -1.00, 1148.0, 475.7)">C</text><text xml:space="preserve" font-family="Helvetica-Bold,Helvetica" font-weight="bold" font-size="97.2" fill="#FEFFFF" transform="matrix(1.00, 0.00, -0.00, -1.00, 1218.2, 475.7)">O</text><text xml:space="preserve" font-family="Helvetica-Bold,Helvetica" font-weight="bold" font-size="97.2" fill="#FEFFFF" transform="matrix(1.00, 0.00, -0.00, -1.00, 1293.8, 475.7)"> </text><text xml:space="preserve" font-family="Helvetica-Bold,Helvetica" font-weight="bold" font-size="97.2" fill="#FEFFFF" transform="matrix(1.00, 0.00, -0.00, -1.00, 1320.8, 475.7)">D</text><text xml:space="preserve" font-family="Helvetica-Bold,Helvetica" font-weight="bold" font-size="97.2" fill="#FEFFFF" transform="matrix(1.00, 0.00, -0.00, -1.00, 1391.0, 475.7)">E</text><text xml:space="preserve" font-family="Helvetica-Bold,Helvetica" font-weight="bold" font-size="97.2" fill="#FEFFFF" transform="matrix(1.00, 0.00, -0.00, -1.00, 1455.8, 475.7)"> </text><text xml:space="preserve" font-family="Helvetica-Bold,Helvetica" font-weight="bold" font-size="97.2" fill="#FEFFFF" transform="matrix(1.00, 0.00, -0.00, -1.00, 1482.8, 475.7)">Ô</text><text xml:space="preserve" font-family="Helvetica-Bold,Helvetica" font-weight="bold" font-size="97.2" fill="#FEFFFF" transform="matrix(1.00, 0.00, -0.00, -1.00, 1558.4, 475.7)">N</text><text xml:space="preserve" font-family="Helvetica-Bold,Helvetica" font-weight="bold" font-size="97.2" fill="#FEFFFF" transform="matrix(1.00, 0.00, -0.00, -1.00, 1628.6, 475.7)">I</text><text xml:space="preserve" font-family="Helvetica-Bold,Helvetica" font-weight="bold" font-size="97.2" fill="#FEFFFF" transform="matrix(1.00, 0.00, -0.00, -1.00, 1655.6, 475.7)">B</text><text xml:space="preserve" font-family="Helvetica-Bold,Helvetica" font-weight="bold" font-size="97.2" fill="#FEFFFF" transform="matrix(1.00, 0.00, -0.00, -1.00, 1725.8, 475.7)">U</text><text xml:space="preserve" font-family="Helvetica-Bold,Helvetica" font-weight="bold" font-size="97.2" fill="#FEFFFF" transform="matrix(1.00, 0.00, -0.00, -1.00, 1796.0, 475.7)">S</text><text xml:space="preserve" font-family="Helvetica-Bold,Helvetica" font-weight="bold" font-size="97.2" fill="#FEFFFF" transform="matrix(1.00, 0.00, -0.00, -1.00, 1860.9, 475.7)"> </text><text xml:space="preserve" font-family="Helvetica-Bold,Helvetica" font-weight="bold" font-size="48.6" fill="#FEFFFF" transform="matrix(1.00, 0.00, -0.00, -1.00, 1317.9, 290.5)">A</text><text xml:space="preserve" font-family="Helvetica-Bold,Helvetica" font-weight="bold" font-size="48.6" fill="#FEFFFF" transform="matrix(1.00, 0.00, -0.00, -1.00, 1353.0, 290.5)">t</text><text xml:space="preserve" font-family="Helvetica-Bold,Helvetica" font-weight="bold" font-size="48.6" fill="#FEFFFF" transform="matrix(1.00, 0.00, -0.00, -1.00, 1369.2, 290.5)">u</text><text xml:space="preserve" font-family="Helvetica-Bold,Helvetica" font-weight="bold" font-size="48.6" fill="#FEFFFF" transform="matrix(1.00, 0.00, -0.00, -1.00, 1398.9, 290.5)">a</text><text xml:space="preserve" font-family="Helvetica-Bold,Helvetica" font-weight="bold" font-size="48.6" fill="#FEFFFF" transform="matrix(1.00, 0.00, -0.00, -1.00, 1425.9, 290.5)">l</text><text xml:space="preserve" font-family="Helvetica-Bold,Helvetica" font-weight="bold" font-size="48.6" fill="#FEFFFF" transform="matrix(1.00, 0.00, -0.00, -1.00, 1439.4, 290.5)">i</text><text xml:space="preserve" font-family="Helvetica-Bold,Helvetica" font-weight="bold" font-size="48.6" fill="#FEFFFF" transform="matrix(1.00, 0.00, -0.00, -1.00, 1452.9, 290.5)">z</text><text xml:space="preserve" font-family="Helvetica-Bold,Helvetica" font-weight="bold" font-size="48.6" fill="#FEFFFF" transform="matrix(1.00, 0.00, -0.00, -1.00, 1477.2, 290.5)">a</text><text xml:space="preserve" font-family="Helvetica-Bold,Helvetica" font-weight="bold" font-size="48.6" fill="#FEFFFF" transform="matrix(1.00, 0.00, -0.00, -1.00, 1504.2, 290.5)">ç</text><text xml:space="preserve" font-family="Helvetica-Bold,Helvetica" font-weight="bold" font-size="48.6" fill="#FEFFFF" transform="matrix(1.00, 0.00, -0.00, -1.00, 1531.3, 290.5)">ã</text><text xml:space="preserve" font-family="Helvetica-Bold,Helvetica" font-weight="bold" font-size="48.6" fill="#FEFFFF" transform="matrix(1.00, 0.00, -0.00, -1.00, 1558.3, 290.5)">o</text><text xml:space="preserve" font-family="Helvetica-Bold,Helvetica" font-weight="bold" font-size="48.6" fill="#FEFFFF" transform="matrix(1.00, 0.00, -0.00, -1.00, 1588.0, 290.5)">:</text><text xml:space="preserve" font-family="Helvetica-Bold,Helvetica" font-weight="bold" font-size="48.6" fill="#FEFFFF" transform="matrix(1.00, 0.00, -0.00, -1.00, 1604.2, 290.5)"> </text><text xml:space="preserve" font-family="Helvetica-Bold,Helvetica" font-weight="bold" font-size="48.6" fill="#FEFFFF" transform="matrix(1.00, 0.00, -0.00, -1.00, 1617.7, 290.5)">2</text><text xml:space="preserve" font-family="Helvetica-Bold,Helvetica" font-weight="bold" font-size="48.6" fill="#FEFFFF" transform="matrix(1.00, 0.00, -0.00, -1.00, 1644.7, 290.5)">3</text><text xml:space="preserve" font-family="Helvetica-Bold,Helvetica" font-weight="bold" font-size="48.6" fill="#FEFFFF" transform="matrix(1.00, 0.00, -0.00, -1.00, 1671.7, 290.5)">/</text><text xml:space="preserve" font-family="Helvetica-Bold,Helvetica" font-weight="bold" font-size="48.6" fill="#FEFFFF" transform="matrix(1.00, 0.00, -0.00, -1.00, 1685.2, 290.5)">0</text><text xml:space="preserve" font-family="Helvetica-Bold,Helvetica" font-weight="bold" font-size="48.6" fill="#FEFFFF" transform="matrix(1.00, 0.00, -0.00, -1.00, 1712.3, 290.5)">2</text><text xml:space="preserve" font-family="Helvetica-Bold,Helvetica" font-weight="bold" font-size="48.6" fill="#FEFFFF" transform="matrix(1.00, 0.00, -0.00, -1.00, 1739.3, 290.5)">/</text><text xml:space="preserve" font-family="Helvetica-Bold,Helvetica" font-weight="bold" font-size="48.6" fill="#FEFFFF" transform="matrix(1.00, 0.00, -0.00, -1.00, 1752.8, 290.5)">2</text><text xml:space="preserve" font-family="Helvetica-Bold,Helvetica" font-weight="bold" font-size="48.6" fill="#FEFFFF" transform="matrix(1.00, 0.00, -0.00, -1.00, 1779.8, 290.5)">0</text><text xml:space="preserve" font-family="Helvetica-Bold,Helvetica" font-weight="bold" font-size="48.6" fill="#FEFFFF" transform="matrix(1.00, 0.00, -0.00, -1.00, 1806.9, 290.5)">1</text><text xml:space="preserve" font-family="Helvetica-Bold,Helvetica" font-weight="bold" font-size="48.6" fill="#FEFFFF" transform="matrix(1.00, 0.00, -0.00, -1.00, 1833.9, 290.5)">5</text><image xlink:href="../../46F02FC2-67EC-4D9F-A726-2859EF20AF72/assets/B7DCAFF8C216E8D1B6AEB270EB033B1A.png" width="3004.00" height="2254.00" transform="matrix(0.22, 0.00, -0.00, -0.22, 1262.0, 491.0)"></image><image xlink:href="../../46F02FC2-67EC-4D9F-A726-2859EF20AF72/assets/EF4F1921F8A7E0EA75114FE84B8B8051.png" width="681.00" height="357.00" transform="matrix(0.22, 0.00, -0.00, -0.22, 10.0, 90.0)"></image><image xlink:href="../../46F02FC2-67EC-4D9F-A726-2859EF20AF72/assets/5CA4C5CF5935AAC73CE1E4C256CE22E7.png" width="335.00" height="77.00" transform="matrix(1.00, 0.00, -0.00, -1.01, 3.0, 1075.0)" opacity="0.50"></image><path d="M 6.0 1074.0 L 335.0 1074.0 L 335.0 1002.0 L 6.0 1002.0 Z M 6.0 1074.0 " fill="#FEFFFE"></path><g><clipPath id="clip0x608002ca4860"><path d="M 4.5 1002.5 L 336.6 1002.5 L 336.6 1074.0 L 4.5 1074.0 Z M 4.5 1002.5 "></path></clipPath><g clip-path="url(#clip0x608002ca4860)"><text xml:space="preserve" font-family="Helvetica-Bold,Helvetica" font-weight="bold" font-size="22.0" fill="#000000" transform="matrix(1.00, 0.00, -0.00, -1.00, 28.0, 1030.1)">C</text><text xml:space="preserve" font-family="Helvetica-Bold,Helvetica" font-weight="bold" font-size="22.0" fill="#000000" transform="matrix(1.00, 0.00, -0.00, -1.00, 43.9, 1030.1)">A</text><text xml:space="preserve" font-family="Helvetica-Bold,Helvetica" font-weight="bold" font-size="22.0" fill="#000000" transform="matrix(1.00, 0.00, -0.00, -1.00, 59.8, 1030.1)">P</text><text xml:space="preserve" font-family="Helvetica-Bold,Helvetica" font-weight="bold" font-size="22.0" fill="#000000" transform="matrix(1.00, 0.00, -0.00, -1.00, 72.8, 1030.1)">A</text></g></g><image xlink:href="../../46F02FC2-67EC-4D9F-A726-2859EF20AF72/assets/231D3A155BA3F4562B41F4BFD79FF55B.png" width="335.00" height="77.00" transform="matrix(1.00, 0.00, -0.00, -1.01, 3.0, 918.5)" opacity="0.50"></image><path d="M 6.0 917.0 L 335.0 917.0 L 335.0 846.0 L 6.0 846.0 Z M 6.0 917.5 " fill="#000000"></path><g><clipPath id="clip0x608002ca4d40"><path d="M 4.5 846.0 L 336.6 846.0 L 336.6 917.5 L 4.5 917.5 Z M 4.5 846.0 "></path></clipPath><g clip-path="url(#clip0x608002ca4d40)"><text xml:space="preserve" font-family="Helvetica-Light,Helvetica" font-size="22.0" fill="#FEFFFF" transform="matrix(1.00, 0.00, -0.00, -1.00, 28.0, 873.6)">-</text><text xml:space="preserve" font-family="Helvetica-Light,Helvetica" font-size="22.0" fill="#FEFFFF" transform="matrix(1.00, 0.00, -0.00, -1.00, 35.3, 873.6)"> </text><text xml:space="preserve" font-family="Helvetica-Light,Helvetica" font-size="22.0" fill="#FEFFFF" transform="matrix(1.00, 0.00, -0.00, -1.00, 41.4, 873.6)">L</text><text xml:space="preserve" font-family="Helvetica-Light,Helvetica" font-size="22.0" fill="#FEFFFF" transform="matrix(1.00, 0.00, -0.00, -1.00, 53.7, 873.6)">i</text><text xml:space="preserve" font-family="Helvetica-Light,Helvetica" font-size="22.0" fill="#FEFFFF" transform="matrix(1.00, 0.00, -0.00, -1.00, 58.6, 873.6)">n</text><text xml:space="preserve" font-family="Helvetica-Light,Helvetica" font-size="22.0" fill="#FEFFFF" transform="matrix(1.00, 0.00, -0.00, -1.00, 70.8, 873.6)">h</text><text xml:space="preserve" font-family="Helvetica-Light,Helvetica" font-size="22.0" fill="#FEFFFF" transform="matrix(1.00, 0.00, -0.00, -1.00, 83.0, 873.6)">a</text><text xml:space="preserve" font-family="Helvetica-Light,Helvetica" font-size="22.0" fill="#FEFFFF" transform="matrix(1.00, 0.00, -0.00, -1.00, 95.3, 873.6)">s</text></g></g><image xlink:href="../../46F02FC2-67EC-4D9F-A726-2859EF20AF72/assets/231D3A155BA3F4562B41F4BFD79FF55B.png" width="335.00" height="77.00" transform="matrix(1.00, 0.00, -0.00, -1.01, 3.0, 842.5)" opacity="0.50"></image><path d="M 6.0 841.0 L 335.0 841.0 L 335.0 770.0 L 6.0 770.0 Z M 6.0 841.5 " fill="#000000"></path><g><clipPath id="clip0x600002aa15c0"><path d="M 4.5 770.0 L 336.6 770.0 L 336.6 841.5 L 4.5 841.5 Z M 4.5 770.0 "></path></clipPath><g clip-path="url(#clip0x600002aa15c0)"><text xml:space="preserve" font-family="Helvetica-Light,Helvetica" font-size="22.0" fill="#FEFFFF" transform="matrix(1.00, 0.00, -0.00, -1.00, 28.0, 797.6)">-</text><text xml:space="preserve" font-family="Helvetica-Light,Helvetica" font-size="22.0" fill="#FEFFFF" transform="matrix(1.00, 0.00, -0.00, -1.00, 35.3, 797.6)"> </text><text xml:space="preserve" font-family="Helvetica-Light,Helvetica" font-size="22.0" fill="#FEFFFF" transform="matrix(1.00, 0.00, -0.00, -1.00, 41.4, 797.6)">E</text><text xml:space="preserve" font-family="Helvetica-Light,Helvetica" font-size="22.0" fill="#FEFFFF" transform="matrix(1.00, 0.00, -0.00, -1.00, 54.9, 797.6)">m</text><text xml:space="preserve" font-family="Helvetica-Light,Helvetica" font-size="22.0" fill="#FEFFFF" transform="matrix(1.00, 0.00, -0.00, -1.00, 73.2, 797.6)">p</text><text xml:space="preserve" font-family="Helvetica-Light,Helvetica" font-size="22.0" fill="#FEFFFF" transform="matrix(1.00, 0.00, -0.00, -1.00, 86.7, 797.6)">r</text><text xml:space="preserve" font-family="Helvetica-Light,Helvetica" font-size="22.0" fill="#FEFFFF" transform="matrix(1.00, 0.00, -0.00, -1.00, 93.6, 797.6)">e</text><text xml:space="preserve" font-family="Helvetica-Light,Helvetica" font-size="22.0" fill="#FEFFFF" transform="matrix(1.00, 0.00, -0.00, -1.00, 105.8, 797.6)">s</text><text xml:space="preserve" font-family="Helvetica-Light,Helvetica" font-size="22.0" fill="#FEFFFF" transform="matrix(1.00, 0.00, -0.00, -1.00, 116.8, 797.6)">a</text><text xml:space="preserve" font-family="Helvetica-Light,Helvetica" font-size="22.0" fill="#FEFFFF" transform="matrix(1.00, 0.00, -0.00, -1.00, 129.0, 797.6)">s</text></g></g><image xlink:href="../../46F02FC2-67EC-4D9F-A726-2859EF20AF72/assets/231D3A155BA3F4562B41F4BFD79FF55B.png" width="335.00" height="77.00" transform="matrix(1.00, 0.00, -0.00, -1.01, 3.0, 766.5)" opacity="0.50"></image><path d="M 6.0 765.0 L 335.0 765.0 L 335.0 694.0 L 6.0 694.0 Z M 6.0 765.5 " fill="#000000"></path><g><clipPath id="clip0x600002aa1ce0"><path d="M 4.5 694.0 L 336.6 694.0 L 336.6 765.5 L 4.5 765.5 Z M 4.5 694.0 "></path></clipPath><g clip-path="url(#clip0x600002aa1ce0)"><text xml:space="preserve" font-family="Helvetica-Bold,Helvetica" font-weight="bold" font-size="22.0" fill="#FEFFFF" transform="matrix(1.00, 0.00, -0.00, -1.00, 28.0, 721.6)">R</text><text xml:space="preserve" font-family="Helvetica-Bold,Helvetica" font-weight="bold" font-size="22.0" fill="#FEFFFF" transform="matrix(1.00, 0.00, -0.00, -1.00, 43.9, 721.6)">e</text><text xml:space="preserve" font-family="Helvetica-Bold,Helvetica" font-weight="bold" font-size="22.0" fill="#FEFFFF" transform="matrix(1.00, 0.00, -0.00, -1.00, 56.1, 721.6)">l</text><text xml:space="preserve" font-family="Helvetica-Bold,Helvetica" font-weight="bold" font-size="22.0" fill="#FEFFFF" transform="matrix(1.00, 0.00, -0.00, -1.00, 62.2, 721.6)">a</text><text xml:space="preserve" font-family="Helvetica-Bold,Helvetica" font-weight="bold" font-size="22.0" fill="#FEFFFF" transform="matrix(1.00, 0.00, -0.00, -1.00, 74.5, 721.6)">t</text><text xml:space="preserve" font-family="Helvetica-Bold,Helvetica" font-weight="bold" font-size="22.0" fill="#FEFFFF" transform="matrix(1.00, 0.00, -0.00, -1.00, 81.8, 721.6)">ó</text><text xml:space="preserve" font-family="Helvetica-Bold,Helvetica" font-weight="bold" font-size="22.0" fill="#FEFFFF" transform="matrix(1.00, 0.00, -0.00, -1.00, 95.2, 721.6)">r</text><text xml:space="preserve" font-family="Helvetica-Bold,Helvetica" font-weight="bold" font-size="22.0" fill="#FEFFFF" transform="matrix(1.00, 0.00, -0.00, -1.00, 103.8, 721.6)">i</text><text xml:space="preserve" font-family="Helvetica-Bold,Helvetica" font-weight="bold" font-size="22.0" fill="#FEFFFF" transform="matrix(1.00, 0.00, -0.00, -1.00, 109.9, 721.6)">o</text><text xml:space="preserve" font-family="Helvetica-Bold,Helvetica" font-weight="bold" font-size="22.0" fill="#FEFFFF" transform="matrix(1.00, 0.00, -0.00, -1.00, 123.3, 721.6)">s</text><text xml:space="preserve" font-family="Helvetica-Bold,Helvetica" font-weight="bold" font-size="22.0" fill="#FEFFFF" transform="matrix(1.00, 0.00, -0.00, -1.00, 135.6, 721.6)"> </text><text xml:space="preserve" font-family="Helvetica-Bold,Helvetica" font-weight="bold" font-size="22.0" fill="#FEFFFF" transform="matrix(1.00, 0.00, -0.00, -1.00, 140.9, 721.6)">A</text><text xml:space="preserve" font-family="Helvetica-Bold,Helvetica" font-weight="bold" font-size="22.0" fill="#FEFFFF" transform="matrix(1.00, 0.00, -0.00, -1.00, 156.8, 721.6)">n</text><text xml:space="preserve" font-family="Helvetica-Bold,Helvetica" font-weight="bold" font-size="22.0" fill="#FEFFFF" transform="matrix(1.00, 0.00, -0.00, -1.00, 170.2, 721.6)">t</text><text xml:space="preserve" font-family="Helvetica-Bold,Helvetica" font-weight="bold" font-size="22.0" fill="#FEFFFF" transform="matrix(1.00, 0.00, -0.00, -1.00, 177.5, 721.6)">e</text><text xml:space="preserve" font-family="Helvetica-Bold,Helvetica" font-weight="bold" font-size="22.0" fill="#FEFFFF" transform="matrix(1.00, 0.00, -0.00, -1.00, 189.8, 721.6)">r</text><text xml:space="preserve" font-family="Helvetica-Bold,Helvetica" font-weight="bold" font-size="22.0" fill="#FEFFFF" transform="matrix(1.00, 0.00, -0.00, -1.00, 198.3, 721.6)">i</text><text xml:space="preserve" font-family="Helvetica-Bold,Helvetica" font-weight="bold" font-size="22.0" fill="#FEFFFF" transform="matrix(1.00, 0.00, -0.00, -1.00, 204.5, 721.6)">o</text><text xml:space="preserve" font-family="Helvetica-Bold,Helvetica" font-weight="bold" font-size="22.0" fill="#FEFFFF" transform="matrix(1.00, 0.00, -0.00, -1.00, 217.9, 721.6)">r</text><text xml:space="preserve" font-family="Helvetica-Bold,Helvetica" font-weight="bold" font-size="22.0" fill="#FEFFFF" transform="matrix(1.00, 0.00, -0.00, -1.00, 226.5, 721.6)">e</text><text xml:space="preserve" font-family="Helvetica-Bold,Helvetica" font-weight="bold" font-size="22.0" fill="#FEFFFF" transform="matrix(1.00, 0.00, -0.00, -1.00, 238.7, 721.6)">s</text></g></g><image xlink:href="../../46F02FC2-67EC-4D9F-A726-2859EF20AF72/assets/AB0267B2EFB6DC79D8509D83D0F41323.png" width="335.00" height="77.00" transform="matrix(1.00, 0.00, -0.00, -1.01, 3.0, 996.8)" opacity="0.50"></image><path d="M 6.0 996.0 L 335.0 996.0 L 335.0 924.0 L 6.0 924.0 Z M 6.0 995.8 " fill="#000000"></path><g><clipPath id="clip0x608002ca5640"><path d="M 4.5 924.2 L 336.6 924.2 L 336.6 995.8 L 4.5 995.8 Z M 4.5 924.2 "></path></clipPath><g clip-path="url(#clip0x608002ca5640)"><text xml:space="preserve" font-family="Helvetica-Bold,Helvetica" font-weight="bold" font-size="22.0" fill="#FEFFFF" transform="matrix(1.00, 0.00, -0.00, -1.00, 28.0, 951.8)">R</text><text xml:space="preserve" font-family="Helvetica-Bold,Helvetica" font-weight="bold" font-size="22.0" fill="#FEFFFF" transform="matrix(1.00, 0.00, -0.00, -1.00, 43.9, 951.8)">E</text><text xml:space="preserve" font-family="Helvetica-Bold,Helvetica" font-weight="bold" font-size="22.0" fill="#FEFFFF" transform="matrix(1.00, 0.00, -0.00, -1.00, 58.6, 951.8)">S</text><text xml:space="preserve" font-family="Helvetica-Bold,Helvetica" font-weight="bold" font-size="22.0" fill="#FEFFFF" transform="matrix(1.00, 0.00, -0.00, -1.00, 73.2, 951.8)">U</text><text xml:space="preserve" font-family="Helvetica-Bold,Helvetica" font-weight="bold" font-size="22.0" fill="#FEFFFF" transform="matrix(1.00, 0.00, -0.00, -1.00, 89.1, 951.8)">M</text><text xml:space="preserve" font-family="Helvetica-Bold,Helvetica" font-weight="bold" font-size="22.0" fill="#FEFFFF" transform="matrix(1.00, 0.00, -0.00, -1.00, 107.5, 951.8)">O</text></g></g></g></svg>