<?xml version="1.0" encoding="UTF-8" standalone="no"?><svg xmlns="http://www.w3.org/2000/svg" xmlns:xlink="http://www.w3.org/1999/xlink" clip-rule="evenodd" stroke-miterlimit="10" viewBox="0 0 1920 1080"><desc>SVG generated by Keynote</desc><defs></defs><g transform="matrix(1.00, 0.00, -0.00, -1.00, 0.0, 1080.0)"><path d="M 0.0 1080.0 L 1920.0 1080.0 L 1920.0 0.0 L 0.0 0.0 Z M 0.0 1080.0 " fill="#000000"></path><text xml:space="preserve" font-family="BebasNeueBold,Bebas Neue" font-weight="bold" font-size="97.2" fill="#FEFFFF" transform="matrix(1.00, 0.00, -0.00, -1.00, 224.4, 564.5)">C</text><text xml:space="preserve" font-family="BebasNeueBold,Bebas Neue" font-weight="bold" font-size="97.2" fill="#FEFFFF" transform="matrix(1.00, 0.00, -0.00, -1.00, 262.0, 564.5)">R</text><text xml:space="preserve" font-family="BebasNeueBold,Bebas Neue" font-weight="bold" font-size="97.2" fill="#FEFFFF" transform="matrix(1.00, 0.00, -0.00, -1.00, 301.0, 564.5)">I</text><text xml:space="preserve" font-family="BebasNeueBold,Bebas Neue" font-weight="bold" font-size="97.2" fill="#FEFFFF" transform="matrix(1.00, 0.00, -0.00, -1.00, 319.5, 564.5)">T</text><text xml:space="preserve" font-family="BebasNeueBold,Bebas Neue" font-weight="bold" font-size="97.2" fill="#FEFFFF" transform="matrix(1.00, 0.00, -0.00, -1.00, 354.1, 564.5)">I</text><text xml:space="preserve" font-family="BebasNeueBold,Bebas Neue" font-weight="bold" font-size="97.2" fill="#FEFFFF" transform="matrix(1.00, 0.00, -0.00, -1.00, 372.6, 564.5)">C</text><text xml:space="preserve" font-family="BebasNeueBold,Bebas Neue" font-weight="bold" font-size="97.2" fill="#FEFFFF" transform="matrix(1.00, 0.00, -0.00, -1.00, 410.1, 564.5)">I</text><text xml:space="preserve" font-family="BebasNeueBold,Bebas Neue" font-weight="bold" font-size="97.2" fill="#FEFFFF" transform="matrix(1.00, 0.00, -0.00, -1.00, 428.6, 564.5)">D</text><text xml:space="preserve" font-family="BebasNeueBold,Bebas Neue" font-weight="bold" font-size="97.2" fill="#FEFFFF" transform="matrix(1.00, 0.00, -0.00, -1.00, 468.1, 564.5)">A</text><text xml:space="preserve" font-family="BebasNeueBold,Bebas Neue" font-weight="bold" font-size="97.2" fill="#FEFFFF" transform="matrix(1.00, 0.00, -0.00, -1.00, 507.7, 564.5)">D</text><text xml:space="preserve" font-family="BebasNeueBold,Bebas Neue" font-weight="bold" font-size="97.2" fill="#FEFFFF" transform="matrix(1.00, 0.00, -0.00, -1.00, 547.3, 564.5)">E</text><text xml:space="preserve" font-family="BebasNeueBold,Bebas Neue" font-weight="bold" font-size="97.2" fill="#FEFFFF" transform="matrix(1.00, 0.00, -0.00, -1.00, 583.1, 564.5)"> </text><text xml:space="preserve" font-family="BebasNeueBold,Bebas Neue" font-weight="bold" font-size="97.2" fill="#FEFFFF" transform="matrix(1.00, 0.00, -0.00, -1.00, 598.2, 564.5)">D</text><text xml:space="preserve" font-family="BebasNeueBold,Bebas Neue" font-weight="bold" font-size="97.2" fill="#FEFFFF" transform="matrix(1.00, 0.00, -0.00, -1.00, 637.7, 564.5)">A</text><text xml:space="preserve" font-family="BebasNeueBold,Bebas Neue" font-weight="bold" font-size="97.2" fill="#FEFFFF" transform="matrix(1.00, 0.00, -0.00, -1.00, 677.3, 564.5)"> </text><text xml:space="preserve" font-family="BebasNeueBold,Bebas Neue" font-weight="bold" font-size="97.2" fill="#FEFFFF" transform="matrix(1.00, 0.00, -0.00, -1.00, 692.4, 564.5)">E</text><text xml:space="preserve" font-family="BebasNeueBold,Bebas Neue" font-weight="bold" font-size="97.2" fill="#FEFFFF" transform="matrix(1.00, 0.00, -0.00, -1.00, 728.1, 564.5)">X</text><text xml:space="preserve" font-family="BebasNeueBold,Bebas Neue" font-weight="bold" font-size="97.2" fill="#FEFFFF" transform="matrix(1.00, 0.00, -0.00, -1.00, 769.9, 564.5)">P</text><text xml:space="preserve" font-family="BebasNeueBold,Bebas Neue" font-weight="bold" font-size="97.2" fill="#FEFFFF" transform="matrix(1.00, 0.00, -0.00, -1.00, 807.1, 564.5)">O</text><text xml:space="preserve" font-family="BebasNeueBold,Bebas Neue" font-weight="bold" font-size="97.2" fill="#FEFFFF" transform="matrix(1.00, 0.00, -0.00, -1.00, 845.5, 564.5)">S</text><text xml:space="preserve" font-family="BebasNeueBold,Bebas Neue" font-weight="bold" font-size="97.2" fill="#FEFFFF" transform="matrix(1.00, 0.00, -0.00, -1.00, 881.9, 564.5)">I</text><text xml:space="preserve" font-family="BebasNeueBold,Bebas Neue" font-weight="bold" font-size="97.2" fill="#FEFFFF" transform="matrix(1.00, 0.00, -0.00, -1.00, 900.4, 564.5)">Ç</text><text xml:space="preserve" font-family="BebasNeueBold,Bebas Neue" font-weight="bold" font-size="97.2" fill="#FEFFFF" transform="matrix(1.00, 0.00, -0.00, -1.00, 937.9, 564.5)">Ã</text><text xml:space="preserve" font-family="BebasNeueBold,Bebas Neue" font-weight="bold" font-size="97.2" fill="#FEFFFF" transform="matrix(1.00, 0.00, -0.00, -1.00, 977.4, 564.5)">O</text><text xml:space="preserve" font-family="BebasNeueBold,Bebas Neue" font-weight="bold" font-size="97.2" fill="#FEFFFF" transform="matrix(1.00, 0.00, -0.00, -1.00, 1015.9, 564.5)"> </text><text xml:space="preserve" font-family="BebasNeueBold,Bebas Neue" font-weight="bold" font-size="97.2" fill="#FEFFFF" transform="matrix(1.00, 0.00, -0.00, -1.00, 1031.0, 564.5)">D</text><text xml:space="preserve" font-family="BebasNeueBold,Bebas Neue" font-weight="bold" font-size="97.2" fill="#FEFFFF" transform="matrix(1.00, 0.00, -0.00, -1.00, 1070.7, 564.5)">E</text><text xml:space="preserve" font-family="BebasNeueBold,Bebas Neue" font-weight="bold" font-size="97.2" fill="#FEFFFF" transform="matrix(1.00, 0.00, -0.00, -1.00, 1106.4, 564.5)"> </text><text xml:space="preserve" font-family="BebasNeueBold,Bebas Neue" font-weight="bold" font-size="97.2" fill="#FEFFFF" transform="matrix(1.00, 0.00, -0.00, -1.00, 1121.5, 564.5)">A</text><text xml:space="preserve" font-family="BebasNeueBold,Bebas Neue" font-weight="bold" font-size="97.2" fill="#FEFFFF" transform="matrix(1.00, 0.00, -0.00, -1.00, 1161.1, 564.5)">T</text><text xml:space="preserve" font-family="BebasNeueBold,Bebas Neue" font-weight="bold" font-size="97.2" fill="#FEFFFF" transform="matrix(1.00, 0.00, -0.00, -1.00, 1195.7, 564.5)">I</text><text xml:space="preserve" font-family="BebasNeueBold,Bebas Neue" font-weight="bold" font-size="97.2" fill="#FEFFFF" transform="matrix(1.00, 0.00, -0.00, -1.00, 1214.1, 564.5)">V</text><text xml:space="preserve" font-family="BebasNeueBold,Bebas Neue" font-weight="bold" font-size="97.2" fill="#FEFFFF" transform="matrix(1.00, 0.00, -0.00, -1.00, 1253.1, 564.5)">O</text><text xml:space="preserve" font-family="BebasNeueBold,Bebas Neue" font-weight="bold" font-size="97.2" fill="#FEFFFF" transform="matrix(1.00, 0.00, -0.00, -1.00, 1291.6, 564.5)">S</text><text xml:space="preserve" font-family="BebasNeueBold,Bebas Neue" font-weight="bold" font-size="97.2" fill="#FEFFFF" transform="matrix(1.00, 0.00, -0.00, -1.00, 1328.0, 564.5)"> </text><text xml:space="preserve" font-family="BebasNeueBold,Bebas Neue" font-weight="bold" font-size="97.2" fill="#FEFFFF" transform="matrix(1.00, 0.00, -0.00, -1.00, 1343.0, 564.5)">A</text><text xml:space="preserve" font-family="BebasNeueBold,Bebas Neue" font-weight="bold" font-size="97.2" fill="#FEFFFF" transform="matrix(1.00, 0.00, -0.00, -1.00, 1382.6, 564.5)"> </text><text xml:space="preserve" font-family="BebasNeueBold,Bebas Neue" font-weight="bold" font-size="97.2" fill="#FEFFFF" transform="matrix(1.00, 0.00, -0.00, -1.00, 1397.6, 564.5)">E</text><text xml:space="preserve" font-family="BebasNeueBold,Bebas Neue" font-weight="bold" font-size="97.2" fill="#FEFFFF" transform="matrix(1.00, 0.00, -0.00, -1.00, 1433.4, 564.5)">V</text><text xml:space="preserve" font-family="BebasNeueBold,Bebas Neue" font-weight="bold" font-size="97.2" fill="#FEFFFF" transform="matrix(1.00, 0.00, -0.00, -1.00, 1472.5, 564.5)">E</text><text xml:space="preserve" font-family="BebasNeueBold,Bebas Neue" font-weight="bold" font-size="97.2" fill="#FEFFFF" transform="matrix(1.00, 0.00, -0.00, -1.00, 1508.3, 564.5)">N</text><text xml:space="preserve" font-family="BebasNeueBold,Bebas Neue" font-weight="bold" font-size="97.2" fill="#FEFFFF" transform="matrix(1.00, 0.00, -0.00, -1.00, 1549.8, 564.5)">T</text><text xml:space="preserve" font-family="BebasNeueBold,Bebas Neue" font-weight="bold" font-size="97.2" fill="#FEFFFF" transform="matrix(1.00, 0.00, -0.00, -1.00, 1584.4, 564.5)">U</text><text xml:space="preserve" font-family="BebasNeueBold,Bebas Neue" font-weight="bold" font-size="97.2" fill="#FEFFFF" transform="matrix(1.00, 0.00, -0.00, -1.00, 1623.0, 564.5)">A</text><text xml:space="preserve" font-family="BebasNeueBold,Bebas Neue" font-weight="bold" font-size="97.2" fill="#FEFFFF" transform="matrix(1.00, 0.00, -0.00, -1.00, 1662.6, 564.5)">L</text><text xml:space="preserve" font-family="BebasNeueBold,Bebas Neue" font-weight="bold" font-size="97.2" fill="#FEFFFF" transform="matrix(1.00, 0.00, -0.00, -1.00, 1695.6, 564.5)"> </text><text xml:space="preserve" font-family="BebasNeueBold,Bebas Neue" font-weight="bold" font-size="97.2" fill="#FEFFFF" transform="matrix(1.00, 0.00, -0.00, -1.00, 232.2, 448.5)">R</text><text xml:space="preserve" font-family="BebasNeueBold,Bebas Neue" font-weight="bold" font-size="97.2" fill="#FEFFFF" transform="matrix(1.00, 0.00, -0.00, -1.00, 271.2, 448.5)">E</text><text xml:space="preserve" font-family="BebasNeueBold,Bebas Neue" font-weight="bold" font-size="97.2" fill="#FEFFFF" transform="matrix(1.00, 0.00, -0.00, -1.00, 307.0, 448.5)">D</text><text xml:space="preserve" font-family="BebasNeueBold,Bebas Neue" font-weight="bold" font-size="97.2" fill="#FEFFFF" transform="matrix(1.00, 0.00, -0.00, -1.00, 346.7, 448.5)">U</text><text xml:space="preserve" font-family="BebasNeueBold,Bebas Neue" font-weight="bold" font-size="97.2" fill="#FEFFFF" transform="matrix(1.00, 0.00, -0.00, -1.00, 385.4, 448.5)">Ç</text><text xml:space="preserve" font-family="BebasNeueBold,Bebas Neue" font-weight="bold" font-size="97.2" fill="#FEFFFF" transform="matrix(1.00, 0.00, -0.00, -1.00, 422.9, 448.5)">Ã</text><text xml:space="preserve" font-family="BebasNeueBold,Bebas Neue" font-weight="bold" font-size="97.2" fill="#FEFFFF" transform="matrix(1.00, 0.00, -0.00, -1.00, 462.4, 448.5)">O</text><text xml:space="preserve" font-family="BebasNeueBold,Bebas Neue" font-weight="bold" font-size="97.2" fill="#FEFFFF" transform="matrix(1.00, 0.00, -0.00, -1.00, 500.9, 448.5)"> </text><text xml:space="preserve" font-family="BebasNeueBold,Bebas Neue" font-weight="bold" font-size="97.2" fill="#FEFFFF" transform="matrix(1.00, 0.00, -0.00, -1.00, 516.0, 448.5)">D</text><text xml:space="preserve" font-family="BebasNeueBold,Bebas Neue" font-weight="bold" font-size="97.2" fill="#FEFFFF" transform="matrix(1.00, 0.00, -0.00, -1.00, 555.6, 448.5)">E</text><text xml:space="preserve" font-family="BebasNeueBold,Bebas Neue" font-weight="bold" font-size="97.2" fill="#FEFFFF" transform="matrix(1.00, 0.00, -0.00, -1.00, 591.4, 448.5)"> </text><text xml:space="preserve" font-family="BebasNeueBold,Bebas Neue" font-weight="bold" font-size="97.2" fill="#FEFFFF" transform="matrix(1.00, 0.00, -0.00, -1.00, 606.5, 448.5)">P</text><text xml:space="preserve" font-family="BebasNeueBold,Bebas Neue" font-weight="bold" font-size="97.2" fill="#FEFFFF" transform="matrix(1.00, 0.00, -0.00, -1.00, 643.6, 448.5)">R</text><text xml:space="preserve" font-family="BebasNeueBold,Bebas Neue" font-weight="bold" font-size="97.2" fill="#FEFFFF" transform="matrix(1.00, 0.00, -0.00, -1.00, 682.7, 448.5)">E</text><text xml:space="preserve" font-family="BebasNeueBold,Bebas Neue" font-weight="bold" font-size="97.2" fill="#FEFFFF" transform="matrix(1.00, 0.00, -0.00, -1.00, 718.5, 448.5)">S</text><text xml:space="preserve" font-family="BebasNeueBold,Bebas Neue" font-weight="bold" font-size="97.2" fill="#FEFFFF" transform="matrix(1.00, 0.00, -0.00, -1.00, 754.8, 448.5)">S</text><text xml:space="preserve" font-family="BebasNeueBold,Bebas Neue" font-weight="bold" font-size="97.2" fill="#FEFFFF" transform="matrix(1.00, 0.00, -0.00, -1.00, 791.2, 448.5)">Ã</text><text xml:space="preserve" font-family="BebasNeueBold,Bebas Neue" font-weight="bold" font-size="97.2" fill="#FEFFFF" transform="matrix(1.00, 0.00, -0.00, -1.00, 830.7, 448.5)">O</text><text xml:space="preserve" font-family="BebasNeueBold,Bebas Neue" font-weight="bold" font-size="97.2" fill="#FEFFFF" transform="matrix(1.00, 0.00, -0.00, -1.00, 869.2, 448.5)"> </text><text xml:space="preserve" font-family="BebasNeueBold,Bebas Neue" font-weight="bold" font-size="97.2" fill="#FEFFFF" transform="matrix(1.00, 0.00, -0.00, -1.00, 884.3, 448.5)">N</text><text xml:space="preserve" font-family="BebasNeueBold,Bebas Neue" font-weight="bold" font-size="97.2" fill="#FEFFFF" transform="matrix(1.00, 0.00, -0.00, -1.00, 925.8, 448.5)">O</text><text xml:space="preserve" font-family="BebasNeueBold,Bebas Neue" font-weight="bold" font-size="97.2" fill="#FEFFFF" transform="matrix(1.00, 0.00, -0.00, -1.00, 964.3, 448.5)"> </text><text xml:space="preserve" font-family="BebasNeueBold,Bebas Neue" font-weight="bold" font-size="97.2" fill="#FEFFFF" transform="matrix(1.00, 0.00, -0.00, -1.00, 979.3, 448.5)">F</text><text xml:space="preserve" font-family="BebasNeueBold,Bebas Neue" font-weight="bold" font-size="97.2" fill="#FEFFFF" transform="matrix(1.00, 0.00, -0.00, -1.00, 1012.8, 448.5)">O</text><text xml:space="preserve" font-family="BebasNeueBold,Bebas Neue" font-weight="bold" font-size="97.2" fill="#FEFFFF" transform="matrix(1.00, 0.00, -0.00, -1.00, 1051.3, 448.5)">R</text><text xml:space="preserve" font-family="BebasNeueBold,Bebas Neue" font-weight="bold" font-size="97.2" fill="#FEFFFF" transform="matrix(1.00, 0.00, -0.00, -1.00, 1090.3, 448.5)">N</text><text xml:space="preserve" font-family="BebasNeueBold,Bebas Neue" font-weight="bold" font-size="97.2" fill="#FEFFFF" transform="matrix(1.00, 0.00, -0.00, -1.00, 1131.8, 448.5)">E</text><text xml:space="preserve" font-family="BebasNeueBold,Bebas Neue" font-weight="bold" font-size="97.2" fill="#FEFFFF" transform="matrix(1.00, 0.00, -0.00, -1.00, 1167.6, 448.5)">C</text><text xml:space="preserve" font-family="BebasNeueBold,Bebas Neue" font-weight="bold" font-size="97.2" fill="#FEFFFF" transform="matrix(1.00, 0.00, -0.00, -1.00, 1205.1, 448.5)">I</text><text xml:space="preserve" font-family="BebasNeueBold,Bebas Neue" font-weight="bold" font-size="97.2" fill="#FEFFFF" transform="matrix(1.00, 0.00, -0.00, -1.00, 1223.6, 448.5)">M</text><text xml:space="preserve" font-family="BebasNeueBold,Bebas Neue" font-weight="bold" font-size="97.2" fill="#FEFFFF" transform="matrix(1.00, 0.00, -0.00, -1.00, 1276.2, 448.5)">E</text><text xml:space="preserve" font-family="BebasNeueBold,Bebas Neue" font-weight="bold" font-size="97.2" fill="#FEFFFF" transform="matrix(1.00, 0.00, -0.00, -1.00, 1312.0, 448.5)">N</text><text xml:space="preserve" font-family="BebasNeueBold,Bebas Neue" font-weight="bold" font-size="97.2" fill="#FEFFFF" transform="matrix(1.00, 0.00, -0.00, -1.00, 1353.5, 448.5)">T</text><text xml:space="preserve" font-family="BebasNeueBold,Bebas Neue" font-weight="bold" font-size="97.2" fill="#FEFFFF" transform="matrix(1.00, 0.00, -0.00, -1.00, 1388.1, 448.5)">O</text><text xml:space="preserve" font-family="BebasNeueBold,Bebas Neue" font-weight="bold" font-size="97.2" fill="#FEFFFF" transform="matrix(1.00, 0.00, -0.00, -1.00, 1426.6, 448.5)"> </text><text xml:space="preserve" font-family="BebasNeueBold,Bebas Neue" font-weight="bold" font-size="97.2" fill="#FEFFFF" transform="matrix(1.00, 0.00, -0.00, -1.00, 1441.6, 448.5)">D</text><text xml:space="preserve" font-family="BebasNeueBold,Bebas Neue" font-weight="bold" font-size="97.2" fill="#FEFFFF" transform="matrix(1.00, 0.00, -0.00, -1.00, 1481.3, 448.5)">E</text><text xml:space="preserve" font-family="BebasNeueBold,Bebas Neue" font-weight="bold" font-size="97.2" fill="#FEFFFF" transform="matrix(1.00, 0.00, -0.00, -1.00, 1517.1, 448.5)"> </text><text xml:space="preserve" font-family="BebasNeueBold,Bebas Neue" font-weight="bold" font-size="97.2" fill="#FEFFFF" transform="matrix(1.00, 0.00, -0.00, -1.00, 1532.1, 448.5)">Á</text><text xml:space="preserve" font-family="BebasNeueBold,Bebas Neue" font-weight="bold" font-size="97.2" fill="#FEFFFF" transform="matrix(1.00, 0.00, -0.00, -1.00, 1571.7, 448.5)">G</text><text xml:space="preserve" font-family="BebasNeueBold,Bebas Neue" font-weight="bold" font-size="97.2" fill="#FEFFFF" transform="matrix(1.00, 0.00, -0.00, -1.00, 1609.6, 448.5)">U</text><text xml:space="preserve" font-family="BebasNeueBold,Bebas Neue" font-weight="bold" font-size="97.2" fill="#FEFFFF" transform="matrix(1.00, 0.00, -0.00, -1.00, 1648.3, 448.5)">A</text><image xlink:href="B7DCAFF8C216E8D1B6AEB270EB033B1A.png" width="3004.00" height="2254.00" transform="matrix(0.22, 0.00, -0.00, -0.22, 1262.0, 491.0)"></image><image xlink:href="EF4F1921F8A7E0EA75114FE84B8B8051.png" width="681.00" height="357.00" transform="matrix(0.22, 0.00, -0.00, -0.22, 10.0, 90.0)"></image></g></svg>