<?xml version="1.0" encoding="UTF-8" standalone="no"?><svg xmlns="http://www.w3.org/2000/svg" xmlns:xlink="http://www.w3.org/1999/xlink" clip-rule="evenodd" stroke-miterlimit="10" viewBox="0 0 1920 1080"><desc>SVG generated by Keynote</desc><defs></defs><g transform="matrix(1.00, 0.00, -0.00, -1.00, 0.0, 1080.0)"><path d="M 0.0 1080.0 L 1920.0 1080.0 L 1920.0 0.0 L 0.0 0.0 Z M 0.0 1080.0 " fill="#FEFFFE"></path><image xlink:href="../../46F02FC2-67EC-4D9F-A726-2859EF20AF72/assets/D852046C21386C489959772BE2F1EA2B.png" width="681.00" height="357.00" transform="matrix(0.22, 0.00, -0.00, -0.22, 10.0, 90.0)"></image><text xml:space="preserve" font-family="Helvetica-Bold,Helvetica" font-weight="bold" font-size="70.0" fill="#000000" transform="matrix(1.00, 0.00, -0.00, -1.00, 1151.2, 1006.8)">R</text><text xml:space="preserve" font-family="Helvetica-Bold,Helvetica" font-weight="bold" font-size="70.0" fill="#000000" transform="matrix(1.00, 0.00, -0.00, -1.00, 1201.8, 1006.8)">E</text><text xml:space="preserve" font-family="Helvetica-Bold,Helvetica" font-weight="bold" font-size="70.0" fill="#000000" transform="matrix(1.00, 0.00, -0.00, -1.00, 1248.4, 1006.8)">S</text><text xml:space="preserve" font-family="Helvetica-Bold,Helvetica" font-weight="bold" font-size="70.0" fill="#000000" transform="matrix(1.00, 0.00, -0.00, -1.00, 1295.1, 1006.8)">U</text><text xml:space="preserve" font-family="Helvetica-Bold,Helvetica" font-weight="bold" font-size="70.0" fill="#000000" transform="matrix(1.00, 0.00, -0.00, -1.00, 1345.7, 1006.8)">M</text><text xml:space="preserve" font-family="Helvetica-Bold,Helvetica" font-weight="bold" font-size="70.0" fill="#000000" transform="matrix(1.00, 0.00, -0.00, -1.00, 1404.0, 1006.8)">O</text><text xml:space="preserve" font-family="Helvetica-Bold,Helvetica" font-weight="bold" font-size="70.0" fill="#000000" transform="matrix(1.00, 0.00, -0.00, -1.00, 1458.4, 1006.8)"> </text><text xml:space="preserve" font-family="Helvetica-Bold,Helvetica" font-weight="bold" font-size="70.0" fill="#000000" transform="matrix(1.00, 0.00, -0.00, -1.00, 1477.9, 1006.8)">-</text><text xml:space="preserve" font-family="Helvetica-Bold,Helvetica" font-weight="bold" font-size="70.0" fill="#000000" transform="matrix(1.00, 0.00, -0.00, -1.00, 1501.2, 1006.8)"> </text><text xml:space="preserve" font-family="Helvetica-Bold,Helvetica" font-weight="bold" font-size="70.0" fill="#000000" transform="matrix(1.00, 0.00, -0.00, -1.00, 1520.6, 1006.8)">E</text><text xml:space="preserve" font-family="Helvetica-Bold,Helvetica" font-weight="bold" font-size="70.0" fill="#000000" transform="matrix(1.00, 0.00, -0.00, -1.00, 1567.3, 1006.8)">M</text><text xml:space="preserve" font-family="Helvetica-Bold,Helvetica" font-weight="bold" font-size="70.0" fill="#000000" transform="matrix(1.00, 0.00, -0.00, -1.00, 1625.6, 1006.8)">P</text><text xml:space="preserve" font-family="Helvetica-Bold,Helvetica" font-weight="bold" font-size="70.0" fill="#000000" transform="matrix(1.00, 0.00, -0.00, -1.00, 1672.3, 1006.8)">R</text><text xml:space="preserve" font-family="Helvetica-Bold,Helvetica" font-weight="bold" font-size="70.0" fill="#000000" transform="matrix(1.00, 0.00, -0.00, -1.00, 1722.9, 1006.8)">E</text><text xml:space="preserve" font-family="Helvetica-Bold,Helvetica" font-weight="bold" font-size="70.0" fill="#000000" transform="matrix(1.00, 0.00, -0.00, -1.00, 1769.6, 1006.8)">S</text><text xml:space="preserve" font-family="Helvetica-Bold,Helvetica" font-weight="bold" font-size="70.0" fill="#000000" transform="matrix(1.00, 0.00, -0.00, -1.00, 1816.3, 1006.8)">A</text><text xml:space="preserve" font-family="Helvetica-Bold,Helvetica" font-weight="bold" font-size="70.0" fill="#000000" transform="matrix(1.00, 0.00, -0.00, -1.00, 1866.8, 1006.8)">S</text><image xlink:href="../../46F02FC2-67EC-4D9F-A726-2859EF20AF72/assets/B7DCAFF8C216E8D1B6AEB270EB033B1A.png" width="3004.00" height="2254.00" transform="matrix(0.22, 0.00, -0.00, -0.22, 1262.0, 491.0)"></image><path d="M 0.0 0.4 L 1538.0 0.4 " fill="none" stroke="#000000" stroke-width="2.00" transform="matrix(1.00, 0.00, 0.00, -1.00, 370.0, 990.4)"></path><path d="M 6.0 1074.0 L 335.0 1074.0 L 335.0 1002.0 L 6.0 1002.0 Z M 6.0 1074.0 " fill="#000000"></path><g><clipPath id="clip0x600001cb27e0"><path d="M 4.5 1002.5 L 336.6 1002.5 L 336.6 1074.0 L 4.5 1074.0 Z M 4.5 1002.5 "></path></clipPath><g clip-path="url(#clip0x600001cb27e0)"><text xml:space="preserve" font-family="Helvetica-Bold,Helvetica" font-weight="bold" font-size="22.0" fill="#FEFFFF" transform="matrix(1.00, 0.00, -0.00, -1.00, 28.0, 1030.1)">C</text><text xml:space="preserve" font-family="Helvetica-Bold,Helvetica" font-weight="bold" font-size="22.0" fill="#FEFFFF" transform="matrix(1.00, 0.00, -0.00, -1.00, 43.9, 1030.1)">A</text><text xml:space="preserve" font-family="Helvetica-Bold,Helvetica" font-weight="bold" font-size="22.0" fill="#FEFFFF" transform="matrix(1.00, 0.00, -0.00, -1.00, 59.8, 1030.1)">P</text><text xml:space="preserve" font-family="Helvetica-Bold,Helvetica" font-weight="bold" font-size="22.0" fill="#FEFFFF" transform="matrix(1.00, 0.00, -0.00, -1.00, 72.8, 1030.1)">A</text></g></g><path d="M 6.0 917.0 L 335.0 917.0 L 335.0 846.0 L 6.0 846.0 Z M 6.0 917.5 " fill="#000000"></path><g><clipPath id="clip0x608001ca9d20"><path d="M 4.5 846.0 L 336.6 846.0 L 336.6 917.5 L 4.5 917.5 Z M 4.5 846.0 "></path></clipPath><g clip-path="url(#clip0x608001ca9d20)"><text xml:space="preserve" font-family="Helvetica-Light,Helvetica" font-size="22.0" fill="#FEFFFF" transform="matrix(1.00, 0.00, -0.00, -1.00, 28.0, 873.6)">-</text><text xml:space="preserve" font-family="Helvetica-Light,Helvetica" font-size="22.0" fill="#FEFFFF" transform="matrix(1.00, 0.00, -0.00, -1.00, 35.3, 873.6)"> </text><text xml:space="preserve" font-family="Helvetica-Light,Helvetica" font-size="22.0" fill="#FEFFFF" transform="matrix(1.00, 0.00, -0.00, -1.00, 41.4, 873.6)">L</text><text xml:space="preserve" font-family="Helvetica-Light,Helvetica" font-size="22.0" fill="#FEFFFF" transform="matrix(1.00, 0.00, -0.00, -1.00, 53.7, 873.6)">i</text><text xml:space="preserve" font-family="Helvetica-Light,Helvetica" font-size="22.0" fill="#FEFFFF" transform="matrix(1.00, 0.00, -0.00, -1.00, 58.6, 873.6)">n</text><text xml:space="preserve" font-family="Helvetica-Light,Helvetica" font-size="22.0" fill="#FEFFFF" transform="matrix(1.00, 0.00, -0.00, -1.00, 70.8, 873.6)">h</text><text xml:space="preserve" font-family="Helvetica-Light,Helvetica" font-size="22.0" fill="#FEFFFF" transform="matrix(1.00, 0.00, -0.00, -1.00, 83.0, 873.6)">a</text><text xml:space="preserve" font-family="Helvetica-Light,Helvetica" font-size="22.0" fill="#FEFFFF" transform="matrix(1.00, 0.00, -0.00, -1.00, 95.3, 873.6)">s</text></g></g><path d="M 6.0 841.0 L 335.0 841.0 L 335.0 770.0 L 6.0 770.0 Z M 6.0 841.5 " fill="#FEFFFE"></path><g><clipPath id="clip0x608001caabc0"><path d="M 4.5 770.0 L 336.6 770.0 L 336.6 841.5 L 4.5 841.5 Z M 4.5 770.0 "></path></clipPath><g clip-path="url(#clip0x608001caabc0)"><text xml:space="preserve" font-family="Helvetica-Light,Helvetica" font-size="22.0" fill="#000000" transform="matrix(1.00, 0.00, -0.00, -1.00, 28.0, 797.6)">-</text><text xml:space="preserve" font-family="Helvetica-Light,Helvetica" font-size="22.0" fill="#000000" transform="matrix(1.00, 0.00, -0.00, -1.00, 35.3, 797.6)"> </text><text xml:space="preserve" font-family="Helvetica-Light,Helvetica" font-size="22.0" fill="#000000" transform="matrix(1.00, 0.00, -0.00, -1.00, 41.4, 797.6)">E</text><text xml:space="preserve" font-family="Helvetica-Light,Helvetica" font-size="22.0" fill="#000000" transform="matrix(1.00, 0.00, -0.00, -1.00, 54.9, 797.6)">m</text><text xml:space="preserve" font-family="Helvetica-Light,Helvetica" font-size="22.0" fill="#000000" transform="matrix(1.00, 0.00, -0.00, -1.00, 73.2, 797.6)">p</text><text xml:space="preserve" font-family="Helvetica-Light,Helvetica" font-size="22.0" fill="#000000" transform="matrix(1.00, 0.00, -0.00, -1.00, 86.7, 797.6)">r</text><text xml:space="preserve" font-family="Helvetica-Light,Helvetica" font-size="22.0" fill="#000000" transform="matrix(1.00, 0.00, -0.00, -1.00, 93.6, 797.6)">e</text><text xml:space="preserve" font-family="Helvetica-Light,Helvetica" font-size="22.0" fill="#000000" transform="matrix(1.00, 0.00, -0.00, -1.00, 105.8, 797.6)">s</text><text xml:space="preserve" font-family="Helvetica-Light,Helvetica" font-size="22.0" fill="#000000" transform="matrix(1.00, 0.00, -0.00, -1.00, 116.8, 797.6)">a</text><text xml:space="preserve" font-family="Helvetica-Light,Helvetica" font-size="22.0" fill="#000000" transform="matrix(1.00, 0.00, -0.00, -1.00, 129.0, 797.6)">s</text></g></g><path d="M 6.0 765.0 L 335.0 765.0 L 335.0 694.0 L 6.0 694.0 Z M 6.0 765.5 " fill="#000000"></path><g><clipPath id="clip0x608001cab220"><path d="M 4.5 694.0 L 336.6 694.0 L 336.6 765.5 L 4.5 765.5 Z M 4.5 694.0 "></path></clipPath><g clip-path="url(#clip0x608001cab220)"><text xml:space="preserve" font-family="Helvetica-Bold,Helvetica" font-weight="bold" font-size="22.0" fill="#FEFFFF" transform="matrix(1.00, 0.00, -0.00, -1.00, 28.0, 721.6)">R</text><text xml:space="preserve" font-family="Helvetica-Bold,Helvetica" font-weight="bold" font-size="22.0" fill="#FEFFFF" transform="matrix(1.00, 0.00, -0.00, -1.00, 43.9, 721.6)">e</text><text xml:space="preserve" font-family="Helvetica-Bold,Helvetica" font-weight="bold" font-size="22.0" fill="#FEFFFF" transform="matrix(1.00, 0.00, -0.00, -1.00, 56.1, 721.6)">l</text><text xml:space="preserve" font-family="Helvetica-Bold,Helvetica" font-weight="bold" font-size="22.0" fill="#FEFFFF" transform="matrix(1.00, 0.00, -0.00, -1.00, 62.2, 721.6)">a</text><text xml:space="preserve" font-family="Helvetica-Bold,Helvetica" font-weight="bold" font-size="22.0" fill="#FEFFFF" transform="matrix(1.00, 0.00, -0.00, -1.00, 74.5, 721.6)">t</text><text xml:space="preserve" font-family="Helvetica-Bold,Helvetica" font-weight="bold" font-size="22.0" fill="#FEFFFF" transform="matrix(1.00, 0.00, -0.00, -1.00, 81.8, 721.6)">ó</text><text xml:space="preserve" font-family="Helvetica-Bold,Helvetica" font-weight="bold" font-size="22.0" fill="#FEFFFF" transform="matrix(1.00, 0.00, -0.00, -1.00, 95.2, 721.6)">r</text><text xml:space="preserve" font-family="Helvetica-Bold,Helvetica" font-weight="bold" font-size="22.0" fill="#FEFFFF" transform="matrix(1.00, 0.00, -0.00, -1.00, 103.8, 721.6)">i</text><text xml:space="preserve" font-family="Helvetica-Bold,Helvetica" font-weight="bold" font-size="22.0" fill="#FEFFFF" transform="matrix(1.00, 0.00, -0.00, -1.00, 109.9, 721.6)">o</text><text xml:space="preserve" font-family="Helvetica-Bold,Helvetica" font-weight="bold" font-size="22.0" fill="#FEFFFF" transform="matrix(1.00, 0.00, -0.00, -1.00, 123.3, 721.6)">s</text><text xml:space="preserve" font-family="Helvetica-Bold,Helvetica" font-weight="bold" font-size="22.0" fill="#FEFFFF" transform="matrix(1.00, 0.00, -0.00, -1.00, 135.6, 721.6)"> </text><text xml:space="preserve" font-family="Helvetica-Bold,Helvetica" font-weight="bold" font-size="22.0" fill="#FEFFFF" transform="matrix(1.00, 0.00, -0.00, -1.00, 140.9, 721.6)">A</text><text xml:space="preserve" font-family="Helvetica-Bold,Helvetica" font-weight="bold" font-size="22.0" fill="#FEFFFF" transform="matrix(1.00, 0.00, -0.00, -1.00, 156.8, 721.6)">n</text><text xml:space="preserve" font-family="Helvetica-Bold,Helvetica" font-weight="bold" font-size="22.0" fill="#FEFFFF" transform="matrix(1.00, 0.00, -0.00, -1.00, 170.2, 721.6)">t</text><text xml:space="preserve" font-family="Helvetica-Bold,Helvetica" font-weight="bold" font-size="22.0" fill="#FEFFFF" transform="matrix(1.00, 0.00, -0.00, -1.00, 177.5, 721.6)">e</text><text xml:space="preserve" font-family="Helvetica-Bold,Helvetica" font-weight="bold" font-size="22.0" fill="#FEFFFF" transform="matrix(1.00, 0.00, -0.00, -1.00, 189.8, 721.6)">r</text><text xml:space="preserve" font-family="Helvetica-Bold,Helvetica" font-weight="bold" font-size="22.0" fill="#FEFFFF" transform="matrix(1.00, 0.00, -0.00, -1.00, 198.3, 721.6)">i</text><text xml:space="preserve" font-family="Helvetica-Bold,Helvetica" font-weight="bold" font-size="22.0" fill="#FEFFFF" transform="matrix(1.00, 0.00, -0.00, -1.00, 204.5, 721.6)">o</text><text xml:space="preserve" font-family="Helvetica-Bold,Helvetica" font-weight="bold" font-size="22.0" fill="#FEFFFF" transform="matrix(1.00, 0.00, -0.00, -1.00, 217.9, 721.6)">r</text><text xml:space="preserve" font-family="Helvetica-Bold,Helvetica" font-weight="bold" font-size="22.0" fill="#FEFFFF" transform="matrix(1.00, 0.00, -0.00, -1.00, 226.5, 721.6)">e</text><text xml:space="preserve" font-family="Helvetica-Bold,Helvetica" font-weight="bold" font-size="22.0" fill="#FEFFFF" transform="matrix(1.00, 0.00, -0.00, -1.00, 238.7, 721.6)">s</text></g></g><path d="M 6.0 996.0 L 335.0 996.0 L 335.0 924.0 L 6.0 924.0 Z M 6.0 995.8 " fill="#000000"></path><g><clipPath id="clip0x608001cabca0"><path d="M 4.5 924.2 L 336.6 924.2 L 336.6 995.8 L 4.5 995.8 Z M 4.5 924.2 "></path></clipPath><g clip-path="url(#clip0x608001cabca0)"><text xml:space="preserve" font-family="Helvetica-Bold,Helvetica" font-weight="bold" font-size="22.0" fill="#FEFFFF" transform="matrix(1.00, 0.00, -0.00, -1.00, 28.0, 951.8)">R</text><text xml:space="preserve" font-family="Helvetica-Bold,Helvetica" font-weight="bold" font-size="22.0" fill="#FEFFFF" transform="matrix(1.00, 0.00, -0.00, -1.00, 43.9, 951.8)">E</text><text xml:space="preserve" font-family="Helvetica-Bold,Helvetica" font-weight="bold" font-size="22.0" fill="#FEFFFF" transform="matrix(1.00, 0.00, -0.00, -1.00, 58.6, 951.8)">S</text><text xml:space="preserve" font-family="Helvetica-Bold,Helvetica" font-weight="bold" font-size="22.0" fill="#FEFFFF" transform="matrix(1.00, 0.00, -0.00, -1.00, 73.2, 951.8)">U</text><text xml:space="preserve" font-family="Helvetica-Bold,Helvetica" font-weight="bold" font-size="22.0" fill="#FEFFFF" transform="matrix(1.00, 0.00, -0.00, -1.00, 89.1, 951.8)">M</text><text xml:space="preserve" font-family="Helvetica-Bold,Helvetica" font-weight="bold" font-size="22.0" fill="#FEFFFF" transform="matrix(1.00, 0.00, -0.00, -1.00, 107.5, 951.8)">O</text></g></g><image xlink:href="../../3C2F344C-91A3-40A1-AE2D-D0B409D5B644/assets/7E18007BC2F49EC2693C66CB74B1B8AC.png" width="750.00" height="466.00" transform="matrix(0.88, 0.00, -0.00, -0.88, 408.0, 869.0)"></image><text xml:space="preserve" font-family="Helvetica-Light,Helvetica" font-size="31.0" fill="#000000" transform="matrix(1.00, 0.00, -0.00, -1.00, 435.0, 384.6)">E</text><text xml:space="preserve" font-family="Helvetica-Light,Helvetica" font-size="31.0" fill="#000000" transform="matrix(1.00, 0.00, -0.00, -1.00, 453.9, 384.6)">m</text><text xml:space="preserve" font-family="Helvetica-Light,Helvetica" font-size="31.0" fill="#000000" transform="matrix(1.00, 0.00, -0.00, -1.00, 479.7, 384.6)">p</text><text xml:space="preserve" font-family="Helvetica-Light,Helvetica" font-size="31.0" fill="#000000" transform="matrix(1.00, 0.00, -0.00, -1.00, 498.7, 384.6)">r</text><text xml:space="preserve" font-family="Helvetica-Light,Helvetica" font-size="31.0" fill="#000000" transform="matrix(1.00, 0.00, -0.00, -1.00, 508.4, 384.6)">e</text><text xml:space="preserve" font-family="Helvetica-Light,Helvetica" font-size="31.0" fill="#000000" transform="matrix(1.00, 0.00, -0.00, -1.00, 525.7, 384.6)">s</text><text xml:space="preserve" font-family="Helvetica-Light,Helvetica" font-size="31.0" fill="#000000" transform="matrix(1.00, 0.00, -0.00, -1.00, 541.2, 384.6)">a</text><text xml:space="preserve" font-family="Helvetica-Light,Helvetica" font-size="31.0" fill="#000000" transform="matrix(1.00, 0.00, -0.00, -1.00, 558.4, 384.6)">s</text><text xml:space="preserve" font-family="Helvetica-Light,Helvetica" font-size="31.0" fill="#000000" transform="matrix(1.00, 0.00, -0.00, -1.00, 573.9, 384.6)"> </text><text xml:space="preserve" font-family="Helvetica-Light,Helvetica" font-size="31.0" fill="#000000" transform="matrix(1.00, 0.00, -0.00, -1.00, 582.5, 384.6)">c</text><text xml:space="preserve" font-family="Helvetica-Light,Helvetica" font-size="31.0" fill="#000000" transform="matrix(1.00, 0.00, -0.00, -1.00, 599.8, 384.6)">o</text><text xml:space="preserve" font-family="Helvetica-Light,Helvetica" font-size="31.0" fill="#000000" transform="matrix(1.00, 0.00, -0.00, -1.00, 617.0, 384.6)">m</text><text xml:space="preserve" font-family="Helvetica-Light,Helvetica" font-size="31.0" fill="#000000" transform="matrix(1.00, 0.00, -0.00, -1.00, 642.8, 384.6)"> </text><text xml:space="preserve" font-family="Helvetica-Bold,Helvetica" font-weight="bold" font-size="31.0" fill="#000000" transform="matrix(1.00, 0.00, -0.00, -1.00, 651.4, 384.6)">m</text><text xml:space="preserve" font-family="Helvetica-Bold,Helvetica" font-weight="bold" font-size="31.0" fill="#000000" transform="matrix(1.00, 0.00, -0.00, -1.00, 679.0, 384.6)">e</text><text xml:space="preserve" font-family="Helvetica-Bold,Helvetica" font-weight="bold" font-size="31.0" fill="#000000" transform="matrix(1.00, 0.00, -0.00, -1.00, 696.3, 384.6)">n</text><text xml:space="preserve" font-family="Helvetica-Bold,Helvetica" font-weight="bold" font-size="31.0" fill="#000000" transform="matrix(1.00, 0.00, -0.00, -1.00, 715.2, 384.6)">o</text><text xml:space="preserve" font-family="Helvetica-Bold,Helvetica" font-weight="bold" font-size="31.0" fill="#000000" transform="matrix(1.00, 0.00, -0.00, -1.00, 734.1, 384.6)">r</text><text xml:space="preserve" font-family="Helvetica-Light,Helvetica" font-size="31.0" fill="#000000" transform="matrix(1.00, 0.00, -0.00, -1.00, 746.2, 384.6)"> </text><text xml:space="preserve" font-family="Helvetica-Light,Helvetica" font-size="31.0" fill="#000000" transform="matrix(1.00, 0.00, -0.00, -1.00, 754.8, 384.6)">c</text><text xml:space="preserve" font-family="Helvetica-Light,Helvetica" font-size="31.0" fill="#000000" transform="matrix(1.00, 0.00, -0.00, -1.00, 772.0, 384.6)">o</text><text xml:space="preserve" font-family="Helvetica-Light,Helvetica" font-size="31.0" fill="#000000" transform="matrix(1.00, 0.00, -0.00, -1.00, 789.3, 384.6)">n</text><text xml:space="preserve" font-family="Helvetica-Light,Helvetica" font-size="31.0" fill="#000000" transform="matrix(1.00, 0.00, -0.00, -1.00, 806.5, 384.6)">f</text><text xml:space="preserve" font-family="Helvetica-Light,Helvetica" font-size="31.0" fill="#000000" transform="matrix(1.00, 0.00, -0.00, -1.00, 815.1, 384.6)">o</text><text xml:space="preserve" font-family="Helvetica-Light,Helvetica" font-size="31.0" fill="#000000" transform="matrix(1.00, 0.00, -0.00, -1.00, 832.4, 384.6)">r</text><text xml:space="preserve" font-family="Helvetica-Light,Helvetica" font-size="31.0" fill="#000000" transform="matrix(1.00, 0.00, -0.00, -1.00, 843.2, 384.6)">m</text><text xml:space="preserve" font-family="Helvetica-Light,Helvetica" font-size="31.0" fill="#000000" transform="matrix(1.00, 0.00, -0.00, -1.00, 869.1, 384.6)">i</text><text xml:space="preserve" font-family="Helvetica-Light,Helvetica" font-size="31.0" fill="#000000" transform="matrix(1.00, 0.00, -0.00, -1.00, 875.9, 384.6)">d</text><text xml:space="preserve" font-family="Helvetica-Light,Helvetica" font-size="31.0" fill="#000000" transform="matrix(1.00, 0.00, -0.00, -1.00, 894.9, 384.6)">a</text><text xml:space="preserve" font-family="Helvetica-Light,Helvetica" font-size="31.0" fill="#000000" transform="matrix(1.00, 0.00, -0.00, -1.00, 912.1, 384.6)">d</text><text xml:space="preserve" font-family="Helvetica-Light,Helvetica" font-size="31.0" fill="#000000" transform="matrix(1.00, 0.00, -0.00, -1.00, 931.1, 384.6)">e</text><text xml:space="preserve" font-family="Helvetica-Light,Helvetica" font-size="31.0" fill="#000000" transform="matrix(1.00, 0.00, -0.00, -1.00, 948.3, 384.6)"> </text><text xml:space="preserve" font-family="Helvetica-Light,Helvetica" font-size="31.0" fill="#000000" transform="matrix(1.00, 0.00, -0.00, -1.00, 956.9, 384.6)">m</text><text xml:space="preserve" font-family="Helvetica-Light,Helvetica" font-size="31.0" fill="#000000" transform="matrix(1.00, 0.00, -0.00, -1.00, 982.7, 384.6)">é</text><text xml:space="preserve" font-family="Helvetica-Light,Helvetica" font-size="31.0" fill="#000000" transform="matrix(1.00, 0.00, -0.00, -1.00, 1000.0, 384.6)">d</text><text xml:space="preserve" font-family="Helvetica-Light,Helvetica" font-size="31.0" fill="#000000" transform="matrix(1.00, 0.00, -0.00, -1.00, 1018.9, 384.6)">i</text><text xml:space="preserve" font-family="Helvetica-Light,Helvetica" font-size="31.0" fill="#000000" transform="matrix(1.00, 0.00, -0.00, -1.00, 1025.8, 384.6)">a</text><text xml:space="preserve" font-family="Helvetica-Light,Helvetica" font-size="31.0" fill="#000000" transform="matrix(1.00, 0.00, -0.00, -1.00, 1043.0, 384.6)"> </text><text xml:space="preserve" font-family="Helvetica-Light,Helvetica" font-size="31.0" fill="#000000" transform="matrix(1.00, 0.00, -0.00, -1.00, 440.3, 347.6)">e</text><text xml:space="preserve" font-family="Helvetica-Light,Helvetica" font-size="31.0" fill="#000000" transform="matrix(1.00, 0.00, -0.00, -1.00, 457.5, 347.6)">n</text><text xml:space="preserve" font-family="Helvetica-Light,Helvetica" font-size="31.0" fill="#000000" transform="matrix(1.00, 0.00, -0.00, -1.00, 474.8, 347.6)">t</text><text xml:space="preserve" font-family="Helvetica-Light,Helvetica" font-size="31.0" fill="#000000" transform="matrix(1.00, 0.00, -0.00, -1.00, 483.4, 347.6)">r</text><text xml:space="preserve" font-family="Helvetica-Light,Helvetica" font-size="31.0" fill="#000000" transform="matrix(1.00, 0.00, -0.00, -1.00, 493.2, 347.6)">e</text><text xml:space="preserve" font-family="Helvetica-Light,Helvetica" font-size="31.0" fill="#000000" transform="matrix(1.00, 0.00, -0.00, -1.00, 510.4, 347.6)"> </text><text xml:space="preserve" font-family="Helvetica-Light,Helvetica" font-size="31.0" fill="#000000" transform="matrix(1.00, 0.00, -0.00, -1.00, 519.0, 347.6)">j</text><text xml:space="preserve" font-family="Helvetica-Light,Helvetica" font-size="31.0" fill="#000000" transform="matrix(1.00, 0.00, -0.00, -1.00, 525.9, 347.6)">a</text><text xml:space="preserve" font-family="Helvetica-Light,Helvetica" font-size="31.0" fill="#000000" transform="matrix(1.00, 0.00, -0.00, -1.00, 543.1, 347.6)">n</text><text xml:space="preserve" font-family="Helvetica-Light,Helvetica" font-size="31.0" fill="#000000" transform="matrix(1.00, 0.00, -0.00, -1.00, 560.4, 347.6)">e</text><text xml:space="preserve" font-family="Helvetica-Light,Helvetica" font-size="31.0" fill="#000000" transform="matrix(1.00, 0.00, -0.00, -1.00, 577.6, 347.6)">i</text><text xml:space="preserve" font-family="Helvetica-Light,Helvetica" font-size="31.0" fill="#000000" transform="matrix(1.00, 0.00, -0.00, -1.00, 584.5, 347.6)">r</text><text xml:space="preserve" font-family="Helvetica-Light,Helvetica" font-size="31.0" fill="#000000" transform="matrix(1.00, 0.00, -0.00, -1.00, 594.2, 347.6)">o</text><text xml:space="preserve" font-family="Helvetica-Light,Helvetica" font-size="31.0" fill="#000000" transform="matrix(1.00, 0.00, -0.00, -1.00, 611.5, 347.6)"> </text><text xml:space="preserve" font-family="Helvetica-Light,Helvetica" font-size="31.0" fill="#000000" transform="matrix(1.00, 0.00, -0.00, -1.00, 620.1, 347.6)">e</text><text xml:space="preserve" font-family="Helvetica-Light,Helvetica" font-size="31.0" fill="#000000" transform="matrix(1.00, 0.00, -0.00, -1.00, 637.3, 347.6)"> </text><text xml:space="preserve" font-family="Helvetica-Light,Helvetica" font-size="31.0" fill="#000000" transform="matrix(1.00, 0.00, -0.00, -1.00, 646.0, 347.6)">f</text><text xml:space="preserve" font-family="Helvetica-Light,Helvetica" font-size="31.0" fill="#000000" transform="matrix(1.00, 0.00, -0.00, -1.00, 654.6, 347.6)">e</text><text xml:space="preserve" font-family="Helvetica-Light,Helvetica" font-size="31.0" fill="#000000" transform="matrix(1.00, 0.00, -0.00, -1.00, 671.8, 347.6)">v</text><text xml:space="preserve" font-family="Helvetica-Light,Helvetica" font-size="31.0" fill="#000000" transform="matrix(1.00, 0.00, -0.00, -1.00, 687.3, 347.6)">e</text><text xml:space="preserve" font-family="Helvetica-Light,Helvetica" font-size="31.0" fill="#000000" transform="matrix(1.00, 0.00, -0.00, -1.00, 704.5, 347.6)">r</text><text xml:space="preserve" font-family="Helvetica-Light,Helvetica" font-size="31.0" fill="#000000" transform="matrix(1.00, 0.00, -0.00, -1.00, 714.3, 347.6)">e</text><text xml:space="preserve" font-family="Helvetica-Light,Helvetica" font-size="31.0" fill="#000000" transform="matrix(1.00, 0.00, -0.00, -1.00, 731.5, 347.6)">i</text><text xml:space="preserve" font-family="Helvetica-Light,Helvetica" font-size="31.0" fill="#000000" transform="matrix(1.00, 0.00, -0.00, -1.00, 738.4, 347.6)">r</text><text xml:space="preserve" font-family="Helvetica-Light,Helvetica" font-size="31.0" fill="#000000" transform="matrix(1.00, 0.00, -0.00, -1.00, 748.2, 347.6)">o</text><text xml:space="preserve" font-family="Helvetica-Light,Helvetica" font-size="31.0" fill="#000000" transform="matrix(1.00, 0.00, -0.00, -1.00, 765.4, 347.6)"> </text><text xml:space="preserve" font-family="Helvetica-Light,Helvetica" font-size="31.0" fill="#000000" transform="matrix(1.00, 0.00, -0.00, -1.00, 774.0, 347.6)">d</text><text xml:space="preserve" font-family="Helvetica-Light,Helvetica" font-size="31.0" fill="#000000" transform="matrix(1.00, 0.00, -0.00, -1.00, 793.0, 347.6)">e</text><text xml:space="preserve" font-family="Helvetica-Light,Helvetica" font-size="31.0" fill="#000000" transform="matrix(1.00, 0.00, -0.00, -1.00, 810.2, 347.6)"> </text><text xml:space="preserve" font-family="Helvetica-Light,Helvetica" font-size="31.0" fill="#000000" transform="matrix(1.00, 0.00, -0.00, -1.00, 818.8, 347.6)">2</text><text xml:space="preserve" font-family="Helvetica-Light,Helvetica" font-size="31.0" fill="#000000" transform="matrix(1.00, 0.00, -0.00, -1.00, 836.1, 347.6)">0</text><text xml:space="preserve" font-family="Helvetica-Light,Helvetica" font-size="31.0" fill="#000000" transform="matrix(1.00, 0.00, -0.00, -1.00, 853.3, 347.6)">1</text><text xml:space="preserve" font-family="Helvetica-Light,Helvetica" font-size="31.0" fill="#000000" transform="matrix(1.00, 0.00, -0.00, -1.00, 870.5, 347.6)">5</text><text xml:space="preserve" font-family="Helvetica-Light,Helvetica" font-size="31.0" fill="#000000" transform="matrix(1.00, 0.00, -0.00, -1.00, 887.8, 347.6)">,</text><text xml:space="preserve" font-family="Helvetica-Light,Helvetica" font-size="31.0" fill="#000000" transform="matrix(1.00, 0.00, -0.00, -1.00, 896.4, 347.6)"> </text><text xml:space="preserve" font-family="Helvetica-Light,Helvetica" font-size="31.0" fill="#000000" transform="matrix(1.00, 0.00, -0.00, -1.00, 905.0, 347.6)">d</text><text xml:space="preserve" font-family="Helvetica-Light,Helvetica" font-size="31.0" fill="#000000" transform="matrix(1.00, 0.00, -0.00, -1.00, 924.0, 347.6)">u</text><text xml:space="preserve" font-family="Helvetica-Light,Helvetica" font-size="31.0" fill="#000000" transform="matrix(1.00, 0.00, -0.00, -1.00, 941.2, 347.6)">r</text><text xml:space="preserve" font-family="Helvetica-Light,Helvetica" font-size="31.0" fill="#000000" transform="matrix(1.00, 0.00, -0.00, -1.00, 951.5, 347.6)">a</text><text xml:space="preserve" font-family="Helvetica-Light,Helvetica" font-size="31.0" fill="#000000" transform="matrix(1.00, 0.00, -0.00, -1.00, 968.8, 347.6)">n</text><text xml:space="preserve" font-family="Helvetica-Light,Helvetica" font-size="31.0" fill="#000000" transform="matrix(1.00, 0.00, -0.00, -1.00, 986.0, 347.6)">t</text><text xml:space="preserve" font-family="Helvetica-Light,Helvetica" font-size="31.0" fill="#000000" transform="matrix(1.00, 0.00, -0.00, -1.00, 994.6, 347.6)">e</text><text xml:space="preserve" font-family="Helvetica-Light,Helvetica" font-size="31.0" fill="#000000" transform="matrix(1.00, 0.00, -0.00, -1.00, 1011.8, 347.6)"> </text><text xml:space="preserve" font-family="Helvetica-Light,Helvetica" font-size="31.0" fill="#000000" transform="matrix(1.00, 0.00, -0.00, -1.00, 1020.5, 347.6)">o</text><text xml:space="preserve" font-family="Helvetica-Light,Helvetica" font-size="31.0" fill="#000000" transform="matrix(1.00, 0.00, -0.00, -1.00, 1037.7, 347.6)"> </text><text xml:space="preserve" font-family="Helvetica-Light,Helvetica" font-size="31.0" fill="#000000" transform="matrix(1.00, 0.00, -0.00, -1.00, 713.2, 310.6)">d</text><text xml:space="preserve" font-family="Helvetica-Light,Helvetica" font-size="31.0" fill="#000000" transform="matrix(1.00, 0.00, -0.00, -1.00, 732.1, 310.6)">i</text><text xml:space="preserve" font-family="Helvetica-Light,Helvetica" font-size="31.0" fill="#000000" transform="matrix(1.00, 0.00, -0.00, -1.00, 739.0, 310.6)">a</text><text xml:space="preserve" font-family="Helvetica-Light,Helvetica" font-size="31.0" fill="#000000" transform="matrix(1.00, 0.00, -0.00, -1.00, 756.2, 310.6)">.</text><image xlink:href="../../3C2F344C-91A3-40A1-AE2D-D0B409D5B644/assets/216F02A0513635A6AD02F5F8B6D197E4.png" width="736.00" height="472.00" transform="matrix(0.90, 0.00, -0.00, -0.90, 1159.0, 875.0)"></image><text xml:space="preserve" font-family="Helvetica-Light,Helvetica" font-size="31.0" fill="#000000" transform="matrix(1.00, 0.00, -0.00, -1.00, 1190.6, 384.6)">E</text><text xml:space="preserve" font-family="Helvetica-Light,Helvetica" font-size="31.0" fill="#000000" transform="matrix(1.00, 0.00, -0.00, -1.00, 1209.6, 384.6)">m</text><text xml:space="preserve" font-family="Helvetica-Light,Helvetica" font-size="31.0" fill="#000000" transform="matrix(1.00, 0.00, -0.00, -1.00, 1235.4, 384.6)">p</text><text xml:space="preserve" font-family="Helvetica-Light,Helvetica" font-size="31.0" fill="#000000" transform="matrix(1.00, 0.00, -0.00, -1.00, 1254.3, 384.6)">r</text><text xml:space="preserve" font-family="Helvetica-Light,Helvetica" font-size="31.0" fill="#000000" transform="matrix(1.00, 0.00, -0.00, -1.00, 1264.1, 384.6)">e</text><text xml:space="preserve" font-family="Helvetica-Light,Helvetica" font-size="31.0" fill="#000000" transform="matrix(1.00, 0.00, -0.00, -1.00, 1281.3, 384.6)">s</text><text xml:space="preserve" font-family="Helvetica-Light,Helvetica" font-size="31.0" fill="#000000" transform="matrix(1.00, 0.00, -0.00, -1.00, 1296.8, 384.6)">a</text><text xml:space="preserve" font-family="Helvetica-Light,Helvetica" font-size="31.0" fill="#000000" transform="matrix(1.00, 0.00, -0.00, -1.00, 1314.1, 384.6)">s</text><text xml:space="preserve" font-family="Helvetica-Light,Helvetica" font-size="31.0" fill="#000000" transform="matrix(1.00, 0.00, -0.00, -1.00, 1329.6, 384.6)"> </text><text xml:space="preserve" font-family="Helvetica-Light,Helvetica" font-size="31.0" fill="#000000" transform="matrix(1.00, 0.00, -0.00, -1.00, 1338.2, 384.6)">c</text><text xml:space="preserve" font-family="Helvetica-Light,Helvetica" font-size="31.0" fill="#000000" transform="matrix(1.00, 0.00, -0.00, -1.00, 1355.4, 384.6)">o</text><text xml:space="preserve" font-family="Helvetica-Light,Helvetica" font-size="31.0" fill="#000000" transform="matrix(1.00, 0.00, -0.00, -1.00, 1372.6, 384.6)">m</text><text xml:space="preserve" font-family="Helvetica-Light,Helvetica" font-size="31.0" fill="#000000" transform="matrix(1.00, 0.00, -0.00, -1.00, 1398.5, 384.6)"> </text><text xml:space="preserve" font-family="Helvetica-Bold,Helvetica" font-weight="bold" font-size="31.0" fill="#000000" transform="matrix(1.00, 0.00, -0.00, -1.00, 1407.1, 384.6)">m</text><text xml:space="preserve" font-family="Helvetica-Bold,Helvetica" font-weight="bold" font-size="31.0" fill="#000000" transform="matrix(1.00, 0.00, -0.00, -1.00, 1434.7, 384.6)">a</text><text xml:space="preserve" font-family="Helvetica-Bold,Helvetica" font-weight="bold" font-size="31.0" fill="#000000" transform="matrix(1.00, 0.00, -0.00, -1.00, 1451.9, 384.6)">i</text><text xml:space="preserve" font-family="Helvetica-Bold,Helvetica" font-weight="bold" font-size="31.0" fill="#000000" transform="matrix(1.00, 0.00, -0.00, -1.00, 1460.5, 384.6)">o</text><text xml:space="preserve" font-family="Helvetica-Bold,Helvetica" font-weight="bold" font-size="31.0" fill="#000000" transform="matrix(1.00, 0.00, -0.00, -1.00, 1479.5, 384.6)">r</text><text xml:space="preserve" font-family="Helvetica-Light,Helvetica" font-size="31.0" fill="#000000" transform="matrix(1.00, 0.00, -0.00, -1.00, 1491.5, 384.6)"> </text><text xml:space="preserve" font-family="Helvetica-Light,Helvetica" font-size="31.0" fill="#000000" transform="matrix(1.00, 0.00, -0.00, -1.00, 1500.1, 384.6)">c</text><text xml:space="preserve" font-family="Helvetica-Light,Helvetica" font-size="31.0" fill="#000000" transform="matrix(1.00, 0.00, -0.00, -1.00, 1517.4, 384.6)">o</text><text xml:space="preserve" font-family="Helvetica-Light,Helvetica" font-size="31.0" fill="#000000" transform="matrix(1.00, 0.00, -0.00, -1.00, 1534.6, 384.6)">n</text><text xml:space="preserve" font-family="Helvetica-Light,Helvetica" font-size="31.0" fill="#000000" transform="matrix(1.00, 0.00, -0.00, -1.00, 1551.8, 384.6)">f</text><text xml:space="preserve" font-family="Helvetica-Light,Helvetica" font-size="31.0" fill="#000000" transform="matrix(1.00, 0.00, -0.00, -1.00, 1560.4, 384.6)">o</text><text xml:space="preserve" font-family="Helvetica-Light,Helvetica" font-size="31.0" fill="#000000" transform="matrix(1.00, 0.00, -0.00, -1.00, 1577.7, 384.6)">r</text><text xml:space="preserve" font-family="Helvetica-Light,Helvetica" font-size="31.0" fill="#000000" transform="matrix(1.00, 0.00, -0.00, -1.00, 1588.6, 384.6)">m</text><text xml:space="preserve" font-family="Helvetica-Light,Helvetica" font-size="31.0" fill="#000000" transform="matrix(1.00, 0.00, -0.00, -1.00, 1614.4, 384.6)">i</text><text xml:space="preserve" font-family="Helvetica-Light,Helvetica" font-size="31.0" fill="#000000" transform="matrix(1.00, 0.00, -0.00, -1.00, 1621.3, 384.6)">d</text><text xml:space="preserve" font-family="Helvetica-Light,Helvetica" font-size="31.0" fill="#000000" transform="matrix(1.00, 0.00, -0.00, -1.00, 1640.2, 384.6)">a</text><text xml:space="preserve" font-family="Helvetica-Light,Helvetica" font-size="31.0" fill="#000000" transform="matrix(1.00, 0.00, -0.00, -1.00, 1657.4, 384.6)">d</text><text xml:space="preserve" font-family="Helvetica-Light,Helvetica" font-size="31.0" fill="#000000" transform="matrix(1.00, 0.00, -0.00, -1.00, 1676.4, 384.6)">e</text><text xml:space="preserve" font-family="Helvetica-Light,Helvetica" font-size="31.0" fill="#000000" transform="matrix(1.00, 0.00, -0.00, -1.00, 1693.6, 384.6)"> </text><text xml:space="preserve" font-family="Helvetica-Light,Helvetica" font-size="31.0" fill="#000000" transform="matrix(1.00, 0.00, -0.00, -1.00, 1702.2, 384.6)">m</text><text xml:space="preserve" font-family="Helvetica-Light,Helvetica" font-size="31.0" fill="#000000" transform="matrix(1.00, 0.00, -0.00, -1.00, 1728.1, 384.6)">é</text><text xml:space="preserve" font-family="Helvetica-Light,Helvetica" font-size="31.0" fill="#000000" transform="matrix(1.00, 0.00, -0.00, -1.00, 1745.3, 384.6)">d</text><text xml:space="preserve" font-family="Helvetica-Light,Helvetica" font-size="31.0" fill="#000000" transform="matrix(1.00, 0.00, -0.00, -1.00, 1764.2, 384.6)">i</text><text xml:space="preserve" font-family="Helvetica-Light,Helvetica" font-size="31.0" fill="#000000" transform="matrix(1.00, 0.00, -0.00, -1.00, 1771.1, 384.6)">a</text><text xml:space="preserve" font-family="Helvetica-Light,Helvetica" font-size="31.0" fill="#000000" transform="matrix(1.00, 0.00, -0.00, -1.00, 1788.4, 384.6)"> </text><text xml:space="preserve" font-family="Helvetica-Light,Helvetica" font-size="31.0" fill="#000000" transform="matrix(1.00, 0.00, -0.00, -1.00, 1190.8, 347.6)">e</text><text xml:space="preserve" font-family="Helvetica-Light,Helvetica" font-size="31.0" fill="#000000" transform="matrix(1.00, 0.00, -0.00, -1.00, 1208.0, 347.6)">n</text><text xml:space="preserve" font-family="Helvetica-Light,Helvetica" font-size="31.0" fill="#000000" transform="matrix(1.00, 0.00, -0.00, -1.00, 1225.3, 347.6)">t</text><text xml:space="preserve" font-family="Helvetica-Light,Helvetica" font-size="31.0" fill="#000000" transform="matrix(1.00, 0.00, -0.00, -1.00, 1233.9, 347.6)">r</text><text xml:space="preserve" font-family="Helvetica-Light,Helvetica" font-size="31.0" fill="#000000" transform="matrix(1.00, 0.00, -0.00, -1.00, 1243.6, 347.6)">e</text><text xml:space="preserve" font-family="Helvetica-Light,Helvetica" font-size="31.0" fill="#000000" transform="matrix(1.00, 0.00, -0.00, -1.00, 1260.9, 347.6)"> </text><text xml:space="preserve" font-family="Helvetica-Light,Helvetica" font-size="31.0" fill="#000000" transform="matrix(1.00, 0.00, -0.00, -1.00, 1269.5, 347.6)">j</text><text xml:space="preserve" font-family="Helvetica-Light,Helvetica" font-size="31.0" fill="#000000" transform="matrix(1.00, 0.00, -0.00, -1.00, 1276.4, 347.6)">a</text><text xml:space="preserve" font-family="Helvetica-Light,Helvetica" font-size="31.0" fill="#000000" transform="matrix(1.00, 0.00, -0.00, -1.00, 1293.6, 347.6)">n</text><text xml:space="preserve" font-family="Helvetica-Light,Helvetica" font-size="31.0" fill="#000000" transform="matrix(1.00, 0.00, -0.00, -1.00, 1310.8, 347.6)">e</text><text xml:space="preserve" font-family="Helvetica-Light,Helvetica" font-size="31.0" fill="#000000" transform="matrix(1.00, 0.00, -0.00, -1.00, 1328.1, 347.6)">i</text><text xml:space="preserve" font-family="Helvetica-Light,Helvetica" font-size="31.0" fill="#000000" transform="matrix(1.00, 0.00, -0.00, -1.00, 1335.0, 347.6)">r</text><text xml:space="preserve" font-family="Helvetica-Light,Helvetica" font-size="31.0" fill="#000000" transform="matrix(1.00, 0.00, -0.00, -1.00, 1344.7, 347.6)">o</text><text xml:space="preserve" font-family="Helvetica-Light,Helvetica" font-size="31.0" fill="#000000" transform="matrix(1.00, 0.00, -0.00, -1.00, 1362.0, 347.6)"> </text><text xml:space="preserve" font-family="Helvetica-Light,Helvetica" font-size="31.0" fill="#000000" transform="matrix(1.00, 0.00, -0.00, -1.00, 1370.6, 347.6)">e</text><text xml:space="preserve" font-family="Helvetica-Light,Helvetica" font-size="31.0" fill="#000000" transform="matrix(1.00, 0.00, -0.00, -1.00, 1387.8, 347.6)"> </text><text xml:space="preserve" font-family="Helvetica-Light,Helvetica" font-size="31.0" fill="#000000" transform="matrix(1.00, 0.00, -0.00, -1.00, 1396.4, 347.6)">f</text><text xml:space="preserve" font-family="Helvetica-Light,Helvetica" font-size="31.0" fill="#000000" transform="matrix(1.00, 0.00, -0.00, -1.00, 1405.1, 347.6)">e</text><text xml:space="preserve" font-family="Helvetica-Light,Helvetica" font-size="31.0" fill="#000000" transform="matrix(1.00, 0.00, -0.00, -1.00, 1422.3, 347.6)">v</text><text xml:space="preserve" font-family="Helvetica-Light,Helvetica" font-size="31.0" fill="#000000" transform="matrix(1.00, 0.00, -0.00, -1.00, 1437.8, 347.6)">e</text><text xml:space="preserve" font-family="Helvetica-Light,Helvetica" font-size="31.0" fill="#000000" transform="matrix(1.00, 0.00, -0.00, -1.00, 1455.0, 347.6)">r</text><text xml:space="preserve" font-family="Helvetica-Light,Helvetica" font-size="31.0" fill="#000000" transform="matrix(1.00, 0.00, -0.00, -1.00, 1464.8, 347.6)">e</text><text xml:space="preserve" font-family="Helvetica-Light,Helvetica" font-size="31.0" fill="#000000" transform="matrix(1.00, 0.00, -0.00, -1.00, 1482.0, 347.6)">i</text><text xml:space="preserve" font-family="Helvetica-Light,Helvetica" font-size="31.0" fill="#000000" transform="matrix(1.00, 0.00, -0.00, -1.00, 1488.9, 347.6)">r</text><text xml:space="preserve" font-family="Helvetica-Light,Helvetica" font-size="31.0" fill="#000000" transform="matrix(1.00, 0.00, -0.00, -1.00, 1498.7, 347.6)">o</text><text xml:space="preserve" font-family="Helvetica-Light,Helvetica" font-size="31.0" fill="#000000" transform="matrix(1.00, 0.00, -0.00, -1.00, 1515.9, 347.6)"> </text><text xml:space="preserve" font-family="Helvetica-Light,Helvetica" font-size="31.0" fill="#000000" transform="matrix(1.00, 0.00, -0.00, -1.00, 1524.5, 347.6)">d</text><text xml:space="preserve" font-family="Helvetica-Light,Helvetica" font-size="31.0" fill="#000000" transform="matrix(1.00, 0.00, -0.00, -1.00, 1543.5, 347.6)">e</text><text xml:space="preserve" font-family="Helvetica-Light,Helvetica" font-size="31.0" fill="#000000" transform="matrix(1.00, 0.00, -0.00, -1.00, 1560.7, 347.6)"> </text><text xml:space="preserve" font-family="Helvetica-Light,Helvetica" font-size="31.0" fill="#000000" transform="matrix(1.00, 0.00, -0.00, -1.00, 1569.3, 347.6)">2</text><text xml:space="preserve" font-family="Helvetica-Light,Helvetica" font-size="31.0" fill="#000000" transform="matrix(1.00, 0.00, -0.00, -1.00, 1586.6, 347.6)">0</text><text xml:space="preserve" font-family="Helvetica-Light,Helvetica" font-size="31.0" fill="#000000" transform="matrix(1.00, 0.00, -0.00, -1.00, 1603.8, 347.6)">1</text><text xml:space="preserve" font-family="Helvetica-Light,Helvetica" font-size="31.0" fill="#000000" transform="matrix(1.00, 0.00, -0.00, -1.00, 1621.0, 347.6)">5</text><text xml:space="preserve" font-family="Helvetica-Light,Helvetica" font-size="31.0" fill="#000000" transform="matrix(1.00, 0.00, -0.00, -1.00, 1638.3, 347.6)">,</text><text xml:space="preserve" font-family="Helvetica-Light,Helvetica" font-size="31.0" fill="#000000" transform="matrix(1.00, 0.00, -0.00, -1.00, 1646.9, 347.6)"> </text><text xml:space="preserve" font-family="Helvetica-Light,Helvetica" font-size="31.0" fill="#000000" transform="matrix(1.00, 0.00, -0.00, -1.00, 1655.5, 347.6)">d</text><text xml:space="preserve" font-family="Helvetica-Light,Helvetica" font-size="31.0" fill="#000000" transform="matrix(1.00, 0.00, -0.00, -1.00, 1674.4, 347.6)">u</text><text xml:space="preserve" font-family="Helvetica-Light,Helvetica" font-size="31.0" fill="#000000" transform="matrix(1.00, 0.00, -0.00, -1.00, 1691.7, 347.6)">r</text><text xml:space="preserve" font-family="Helvetica-Light,Helvetica" font-size="31.0" fill="#000000" transform="matrix(1.00, 0.00, -0.00, -1.00, 1702.0, 347.6)">a</text><text xml:space="preserve" font-family="Helvetica-Light,Helvetica" font-size="31.0" fill="#000000" transform="matrix(1.00, 0.00, -0.00, -1.00, 1719.2, 347.6)">n</text><text xml:space="preserve" font-family="Helvetica-Light,Helvetica" font-size="31.0" fill="#000000" transform="matrix(1.00, 0.00, -0.00, -1.00, 1736.5, 347.6)">t</text><text xml:space="preserve" font-family="Helvetica-Light,Helvetica" font-size="31.0" fill="#000000" transform="matrix(1.00, 0.00, -0.00, -1.00, 1745.1, 347.6)">e</text><text xml:space="preserve" font-family="Helvetica-Light,Helvetica" font-size="31.0" fill="#000000" transform="matrix(1.00, 0.00, -0.00, -1.00, 1762.3, 347.6)"> </text><text xml:space="preserve" font-family="Helvetica-Light,Helvetica" font-size="31.0" fill="#000000" transform="matrix(1.00, 0.00, -0.00, -1.00, 1771.0, 347.6)">o</text><text xml:space="preserve" font-family="Helvetica-Light,Helvetica" font-size="31.0" fill="#000000" transform="matrix(1.00, 0.00, -0.00, -1.00, 1788.2, 347.6)"> </text><text xml:space="preserve" font-family="Helvetica-Light,Helvetica" font-size="31.0" fill="#000000" transform="matrix(1.00, 0.00, -0.00, -1.00, 1463.6, 310.6)">d</text><text xml:space="preserve" font-family="Helvetica-Light,Helvetica" font-size="31.0" fill="#000000" transform="matrix(1.00, 0.00, -0.00, -1.00, 1482.6, 310.6)">i</text><text xml:space="preserve" font-family="Helvetica-Light,Helvetica" font-size="31.0" fill="#000000" transform="matrix(1.00, 0.00, -0.00, -1.00, 1489.5, 310.6)">a</text><text xml:space="preserve" font-family="Helvetica-Light,Helvetica" font-size="31.0" fill="#000000" transform="matrix(1.00, 0.00, -0.00, -1.00, 1506.7, 310.6)">.</text></g></svg>