<?xml version="1.0" encoding="UTF-8" standalone="no"?><svg xmlns="http://www.w3.org/2000/svg" xmlns:xlink="http://www.w3.org/1999/xlink" clip-rule="evenodd" stroke-miterlimit="10" viewBox="0 0 1920 1080"><desc>SVG generated by Keynote</desc><defs></defs><g transform="matrix(1.00, 0.00, -0.00, -1.00, 0.0, 1080.0)"><path d="M 0.0 1080.0 L 1920.0 1080.0 L 1920.0 0.0 L 0.0 0.0 Z M 0.0 1080.0 " fill="#000000"></path><image xlink:href="B7DCAFF8C216E8D1B6AEB270EB033B1A.png" width="3004.00" height="2254.00" transform="matrix(0.22, 0.00, -0.00, -0.22, 1262.0, 491.0)"></image><image xlink:href="EF4F1921F8A7E0EA75114FE84B8B8051.png" width="681.00" height="357.00" transform="matrix(0.22, 0.00, -0.00, -0.22, 10.0, 90.0)"></image><text xml:space="preserve" font-family="Helvetica-Bold,Helvetica" font-weight="bold" font-size="33.0" fill="#FEFFFF" transform="matrix(1.00, 0.00, -0.00, -1.00, 46.8, 987.6)">Á</text><text xml:space="preserve" font-family="Helvetica-Bold,Helvetica" font-weight="bold" font-size="33.0" fill="#FEFFFF" transform="matrix(1.00, 0.00, -0.00, -1.00, 70.6, 987.6)">g</text><text xml:space="preserve" font-family="Helvetica-Bold,Helvetica" font-weight="bold" font-size="33.0" fill="#FEFFFF" transform="matrix(1.00, 0.00, -0.00, -1.00, 90.8, 987.6)">u</text><text xml:space="preserve" font-family="Helvetica-Bold,Helvetica" font-weight="bold" font-size="33.0" fill="#FEFFFF" transform="matrix(1.00, 0.00, -0.00, -1.00, 111.0, 987.6)">a</text><text xml:space="preserve" font-family="Helvetica-Light,Helvetica" font-size="24.8" fill="#FEFFFF" transform="matrix(1.00, 0.00, -0.00, -1.00, 46.8, 950.7)">-</text><text xml:space="preserve" font-family="Helvetica-Light,Helvetica" font-size="33.0" fill="#FEFFFF" transform="matrix(1.00, 0.00, -0.00, -1.00, 78.5, 947.6)">C</text><text xml:space="preserve" font-family="Helvetica-Light,Helvetica" font-size="33.0" fill="#FEFFFF" transform="matrix(1.00, 0.00, -0.00, -1.00, 102.4, 947.6)">o</text><text xml:space="preserve" font-family="Helvetica-Light,Helvetica" font-size="33.0" fill="#FEFFFF" transform="matrix(1.00, 0.00, -0.00, -1.00, 120.7, 947.6)">l</text><text xml:space="preserve" font-family="Helvetica-Light,Helvetica" font-size="33.0" fill="#FEFFFF" transform="matrix(1.00, 0.00, -0.00, -1.00, 128.0, 947.6)">e</text><text xml:space="preserve" font-family="Helvetica-Light,Helvetica" font-size="33.0" fill="#FEFFFF" transform="matrix(1.00, 0.00, -0.00, -1.00, 146.4, 947.6)">t</text><text xml:space="preserve" font-family="Helvetica-Light,Helvetica" font-size="33.0" fill="#FEFFFF" transform="matrix(1.00, 0.00, -0.00, -1.00, 155.6, 947.6)">â</text><text xml:space="preserve" font-family="Helvetica-Light,Helvetica" font-size="33.0" fill="#FEFFFF" transform="matrix(1.00, 0.00, -0.00, -1.00, 173.9, 947.6)">n</text><text xml:space="preserve" font-family="Helvetica-Light,Helvetica" font-size="33.0" fill="#FEFFFF" transform="matrix(1.00, 0.00, -0.00, -1.00, 192.2, 947.6)">i</text><text xml:space="preserve" font-family="Helvetica-Light,Helvetica" font-size="33.0" fill="#FEFFFF" transform="matrix(1.00, 0.00, -0.00, -1.00, 199.6, 947.6)">a</text><text xml:space="preserve" font-family="Helvetica-Light,Helvetica" font-size="33.0" fill="#FEFFFF" transform="matrix(1.00, 0.00, -0.00, -1.00, 217.9, 947.6)"> </text><text xml:space="preserve" font-family="Helvetica-Light,Helvetica" font-size="33.0" fill="#FEFFFF" transform="matrix(1.00, 0.00, -0.00, -1.00, 227.1, 947.6)">d</text><text xml:space="preserve" font-family="Helvetica-Light,Helvetica" font-size="33.0" fill="#FEFFFF" transform="matrix(1.00, 0.00, -0.00, -1.00, 247.3, 947.6)">e</text><text xml:space="preserve" font-family="Helvetica-Light,Helvetica" font-size="33.0" fill="#FEFFFF" transform="matrix(1.00, 0.00, -0.00, -1.00, 265.6, 947.6)"> </text><text xml:space="preserve" font-family="Helvetica-Light,Helvetica" font-size="33.0" fill="#FEFFFF" transform="matrix(1.00, 0.00, -0.00, -1.00, 274.8, 947.6)">p</text><text xml:space="preserve" font-family="Helvetica-Light,Helvetica" font-size="33.0" fill="#FEFFFF" transform="matrix(1.00, 0.00, -0.00, -1.00, 294.9, 947.6)">r</text><text xml:space="preserve" font-family="Helvetica-Light,Helvetica" font-size="33.0" fill="#FEFFFF" transform="matrix(1.00, 0.00, -0.00, -1.00, 305.3, 947.6)">o</text><text xml:space="preserve" font-family="Helvetica-Light,Helvetica" font-size="33.0" fill="#FEFFFF" transform="matrix(1.00, 0.00, -0.00, -1.00, 323.7, 947.6)">j</text><text xml:space="preserve" font-family="Helvetica-Light,Helvetica" font-size="33.0" fill="#FEFFFF" transform="matrix(1.00, 0.00, -0.00, -1.00, 331.0, 947.6)">e</text><text xml:space="preserve" font-family="Helvetica-Light,Helvetica" font-size="33.0" fill="#FEFFFF" transform="matrix(1.00, 0.00, -0.00, -1.00, 349.4, 947.6)">t</text><text xml:space="preserve" font-family="Helvetica-Light,Helvetica" font-size="33.0" fill="#FEFFFF" transform="matrix(1.00, 0.00, -0.00, -1.00, 358.5, 947.6)">o</text><text xml:space="preserve" font-family="Helvetica-Light,Helvetica" font-size="33.0" fill="#FEFFFF" transform="matrix(1.00, 0.00, -0.00, -1.00, 376.9, 947.6)">s</text><text xml:space="preserve" font-family="Helvetica-Light,Helvetica" font-size="33.0" fill="#FEFFFF" transform="matrix(1.00, 0.00, -0.00, -1.00, 393.4, 947.6)"> </text><text xml:space="preserve" font-family="Helvetica-Light,Helvetica" font-size="33.0" fill="#FEFFFF" transform="matrix(1.00, 0.00, -0.00, -1.00, 402.6, 947.6)">s</text><text xml:space="preserve" font-family="Helvetica-Light,Helvetica" font-size="33.0" fill="#FEFFFF" transform="matrix(1.00, 0.00, -0.00, -1.00, 419.1, 947.6)">o</text><text xml:space="preserve" font-family="Helvetica-Light,Helvetica" font-size="33.0" fill="#FEFFFF" transform="matrix(1.00, 0.00, -0.00, -1.00, 437.4, 947.6)">b</text><text xml:space="preserve" font-family="Helvetica-Light,Helvetica" font-size="33.0" fill="#FEFFFF" transform="matrix(1.00, 0.00, -0.00, -1.00, 457.6, 947.6)">r</text><text xml:space="preserve" font-family="Helvetica-Light,Helvetica" font-size="33.0" fill="#FEFFFF" transform="matrix(1.00, 0.00, -0.00, -1.00, 468.0, 947.6)">e</text><text xml:space="preserve" font-family="Helvetica-Light,Helvetica" font-size="33.0" fill="#FEFFFF" transform="matrix(1.00, 0.00, -0.00, -1.00, 486.3, 947.6)"> </text><text xml:space="preserve" font-family="Helvetica-Light,Helvetica" font-size="33.0" fill="#FEFFFF" transform="matrix(1.00, 0.00, -0.00, -1.00, 495.5, 947.6)">á</text><text xml:space="preserve" font-family="Helvetica-Light,Helvetica" font-size="33.0" fill="#FEFFFF" transform="matrix(1.00, 0.00, -0.00, -1.00, 513.8, 947.6)">g</text><text xml:space="preserve" font-family="Helvetica-Light,Helvetica" font-size="33.0" fill="#FEFFFF" transform="matrix(1.00, 0.00, -0.00, -1.00, 534.0, 947.6)">u</text><text xml:space="preserve" font-family="Helvetica-Light,Helvetica" font-size="33.0" fill="#FEFFFF" transform="matrix(1.00, 0.00, -0.00, -1.00, 552.3, 947.6)">a</text><text xml:space="preserve" font-family="Helvetica-Light,Helvetica" font-size="33.0" fill="#FEFFFF" transform="matrix(1.00, 0.00, -0.00, -1.00, 570.7, 947.6)"> </text><text xml:space="preserve" font-family="Helvetica-Light,Helvetica" font-size="33.0" fill="#FEFFFF" transform="matrix(1.00, 0.00, -0.00, -1.00, 579.9, 947.6)">e</text><text xml:space="preserve" font-family="Helvetica-Light,Helvetica" font-size="33.0" fill="#FEFFFF" transform="matrix(1.00, 0.00, -0.00, -1.00, 598.2, 947.6)"> </text><text xml:space="preserve" font-family="Helvetica-Light,Helvetica" font-size="33.0" fill="#FEFFFF" transform="matrix(1.00, 0.00, -0.00, -1.00, 607.4, 947.6)">i</text><text xml:space="preserve" font-family="Helvetica-Light,Helvetica" font-size="33.0" fill="#FEFFFF" transform="matrix(1.00, 0.00, -0.00, -1.00, 614.7, 947.6)">d</text><text xml:space="preserve" font-family="Helvetica-Light,Helvetica" font-size="33.0" fill="#FEFFFF" transform="matrix(1.00, 0.00, -0.00, -1.00, 634.9, 947.6)">e</text><text xml:space="preserve" font-family="Helvetica-Light,Helvetica" font-size="33.0" fill="#FEFFFF" transform="matrix(1.00, 0.00, -0.00, -1.00, 653.2, 947.6)">i</text><text xml:space="preserve" font-family="Helvetica-Light,Helvetica" font-size="33.0" fill="#FEFFFF" transform="matrix(1.00, 0.00, -0.00, -1.00, 660.6, 947.6)">a</text><text xml:space="preserve" font-family="Helvetica-Light,Helvetica" font-size="33.0" fill="#FEFFFF" transform="matrix(1.00, 0.00, -0.00, -1.00, 678.9, 947.6)">s</text><text xml:space="preserve" font-family="Helvetica-Light,Helvetica" font-size="33.0" fill="#FEFFFF" transform="matrix(1.00, 0.00, -0.00, -1.00, 695.4, 947.6)"> </text><text xml:space="preserve" font-family="Helvetica-Light,Helvetica" font-size="24.8" fill="#FEFFFF" transform="matrix(1.00, 0.00, -0.00, -1.00, 46.8, 910.7)">-</text><text xml:space="preserve" font-family="Helvetica-Light,Helvetica" font-size="33.0" fill="#FEFFFF" transform="matrix(1.00, 0.00, -0.00, -1.00, 78.5, 907.6)">C</text><text xml:space="preserve" font-family="Helvetica-Light,Helvetica" font-size="33.0" fill="#FEFFFF" transform="matrix(1.00, 0.00, -0.00, -1.00, 102.4, 907.6)">r</text><text xml:space="preserve" font-family="Helvetica-Light,Helvetica" font-size="33.0" fill="#FEFFFF" transform="matrix(1.00, 0.00, -0.00, -1.00, 113.3, 907.6)">i</text><text xml:space="preserve" font-family="Helvetica-Light,Helvetica" font-size="33.0" fill="#FEFFFF" transform="matrix(1.00, 0.00, -0.00, -1.00, 120.7, 907.6)">t</text><text xml:space="preserve" font-family="Helvetica-Light,Helvetica" font-size="33.0" fill="#FEFFFF" transform="matrix(1.00, 0.00, -0.00, -1.00, 129.8, 907.6)">i</text><text xml:space="preserve" font-family="Helvetica-Light,Helvetica" font-size="33.0" fill="#FEFFFF" transform="matrix(1.00, 0.00, -0.00, -1.00, 137.2, 907.6)">c</text><text xml:space="preserve" font-family="Helvetica-Light,Helvetica" font-size="33.0" fill="#FEFFFF" transform="matrix(1.00, 0.00, -0.00, -1.00, 155.5, 907.6)">i</text><text xml:space="preserve" font-family="Helvetica-Light,Helvetica" font-size="33.0" fill="#FEFFFF" transform="matrix(1.00, 0.00, -0.00, -1.00, 162.8, 907.6)">d</text><text xml:space="preserve" font-family="Helvetica-Light,Helvetica" font-size="33.0" fill="#FEFFFF" transform="matrix(1.00, 0.00, -0.00, -1.00, 183.0, 907.6)">a</text><text xml:space="preserve" font-family="Helvetica-Light,Helvetica" font-size="33.0" fill="#FEFFFF" transform="matrix(1.00, 0.00, -0.00, -1.00, 201.4, 907.6)">d</text><text xml:space="preserve" font-family="Helvetica-Light,Helvetica" font-size="33.0" fill="#FEFFFF" transform="matrix(1.00, 0.00, -0.00, -1.00, 221.5, 907.6)">e</text><text xml:space="preserve" font-family="Helvetica-Light,Helvetica" font-size="33.0" fill="#FEFFFF" transform="matrix(1.00, 0.00, -0.00, -1.00, 239.9, 907.6)"> </text><text xml:space="preserve" font-family="Helvetica-Light,Helvetica" font-size="33.0" fill="#FEFFFF" transform="matrix(1.00, 0.00, -0.00, -1.00, 249.0, 907.6)">d</text><text xml:space="preserve" font-family="Helvetica-Light,Helvetica" font-size="33.0" fill="#FEFFFF" transform="matrix(1.00, 0.00, -0.00, -1.00, 269.2, 907.6)">e</text><text xml:space="preserve" font-family="Helvetica-Light,Helvetica" font-size="33.0" fill="#FEFFFF" transform="matrix(1.00, 0.00, -0.00, -1.00, 287.6, 907.6)"> </text><text xml:space="preserve" font-family="Helvetica-Light,Helvetica" font-size="33.0" fill="#FEFFFF" transform="matrix(1.00, 0.00, -0.00, -1.00, 296.7, 907.6)">f</text><text xml:space="preserve" font-family="Helvetica-Light,Helvetica" font-size="33.0" fill="#FEFFFF" transform="matrix(1.00, 0.00, -0.00, -1.00, 305.9, 907.6)">o</text><text xml:space="preserve" font-family="Helvetica-Light,Helvetica" font-size="33.0" fill="#FEFFFF" transform="matrix(1.00, 0.00, -0.00, -1.00, 324.2, 907.6)">r</text><text xml:space="preserve" font-family="Helvetica-Light,Helvetica" font-size="33.0" fill="#FEFFFF" transform="matrix(1.00, 0.00, -0.00, -1.00, 335.8, 907.6)">n</text><text xml:space="preserve" font-family="Helvetica-Light,Helvetica" font-size="33.0" fill="#FEFFFF" transform="matrix(1.00, 0.00, -0.00, -1.00, 354.2, 907.6)">e</text><text xml:space="preserve" font-family="Helvetica-Light,Helvetica" font-size="33.0" fill="#FEFFFF" transform="matrix(1.00, 0.00, -0.00, -1.00, 372.5, 907.6)">c</text><text xml:space="preserve" font-family="Helvetica-Light,Helvetica" font-size="33.0" fill="#FEFFFF" transform="matrix(1.00, 0.00, -0.00, -1.00, 390.9, 907.6)">i</text><text xml:space="preserve" font-family="Helvetica-Light,Helvetica" font-size="33.0" fill="#FEFFFF" transform="matrix(1.00, 0.00, -0.00, -1.00, 398.2, 907.6)">m</text><text xml:space="preserve" font-family="Helvetica-Light,Helvetica" font-size="33.0" fill="#FEFFFF" transform="matrix(1.00, 0.00, -0.00, -1.00, 425.7, 907.6)">e</text><text xml:space="preserve" font-family="Helvetica-Light,Helvetica" font-size="33.0" fill="#FEFFFF" transform="matrix(1.00, 0.00, -0.00, -1.00, 444.0, 907.6)">n</text><text xml:space="preserve" font-family="Helvetica-Light,Helvetica" font-size="33.0" fill="#FEFFFF" transform="matrix(1.00, 0.00, -0.00, -1.00, 462.4, 907.6)">t</text><text xml:space="preserve" font-family="Helvetica-Light,Helvetica" font-size="33.0" fill="#FEFFFF" transform="matrix(1.00, 0.00, -0.00, -1.00, 471.6, 907.6)">o</text><text xml:space="preserve" font-family="Helvetica-Light,Helvetica" font-size="33.0" fill="#FEFFFF" transform="matrix(1.00, 0.00, -0.00, -1.00, 489.9, 907.6)"> </text><text xml:space="preserve" font-family="Helvetica-Light,Helvetica" font-size="33.0" fill="#FEFFFF" transform="matrix(1.00, 0.00, -0.00, -1.00, 499.1, 907.6)">d</text><text xml:space="preserve" font-family="Helvetica-Light,Helvetica" font-size="33.0" fill="#FEFFFF" transform="matrix(1.00, 0.00, -0.00, -1.00, 519.2, 907.6)">e</text><text xml:space="preserve" font-family="Helvetica-Light,Helvetica" font-size="33.0" fill="#FEFFFF" transform="matrix(1.00, 0.00, -0.00, -1.00, 537.6, 907.6)"> </text><text xml:space="preserve" font-family="Helvetica-Light,Helvetica" font-size="33.0" fill="#FEFFFF" transform="matrix(1.00, 0.00, -0.00, -1.00, 546.8, 907.6)">á</text><text xml:space="preserve" font-family="Helvetica-Light,Helvetica" font-size="33.0" fill="#FEFFFF" transform="matrix(1.00, 0.00, -0.00, -1.00, 565.1, 907.6)">g</text><text xml:space="preserve" font-family="Helvetica-Light,Helvetica" font-size="33.0" fill="#FEFFFF" transform="matrix(1.00, 0.00, -0.00, -1.00, 585.3, 907.6)">u</text><text xml:space="preserve" font-family="Helvetica-Light,Helvetica" font-size="33.0" fill="#FEFFFF" transform="matrix(1.00, 0.00, -0.00, -1.00, 603.6, 907.6)">a</text><text xml:space="preserve" font-family="Helvetica-Light,Helvetica" font-size="33.0" fill="#FEFFFF" transform="matrix(1.00, 0.00, -0.00, -1.00, 622.0, 907.6)"> </text><text xml:space="preserve" font-family="Helvetica-Light,Helvetica" font-size="33.0" fill="#FEFFFF" transform="matrix(1.00, 0.00, -0.00, -1.00, 631.1, 907.6)">p</text><text xml:space="preserve" font-family="Helvetica-Light,Helvetica" font-size="33.0" fill="#FEFFFF" transform="matrix(1.00, 0.00, -0.00, -1.00, 651.3, 907.6)">a</text><text xml:space="preserve" font-family="Helvetica-Light,Helvetica" font-size="33.0" fill="#FEFFFF" transform="matrix(1.00, 0.00, -0.00, -1.00, 669.7, 907.6)">r</text><text xml:space="preserve" font-family="Helvetica-Light,Helvetica" font-size="33.0" fill="#FEFFFF" transform="matrix(1.00, 0.00, -0.00, -1.00, 680.6, 907.6)">a</text><text xml:space="preserve" font-family="Helvetica-Light,Helvetica" font-size="33.0" fill="#FEFFFF" transform="matrix(1.00, 0.00, -0.00, -1.00, 699.0, 907.6)"> </text><text xml:space="preserve" font-family="Helvetica-Light,Helvetica" font-size="33.0" fill="#FEFFFF" transform="matrix(1.00, 0.00, -0.00, -1.00, 708.2, 907.6)">a</text><text xml:space="preserve" font-family="Helvetica-Light,Helvetica" font-size="33.0" fill="#FEFFFF" transform="matrix(1.00, 0.00, -0.00, -1.00, 726.5, 907.6)">t</text><text xml:space="preserve" font-family="Helvetica-Light,Helvetica" font-size="33.0" fill="#FEFFFF" transform="matrix(1.00, 0.00, -0.00, -1.00, 735.7, 907.6)">i</text><text xml:space="preserve" font-family="Helvetica-Light,Helvetica" font-size="33.0" fill="#FEFFFF" transform="matrix(1.00, 0.00, -0.00, -1.00, 743.0, 907.6)">v</text><text xml:space="preserve" font-family="Helvetica-Light,Helvetica" font-size="33.0" fill="#FEFFFF" transform="matrix(1.00, 0.00, -0.00, -1.00, 759.5, 907.6)">o</text><text xml:space="preserve" font-family="Helvetica-Light,Helvetica" font-size="33.0" fill="#FEFFFF" transform="matrix(1.00, 0.00, -0.00, -1.00, 777.9, 907.6)">s</text><text xml:space="preserve" font-family="Helvetica-Light,Helvetica" font-size="33.0" fill="#FEFFFF" transform="matrix(1.00, 0.00, -0.00, -1.00, 794.4, 907.6)"> </text><text xml:space="preserve" font-family="Helvetica-Light,Helvetica" font-size="33.0" fill="#FEFFFF" transform="matrix(1.00, 0.00, -0.00, -1.00, 803.5, 907.6)">p</text><text xml:space="preserve" font-family="Helvetica-Light,Helvetica" font-size="33.0" fill="#FEFFFF" transform="matrix(1.00, 0.00, -0.00, -1.00, 823.7, 907.6)">ú</text><text xml:space="preserve" font-family="Helvetica-Light,Helvetica" font-size="33.0" fill="#FEFFFF" transform="matrix(1.00, 0.00, -0.00, -1.00, 842.1, 907.6)">b</text><text xml:space="preserve" font-family="Helvetica-Light,Helvetica" font-size="33.0" fill="#FEFFFF" transform="matrix(1.00, 0.00, -0.00, -1.00, 862.2, 907.6)">l</text><text xml:space="preserve" font-family="Helvetica-Light,Helvetica" font-size="33.0" fill="#FEFFFF" transform="matrix(1.00, 0.00, -0.00, -1.00, 869.5, 907.6)">i</text><text xml:space="preserve" font-family="Helvetica-Light,Helvetica" font-size="33.0" fill="#FEFFFF" transform="matrix(1.00, 0.00, -0.00, -1.00, 876.9, 907.6)">c</text><text xml:space="preserve" font-family="Helvetica-Light,Helvetica" font-size="33.0" fill="#FEFFFF" transform="matrix(1.00, 0.00, -0.00, -1.00, 895.2, 907.6)">o</text><text xml:space="preserve" font-family="Helvetica-Light,Helvetica" font-size="33.0" fill="#FEFFFF" transform="matrix(1.00, 0.00, -0.00, -1.00, 913.6, 907.6)"> </text><text xml:space="preserve" font-family="Helvetica-Light,Helvetica" font-size="24.8" fill="#FEFFFF" transform="matrix(1.00, 0.00, -0.00, -1.00, 46.8, 870.7)">-</text><text xml:space="preserve" font-family="Helvetica-Light,Helvetica" font-size="33.0" fill="#FEFFFF" transform="matrix(1.00, 0.00, -0.00, -1.00, 78.5, 867.6)">C</text><text xml:space="preserve" font-family="Helvetica-Light,Helvetica" font-size="33.0" fill="#FEFFFF" transform="matrix(1.00, 0.00, -0.00, -1.00, 102.4, 867.6)">r</text><text xml:space="preserve" font-family="Helvetica-Light,Helvetica" font-size="33.0" fill="#FEFFFF" transform="matrix(1.00, 0.00, -0.00, -1.00, 113.3, 867.6)">i</text><text xml:space="preserve" font-family="Helvetica-Light,Helvetica" font-size="33.0" fill="#FEFFFF" transform="matrix(1.00, 0.00, -0.00, -1.00, 120.7, 867.6)">t</text><text xml:space="preserve" font-family="Helvetica-Light,Helvetica" font-size="33.0" fill="#FEFFFF" transform="matrix(1.00, 0.00, -0.00, -1.00, 129.8, 867.6)">i</text><text xml:space="preserve" font-family="Helvetica-Light,Helvetica" font-size="33.0" fill="#FEFFFF" transform="matrix(1.00, 0.00, -0.00, -1.00, 137.2, 867.6)">c</text><text xml:space="preserve" font-family="Helvetica-Light,Helvetica" font-size="33.0" fill="#FEFFFF" transform="matrix(1.00, 0.00, -0.00, -1.00, 155.5, 867.6)">i</text><text xml:space="preserve" font-family="Helvetica-Light,Helvetica" font-size="33.0" fill="#FEFFFF" transform="matrix(1.00, 0.00, -0.00, -1.00, 162.8, 867.6)">d</text><text xml:space="preserve" font-family="Helvetica-Light,Helvetica" font-size="33.0" fill="#FEFFFF" transform="matrix(1.00, 0.00, -0.00, -1.00, 183.0, 867.6)">a</text><text xml:space="preserve" font-family="Helvetica-Light,Helvetica" font-size="33.0" fill="#FEFFFF" transform="matrix(1.00, 0.00, -0.00, -1.00, 201.4, 867.6)">d</text><text xml:space="preserve" font-family="Helvetica-Light,Helvetica" font-size="33.0" fill="#FEFFFF" transform="matrix(1.00, 0.00, -0.00, -1.00, 221.5, 867.6)">e</text><text xml:space="preserve" font-family="Helvetica-Light,Helvetica" font-size="33.0" fill="#FEFFFF" transform="matrix(1.00, 0.00, -0.00, -1.00, 239.9, 867.6)"> </text><text xml:space="preserve" font-family="Helvetica-Light,Helvetica" font-size="33.0" fill="#FEFFFF" transform="matrix(1.00, 0.00, -0.00, -1.00, 249.0, 867.6)">d</text><text xml:space="preserve" font-family="Helvetica-Light,Helvetica" font-size="33.0" fill="#FEFFFF" transform="matrix(1.00, 0.00, -0.00, -1.00, 269.2, 867.6)">e</text><text xml:space="preserve" font-family="Helvetica-Light,Helvetica" font-size="33.0" fill="#FEFFFF" transform="matrix(1.00, 0.00, -0.00, -1.00, 287.6, 867.6)"> </text><text xml:space="preserve" font-family="Helvetica-Light,Helvetica" font-size="33.0" fill="#FEFFFF" transform="matrix(1.00, 0.00, -0.00, -1.00, 296.7, 867.6)">f</text><text xml:space="preserve" font-family="Helvetica-Light,Helvetica" font-size="33.0" fill="#FEFFFF" transform="matrix(1.00, 0.00, -0.00, -1.00, 305.9, 867.6)">o</text><text xml:space="preserve" font-family="Helvetica-Light,Helvetica" font-size="33.0" fill="#FEFFFF" transform="matrix(1.00, 0.00, -0.00, -1.00, 324.2, 867.6)">r</text><text xml:space="preserve" font-family="Helvetica-Light,Helvetica" font-size="33.0" fill="#FEFFFF" transform="matrix(1.00, 0.00, -0.00, -1.00, 335.8, 867.6)">n</text><text xml:space="preserve" font-family="Helvetica-Light,Helvetica" font-size="33.0" fill="#FEFFFF" transform="matrix(1.00, 0.00, -0.00, -1.00, 354.2, 867.6)">e</text><text xml:space="preserve" font-family="Helvetica-Light,Helvetica" font-size="33.0" fill="#FEFFFF" transform="matrix(1.00, 0.00, -0.00, -1.00, 372.5, 867.6)">c</text><text xml:space="preserve" font-family="Helvetica-Light,Helvetica" font-size="33.0" fill="#FEFFFF" transform="matrix(1.00, 0.00, -0.00, -1.00, 390.9, 867.6)">i</text><text xml:space="preserve" font-family="Helvetica-Light,Helvetica" font-size="33.0" fill="#FEFFFF" transform="matrix(1.00, 0.00, -0.00, -1.00, 398.2, 867.6)">m</text><text xml:space="preserve" font-family="Helvetica-Light,Helvetica" font-size="33.0" fill="#FEFFFF" transform="matrix(1.00, 0.00, -0.00, -1.00, 425.7, 867.6)">e</text><text xml:space="preserve" font-family="Helvetica-Light,Helvetica" font-size="33.0" fill="#FEFFFF" transform="matrix(1.00, 0.00, -0.00, -1.00, 444.0, 867.6)">n</text><text xml:space="preserve" font-family="Helvetica-Light,Helvetica" font-size="33.0" fill="#FEFFFF" transform="matrix(1.00, 0.00, -0.00, -1.00, 462.4, 867.6)">t</text><text xml:space="preserve" font-family="Helvetica-Light,Helvetica" font-size="33.0" fill="#FEFFFF" transform="matrix(1.00, 0.00, -0.00, -1.00, 471.6, 867.6)">o</text><text xml:space="preserve" font-family="Helvetica-Light,Helvetica" font-size="33.0" fill="#FEFFFF" transform="matrix(1.00, 0.00, -0.00, -1.00, 489.9, 867.6)"> </text><text xml:space="preserve" font-family="Helvetica-Light,Helvetica" font-size="33.0" fill="#FEFFFF" transform="matrix(1.00, 0.00, -0.00, -1.00, 499.1, 867.6)">d</text><text xml:space="preserve" font-family="Helvetica-Light,Helvetica" font-size="33.0" fill="#FEFFFF" transform="matrix(1.00, 0.00, -0.00, -1.00, 519.2, 867.6)">e</text><text xml:space="preserve" font-family="Helvetica-Light,Helvetica" font-size="33.0" fill="#FEFFFF" transform="matrix(1.00, 0.00, -0.00, -1.00, 537.6, 867.6)"> </text><text xml:space="preserve" font-family="Helvetica-Light,Helvetica" font-size="33.0" fill="#FEFFFF" transform="matrix(1.00, 0.00, -0.00, -1.00, 546.8, 867.6)">á</text><text xml:space="preserve" font-family="Helvetica-Light,Helvetica" font-size="33.0" fill="#FEFFFF" transform="matrix(1.00, 0.00, -0.00, -1.00, 565.1, 867.6)">g</text><text xml:space="preserve" font-family="Helvetica-Light,Helvetica" font-size="33.0" fill="#FEFFFF" transform="matrix(1.00, 0.00, -0.00, -1.00, 585.3, 867.6)">u</text><text xml:space="preserve" font-family="Helvetica-Light,Helvetica" font-size="33.0" fill="#FEFFFF" transform="matrix(1.00, 0.00, -0.00, -1.00, 603.6, 867.6)">a</text><text xml:space="preserve" font-family="Helvetica-Light,Helvetica" font-size="33.0" fill="#FEFFFF" transform="matrix(1.00, 0.00, -0.00, -1.00, 622.0, 867.6)"> </text><text xml:space="preserve" font-family="Helvetica-Light,Helvetica" font-size="33.0" fill="#FEFFFF" transform="matrix(1.00, 0.00, -0.00, -1.00, 631.1, 867.6)">p</text><text xml:space="preserve" font-family="Helvetica-Light,Helvetica" font-size="33.0" fill="#FEFFFF" transform="matrix(1.00, 0.00, -0.00, -1.00, 651.3, 867.6)">a</text><text xml:space="preserve" font-family="Helvetica-Light,Helvetica" font-size="33.0" fill="#FEFFFF" transform="matrix(1.00, 0.00, -0.00, -1.00, 669.7, 867.6)">r</text><text xml:space="preserve" font-family="Helvetica-Light,Helvetica" font-size="33.0" fill="#FEFFFF" transform="matrix(1.00, 0.00, -0.00, -1.00, 680.6, 867.6)">a</text><text xml:space="preserve" font-family="Helvetica-Light,Helvetica" font-size="33.0" fill="#FEFFFF" transform="matrix(1.00, 0.00, -0.00, -1.00, 699.0, 867.6)"> </text><text xml:space="preserve" font-family="Helvetica-Light,Helvetica" font-size="33.0" fill="#FEFFFF" transform="matrix(1.00, 0.00, -0.00, -1.00, 708.2, 867.6)">a</text><text xml:space="preserve" font-family="Helvetica-Light,Helvetica" font-size="33.0" fill="#FEFFFF" transform="matrix(1.00, 0.00, -0.00, -1.00, 726.5, 867.6)"> </text><text xml:space="preserve" font-family="Helvetica-Light,Helvetica" font-size="33.0" fill="#FEFFFF" transform="matrix(1.00, 0.00, -0.00, -1.00, 735.7, 867.6)">p</text><text xml:space="preserve" font-family="Helvetica-Light,Helvetica" font-size="33.0" fill="#FEFFFF" transform="matrix(1.00, 0.00, -0.00, -1.00, 755.9, 867.6)">o</text><text xml:space="preserve" font-family="Helvetica-Light,Helvetica" font-size="33.0" fill="#FEFFFF" transform="matrix(1.00, 0.00, -0.00, -1.00, 774.2, 867.6)">p</text><text xml:space="preserve" font-family="Helvetica-Light,Helvetica" font-size="33.0" fill="#FEFFFF" transform="matrix(1.00, 0.00, -0.00, -1.00, 794.4, 867.6)">u</text><text xml:space="preserve" font-family="Helvetica-Light,Helvetica" font-size="33.0" fill="#FEFFFF" transform="matrix(1.00, 0.00, -0.00, -1.00, 812.7, 867.6)">l</text><text xml:space="preserve" font-family="Helvetica-Light,Helvetica" font-size="33.0" fill="#FEFFFF" transform="matrix(1.00, 0.00, -0.00, -1.00, 820.0, 867.6)">a</text><text xml:space="preserve" font-family="Helvetica-Light,Helvetica" font-size="33.0" fill="#FEFFFF" transform="matrix(1.00, 0.00, -0.00, -1.00, 838.4, 867.6)">ç</text><text xml:space="preserve" font-family="Helvetica-Light,Helvetica" font-size="33.0" fill="#FEFFFF" transform="matrix(1.00, 0.00, -0.00, -1.00, 856.7, 867.6)">ã</text><text xml:space="preserve" font-family="Helvetica-Light,Helvetica" font-size="33.0" fill="#FEFFFF" transform="matrix(1.00, 0.00, -0.00, -1.00, 875.1, 867.6)">o</text><text xml:space="preserve" font-family="Helvetica-Light,Helvetica" font-size="33.0" fill="#FEFFFF" transform="matrix(1.00, 0.00, -0.00, -1.00, 893.4, 867.6)"> </text><text xml:space="preserve" font-family="Helvetica-Bold,Helvetica" font-weight="bold" font-size="33.0" fill="#FEFFFF" transform="matrix(1.00, 0.00, -0.00, -1.00, 46.8, 747.6)">M</text><text xml:space="preserve" font-family="Helvetica-Bold,Helvetica" font-weight="bold" font-size="33.0" fill="#FEFFFF" transform="matrix(1.00, 0.00, -0.00, -1.00, 74.3, 747.6)">o</text><text xml:space="preserve" font-family="Helvetica-Bold,Helvetica" font-weight="bold" font-size="33.0" fill="#FEFFFF" transform="matrix(1.00, 0.00, -0.00, -1.00, 94.4, 747.6)">b</text><text xml:space="preserve" font-family="Helvetica-Bold,Helvetica" font-weight="bold" font-size="33.0" fill="#FEFFFF" transform="matrix(1.00, 0.00, -0.00, -1.00, 114.6, 747.6)">i</text><text xml:space="preserve" font-family="Helvetica-Bold,Helvetica" font-weight="bold" font-size="33.0" fill="#FEFFFF" transform="matrix(1.00, 0.00, -0.00, -1.00, 123.8, 747.6)">l</text><text xml:space="preserve" font-family="Helvetica-Bold,Helvetica" font-weight="bold" font-size="33.0" fill="#FEFFFF" transform="matrix(1.00, 0.00, -0.00, -1.00, 132.9, 747.6)">i</text><text xml:space="preserve" font-family="Helvetica-Bold,Helvetica" font-weight="bold" font-size="33.0" fill="#FEFFFF" transform="matrix(1.00, 0.00, -0.00, -1.00, 142.1, 747.6)">d</text><text xml:space="preserve" font-family="Helvetica-Bold,Helvetica" font-weight="bold" font-size="33.0" fill="#FEFFFF" transform="matrix(1.00, 0.00, -0.00, -1.00, 162.2, 747.6)">a</text><text xml:space="preserve" font-family="Helvetica-Bold,Helvetica" font-weight="bold" font-size="33.0" fill="#FEFFFF" transform="matrix(1.00, 0.00, -0.00, -1.00, 180.6, 747.6)">d</text><text xml:space="preserve" font-family="Helvetica-Bold,Helvetica" font-weight="bold" font-size="33.0" fill="#FEFFFF" transform="matrix(1.00, 0.00, -0.00, -1.00, 200.7, 747.6)">e</text><text xml:space="preserve" font-family="Helvetica-Light,Helvetica" font-size="33.0" fill="#FEFFFF" transform="matrix(1.00, 0.00, -0.00, -1.00, 219.1, 747.6)"> </text><text xml:space="preserve" font-family="Helvetica-Light,Helvetica" font-size="24.8" fill="#FEFFFF" transform="matrix(1.00, 0.00, -0.00, -1.00, 46.8, 710.7)">-</text><text xml:space="preserve" font-family="Helvetica-Light,Helvetica" font-size="33.0" fill="#FEFFFF" transform="matrix(1.00, 0.00, -0.00, -1.00, 78.5, 707.6)">R</text><text xml:space="preserve" font-family="Helvetica-Light,Helvetica" font-size="33.0" fill="#FEFFFF" transform="matrix(1.00, 0.00, -0.00, -1.00, 100.5, 707.6)">e</text><text xml:space="preserve" font-family="Helvetica-Light,Helvetica" font-size="33.0" fill="#FEFFFF" transform="matrix(1.00, 0.00, -0.00, -1.00, 118.9, 707.6)">l</text><text xml:space="preserve" font-family="Helvetica-Light,Helvetica" font-size="33.0" fill="#FEFFFF" transform="matrix(1.00, 0.00, -0.00, -1.00, 126.2, 707.6)">a</text><text xml:space="preserve" font-family="Helvetica-Light,Helvetica" font-size="33.0" fill="#FEFFFF" transform="matrix(1.00, 0.00, -0.00, -1.00, 144.6, 707.6)">t</text><text xml:space="preserve" font-family="Helvetica-Light,Helvetica" font-size="33.0" fill="#FEFFFF" transform="matrix(1.00, 0.00, -0.00, -1.00, 153.7, 707.6)">ó</text><text xml:space="preserve" font-family="Helvetica-Light,Helvetica" font-size="33.0" fill="#FEFFFF" transform="matrix(1.00, 0.00, -0.00, -1.00, 172.1, 707.6)">r</text><text xml:space="preserve" font-family="Helvetica-Light,Helvetica" font-size="33.0" fill="#FEFFFF" transform="matrix(1.00, 0.00, -0.00, -1.00, 183.1, 707.6)">i</text><text xml:space="preserve" font-family="Helvetica-Light,Helvetica" font-size="33.0" fill="#FEFFFF" transform="matrix(1.00, 0.00, -0.00, -1.00, 190.4, 707.6)">o</text><text xml:space="preserve" font-family="Helvetica-Light,Helvetica" font-size="33.0" fill="#FEFFFF" transform="matrix(1.00, 0.00, -0.00, -1.00, 208.7, 707.6)"> </text><text xml:space="preserve" font-family="Helvetica-Light,Helvetica" font-size="33.0" fill="#FEFFFF" transform="matrix(1.00, 0.00, -0.00, -1.00, 217.9, 707.6)">d</text><text xml:space="preserve" font-family="Helvetica-Light,Helvetica" font-size="33.0" fill="#FEFFFF" transform="matrix(1.00, 0.00, -0.00, -1.00, 238.1, 707.6)">e</text><text xml:space="preserve" font-family="Helvetica-Light,Helvetica" font-size="33.0" fill="#FEFFFF" transform="matrix(1.00, 0.00, -0.00, -1.00, 256.4, 707.6)"> </text><text xml:space="preserve" font-family="Helvetica-Light,Helvetica" font-size="33.0" fill="#FEFFFF" transform="matrix(1.00, 0.00, -0.00, -1.00, 265.6, 707.6)">ﬁ</text><text xml:space="preserve" font-family="Helvetica-Light,Helvetica" font-size="33.0" fill="#FEFFFF" transform="matrix(1.00, 0.00, -0.00, -1.00, 282.1, 707.6)">s</text><text xml:space="preserve" font-family="Helvetica-Light,Helvetica" font-size="33.0" fill="#FEFFFF" transform="matrix(1.00, 0.00, -0.00, -1.00, 298.6, 707.6)">c</text><text xml:space="preserve" font-family="Helvetica-Light,Helvetica" font-size="33.0" fill="#FEFFFF" transform="matrix(1.00, 0.00, -0.00, -1.00, 317.0, 707.6)">a</text><text xml:space="preserve" font-family="Helvetica-Light,Helvetica" font-size="33.0" fill="#FEFFFF" transform="matrix(1.00, 0.00, -0.00, -1.00, 335.3, 707.6)">l</text><text xml:space="preserve" font-family="Helvetica-Light,Helvetica" font-size="33.0" fill="#FEFFFF" transform="matrix(1.00, 0.00, -0.00, -1.00, 342.6, 707.6)">i</text><text xml:space="preserve" font-family="Helvetica-Light,Helvetica" font-size="33.0" fill="#FEFFFF" transform="matrix(1.00, 0.00, -0.00, -1.00, 350.0, 707.6)">z</text><text xml:space="preserve" font-family="Helvetica-Light,Helvetica" font-size="33.0" fill="#FEFFFF" transform="matrix(1.00, 0.00, -0.00, -1.00, 366.5, 707.6)">a</text><text xml:space="preserve" font-family="Helvetica-Light,Helvetica" font-size="33.0" fill="#FEFFFF" transform="matrix(1.00, 0.00, -0.00, -1.00, 384.8, 707.6)">ç</text><text xml:space="preserve" font-family="Helvetica-Light,Helvetica" font-size="33.0" fill="#FEFFFF" transform="matrix(1.00, 0.00, -0.00, -1.00, 403.2, 707.6)">ã</text><text xml:space="preserve" font-family="Helvetica-Light,Helvetica" font-size="33.0" fill="#FEFFFF" transform="matrix(1.00, 0.00, -0.00, -1.00, 421.5, 707.6)">o</text><text xml:space="preserve" font-family="Helvetica-Light,Helvetica" font-size="33.0" fill="#FEFFFF" transform="matrix(1.00, 0.00, -0.00, -1.00, 439.8, 707.6)"> </text><text xml:space="preserve" font-family="Helvetica-Light,Helvetica" font-size="33.0" fill="#FEFFFF" transform="matrix(1.00, 0.00, -0.00, -1.00, 449.0, 707.6)">e</text><text xml:space="preserve" font-family="Helvetica-Light,Helvetica" font-size="33.0" fill="#FEFFFF" transform="matrix(1.00, 0.00, -0.00, -1.00, 467.4, 707.6)">l</text><text xml:space="preserve" font-family="Helvetica-Light,Helvetica" font-size="33.0" fill="#FEFFFF" transform="matrix(1.00, 0.00, -0.00, -1.00, 474.7, 707.6)">e</text><text xml:space="preserve" font-family="Helvetica-Light,Helvetica" font-size="33.0" fill="#FEFFFF" transform="matrix(1.00, 0.00, -0.00, -1.00, 493.0, 707.6)">t</text><text xml:space="preserve" font-family="Helvetica-Light,Helvetica" font-size="33.0" fill="#FEFFFF" transform="matrix(1.00, 0.00, -0.00, -1.00, 502.2, 707.6)">r</text><text xml:space="preserve" font-family="Helvetica-Light,Helvetica" font-size="33.0" fill="#FEFFFF" transform="matrix(1.00, 0.00, -0.00, -1.00, 512.6, 707.6)">ô</text><text xml:space="preserve" font-family="Helvetica-Light,Helvetica" font-size="33.0" fill="#FEFFFF" transform="matrix(1.00, 0.00, -0.00, -1.00, 531.0, 707.6)">n</text><text xml:space="preserve" font-family="Helvetica-Light,Helvetica" font-size="33.0" fill="#FEFFFF" transform="matrix(1.00, 0.00, -0.00, -1.00, 549.3, 707.6)">i</text><text xml:space="preserve" font-family="Helvetica-Light,Helvetica" font-size="33.0" fill="#FEFFFF" transform="matrix(1.00, 0.00, -0.00, -1.00, 556.6, 707.6)">c</text><text xml:space="preserve" font-family="Helvetica-Light,Helvetica" font-size="33.0" fill="#FEFFFF" transform="matrix(1.00, 0.00, -0.00, -1.00, 575.0, 707.6)">a</text><text xml:space="preserve" font-family="Helvetica-Light,Helvetica" font-size="33.0" fill="#FEFFFF" transform="matrix(1.00, 0.00, -0.00, -1.00, 593.3, 707.6)"> </text><text xml:space="preserve" font-family="Helvetica-Light,Helvetica" font-size="33.0" fill="#FEFFFF" transform="matrix(1.00, 0.00, -0.00, -1.00, 602.5, 707.6)">d</text><text xml:space="preserve" font-family="Helvetica-Light,Helvetica" font-size="33.0" fill="#FEFFFF" transform="matrix(1.00, 0.00, -0.00, -1.00, 622.7, 707.6)">e</text><text xml:space="preserve" font-family="Helvetica-Light,Helvetica" font-size="33.0" fill="#FEFFFF" transform="matrix(1.00, 0.00, -0.00, -1.00, 641.0, 707.6)"> </text><text xml:space="preserve" font-family="Helvetica-Light,Helvetica" font-size="33.0" fill="#FEFFFF" transform="matrix(1.00, 0.00, -0.00, -1.00, 650.2, 707.6)">ô</text><text xml:space="preserve" font-family="Helvetica-Light,Helvetica" font-size="33.0" fill="#FEFFFF" transform="matrix(1.00, 0.00, -0.00, -1.00, 668.5, 707.6)">n</text><text xml:space="preserve" font-family="Helvetica-Light,Helvetica" font-size="33.0" fill="#FEFFFF" transform="matrix(1.00, 0.00, -0.00, -1.00, 686.9, 707.6)">i</text><text xml:space="preserve" font-family="Helvetica-Light,Helvetica" font-size="33.0" fill="#FEFFFF" transform="matrix(1.00, 0.00, -0.00, -1.00, 694.2, 707.6)">b</text><text xml:space="preserve" font-family="Helvetica-Light,Helvetica" font-size="33.0" fill="#FEFFFF" transform="matrix(1.00, 0.00, -0.00, -1.00, 714.4, 707.6)">u</text><text xml:space="preserve" font-family="Helvetica-Light,Helvetica" font-size="33.0" fill="#FEFFFF" transform="matrix(1.00, 0.00, -0.00, -1.00, 732.7, 707.6)">s</text><text xml:space="preserve" font-family="Helvetica-Light,Helvetica" font-size="33.0" fill="#FEFFFF" transform="matrix(1.00, 0.00, -0.00, -1.00, 749.2, 707.6)"> </text><text xml:space="preserve" font-family="Helvetica-Light,Helvetica" font-size="33.0" fill="#FEFFFF" transform="matrix(1.00, 0.00, -0.00, -1.00, 758.4, 707.6)">(</text><text xml:space="preserve" font-family="Helvetica-Light,Helvetica" font-size="33.0" fill="#FEFFFF" transform="matrix(1.00, 0.00, -0.00, -1.00, 769.4, 707.6)">f</text><text xml:space="preserve" font-family="Helvetica-Light,Helvetica" font-size="33.0" fill="#FEFFFF" transform="matrix(1.00, 0.00, -0.00, -1.00, 778.6, 707.6)">e</text><text xml:space="preserve" font-family="Helvetica-Light,Helvetica" font-size="33.0" fill="#FEFFFF" transform="matrix(1.00, 0.00, -0.00, -1.00, 796.9, 707.6)">v</text><text xml:space="preserve" font-family="Helvetica-Light,Helvetica" font-size="33.0" fill="#FEFFFF" transform="matrix(1.00, 0.00, -0.00, -1.00, 813.4, 707.6)">/</text><text xml:space="preserve" font-family="Helvetica-Light,Helvetica" font-size="33.0" fill="#FEFFFF" transform="matrix(1.00, 0.00, -0.00, -1.00, 822.6, 707.6)">2</text><text xml:space="preserve" font-family="Helvetica-Light,Helvetica" font-size="33.0" fill="#FEFFFF" transform="matrix(1.00, 0.00, -0.00, -1.00, 840.9, 707.6)">0</text><text xml:space="preserve" font-family="Helvetica-Light,Helvetica" font-size="33.0" fill="#FEFFFF" transform="matrix(1.00, 0.00, -0.00, -1.00, 859.3, 707.6)">1</text><text xml:space="preserve" font-family="Helvetica-Light,Helvetica" font-size="33.0" fill="#FEFFFF" transform="matrix(1.00, 0.00, -0.00, -1.00, 877.6, 707.6)">5</text><text xml:space="preserve" font-family="Helvetica-Light,Helvetica" font-size="33.0" fill="#FEFFFF" transform="matrix(1.00, 0.00, -0.00, -1.00, 896.0, 707.6)">)</text></g></svg>