<?xml version="1.0" encoding="UTF-8" standalone="no"?><svg xmlns="http://www.w3.org/2000/svg" xmlns:xlink="http://www.w3.org/1999/xlink" clip-rule="evenodd" stroke-miterlimit="10" viewBox="0 0 1920 1080"><desc>SVG generated by Keynote</desc><defs></defs><g transform="matrix(1.00, 0.00, -0.00, -1.00, 0.0, 1080.0)"><path d="M 0.0 1080.0 L 1920.0 1080.0 L 1920.0 0.0 L 0.0 0.0 Z M 0.0 1080.0 " fill="#000000"></path><image xlink:href="B7DCAFF8C216E8D1B6AEB270EB033B1A.png" width="3004.00" height="2254.00" transform="matrix(0.22, 0.00, -0.00, -0.22, 1262.0, 491.0)"></image><image xlink:href="EF4F1921F8A7E0EA75114FE84B8B8051.png" width="681.00" height="357.00" transform="matrix(0.22, 0.00, -0.00, -0.22, 10.0, 90.0)"></image><text xml:space="preserve" font-family="Helvetica-Bold,Helvetica" font-weight="bold" font-size="33.0" fill="#FEFFFF" transform="matrix(1.00, 0.00, -0.00, -1.00, 46.8, 987.6)">Ã</text><text xml:space="preserve" font-family="Helvetica-Bold,Helvetica" font-weight="bold" font-size="33.0" fill="#FEFFFF" transform="matrix(1.00, 0.00, -0.00, -1.00, 70.6, 987.6)">g</text><text xml:space="preserve" font-family="Helvetica-Bold,Helvetica" font-weight="bold" font-size="33.0" fill="#FEFFFF" transform="matrix(1.00, 0.00, -0.00, -1.00, 90.8, 987.6)">u</text><text xml:space="preserve" font-family="Helvetica-Bold,Helvetica" font-weight="bold" font-size="33.0" fill="#FEFFFF" transform="matrix(1.00, 0.00, -0.00, -1.00, 111.0, 987.6)">a</text><text xml:space="preserve" font-family="Helvetica-Light,Helvetica" font-size="33.0" fill="#FEFFFF" transform="matrix(1.00, 0.00, -0.00, -1.00, 46.8, 947.6)">C</text><text xml:space="preserve" font-family="Helvetica-Light,Helvetica" font-size="33.0" fill="#FEFFFF" transform="matrix(1.00, 0.00, -0.00, -1.00, 70.6, 947.6)">r</text><text xml:space="preserve" font-family="Helvetica-Light,Helvetica" font-size="33.0" fill="#FEFFFF" transform="matrix(1.00, 0.00, -0.00, -1.00, 81.6, 947.6)">i</text><text xml:space="preserve" font-family="Helvetica-Light,Helvetica" font-size="33.0" fill="#FEFFFF" transform="matrix(1.00, 0.00, -0.00, -1.00, 88.9, 947.6)">t</text><text xml:space="preserve" font-family="Helvetica-Light,Helvetica" font-size="33.0" fill="#FEFFFF" transform="matrix(1.00, 0.00, -0.00, -1.00, 98.1, 947.6)">i</text><text xml:space="preserve" font-family="Helvetica-Light,Helvetica" font-size="33.0" fill="#FEFFFF" transform="matrix(1.00, 0.00, -0.00, -1.00, 105.4, 947.6)">c</text><text xml:space="preserve" font-family="Helvetica-Light,Helvetica" font-size="33.0" fill="#FEFFFF" transform="matrix(1.00, 0.00, -0.00, -1.00, 123.8, 947.6)">i</text><text xml:space="preserve" font-family="Helvetica-Light,Helvetica" font-size="33.0" fill="#FEFFFF" transform="matrix(1.00, 0.00, -0.00, -1.00, 131.1, 947.6)">d</text><text xml:space="preserve" font-family="Helvetica-Light,Helvetica" font-size="33.0" fill="#FEFFFF" transform="matrix(1.00, 0.00, -0.00, -1.00, 151.3, 947.6)">a</text><text xml:space="preserve" font-family="Helvetica-Light,Helvetica" font-size="33.0" fill="#FEFFFF" transform="matrix(1.00, 0.00, -0.00, -1.00, 169.6, 947.6)">d</text><text xml:space="preserve" font-family="Helvetica-Light,Helvetica" font-size="33.0" fill="#FEFFFF" transform="matrix(1.00, 0.00, -0.00, -1.00, 189.8, 947.6)">e</text><text xml:space="preserve" font-family="Helvetica-Light,Helvetica" font-size="33.0" fill="#FEFFFF" transform="matrix(1.00, 0.00, -0.00, -1.00, 208.1, 947.6)"> </text><text xml:space="preserve" font-family="Helvetica-Light,Helvetica" font-size="33.0" fill="#FEFFFF" transform="matrix(1.00, 0.00, -0.00, -1.00, 217.3, 947.6)">d</text><text xml:space="preserve" font-family="Helvetica-Light,Helvetica" font-size="33.0" fill="#FEFFFF" transform="matrix(1.00, 0.00, -0.00, -1.00, 237.5, 947.6)">e</text><text xml:space="preserve" font-family="Helvetica-Light,Helvetica" font-size="33.0" fill="#FEFFFF" transform="matrix(1.00, 0.00, -0.00, -1.00, 255.8, 947.6)"> </text><text xml:space="preserve" font-family="Helvetica-Light,Helvetica" font-size="33.0" fill="#FEFFFF" transform="matrix(1.00, 0.00, -0.00, -1.00, 265.0, 947.6)">a</text><text xml:space="preserve" font-family="Helvetica-Light,Helvetica" font-size="33.0" fill="#FEFFFF" transform="matrix(1.00, 0.00, -0.00, -1.00, 283.3, 947.6)">t</text><text xml:space="preserve" font-family="Helvetica-Light,Helvetica" font-size="33.0" fill="#FEFFFF" transform="matrix(1.00, 0.00, -0.00, -1.00, 292.5, 947.6)">i</text><text xml:space="preserve" font-family="Helvetica-Light,Helvetica" font-size="33.0" fill="#FEFFFF" transform="matrix(1.00, 0.00, -0.00, -1.00, 299.8, 947.6)">v</text><text xml:space="preserve" font-family="Helvetica-Light,Helvetica" font-size="33.0" fill="#FEFFFF" transform="matrix(1.00, 0.00, -0.00, -1.00, 316.3, 947.6)">o</text><text xml:space="preserve" font-family="Helvetica-Light,Helvetica" font-size="33.0" fill="#FEFFFF" transform="matrix(1.00, 0.00, -0.00, -1.00, 334.7, 947.6)">s</text><text xml:space="preserve" font-family="Helvetica-Light,Helvetica" font-size="33.0" fill="#FEFFFF" transform="matrix(1.00, 0.00, -0.00, -1.00, 351.2, 947.6)"> </text><text xml:space="preserve" font-family="Helvetica-Light,Helvetica" font-size="33.0" fill="#FEFFFF" transform="matrix(1.00, 0.00, -0.00, -1.00, 360.4, 947.6)">p</text><text xml:space="preserve" font-family="Helvetica-Light,Helvetica" font-size="33.0" fill="#FEFFFF" transform="matrix(1.00, 0.00, -0.00, -1.00, 380.5, 947.6)">e</text><text xml:space="preserve" font-family="Helvetica-Light,Helvetica" font-size="33.0" fill="#FEFFFF" transform="matrix(1.00, 0.00, -0.00, -1.00, 398.9, 947.6)">l</text><text xml:space="preserve" font-family="Helvetica-Light,Helvetica" font-size="33.0" fill="#FEFFFF" transform="matrix(1.00, 0.00, -0.00, -1.00, 406.2, 947.6)">a</text><text xml:space="preserve" font-family="Helvetica-Light,Helvetica" font-size="33.0" fill="#FEFFFF" transform="matrix(1.00, 0.00, -0.00, -1.00, 424.6, 947.6)"> </text><text xml:space="preserve" font-family="Helvetica-Light,Helvetica" font-size="33.0" fill="#FEFFFF" transform="matrix(1.00, 0.00, -0.00, -1.00, 433.7, 947.6)">a</text><text xml:space="preserve" font-family="Helvetica-Light,Helvetica" font-size="33.0" fill="#FEFFFF" transform="matrix(1.00, 0.00, -0.00, -1.00, 452.1, 947.6)">l</text><text xml:space="preserve" font-family="Helvetica-Light,Helvetica" font-size="33.0" fill="#FEFFFF" transform="matrix(1.00, 0.00, -0.00, -1.00, 459.4, 947.6)">t</text><text xml:space="preserve" font-family="Helvetica-Light,Helvetica" font-size="33.0" fill="#FEFFFF" transform="matrix(1.00, 0.00, -0.00, -1.00, 468.6, 947.6)">i</text><text xml:space="preserve" font-family="Helvetica-Light,Helvetica" font-size="33.0" fill="#FEFFFF" transform="matrix(1.00, 0.00, -0.00, -1.00, 475.9, 947.6)">t</text><text xml:space="preserve" font-family="Helvetica-Light,Helvetica" font-size="33.0" fill="#FEFFFF" transform="matrix(1.00, 0.00, -0.00, -1.00, 485.1, 947.6)">u</text><text xml:space="preserve" font-family="Helvetica-Light,Helvetica" font-size="33.0" fill="#FEFFFF" transform="matrix(1.00, 0.00, -0.00, -1.00, 503.4, 947.6)">d</text><text xml:space="preserve" font-family="Helvetica-Light,Helvetica" font-size="33.0" fill="#FEFFFF" transform="matrix(1.00, 0.00, -0.00, -1.00, 523.6, 947.6)">e</text><text xml:space="preserve" font-family="Helvetica-Light,Helvetica" font-size="33.0" fill="#FEFFFF" transform="matrix(1.00, 0.00, -0.00, -1.00, 541.9, 947.6)"> </text><g><clipPath id="clip0x608000ea1b60"><path d="M 45.8 943.3 L 541.9 943.3 L 541.9 946.9 L 45.8 946.9 Z M 45.8 943.3 "></path></clipPath><g clip-path="url(#clip0x608000ea1b60)"><path d="M 4.0 78.9 L 499.1 78.9 " fill="none" stroke="#FEFFFF" stroke-width="1.65" transform="matrix(1.00, 0.00, 0.00, -1.00, 42.8, 1024.0)"></path></g></g></g></svg>