<?xml version="1.0" encoding="UTF-8" standalone="no"?><svg xmlns="http://www.w3.org/2000/svg" xmlns:xlink="http://www.w3.org/1999/xlink" clip-rule="evenodd" stroke-miterlimit="10" viewBox="0 0 1920 1080"><desc>SVG generated by Keynote</desc><defs></defs><g transform="matrix(1.00, 0.00, -0.00, -1.00, 0.0, 1080.0)"><path d="M 0.0 1080.0 L 1920.0 1080.0 L 1920.0 0.0 L 0.0 0.0 Z M 0.0 1080.0 " fill="#FEFFFE"></path><image xlink:href="../../46F02FC2-67EC-4D9F-A726-2859EF20AF72/assets/D852046C21386C489959772BE2F1EA2B.png" width="681.00" height="357.00" transform="matrix(0.22, 0.00, -0.00, -0.22, 10.0, 90.0)"></image><text xml:space="preserve" font-family="BebasNeueBold,Bebas Neue" font-weight="bold" font-size="71.8" fill="#000000" transform="matrix(1.00, 0.00, -0.00, -1.00, 58.2, 644.6)">A</text><text xml:space="preserve" font-family="BebasNeueBold,Bebas Neue" font-weight="bold" font-size="71.8" fill="#000000" transform="matrix(1.00, 0.00, -0.00, -1.00, 87.4, 644.6)">T</text><text xml:space="preserve" font-family="BebasNeueBold,Bebas Neue" font-weight="bold" font-size="71.8" fill="#000000" transform="matrix(1.00, 0.00, -0.00, -1.00, 112.9, 644.6)">E</text><text xml:space="preserve" font-family="BebasNeueBold,Bebas Neue" font-weight="bold" font-size="71.8" fill="#000000" transform="matrix(1.00, 0.00, -0.00, -1.00, 139.4, 644.6)">N</text><text xml:space="preserve" font-family="BebasNeueBold,Bebas Neue" font-weight="bold" font-size="71.8" fill="#000000" transform="matrix(1.00, 0.00, -0.00, -1.00, 170.0, 644.6)">Ç</text><text xml:space="preserve" font-family="BebasNeueBold,Bebas Neue" font-weight="bold" font-size="71.8" fill="#000000" transform="matrix(1.00, 0.00, -0.00, -1.00, 197.8, 644.6)">Ã</text><text xml:space="preserve" font-family="BebasNeueBold,Bebas Neue" font-weight="bold" font-size="71.8" fill="#000000" transform="matrix(1.00, 0.00, -0.00, -1.00, 227.0, 644.6)">O</text><text xml:space="preserve" font-family="BebasNeueBold,Bebas Neue" font-weight="bold" font-size="71.8" fill="#000000" transform="matrix(1.00, 0.00, -0.00, -1.00, 255.4, 644.6)">:</text><text xml:space="preserve" font-family="BebasNeueBold,Bebas Neue" font-weight="bold" font-size="71.8" fill="#000000" transform="matrix(1.00, 0.00, -0.00, -1.00, 268.8, 644.6)"> </text><text xml:space="preserve" font-family="BebasNeueBold,Bebas Neue" font-weight="bold" font-size="71.8" fill="#000000" transform="matrix(1.00, 0.00, -0.00, -1.00, 279.9, 644.6)">o</text><text xml:space="preserve" font-family="BebasNeueBold,Bebas Neue" font-weight="bold" font-size="71.8" fill="#000000" transform="matrix(1.00, 0.00, -0.00, -1.00, 308.4, 644.6)"> </text><text xml:space="preserve" font-family="BebasNeueBold,Bebas Neue" font-weight="bold" font-size="71.8" fill="#000000" transform="matrix(1.00, 0.00, -0.00, -1.00, 319.5, 644.6)">e</text><text xml:space="preserve" font-family="BebasNeueBold,Bebas Neue" font-weight="bold" font-size="71.8" fill="#000000" transform="matrix(1.00, 0.00, -0.00, -1.00, 345.9, 644.6)">s</text><text xml:space="preserve" font-family="BebasNeueBold,Bebas Neue" font-weight="bold" font-size="71.8" fill="#000000" transform="matrix(1.00, 0.00, -0.00, -1.00, 372.8, 644.6)">t</text><text xml:space="preserve" font-family="BebasNeueBold,Bebas Neue" font-weight="bold" font-size="71.8" fill="#000000" transform="matrix(1.00, 0.00, -0.00, -1.00, 398.4, 644.6)">u</text><text xml:space="preserve" font-family="BebasNeueBold,Bebas Neue" font-weight="bold" font-size="71.8" fill="#000000" transform="matrix(1.00, 0.00, -0.00, -1.00, 426.9, 644.6)">d</text><text xml:space="preserve" font-family="BebasNeueBold,Bebas Neue" font-weight="bold" font-size="71.8" fill="#000000" transform="matrix(1.00, 0.00, -0.00, -1.00, 456.2, 644.6)">o</text><text xml:space="preserve" font-family="BebasNeueBold,Bebas Neue" font-weight="bold" font-size="71.8" fill="#000000" transform="matrix(1.00, 0.00, -0.00, -1.00, 484.7, 644.6)"> </text><text xml:space="preserve" font-family="BebasNeueBold,Bebas Neue" font-weight="bold" font-size="71.8" fill="#000000" transform="matrix(1.00, 0.00, -0.00, -1.00, 495.8, 644.6)">a</text><text xml:space="preserve" font-family="BebasNeueBold,Bebas Neue" font-weight="bold" font-size="71.8" fill="#000000" transform="matrix(1.00, 0.00, -0.00, -1.00, 525.1, 644.6)"> </text><text xml:space="preserve" font-family="BebasNeueBold,Bebas Neue" font-weight="bold" font-size="71.8" fill="#000000" transform="matrix(1.00, 0.00, -0.00, -1.00, 536.2, 644.6)">s</text><text xml:space="preserve" font-family="BebasNeueBold,Bebas Neue" font-weight="bold" font-size="71.8" fill="#000000" transform="matrix(1.00, 0.00, -0.00, -1.00, 563.0, 644.6)">e</text><text xml:space="preserve" font-family="BebasNeueBold,Bebas Neue" font-weight="bold" font-size="71.8" fill="#000000" transform="matrix(1.00, 0.00, -0.00, -1.00, 589.5, 644.6)">g</text><text xml:space="preserve" font-family="BebasNeueBold,Bebas Neue" font-weight="bold" font-size="71.8" fill="#000000" transform="matrix(1.00, 0.00, -0.00, -1.00, 617.5, 644.6)">u</text><text xml:space="preserve" font-family="BebasNeueBold,Bebas Neue" font-weight="bold" font-size="71.8" fill="#000000" transform="matrix(1.00, 0.00, -0.00, -1.00, 646.1, 644.6)">i</text><text xml:space="preserve" font-family="BebasNeueBold,Bebas Neue" font-weight="bold" font-size="71.8" fill="#000000" transform="matrix(1.00, 0.00, -0.00, -1.00, 659.7, 644.6)">r</text><text xml:space="preserve" font-family="BebasNeueBold,Bebas Neue" font-weight="bold" font-size="71.8" fill="#000000" transform="matrix(1.00, 0.00, -0.00, -1.00, 688.6, 644.6)"> </text><text xml:space="preserve" font-family="BebasNeueBold,Bebas Neue" font-weight="bold" font-size="71.8" fill="#000000" transform="matrix(1.00, 0.00, -0.00, -1.00, 699.7, 644.6)">a</text><text xml:space="preserve" font-family="BebasNeueBold,Bebas Neue" font-weight="bold" font-size="71.8" fill="#000000" transform="matrix(1.00, 0.00, -0.00, -1.00, 728.9, 644.6)">i</text><text xml:space="preserve" font-family="BebasNeueBold,Bebas Neue" font-weight="bold" font-size="71.8" fill="#000000" transform="matrix(1.00, 0.00, -0.00, -1.00, 742.6, 644.6)">n</text><text xml:space="preserve" font-family="BebasNeueBold,Bebas Neue" font-weight="bold" font-size="71.8" fill="#000000" transform="matrix(1.00, 0.00, -0.00, -1.00, 773.3, 644.6)">d</text><text xml:space="preserve" font-family="BebasNeueBold,Bebas Neue" font-weight="bold" font-size="71.8" fill="#000000" transform="matrix(1.00, 0.00, -0.00, -1.00, 802.5, 644.6)">a</text><text xml:space="preserve" font-family="BebasNeueBold,Bebas Neue" font-weight="bold" font-size="71.8" fill="#000000" transform="matrix(1.00, 0.00, -0.00, -1.00, 831.7, 644.6)"> </text><text xml:space="preserve" font-family="BebasNeueBold,Bebas Neue" font-weight="bold" font-size="71.8" fill="#000000" transform="matrix(1.00, 0.00, -0.00, -1.00, 842.9, 644.6)">n</text><text xml:space="preserve" font-family="BebasNeueBold,Bebas Neue" font-weight="bold" font-size="71.8" fill="#000000" transform="matrix(1.00, 0.00, -0.00, -1.00, 873.5, 644.6)">ã</text><text xml:space="preserve" font-family="BebasNeueBold,Bebas Neue" font-weight="bold" font-size="71.8" fill="#000000" transform="matrix(1.00, 0.00, -0.00, -1.00, 902.7, 644.6)">o</text><text xml:space="preserve" font-family="BebasNeueBold,Bebas Neue" font-weight="bold" font-size="71.8" fill="#000000" transform="matrix(1.00, 0.00, -0.00, -1.00, 931.1, 644.6)"> </text><text xml:space="preserve" font-family="BebasNeueBold,Bebas Neue" font-weight="bold" font-size="71.8" fill="#000000" transform="matrix(1.00, 0.00, -0.00, -1.00, 942.3, 644.6)">e</text><text xml:space="preserve" font-family="BebasNeueBold,Bebas Neue" font-weight="bold" font-size="71.8" fill="#000000" transform="matrix(1.00, 0.00, -0.00, -1.00, 968.7, 644.6)">s</text><text xml:space="preserve" font-family="BebasNeueBold,Bebas Neue" font-weight="bold" font-size="71.8" fill="#000000" transform="matrix(1.00, 0.00, -0.00, -1.00, 995.5, 644.6)">t</text><text xml:space="preserve" font-family="BebasNeueBold,Bebas Neue" font-weight="bold" font-size="71.8" fill="#000000" transform="matrix(1.00, 0.00, -0.00, -1.00, 1018.4, 644.6)">á</text><text xml:space="preserve" font-family="BebasNeueBold,Bebas Neue" font-weight="bold" font-size="71.8" fill="#000000" transform="matrix(1.00, 0.00, -0.00, -1.00, 1047.6, 644.6)"> </text><text xml:space="preserve" font-family="BebasNeueBold,Bebas Neue" font-weight="bold" font-size="71.8" fill="#000000" transform="matrix(1.00, 0.00, -0.00, -1.00, 1058.7, 644.6)">c</text><text xml:space="preserve" font-family="BebasNeueBold,Bebas Neue" font-weight="bold" font-size="71.8" fill="#000000" transform="matrix(1.00, 0.00, -0.00, -1.00, 1086.5, 644.6)">o</text><text xml:space="preserve" font-family="BebasNeueBold,Bebas Neue" font-weight="bold" font-size="71.8" fill="#000000" transform="matrix(1.00, 0.00, -0.00, -1.00, 1114.9, 644.6)">m</text><text xml:space="preserve" font-family="BebasNeueBold,Bebas Neue" font-weight="bold" font-size="71.8" fill="#000000" transform="matrix(1.00, 0.00, -0.00, -1.00, 1153.8, 644.6)">p</text><text xml:space="preserve" font-family="BebasNeueBold,Bebas Neue" font-weight="bold" font-size="71.8" fill="#000000" transform="matrix(1.00, 0.00, -0.00, -1.00, 1180.8, 644.6)">l</text><text xml:space="preserve" font-family="BebasNeueBold,Bebas Neue" font-weight="bold" font-size="71.8" fill="#000000" transform="matrix(1.00, 0.00, -0.00, -1.00, 1205.2, 644.6)">e</text><text xml:space="preserve" font-family="BebasNeueBold,Bebas Neue" font-weight="bold" font-size="71.8" fill="#000000" transform="matrix(1.00, 0.00, -0.00, -1.00, 1231.6, 644.6)">t</text><text xml:space="preserve" font-family="BebasNeueBold,Bebas Neue" font-weight="bold" font-size="71.8" fill="#000000" transform="matrix(1.00, 0.00, -0.00, -1.00, 1257.2, 644.6)">o</text><text xml:space="preserve" font-family="BebasNeueBold,Bebas Neue" font-weight="bold" font-size="71.8" fill="#000000" transform="matrix(1.00, 0.00, -0.00, -1.00, 1284.9, 644.6)">.</text><text xml:space="preserve" font-family="BebasNeueBold,Bebas Neue" font-weight="bold" font-size="71.8" fill="#000000" transform="matrix(1.00, 0.00, -0.00, -1.00, 1298.3, 644.6)"> </text><text xml:space="preserve" font-family="BebasNeueBold,Bebas Neue" font-weight="bold" font-size="71.8" fill="#000000" transform="matrix(1.00, 0.00, -0.00, -1.00, 58.2, 558.6)">A</text><text xml:space="preserve" font-family="BebasNeueBold,Bebas Neue" font-weight="bold" font-size="71.8" fill="#000000" transform="matrix(1.00, 0.00, -0.00, -1.00, 87.4, 558.6)">i</text><text xml:space="preserve" font-family="BebasNeueBold,Bebas Neue" font-weight="bold" font-size="71.8" fill="#000000" transform="matrix(1.00, 0.00, -0.00, -1.00, 101.0, 558.6)">n</text><text xml:space="preserve" font-family="BebasNeueBold,Bebas Neue" font-weight="bold" font-size="71.8" fill="#000000" transform="matrix(1.00, 0.00, -0.00, -1.00, 131.7, 558.6)">d</text><text xml:space="preserve" font-family="BebasNeueBold,Bebas Neue" font-weight="bold" font-size="71.8" fill="#000000" transform="matrix(1.00, 0.00, -0.00, -1.00, 160.9, 558.6)">a</text><text xml:space="preserve" font-family="BebasNeueBold,Bebas Neue" font-weight="bold" font-size="71.8" fill="#000000" transform="matrix(1.00, 0.00, -0.00, -1.00, 190.2, 558.6)"> </text><text xml:space="preserve" font-family="BebasNeueBold,Bebas Neue" font-weight="bold" font-size="71.8" fill="#000000" transform="matrix(1.00, 0.00, -0.00, -1.00, 201.3, 558.6)">e</text><text xml:space="preserve" font-family="BebasNeueBold,Bebas Neue" font-weight="bold" font-size="71.8" fill="#000000" transform="matrix(1.00, 0.00, -0.00, -1.00, 227.7, 558.6)">s</text><text xml:space="preserve" font-family="BebasNeueBold,Bebas Neue" font-weight="bold" font-size="71.8" fill="#000000" transform="matrix(1.00, 0.00, -0.00, -1.00, 254.6, 558.6)">t</text><text xml:space="preserve" font-family="BebasNeueBold,Bebas Neue" font-weight="bold" font-size="71.8" fill="#000000" transform="matrix(1.00, 0.00, -0.00, -1.00, 277.4, 558.6)">a</text><text xml:space="preserve" font-family="BebasNeueBold,Bebas Neue" font-weight="bold" font-size="71.8" fill="#000000" transform="matrix(1.00, 0.00, -0.00, -1.00, 306.6, 558.6)">m</text><text xml:space="preserve" font-family="BebasNeueBold,Bebas Neue" font-weight="bold" font-size="71.8" fill="#000000" transform="matrix(1.00, 0.00, -0.00, -1.00, 345.5, 558.6)">o</text><text xml:space="preserve" font-family="BebasNeueBold,Bebas Neue" font-weight="bold" font-size="71.8" fill="#000000" transform="matrix(1.00, 0.00, -0.00, -1.00, 373.9, 558.6)">s</text><text xml:space="preserve" font-family="BebasNeueBold,Bebas Neue" font-weight="bold" font-size="71.8" fill="#000000" transform="matrix(1.00, 0.00, -0.00, -1.00, 400.8, 558.6)"> </text><text xml:space="preserve" font-family="BebasNeueBold,Bebas Neue" font-weight="bold" font-size="71.8" fill="#000000" transform="matrix(1.00, 0.00, -0.00, -1.00, 411.9, 558.6)">m</text><text xml:space="preserve" font-family="BebasNeueBold,Bebas Neue" font-weight="bold" font-size="71.8" fill="#000000" transform="matrix(1.00, 0.00, -0.00, -1.00, 450.8, 558.6)">a</text><text xml:space="preserve" font-family="BebasNeueBold,Bebas Neue" font-weight="bold" font-size="71.8" fill="#000000" transform="matrix(1.00, 0.00, -0.00, -1.00, 480.0, 558.6)">p</text><text xml:space="preserve" font-family="BebasNeueBold,Bebas Neue" font-weight="bold" font-size="71.8" fill="#000000" transform="matrix(1.00, 0.00, -0.00, -1.00, 507.1, 558.6)">e</text><text xml:space="preserve" font-family="BebasNeueBold,Bebas Neue" font-weight="bold" font-size="71.8" fill="#000000" transform="matrix(1.00, 0.00, -0.00, -1.00, 533.5, 558.6)">a</text><text xml:space="preserve" font-family="BebasNeueBold,Bebas Neue" font-weight="bold" font-size="71.8" fill="#000000" transform="matrix(1.00, 0.00, -0.00, -1.00, 562.8, 558.6)">n</text><text xml:space="preserve" font-family="BebasNeueBold,Bebas Neue" font-weight="bold" font-size="71.8" fill="#000000" transform="matrix(1.00, 0.00, -0.00, -1.00, 593.4, 558.6)">d</text><text xml:space="preserve" font-family="BebasNeueBold,Bebas Neue" font-weight="bold" font-size="71.8" fill="#000000" transform="matrix(1.00, 0.00, -0.00, -1.00, 622.7, 558.6)">o</text><text xml:space="preserve" font-family="BebasNeueBold,Bebas Neue" font-weight="bold" font-size="71.8" fill="#000000" transform="matrix(1.00, 0.00, -0.00, -1.00, 651.2, 558.6)"> </text><text xml:space="preserve" font-family="BebasNeueBold,Bebas Neue" font-weight="bold" font-size="71.8" fill="#000000" transform="matrix(1.00, 0.00, -0.00, -1.00, 662.3, 558.6)">a</text><text xml:space="preserve" font-family="BebasNeueBold,Bebas Neue" font-weight="bold" font-size="71.8" fill="#000000" transform="matrix(1.00, 0.00, -0.00, -1.00, 691.5, 558.6)"> </text><text xml:space="preserve" font-family="BebasNeueBold,Bebas Neue" font-weight="bold" font-size="71.8" fill="#000000" transform="matrix(1.00, 0.00, -0.00, -1.00, 702.7, 558.6)">p</text><text xml:space="preserve" font-family="BebasNeueBold,Bebas Neue" font-weight="bold" font-size="71.8" fill="#000000" transform="matrix(1.00, 0.00, -0.00, -1.00, 729.7, 558.6)">o</text><text xml:space="preserve" font-family="BebasNeueBold,Bebas Neue" font-weight="bold" font-size="71.8" fill="#000000" transform="matrix(1.00, 0.00, -0.00, -1.00, 758.2, 558.6)">p</text><text xml:space="preserve" font-family="BebasNeueBold,Bebas Neue" font-weight="bold" font-size="71.8" fill="#000000" transform="matrix(1.00, 0.00, -0.00, -1.00, 785.3, 558.6)">u</text><text xml:space="preserve" font-family="BebasNeueBold,Bebas Neue" font-weight="bold" font-size="71.8" fill="#000000" transform="matrix(1.00, 0.00, -0.00, -1.00, 813.8, 558.6)">l</text><text xml:space="preserve" font-family="BebasNeueBold,Bebas Neue" font-weight="bold" font-size="71.8" fill="#000000" transform="matrix(1.00, 0.00, -0.00, -1.00, 838.2, 558.6)">a</text><text xml:space="preserve" font-family="BebasNeueBold,Bebas Neue" font-weight="bold" font-size="71.8" fill="#000000" transform="matrix(1.00, 0.00, -0.00, -1.00, 867.3, 558.6)">ç</text><text xml:space="preserve" font-family="BebasNeueBold,Bebas Neue" font-weight="bold" font-size="71.8" fill="#000000" transform="matrix(1.00, 0.00, -0.00, -1.00, 895.1, 558.6)">ã</text><text xml:space="preserve" font-family="BebasNeueBold,Bebas Neue" font-weight="bold" font-size="71.8" fill="#000000" transform="matrix(1.00, 0.00, -0.00, -1.00, 924.2, 558.6)">o</text><text xml:space="preserve" font-family="BebasNeueBold,Bebas Neue" font-weight="bold" font-size="71.8" fill="#000000" transform="matrix(1.00, 0.00, -0.00, -1.00, 952.7, 558.6)"> </text><text xml:space="preserve" font-family="BebasNeueBold,Bebas Neue" font-weight="bold" font-size="71.8" fill="#000000" transform="matrix(1.00, 0.00, -0.00, -1.00, 963.8, 558.6)">p</text><text xml:space="preserve" font-family="BebasNeueBold,Bebas Neue" font-weight="bold" font-size="71.8" fill="#000000" transform="matrix(1.00, 0.00, -0.00, -1.00, 990.9, 558.6)">e</text><text xml:space="preserve" font-family="BebasNeueBold,Bebas Neue" font-weight="bold" font-size="71.8" fill="#000000" transform="matrix(1.00, 0.00, -0.00, -1.00, 1017.3, 558.6)">l</text><text xml:space="preserve" font-family="BebasNeueBold,Bebas Neue" font-weight="bold" font-size="71.8" fill="#000000" transform="matrix(1.00, 0.00, -0.00, -1.00, 1041.7, 558.6)">a</text><text xml:space="preserve" font-family="BebasNeueBold,Bebas Neue" font-weight="bold" font-size="71.8" fill="#000000" transform="matrix(1.00, 0.00, -0.00, -1.00, 1070.9, 558.6)"> </text><text xml:space="preserve" font-family="BebasNeueBold,Bebas Neue" font-weight="bold" font-size="71.8" fill="#000000" transform="matrix(1.00, 0.00, -0.00, -1.00, 1082.0, 558.6)">s</text><text xml:space="preserve" font-family="BebasNeueBold,Bebas Neue" font-weight="bold" font-size="71.8" fill="#000000" transform="matrix(1.00, 0.00, -0.00, -1.00, 1108.9, 558.6)">u</text><text xml:space="preserve" font-family="BebasNeueBold,Bebas Neue" font-weight="bold" font-size="71.8" fill="#000000" transform="matrix(1.00, 0.00, -0.00, -1.00, 1137.5, 558.6)">a</text><text xml:space="preserve" font-family="BebasNeueBold,Bebas Neue" font-weight="bold" font-size="71.8" fill="#000000" transform="matrix(1.00, 0.00, -0.00, -1.00, 1166.7, 558.6)"> </text><text xml:space="preserve" font-family="BebasNeueBold,Bebas Neue" font-weight="bold" font-size="71.8" fill="#000000" transform="matrix(1.00, 0.00, -0.00, -1.00, 1177.8, 558.6)">a</text><text xml:space="preserve" font-family="BebasNeueBold,Bebas Neue" font-weight="bold" font-size="71.8" fill="#000000" transform="matrix(1.00, 0.00, -0.00, -1.00, 1207.1, 558.6)">l</text><text xml:space="preserve" font-family="BebasNeueBold,Bebas Neue" font-weight="bold" font-size="71.8" fill="#000000" transform="matrix(1.00, 0.00, -0.00, -1.00, 1227.8, 558.6)">t</text><text xml:space="preserve" font-family="BebasNeueBold,Bebas Neue" font-weight="bold" font-size="71.8" fill="#000000" transform="matrix(1.00, 0.00, -0.00, -1.00, 1253.4, 558.6)">i</text><text xml:space="preserve" font-family="BebasNeueBold,Bebas Neue" font-weight="bold" font-size="71.8" fill="#000000" transform="matrix(1.00, 0.00, -0.00, -1.00, 1267.0, 558.6)">m</text><text xml:space="preserve" font-family="BebasNeueBold,Bebas Neue" font-weight="bold" font-size="71.8" fill="#000000" transform="matrix(1.00, 0.00, -0.00, -1.00, 1305.9, 558.6)">e</text><text xml:space="preserve" font-family="BebasNeueBold,Bebas Neue" font-weight="bold" font-size="71.8" fill="#000000" transform="matrix(1.00, 0.00, -0.00, -1.00, 1332.3, 558.6)">t</text><text xml:space="preserve" font-family="BebasNeueBold,Bebas Neue" font-weight="bold" font-size="71.8" fill="#000000" transform="matrix(1.00, 0.00, -0.00, -1.00, 1357.9, 558.6)">r</text><text xml:space="preserve" font-family="BebasNeueBold,Bebas Neue" font-weight="bold" font-size="71.8" fill="#000000" transform="matrix(1.00, 0.00, -0.00, -1.00, 1386.7, 558.6)">i</text><text xml:space="preserve" font-family="BebasNeueBold,Bebas Neue" font-weight="bold" font-size="71.8" fill="#000000" transform="matrix(1.00, 0.00, -0.00, -1.00, 1400.4, 558.6)">a</text><text xml:space="preserve" font-family="BebasNeueBold,Bebas Neue" font-weight="bold" font-size="71.8" fill="#000000" transform="matrix(1.00, 0.00, -0.00, -1.00, 1429.6, 558.6)">.</text><text xml:space="preserve" font-family="BebasNeueBold,Bebas Neue" font-weight="bold" font-size="71.8" fill="#000000" transform="matrix(1.00, 0.00, -0.00, -1.00, 1443.0, 558.6)"> </text><text xml:space="preserve" font-family="BebasNeueBold,Bebas Neue" font-weight="bold" font-size="71.8" fill="#000000" transform="matrix(1.00, 0.00, -0.00, -1.00, 1454.1, 558.6)">e</text><text xml:space="preserve" font-family="BebasNeueBold,Bebas Neue" font-weight="bold" font-size="71.8" fill="#000000" transform="matrix(1.00, 0.00, -0.00, -1.00, 1480.5, 558.6)">l</text><text xml:space="preserve" font-family="BebasNeueBold,Bebas Neue" font-weight="bold" font-size="71.8" fill="#000000" transform="matrix(1.00, 0.00, -0.00, -1.00, 1504.9, 558.6)">e</text><text xml:space="preserve" font-family="BebasNeueBold,Bebas Neue" font-weight="bold" font-size="71.8" fill="#000000" transform="matrix(1.00, 0.00, -0.00, -1.00, 1531.3, 558.6)"> </text><text xml:space="preserve" font-family="BebasNeueBold,Bebas Neue" font-weight="bold" font-size="71.8" fill="#000000" transform="matrix(1.00, 0.00, -0.00, -1.00, 1542.5, 558.6)">e</text><text xml:space="preserve" font-family="BebasNeueBold,Bebas Neue" font-weight="bold" font-size="71.8" fill="#000000" transform="matrix(1.00, 0.00, -0.00, -1.00, 1568.9, 558.6)">s</text><text xml:space="preserve" font-family="BebasNeueBold,Bebas Neue" font-weight="bold" font-size="71.8" fill="#000000" transform="matrix(1.00, 0.00, -0.00, -1.00, 1595.7, 558.6)">t</text><text xml:space="preserve" font-family="BebasNeueBold,Bebas Neue" font-weight="bold" font-size="71.8" fill="#000000" transform="matrix(1.00, 0.00, -0.00, -1.00, 1618.6, 558.6)">a</text><text xml:space="preserve" font-family="BebasNeueBold,Bebas Neue" font-weight="bold" font-size="71.8" fill="#000000" transform="matrix(1.00, 0.00, -0.00, -1.00, 1647.8, 558.6)">r</text><text xml:space="preserve" font-family="BebasNeueBold,Bebas Neue" font-weight="bold" font-size="71.8" fill="#000000" transform="matrix(1.00, 0.00, -0.00, -1.00, 1676.7, 558.6)">á</text><text xml:space="preserve" font-family="BebasNeueBold,Bebas Neue" font-weight="bold" font-size="71.8" fill="#000000" transform="matrix(1.00, 0.00, -0.00, -1.00, 1705.9, 558.6)"> </text><g><clipPath id="clip0x600002aa2e80"><path d="M 57.2 549.7 L 1429.6 549.7 L 1429.6 555.3 L 57.2 555.3 Z M 57.2 549.7 "></path></clipPath><g clip-path="url(#clip0x600002aa2e80)"><path d="M 5.6 165.8 L 1377.1 165.8 " fill="none" stroke="#000000" stroke-width="3.59" transform="matrix(1.00, 0.00, 0.00, -1.00, 52.5, 718.3)"></path></g></g><text xml:space="preserve" font-family="BebasNeueBold,Bebas Neue" font-weight="bold" font-size="71.8" fill="#000000" transform="matrix(1.00, 0.00, -0.00, -1.00, 58.2, 472.6)">c</text><text xml:space="preserve" font-family="BebasNeueBold,Bebas Neue" font-weight="bold" font-size="71.8" fill="#000000" transform="matrix(1.00, 0.00, -0.00, -1.00, 85.9, 472.6)">o</text><text xml:space="preserve" font-family="BebasNeueBold,Bebas Neue" font-weight="bold" font-size="71.8" fill="#000000" transform="matrix(1.00, 0.00, -0.00, -1.00, 114.3, 472.6)">n</text><text xml:space="preserve" font-family="BebasNeueBold,Bebas Neue" font-weight="bold" font-size="71.8" fill="#000000" transform="matrix(1.00, 0.00, -0.00, -1.00, 145.0, 472.6)">c</text><text xml:space="preserve" font-family="BebasNeueBold,Bebas Neue" font-weight="bold" font-size="71.8" fill="#000000" transform="matrix(1.00, 0.00, -0.00, -1.00, 172.7, 472.6)">l</text><text xml:space="preserve" font-family="BebasNeueBold,Bebas Neue" font-weight="bold" font-size="71.8" fill="#000000" transform="matrix(1.00, 0.00, -0.00, -1.00, 197.1, 472.6)">u</text><text xml:space="preserve" font-family="BebasNeueBold,Bebas Neue" font-weight="bold" font-size="71.8" fill="#000000" transform="matrix(1.00, 0.00, -0.00, -1.00, 225.6, 472.6)">í</text><text xml:space="preserve" font-family="BebasNeueBold,Bebas Neue" font-weight="bold" font-size="71.8" fill="#000000" transform="matrix(1.00, 0.00, -0.00, -1.00, 239.3, 472.6)">d</text><text xml:space="preserve" font-family="BebasNeueBold,Bebas Neue" font-weight="bold" font-size="71.8" fill="#000000" transform="matrix(1.00, 0.00, -0.00, -1.00, 268.6, 472.6)">o</text><text xml:space="preserve" font-family="BebasNeueBold,Bebas Neue" font-weight="bold" font-size="71.8" fill="#000000" transform="matrix(1.00, 0.00, -0.00, -1.00, 297.0, 472.6)"> </text><text xml:space="preserve" font-family="BebasNeueBold,Bebas Neue" font-weight="bold" font-size="71.8" fill="#000000" transform="matrix(1.00, 0.00, -0.00, -1.00, 308.2, 472.6)">n</text><text xml:space="preserve" font-family="BebasNeueBold,Bebas Neue" font-weight="bold" font-size="71.8" fill="#000000" transform="matrix(1.00, 0.00, -0.00, -1.00, 338.8, 472.6)">o</text><text xml:space="preserve" font-family="BebasNeueBold,Bebas Neue" font-weight="bold" font-size="71.8" fill="#000000" transform="matrix(1.00, 0.00, -0.00, -1.00, 367.3, 472.6)"> </text><text xml:space="preserve" font-family="BebasNeueBold,Bebas Neue" font-weight="bold" font-size="71.8" fill="#000000" transform="matrix(1.00, 0.00, -0.00, -1.00, 378.4, 472.6)">c</text><text xml:space="preserve" font-family="BebasNeueBold,Bebas Neue" font-weight="bold" font-size="71.8" fill="#000000" transform="matrix(1.00, 0.00, -0.00, -1.00, 406.1, 472.6)">o</text><text xml:space="preserve" font-family="BebasNeueBold,Bebas Neue" font-weight="bold" font-size="71.8" fill="#000000" transform="matrix(1.00, 0.00, -0.00, -1.00, 434.6, 472.6)">m</text><text xml:space="preserve" font-family="BebasNeueBold,Bebas Neue" font-weight="bold" font-size="71.8" fill="#000000" transform="matrix(1.00, 0.00, -0.00, -1.00, 473.4, 472.6)">e</text><text xml:space="preserve" font-family="BebasNeueBold,Bebas Neue" font-weight="bold" font-size="71.8" fill="#000000" transform="matrix(1.00, 0.00, -0.00, -1.00, 499.8, 472.6)">ç</text><text xml:space="preserve" font-family="BebasNeueBold,Bebas Neue" font-weight="bold" font-size="71.8" fill="#000000" transform="matrix(1.00, 0.00, -0.00, -1.00, 527.6, 472.6)">o</text><text xml:space="preserve" font-family="BebasNeueBold,Bebas Neue" font-weight="bold" font-size="71.8" fill="#000000" transform="matrix(1.00, 0.00, -0.00, -1.00, 556.0, 472.6)"> </text><text xml:space="preserve" font-family="BebasNeueBold,Bebas Neue" font-weight="bold" font-size="71.8" fill="#000000" transform="matrix(1.00, 0.00, -0.00, -1.00, 567.1, 472.6)">d</text><text xml:space="preserve" font-family="BebasNeueBold,Bebas Neue" font-weight="bold" font-size="71.8" fill="#000000" transform="matrix(1.00, 0.00, -0.00, -1.00, 596.4, 472.6)">a</text><text xml:space="preserve" font-family="BebasNeueBold,Bebas Neue" font-weight="bold" font-size="71.8" fill="#000000" transform="matrix(1.00, 0.00, -0.00, -1.00, 625.6, 472.6)"> </text><text xml:space="preserve" font-family="BebasNeueBold,Bebas Neue" font-weight="bold" font-size="71.8" fill="#000000" transform="matrix(1.00, 0.00, -0.00, -1.00, 636.7, 472.6)">p</text><text xml:space="preserve" font-family="BebasNeueBold,Bebas Neue" font-weight="bold" font-size="71.8" fill="#000000" transform="matrix(1.00, 0.00, -0.00, -1.00, 663.8, 472.6)">r</text><text xml:space="preserve" font-family="BebasNeueBold,Bebas Neue" font-weight="bold" font-size="71.8" fill="#000000" transform="matrix(1.00, 0.00, -0.00, -1.00, 692.7, 472.6)">ó</text><text xml:space="preserve" font-family="BebasNeueBold,Bebas Neue" font-weight="bold" font-size="71.8" fill="#000000" transform="matrix(1.00, 0.00, -0.00, -1.00, 720.0, 472.6)">x</text><text xml:space="preserve" font-family="BebasNeueBold,Bebas Neue" font-weight="bold" font-size="71.8" fill="#000000" transform="matrix(1.00, 0.00, -0.00, -1.00, 750.9, 472.6)">i</text><text xml:space="preserve" font-family="BebasNeueBold,Bebas Neue" font-weight="bold" font-size="71.8" fill="#000000" transform="matrix(1.00, 0.00, -0.00, -1.00, 764.6, 472.6)">m</text><text xml:space="preserve" font-family="BebasNeueBold,Bebas Neue" font-weight="bold" font-size="71.8" fill="#000000" transform="matrix(1.00, 0.00, -0.00, -1.00, 803.4, 472.6)">a</text><text xml:space="preserve" font-family="BebasNeueBold,Bebas Neue" font-weight="bold" font-size="71.8" fill="#000000" transform="matrix(1.00, 0.00, -0.00, -1.00, 832.7, 472.6)"> </text><text xml:space="preserve" font-family="BebasNeueBold,Bebas Neue" font-weight="bold" font-size="71.8" fill="#000000" transform="matrix(1.00, 0.00, -0.00, -1.00, 843.8, 472.6)">s</text><text xml:space="preserve" font-family="BebasNeueBold,Bebas Neue" font-weight="bold" font-size="71.8" fill="#000000" transform="matrix(1.00, 0.00, -0.00, -1.00, 870.7, 472.6)">e</text><text xml:space="preserve" font-family="BebasNeueBold,Bebas Neue" font-weight="bold" font-size="71.8" fill="#000000" transform="matrix(1.00, 0.00, -0.00, -1.00, 897.1, 472.6)">m</text><text xml:space="preserve" font-family="BebasNeueBold,Bebas Neue" font-weight="bold" font-size="71.8" fill="#000000" transform="matrix(1.00, 0.00, -0.00, -1.00, 935.9, 472.6)">a</text><text xml:space="preserve" font-family="BebasNeueBold,Bebas Neue" font-weight="bold" font-size="71.8" fill="#000000" transform="matrix(1.00, 0.00, -0.00, -1.00, 965.2, 472.6)">n</text><text xml:space="preserve" font-family="BebasNeueBold,Bebas Neue" font-weight="bold" font-size="71.8" fill="#000000" transform="matrix(1.00, 0.00, -0.00, -1.00, 995.8, 472.6)">a</text><text xml:space="preserve" font-family="BebasNeueBold,Bebas Neue" font-weight="bold" font-size="71.8" fill="#000000" transform="matrix(1.00, 0.00, -0.00, -1.00, 1025.1, 472.6)">.</text><text xml:space="preserve" font-family="BebasNeueBold,Bebas Neue" font-weight="bold" font-size="71.8" fill="#000000" transform="matrix(1.00, 0.00, -0.00, -1.00, 1038.4, 472.6)"> </text><text xml:space="preserve" font-family="BebasNeueBold,Bebas Neue" font-weight="bold" font-size="71.8" fill="#000000" transform="matrix(1.00, 0.00, -0.00, -1.00, 58.2, 386.6)">A</text><text xml:space="preserve" font-family="BebasNeueBold,Bebas Neue" font-weight="bold" font-size="71.8" fill="#000000" transform="matrix(1.00, 0.00, -0.00, -1.00, 87.4, 386.6)"> </text><text xml:space="preserve" font-family="BebasNeueBold,Bebas Neue" font-weight="bold" font-size="71.8" fill="#000000" transform="matrix(1.00, 0.00, -0.00, -1.00, 98.5, 386.6)">s</text><text xml:space="preserve" font-family="BebasNeueBold,Bebas Neue" font-weight="bold" font-size="71.8" fill="#000000" transform="matrix(1.00, 0.00, -0.00, -1.00, 125.4, 386.6)">e</text><text xml:space="preserve" font-family="BebasNeueBold,Bebas Neue" font-weight="bold" font-size="71.8" fill="#000000" transform="matrix(1.00, 0.00, -0.00, -1.00, 151.8, 386.6)">g</text><text xml:space="preserve" font-family="BebasNeueBold,Bebas Neue" font-weight="bold" font-size="71.8" fill="#000000" transform="matrix(1.00, 0.00, -0.00, -1.00, 179.8, 386.6)">u</text><text xml:space="preserve" font-family="BebasNeueBold,Bebas Neue" font-weight="bold" font-size="71.8" fill="#000000" transform="matrix(1.00, 0.00, -0.00, -1.00, 208.4, 386.6)">i</text><text xml:space="preserve" font-family="BebasNeueBold,Bebas Neue" font-weight="bold" font-size="71.8" fill="#000000" transform="matrix(1.00, 0.00, -0.00, -1.00, 222.0, 386.6)">r</text><text xml:space="preserve" font-family="BebasNeueBold,Bebas Neue" font-weight="bold" font-size="71.8" fill="#000000" transform="matrix(1.00, 0.00, -0.00, -1.00, 250.9, 386.6)"> </text><text xml:space="preserve" font-family="BebasNeueBold,Bebas Neue" font-weight="bold" font-size="71.8" fill="#000000" transform="matrix(1.00, 0.00, -0.00, -1.00, 262.0, 386.6)">a</text><text xml:space="preserve" font-family="BebasNeueBold,Bebas Neue" font-weight="bold" font-size="71.8" fill="#000000" transform="matrix(1.00, 0.00, -0.00, -1.00, 291.3, 386.6)">l</text><text xml:space="preserve" font-family="BebasNeueBold,Bebas Neue" font-weight="bold" font-size="71.8" fill="#000000" transform="matrix(1.00, 0.00, -0.00, -1.00, 315.6, 386.6)">g</text><text xml:space="preserve" font-family="BebasNeueBold,Bebas Neue" font-weight="bold" font-size="71.8" fill="#000000" transform="matrix(1.00, 0.00, -0.00, -1.00, 343.6, 386.6)">u</text><text xml:space="preserve" font-family="BebasNeueBold,Bebas Neue" font-weight="bold" font-size="71.8" fill="#000000" transform="matrix(1.00, 0.00, -0.00, -1.00, 372.2, 386.6)">m</text><text xml:space="preserve" font-family="BebasNeueBold,Bebas Neue" font-weight="bold" font-size="71.8" fill="#000000" transform="matrix(1.00, 0.00, -0.00, -1.00, 411.1, 386.6)">a</text><text xml:space="preserve" font-family="BebasNeueBold,Bebas Neue" font-weight="bold" font-size="71.8" fill="#000000" transform="matrix(1.00, 0.00, -0.00, -1.00, 440.3, 386.6)">s</text><text xml:space="preserve" font-family="BebasNeueBold,Bebas Neue" font-weight="bold" font-size="71.8" fill="#000000" transform="matrix(1.00, 0.00, -0.00, -1.00, 467.2, 386.6)"> </text><text xml:space="preserve" font-family="BebasNeueBold,Bebas Neue" font-weight="bold" font-size="71.8" fill="#000000" transform="matrix(1.00, 0.00, -0.00, -1.00, 478.3, 386.6)">d</text><text xml:space="preserve" font-family="BebasNeueBold,Bebas Neue" font-weight="bold" font-size="71.8" fill="#000000" transform="matrix(1.00, 0.00, -0.00, -1.00, 507.6, 386.6)">e</text><text xml:space="preserve" font-family="BebasNeueBold,Bebas Neue" font-weight="bold" font-size="71.8" fill="#000000" transform="matrix(1.00, 0.00, -0.00, -1.00, 534.0, 386.6)">m</text><text xml:space="preserve" font-family="BebasNeueBold,Bebas Neue" font-weight="bold" font-size="71.8" fill="#000000" transform="matrix(1.00, 0.00, -0.00, -1.00, 572.9, 386.6)">o</text><text xml:space="preserve" font-family="BebasNeueBold,Bebas Neue" font-weight="bold" font-size="71.8" fill="#000000" transform="matrix(1.00, 0.00, -0.00, -1.00, 601.3, 386.6)">n</text><text xml:space="preserve" font-family="BebasNeueBold,Bebas Neue" font-weight="bold" font-size="71.8" fill="#000000" transform="matrix(1.00, 0.00, -0.00, -1.00, 632.0, 386.6)">s</text><text xml:space="preserve" font-family="BebasNeueBold,Bebas Neue" font-weight="bold" font-size="71.8" fill="#000000" transform="matrix(1.00, 0.00, -0.00, -1.00, 658.9, 386.6)">t</text><text xml:space="preserve" font-family="BebasNeueBold,Bebas Neue" font-weight="bold" font-size="71.8" fill="#000000" transform="matrix(1.00, 0.00, -0.00, -1.00, 684.4, 386.6)">r</text><text xml:space="preserve" font-family="BebasNeueBold,Bebas Neue" font-weight="bold" font-size="71.8" fill="#000000" transform="matrix(1.00, 0.00, -0.00, -1.00, 713.3, 386.6)">a</text><text xml:space="preserve" font-family="BebasNeueBold,Bebas Neue" font-weight="bold" font-size="71.8" fill="#000000" transform="matrix(1.00, 0.00, -0.00, -1.00, 742.5, 386.6)">ç</text><text xml:space="preserve" font-family="BebasNeueBold,Bebas Neue" font-weight="bold" font-size="71.8" fill="#000000" transform="matrix(1.00, 0.00, -0.00, -1.00, 770.2, 386.6)">õ</text><text xml:space="preserve" font-family="BebasNeueBold,Bebas Neue" font-weight="bold" font-size="71.8" fill="#000000" transform="matrix(1.00, 0.00, -0.00, -1.00, 798.6, 386.6)">e</text><text xml:space="preserve" font-family="BebasNeueBold,Bebas Neue" font-weight="bold" font-size="71.8" fill="#000000" transform="matrix(1.00, 0.00, -0.00, -1.00, 825.0, 386.6)">s</text><text xml:space="preserve" font-family="BebasNeueBold,Bebas Neue" font-weight="bold" font-size="71.8" fill="#000000" transform="matrix(1.00, 0.00, -0.00, -1.00, 851.9, 386.6)"> </text><text xml:space="preserve" font-family="BebasNeueBold,Bebas Neue" font-weight="bold" font-size="71.8" fill="#000000" transform="matrix(1.00, 0.00, -0.00, -1.00, 863.0, 386.6)">d</text><text xml:space="preserve" font-family="BebasNeueBold,Bebas Neue" font-weight="bold" font-size="71.8" fill="#000000" transform="matrix(1.00, 0.00, -0.00, -1.00, 892.3, 386.6)">e</text><text xml:space="preserve" font-family="BebasNeueBold,Bebas Neue" font-weight="bold" font-size="71.8" fill="#000000" transform="matrix(1.00, 0.00, -0.00, -1.00, 918.8, 386.6)"> </text><text xml:space="preserve" font-family="BebasNeueBold,Bebas Neue" font-weight="bold" font-size="71.8" fill="#000000" transform="matrix(1.00, 0.00, -0.00, -1.00, 929.9, 386.6)">c</text><text xml:space="preserve" font-family="BebasNeueBold,Bebas Neue" font-weight="bold" font-size="71.8" fill="#000000" transform="matrix(1.00, 0.00, -0.00, -1.00, 957.6, 386.6)">o</text><text xml:space="preserve" font-family="BebasNeueBold,Bebas Neue" font-weight="bold" font-size="71.8" fill="#000000" transform="matrix(1.00, 0.00, -0.00, -1.00, 986.1, 386.6)">m</text><text xml:space="preserve" font-family="BebasNeueBold,Bebas Neue" font-weight="bold" font-size="71.8" fill="#000000" transform="matrix(1.00, 0.00, -0.00, -1.00, 1024.9, 386.6)">o</text><text xml:space="preserve" font-family="BebasNeueBold,Bebas Neue" font-weight="bold" font-size="71.8" fill="#000000" transform="matrix(1.00, 0.00, -0.00, -1.00, 1053.4, 386.6)"> </text><text xml:space="preserve" font-family="BebasNeueBold,Bebas Neue" font-weight="bold" font-size="71.8" fill="#000000" transform="matrix(1.00, 0.00, -0.00, -1.00, 1064.5, 386.6)">e</text><text xml:space="preserve" font-family="BebasNeueBold,Bebas Neue" font-weight="bold" font-size="71.8" fill="#000000" transform="matrix(1.00, 0.00, -0.00, -1.00, 1090.9, 386.6)">l</text><text xml:space="preserve" font-family="BebasNeueBold,Bebas Neue" font-weight="bold" font-size="71.8" fill="#000000" transform="matrix(1.00, 0.00, -0.00, -1.00, 1115.3, 386.6)">e</text><text xml:space="preserve" font-family="BebasNeueBold,Bebas Neue" font-weight="bold" font-size="71.8" fill="#000000" transform="matrix(1.00, 0.00, -0.00, -1.00, 1141.7, 386.6)"> </text><text xml:space="preserve" font-family="BebasNeueBold,Bebas Neue" font-weight="bold" font-size="71.8" fill="#000000" transform="matrix(1.00, 0.00, -0.00, -1.00, 1152.8, 386.6)">f</text><text xml:space="preserve" font-family="BebasNeueBold,Bebas Neue" font-weight="bold" font-size="71.8" fill="#000000" transform="matrix(1.00, 0.00, -0.00, -1.00, 1177.5, 386.6)">i</text><text xml:space="preserve" font-family="BebasNeueBold,Bebas Neue" font-weight="bold" font-size="71.8" fill="#000000" transform="matrix(1.00, 0.00, -0.00, -1.00, 1191.2, 386.6)">c</text><text xml:space="preserve" font-family="BebasNeueBold,Bebas Neue" font-weight="bold" font-size="71.8" fill="#000000" transform="matrix(1.00, 0.00, -0.00, -1.00, 1218.9, 386.6)">a</text><text xml:space="preserve" font-family="BebasNeueBold,Bebas Neue" font-weight="bold" font-size="71.8" fill="#000000" transform="matrix(1.00, 0.00, -0.00, -1.00, 1248.1, 386.6)">r</text><text xml:space="preserve" font-family="BebasNeueBold,Bebas Neue" font-weight="bold" font-size="71.8" fill="#000000" transform="matrix(1.00, 0.00, -0.00, -1.00, 1277.0, 386.6)">á</text><text xml:space="preserve" font-family="BebasNeueBold,Bebas Neue" font-weight="bold" font-size="71.8" fill="#000000" transform="matrix(1.00, 0.00, -0.00, -1.00, 1306.2, 386.6)"> </text><text xml:space="preserve" font-family="BebasNeueBold,Bebas Neue" font-weight="bold" font-size="71.8" fill="#000000" transform="matrix(1.00, 0.00, -0.00, -1.00, 1317.4, 386.6)">a</text><text xml:space="preserve" font-family="BebasNeueBold,Bebas Neue" font-weight="bold" font-size="71.8" fill="#000000" transform="matrix(1.00, 0.00, -0.00, -1.00, 1346.6, 386.6)">p</text><text xml:space="preserve" font-family="BebasNeueBold,Bebas Neue" font-weight="bold" font-size="71.8" fill="#000000" transform="matrix(1.00, 0.00, -0.00, -1.00, 1373.7, 386.6)">ó</text><text xml:space="preserve" font-family="BebasNeueBold,Bebas Neue" font-weight="bold" font-size="71.8" fill="#000000" transform="matrix(1.00, 0.00, -0.00, -1.00, 1402.1, 386.6)">s</text><text xml:space="preserve" font-family="BebasNeueBold,Bebas Neue" font-weight="bold" font-size="71.8" fill="#000000" transform="matrix(1.00, 0.00, -0.00, -1.00, 1429.0, 386.6)"> </text><text xml:space="preserve" font-family="BebasNeueBold,Bebas Neue" font-weight="bold" font-size="71.8" fill="#000000" transform="matrix(1.00, 0.00, -0.00, -1.00, 1440.1, 386.6)">c</text><text xml:space="preserve" font-family="BebasNeueBold,Bebas Neue" font-weight="bold" font-size="71.8" fill="#000000" transform="matrix(1.00, 0.00, -0.00, -1.00, 1467.8, 386.6)">o</text><text xml:space="preserve" font-family="BebasNeueBold,Bebas Neue" font-weight="bold" font-size="71.8" fill="#000000" transform="matrix(1.00, 0.00, -0.00, -1.00, 1496.3, 386.6)">n</text><text xml:space="preserve" font-family="BebasNeueBold,Bebas Neue" font-weight="bold" font-size="71.8" fill="#000000" transform="matrix(1.00, 0.00, -0.00, -1.00, 1526.9, 386.6)">c</text><text xml:space="preserve" font-family="BebasNeueBold,Bebas Neue" font-weight="bold" font-size="71.8" fill="#000000" transform="matrix(1.00, 0.00, -0.00, -1.00, 1554.7, 386.6)">l</text><text xml:space="preserve" font-family="BebasNeueBold,Bebas Neue" font-weight="bold" font-size="71.8" fill="#000000" transform="matrix(1.00, 0.00, -0.00, -1.00, 1579.0, 386.6)">u</text><text xml:space="preserve" font-family="BebasNeueBold,Bebas Neue" font-weight="bold" font-size="71.8" fill="#000000" transform="matrix(1.00, 0.00, -0.00, -1.00, 1607.6, 386.6)">í</text><text xml:space="preserve" font-family="BebasNeueBold,Bebas Neue" font-weight="bold" font-size="71.8" fill="#000000" transform="matrix(1.00, 0.00, -0.00, -1.00, 1621.2, 386.6)">d</text><text xml:space="preserve" font-family="BebasNeueBold,Bebas Neue" font-weight="bold" font-size="71.8" fill="#000000" transform="matrix(1.00, 0.00, -0.00, -1.00, 1650.5, 386.6)">o</text><text xml:space="preserve" font-family="BebasNeueBold,Bebas Neue" font-weight="bold" font-size="71.8" fill="#000000" transform="matrix(1.00, 0.00, -0.00, -1.00, 1678.3, 386.6)">.</text><text xml:space="preserve" font-family="Helvetica-Light,Helvetica" font-size="50.0" fill="#FEFFFF" transform="matrix(1.00, 0.00, -0.00, -1.00, 1815.4, 15.5)">V</text><text xml:space="preserve" font-family="Helvetica-Light,Helvetica" font-size="50.0" fill="#FEFFFF" transform="matrix(1.00, 0.00, -0.00, -1.00, 1845.9, 15.5)">O</text><text xml:space="preserve" font-family="Helvetica-Light,Helvetica" font-size="50.0" fill="#FEFFFF" transform="matrix(1.00, 0.00, -0.00, -1.00, 1884.8, 15.5)">L</text><image xlink:href="../../77EC243D-0C10-4669-A938-6F48CDBF5E28/assets/B7DCAFF8C216E8D1B6AEB270EB033B1A.png" width="3004.00" height="2254.00" transform="matrix(0.22, 0.00, -0.00, -0.22, 1262.0, 491.0)"></image></g></svg>