<?xml version="1.0" encoding="UTF-8" standalone="no"?><svg xmlns="http://www.w3.org/2000/svg" xmlns:xlink="http://www.w3.org/1999/xlink" clip-rule="evenodd" stroke-miterlimit="10" viewBox="0 0 1920 1080"><desc>SVG generated by Keynote</desc><defs></defs><g transform="matrix(1.00, 0.00, -0.00, -1.00, 0.0, 1080.0)"><path d="M 0.0 1080.0 L 1920.0 1080.0 L 1920.0 0.0 L 0.0 0.0 Z M 0.0 1080.0 " fill="#FEFFFE"></path><image xlink:href="../../0283BDD9-CC23-4847-98B5-11FE6197D94F/assets/94DC306AA7A6EC1C5A638AC6A186C298.png" width="1191.00" height="724.00" transform="matrix(1.63, 0.00, -0.00, -1.63, -8.0, 1086.0)"></image><text xml:space="preserve" font-family="Helvetica-Light,Helvetica" font-size="50.0" fill="#FEFFFF" transform="matrix(1.00, 0.00, -0.00, -1.00, 1815.4, 15.5)">V</text><text xml:space="preserve" font-family="Helvetica-Light,Helvetica" font-size="50.0" fill="#FEFFFF" transform="matrix(1.00, 0.00, -0.00, -1.00, 1845.9, 15.5)">O</text><text xml:space="preserve" font-family="Helvetica-Light,Helvetica" font-size="50.0" fill="#FEFFFF" transform="matrix(1.00, 0.00, -0.00, -1.00, 1884.8, 15.5)">L</text><image xlink:href="../../2D96A863-BA2A-43DD-A7AB-4FBD4760B74F/assets/B7DCAFF8C216E8D1B6AEB270EB033B1A.png" width="3004.00" height="2254.00" transform="matrix(0.22, 0.00, -0.00, -0.22, 1262.0, 491.0)"></image><image xlink:href="../../2D96A863-BA2A-43DD-A7AB-4FBD4760B74F/assets/EF4F1921F8A7E0EA75114FE84B8B8051.png" width="681.00" height="357.00" transform="matrix(0.22, 0.00, -0.00, -0.22, 10.0, 90.0)"></image><text xml:space="preserve" font-family="Helvetica-Bold,Helvetica" font-weight="bold" font-size="114.0" fill="#FEFFFE" transform="matrix(1.00, 0.00, -0.00, -1.00, 31.8, 965.9)">1</text><text xml:space="preserve" font-family="Helvetica-Bold,Helvetica" font-weight="bold" font-size="114.0" fill="#FEFFFE" transform="matrix(1.00, 0.00, -0.00, -1.00, 95.3, 965.9)">0</text><text xml:space="preserve" font-family="Helvetica-Bold,Helvetica" font-weight="bold" font-size="114.0" fill="#FEFFFE" transform="matrix(1.00, 0.00, -0.00, -1.00, 158.7, 965.9)"> </text><text xml:space="preserve" font-family="Helvetica-Bold,Helvetica" font-weight="bold" font-size="114.0" fill="#FEFFFE" transform="matrix(1.00, 0.00, -0.00, -1.00, 190.3, 965.9)">F</text><text xml:space="preserve" font-family="Helvetica-Bold,Helvetica" font-weight="bold" font-size="114.0" fill="#FEFFFE" transform="matrix(1.00, 0.00, -0.00, -1.00, 253.7, 965.9)">A</text><text xml:space="preserve" font-family="Helvetica-Bold,Helvetica" font-weight="bold" font-size="114.0" fill="#FEFFFE" transform="matrix(1.00, 0.00, -0.00, -1.00, 327.7, 965.9)">V</text><text xml:space="preserve" font-family="Helvetica-Bold,Helvetica" font-weight="bold" font-size="114.0" fill="#FEFFFE" transform="matrix(1.00, 0.00, -0.00, -1.00, 403.7, 965.9)">E</text><text xml:space="preserve" font-family="Helvetica-Bold,Helvetica" font-weight="bold" font-size="114.0" fill="#FEFFFE" transform="matrix(1.00, 0.00, -0.00, -1.00, 479.7, 965.9)">L</text><text xml:space="preserve" font-family="Helvetica-Bold,Helvetica" font-weight="bold" font-size="114.0" fill="#FEFFFE" transform="matrix(1.00, 0.00, -0.00, -1.00, 549.4, 965.9)">A</text><text xml:space="preserve" font-family="Helvetica-Bold,Helvetica" font-weight="bold" font-size="114.0" fill="#FEFFFE" transform="matrix(1.00, 0.00, -0.00, -1.00, 631.7, 965.9)">S</text><text xml:space="preserve" font-family="Helvetica-Bold,Helvetica" font-weight="bold" font-size="114.0" fill="#FEFFFE" transform="matrix(1.00, 0.00, -0.00, -1.00, 707.7, 965.9)"> </text><text xml:space="preserve" font-family="Helvetica-Bold,Helvetica" font-weight="bold" font-size="114.0" fill="#FEFFFE" transform="matrix(1.00, 0.00, -0.00, -1.00, 735.2, 965.9)">A</text><text xml:space="preserve" font-family="Helvetica-Bold,Helvetica" font-weight="bold" font-size="114.0" fill="#FEFFFE" transform="matrix(1.00, 0.00, -0.00, -1.00, 817.6, 965.9)">L</text><text xml:space="preserve" font-family="Helvetica-Bold,Helvetica" font-weight="bold" font-size="114.0" fill="#FEFFFE" transform="matrix(1.00, 0.00, -0.00, -1.00, 878.8, 965.9)">T</text><text xml:space="preserve" font-family="Helvetica-Bold,Helvetica" font-weight="bold" font-size="114.0" fill="#FEFFFE" transform="matrix(1.00, 0.00, -0.00, -1.00, 948.4, 965.9)">I</text><text xml:space="preserve" font-family="Helvetica-Bold,Helvetica" font-weight="bold" font-size="114.0" fill="#FEFFFE" transform="matrix(1.00, 0.00, -0.00, -1.00, 980.0, 965.9)">T</text><text xml:space="preserve" font-family="Helvetica-Bold,Helvetica" font-weight="bold" font-size="114.0" fill="#FEFFFE" transform="matrix(1.00, 0.00, -0.00, -1.00, 1049.7, 965.9)">U</text><text xml:space="preserve" font-family="Helvetica-Bold,Helvetica" font-weight="bold" font-size="114.0" fill="#FEFFFE" transform="matrix(1.00, 0.00, -0.00, -1.00, 1132.0, 965.9)">D</text><text xml:space="preserve" font-family="Helvetica-Bold,Helvetica" font-weight="bold" font-size="114.0" fill="#FEFFFE" transform="matrix(1.00, 0.00, -0.00, -1.00, 1214.4, 965.9)">E</text><text xml:space="preserve" font-family="Helvetica-Bold,Helvetica" font-weight="bold" font-size="114.0" fill="#FEFFFE" transform="matrix(1.00, 0.00, -0.00, -1.00, 1290.4, 965.9)"> </text><text xml:space="preserve" font-family="Helvetica-Bold,Helvetica" font-weight="bold" font-size="114.0" fill="#FEFFFE" transform="matrix(1.00, 0.00, -0.00, -1.00, 1322.0, 965.9)">&gt;</text><text xml:space="preserve" font-family="Helvetica-Bold,Helvetica" font-weight="bold" font-size="114.0" fill="#FEFFFE" transform="matrix(1.00, 0.00, -0.00, -1.00, 1388.6, 965.9)"> </text><text xml:space="preserve" font-family="Helvetica-Bold,Helvetica" font-weight="bold" font-size="114.0" fill="#FEFFFE" transform="matrix(1.00, 0.00, -0.00, -1.00, 1420.3, 965.9)">3</text><text xml:space="preserve" font-family="Helvetica-Bold,Helvetica" font-weight="bold" font-size="114.0" fill="#FEFFFE" transform="matrix(1.00, 0.00, -0.00, -1.00, 1483.7, 965.9)">0</text><text xml:space="preserve" font-family="Helvetica-Bold,Helvetica" font-weight="bold" font-size="114.0" fill="#FEFFFE" transform="matrix(1.00, 0.00, -0.00, -1.00, 1547.1, 965.9)">0</text><text xml:space="preserve" font-family="Helvetica-Bold,Helvetica" font-weight="bold" font-size="114.0" fill="#FEFFFE" transform="matrix(1.00, 0.00, -0.00, -1.00, 1610.5, 965.9)">M</text></g></svg>